<?xml version="1.0" encoding="utf-8"?>
<!-- Generator: Adobe Illustrator 23.0.4, SVG Export Plug-In . SVG Version: 6.00 Build 0)  -->
<svg version="1.1" id="Layer_1" xmlns="http://www.w3.org/2000/svg" xmlns:xlink="http://www.w3.org/1999/xlink" x="0px" y="0px"
	 viewBox="0 0 382.3 393.8" style="enable-background:new 0 0 382.3 393.8;" xml:space="preserve">
<style type="text/css">
	.st0{opacity:0.2;fill:#0B0780;enable-background:new    ;}
	.st1{fill:#B2B3B3;}
	.st2{fill:url(#SVGID_1_);}
	.st3{fill:#050A30;}
	.st4{fill:#7EA6DE;}
	.st5{fill:#303354;}
	.st6{fill:none;}
	.st7{fill:none;stroke:#FFFFFF;stroke-width:1.6667;stroke-miterlimit:10;}
	.st8{enable-background:new    ;}
	.st9{fill:#FFFFFF;}
	.st10{fill:#7CA4DC;}
</style>
<path id="Shadow" class="st0" d="M342.6,390.8H5.9c-2.2,0-4-1.8-4-4l3.3-15c0-2.2,1.8-4,4-4h329.8c2.2,0,4,1.8,4,4l3.3,15
	C346.6,389,344.7,390.8,342.6,390.8z"/>
<g id="Plain_background">
	<g id="Brainregionsback">
		<path class="st1" d="M346.2,340.5L48.7,356.3c-8.7,0-30.8-15.8-31.3-31.5V16.5c0-8.7,7-14,15.7-14h305c20.2-1,36.8,11.7,36.8,20.3
			l-12.8,302C361.9,333.5,354.9,340.5,346.2,340.5z"/>
		
			<linearGradient id="SVGID_1_" gradientUnits="userSpaceOnUse" x1="338.2067" y1="559.4596" x2="-284.9891" y2="1200.5249" gradientTransform="matrix(1 0 0 1 0 -512.11)">
			<stop  offset="0" style="stop-color:#E4E9F5"/>
			<stop  offset="0.9992" style="stop-color:#7EA6DE"/>
		</linearGradient>
		<path class="st2" d="M362.1,356.3H48.7c-8.7,0-15.7-7-15.7-15.7V27.3c0-8.7,7-15.7,15.7-15.7h313.3c8.7,0,15.7,7,15.7,15.7v313.3
			C377.7,349.3,370.7,356.3,362.1,356.3z"/>
		<path class="st3" d="M230.4,79.5v0.2c0,0.2,0,0.3,0,0.7c0,2.3-0.2,4.8-0.5,7.2c-0.2,2.2-0.3,4.2-0.5,6.3c0,0,0,0.3-0.2,0.8
			c-2,19.2-6.3,36.5-16,33c-0.3,0-0.8-0.2-1.2-0.5c-0.8-0.3-1.7-0.8-2.5-1.3c-1.3-0.7-2.5-1.3-3.3-1.8s-1.5-0.8-1.5-0.8
			c-3.3-2.2-6.3-4.5-8.8-6.8c-2.5-2.5-4.5-5-6.2-7.7c-3-5-4.2-10.5-4.2-16.8c0-0.3,0-0.8,0-1.3s0-1.2,0.2-1.8c0-0.3,0-0.7,0-1
			c0-0.7,0.2-1.3,0.2-1.8c0-0.2,0-0.5,0-0.7c0-0.7,0.2-1,0.2-1c1.8-12.8,7-33.3,10.7-46.8c3.2-11.8,18.7-15,26-5.2
			c0.8,1.2,1.7,2.3,2.3,3.5c0,0,0,0,0,0.2C225.7,37.6,229.1,58.5,230.4,79.5z"/>
		<path class="st3" d="M140.1,114.3l-0.2,0.8c-1.2,4.8-8,31.7-15,52.3c-5.2,15.5-10.3,49-13.2,75.7c-0.2,2.3-0.3,4.5-0.7,6.7
			c-0.8,9.5-1.3,17.8-1.3,23.7c0,4.7-1.8,7.7-5,9.7h-0.2l0,0c-5.7,3.5-15,3.3-23.3,2c-2.3-0.3-4.7-1-6.7-2
			c-7.8-3.5-13.8-10.7-15-19.3c-5-34.5,10.7-73.2,23.5-92.5C98.4,148.5,140.1,114.3,140.1,114.3z"/>
		<path class="st4" d="M171.9,321.3c-81.7,10.2-99.5-39.5-99.5-39.5l2.5,1.2c2.2,1,4.3,1.7,6.7,2c8.3,1.3,17.7,1.5,23.3-2l0,0
			l35.2,5.5c0.5,0.8,8.5,23.3,26.7,30.8C167.1,319.6,171.7,321.3,171.9,321.3z"/>
		<path class="st3" d="M195.9,116.1c-1.8-0.8-3.5-1.5-5.2-1.8c-5.5-1.3-9.8,0.3-12.3,6.5c-0.3,0.7-0.3,1.3-0.2,2.2
			c1.8,8.5,13.8,68.8-0.2,89.8c-7.5,11.3-19,26.7-27.5,40.8l0,0c-0.8,1.7-1.8,3.2-2.7,4.7h-3.8c-5-0.2-9.8-0.8-14.7-2h-0.2
			c-1.2-0.3-2.5-0.7-3.7-1l-7.2-2.5l-7.2-2.8l0,0c0.2-1.7,0.3-3.5,0.5-5.3c0.8-7.7,1.8-16,3-24.3c0.3-2.3,0.7-4.7,1-7
			c2-13.3,4.3-26.2,6.7-36c0.2-1,0.5-2,0.8-3c0.7-2.5,1.2-4.7,1.8-6.7c6.8-20.7,13.7-47.5,15-52.3l0.2-0.8c0,0,15.8-40,46.2-30.3
			c0,0,0,0.3-0.2,1c0,0.8-0.2,2.2-0.3,3.5c-0.2,0.7-0.2,1.3-0.2,1.8s0,1,0,1.3c0,6.3,1.3,11.8,4.2,16.8
			C191.4,111.1,193.4,113.6,195.9,116.1z"/>
		<path class="st5" d="M328.9,170.3c-15.2-60.7-56.8-120.2-96.7-132c-0.8-1.2-1.5-2.3-2.3-3.5c-7.3-9.8-22.8-6.7-26,5.2
			c-3.7,13.5-8.8,34.2-10.7,46.8c-30.3-9.5-46.2,30.3-46.2,30.3l-0.2,0.8l0,0c-4,3.3-42.2,35-56.5,56.5c-13,19.3-28.5,58-23.5,92.5
			c1.2,8,6.2,14.5,13,18.3l-0.5-0.2c0,0,17.7,49.2,99.5,39l0,0c5.7,2,12.7,3.7,21.2,5c43,7.2,52.2-6,53-20.2c7.7,2.3,20,5.2,30.5,4
			c0,0.3,45.3,23.8,45.3,1.2C328.9,291.6,344.1,231,328.9,170.3z M194.2,117c-0.2,0-0.5,0-0.7,0C193.7,117,193.9,117,194.2,117z
			 M195.9,117c-0.3,0-0.5,0-0.8,0C195.4,117,195.7,117,195.9,117z M192.9,90.8c0,0.2,0,0.3,0,0.7C192.9,91.3,192.9,91,192.9,90.8z
			 M192.6,117.1c-0.2,0-0.5,0.2-0.7,0.2C192.1,117.1,192.4,117.1,192.6,117.1z M191.1,117.5c-0.3,0.2-0.5,0.3-0.7,0.3
			C190.6,117.8,190.7,117.6,191.1,117.5z M189.6,118.1c-0.2,0.2-0.3,0.3-0.7,0.5C189.2,118.5,189.4,118.3,189.6,118.1z M188.4,119.1
			c-0.2,0.2-0.3,0.5-0.5,0.7C188.1,119.6,188.2,119.5,188.4,119.1z M187.2,120.5c-0.2,0.2-0.3,0.5-0.5,0.8
			C186.9,121.1,187.1,120.8,187.2,120.5z M186.2,122.1L186.2,122.1c-0.8,1.5-1,3.3-0.7,5c0,0.3,0.2,0.5,0.2,0.8
			c0-0.3-0.2-0.7-0.2-0.8C185.1,125.5,185.4,123.6,186.2,122.1z M154.7,261.3h-0.8c-9.5,0-18.8-1.8-27.7-5.3l-7.8-3.2l0,0l7,2.8
			l7.2,2.5c1.2,0.3,2.5,0.7,3.7,1h0.2c4.8,1.2,9.7,1.8,14.7,2L154.7,261.3z M150.2,298.1c1,2,2.3,4.3,4,6.7c0.5,0.8,1,1.5,1.5,2.2
			c1.2,1.7,2.5,3.3,4.2,5c0.5,0.5,1,1.2,1.7,1.7C156.1,308.6,152.4,302.6,150.2,298.1z M162.7,315.1c0.7,0.7,1.3,1.2,2,1.7
			C164.1,316.3,163.4,315.8,162.7,315.1z M164.9,317.1c0.5,0.5,1.2,0.8,1.7,1.3C165.9,318,165.4,317.5,164.9,317.1z M171.1,321.1
			c0.8,0.5,1.8,0.8,2.8,1.3l0,0c0,0,0.2,0.2,0.5,0.2c-0.2-0.2-0.5-0.2-0.5-0.2C172.9,322.1,171.9,321.6,171.1,321.1z M168.7,320
			c0.3,0.2,0.5,0.3,0.8,0.5C169.2,320.1,169.1,320.1,168.7,320z M178.7,324.3L178.7,324.3L178.7,324.3L178.7,324.3z M186.2,213.8
			c-0.3,0.7-0.8,1.3-1.2,2C185.4,215.1,185.9,214.5,186.2,213.8z M191.7,184.1c0-0.8,0-1.5,0-2.3
			C191.7,182.6,191.7,183.5,191.7,184.1z M186.4,213.5c0.3-0.7,0.7-1.2,0.8-1.8C187.1,212.3,186.7,212.8,186.4,213.5z M187.7,210.5
			c0.2-0.3,0.3-0.8,0.5-1.2C188.1,209.6,187.9,210,187.7,210.5z M188.7,207.6c0.2-0.3,0.2-0.7,0.3-1
			C188.9,207,188.9,207.3,188.7,207.6z M189.4,205.1c0.2-0.3,0.2-0.7,0.3-1.2C189.6,204.3,189.6,204.6,189.4,205.1z M190.1,202.5
			c0.2-0.5,0.2-1,0.3-1.5C190.2,201.6,190.1,202.1,190.1,202.5z M190.6,199.1c0-0.3,0.2-0.7,0.2-1
			C190.7,198.5,190.7,198.8,190.6,199.1z M191.1,196.1c0-0.3,0.2-0.8,0.2-1.2C191.1,195.5,191.1,195.8,191.1,196.1z M191.6,189.5
			c0-0.3,0-0.5,0-0.8C191.6,189,191.6,189.1,191.6,189.5z M191.7,187.1c0-0.7,0-1.2,0-1.8C191.7,186,191.7,186.6,191.7,187.1z
			 M185.7,128.3c0.2,0.8,0.3,1.8,0.5,2.8C186.1,130.1,185.9,129.1,185.7,128.3z M186.4,131.5c0.2,1,0.3,2.2,0.7,3.3
			C186.7,133.6,186.6,132.5,186.4,131.5z M187.1,135.6c0,0.3,0.2,0.7,0.2,0.8C187.2,136.1,187.1,135.8,187.1,135.6z M187.6,138
			c0,0.5,0.2,1,0.3,1.5C187.7,139,187.6,138.5,187.6,138z M187.9,140.5c0,0.3,0.2,0.8,0.2,1.3C188.1,141.3,187.9,140.8,187.9,140.5z
			 M188.4,143.1c0,0.2,0,0.5,0.2,0.7C188.4,143.5,188.4,143.3,188.4,143.1z M188.7,145.8c0,0.2,0,0.5,0.2,0.7
			C188.9,146.3,188.7,146.1,188.7,145.8z M189.2,148.8c0,0.5,0.2,1,0.2,1.5C189.2,149.8,189.2,149.3,189.2,148.8z M189.6,151.8
			c0,0.5,0.2,1,0.2,1.3C189.7,152.8,189.6,152.3,189.6,151.8z M189.9,155c0,0.5,0.2,1,0.2,1.5C190.1,156,190.1,155.5,189.9,155z
			 M190.4,158.1c0,0.5,0.2,0.8,0.2,1.3C190.4,159.1,190.4,158.6,190.4,158.1z M191.2,168.3c0,0.3,0,0.7,0,1.2
			C191.2,169,191.2,168.6,191.2,168.3z M191.4,171.6c0,0.3,0,0.5,0,0.8C191.4,172.3,191.4,172,191.4,171.6z M191.6,175.1
			c0,0.3,0,0.7,0,1C191.6,175.8,191.6,175.5,191.6,175.1z M191.7,178.5c0,0.7,0,1.2,0,1.8C191.7,179.8,191.7,179.1,191.7,178.5z
			 M214.7,127.8c0.2,0.2,0.5,0.3,0.7,0.3C215.2,128,214.9,127.8,214.7,127.8z"/>
	</g>
</g>
<g id="Fill">
	<path id="S1Trfill" class="st6" d="M178.9,324.5c-81.7,10.2-99.5-39-99.5-39l2.3,0.7c2.2,1,4.3,1.7,6.7,2c8.3,1.3,17.7,1.5,23.3-2
		l0,0l35.2,5.5c0.5,0.8,8.5,23.3,26.7,30.8C174.1,322.6,178.7,324.5,178.9,324.5z"/>
	<g id="S1FLfilll">
		<path class="st6" d="M237.4,82.6v0.2c0,0.2,0,0.3,0,0.7c0,2.3-0.2,4.8-0.5,7.2c-0.2,2.2-0.3,4.2-0.5,6.3c0,0,0,0.3-0.2,0.8
			c-2,19.2-6.3,36.5-16,33c-0.3,0-0.8-0.2-1.2-0.5c-0.8-0.3-1.7-0.8-2.5-1.3c-1.3-0.7-2.5-1.3-3.3-1.8s-1.5-0.8-1.5-0.8
			c-3.3-2.2-6.3-4.5-8.8-6.8c-2.5-2.5-4.5-5-6.2-7.7c-3-5-4.2-10.5-4.2-16.8c0-0.3,0-0.8,0-1.3s0-1.2,0.2-1.8c0-0.3,0-0.7,0-1
			c0-0.7,0.2-1.3,0.2-1.8c0-0.2,0-0.5,0-0.7c0-0.7,0.2-1,0.2-1c1.8-12.8,7-33.3,10.7-46.8c3.2-11.8,18.7-15,26-5.2
			c0.8,1.2,1.7,2.3,2.3,3.5c0,0,0,0,0,0.2C232.7,40.6,236.1,61.5,237.4,82.6z"/>
		<path class="st6" d="M147.1,291.6l-35.2-5.5c3-1.8,5-5,5-9.7c0-5.8,0.5-14.2,1.3-23.7l8,3.2c8.8,3.5,18.2,5.3,27.7,5.3h0.8
			C147.9,273.8,143.7,284.8,147.1,291.6z"/>
	</g>
	<path id="S1Shfill" class="st6" d="M202.9,119.1c-1.8-0.8-3.5-1.5-5.2-1.8c-5-1.2-9,0-11.5,4.8c-0.8,1.5-1,3.2-0.7,5
		c2.3,11.8,13.2,68.5-0.5,88.8c-7.5,11.3-19,26.7-27.5,40.8l0,0c-0.8,1.7-1.8,3.2-2.7,4.7h-3.8c-5-0.2-9.8-0.8-14.7-2h-0.2
		c-1.2-0.3-2.5-0.7-3.7-1l-7.2-2.5l-7.2-2.8l0,0c0.2-1.7,0.3-3.5,0.5-5.3c0.8-7.7,1.8-16,3-24.3c0.3-2.3,0.7-4.7,1-7
		c2-13.3,4.3-26.2,6.7-36c0.2-1,0.5-2,0.8-3c0.7-2.5,1.2-4.7,1.8-6.7c6.8-20.7,13.7-47.5,15-52.3l0.2-0.8c0,0,15.8-40,46.2-30.3
		c0,0,0,0.3-0.2,1c0,0.8-0.2,2.2-0.3,3.5c-0.2,0.7-0.2,1.3-0.2,1.8s0,1,0,1.3c0,6.3,1.3,11.8,4.2,16.8
		C198.4,114.3,200.4,116.8,202.9,119.1z"/>
	<path id="S1HLfill" class="st6" d="M147.2,117.8l-0.2,0.8c-1.2,4.8-8,31.7-15,52.3c-5.2,15.5-10.3,49-13.2,75.7
		c-0.2,2.3-0.3,4.5-0.7,6.7c-0.8,9.5-1.3,17.8-1.3,23.7c0,4.7-1.8,7.7-5,9.7h-0.2l0,0c-5.7,3.5-15,3.3-23.3,2c-2.3-0.3-4.7-1-6.7-2
		c-7.8-3.5-13.8-10.7-15-19.3c-5-34.5,10.7-73.2,23.5-92.5C105.6,152,147.2,117.8,147.2,117.8z"/>
</g>
<g id="Lines__x2B__text">
	<g id="Brainregionslinestext">
		<path class="st7" d="M260.7,246.1c-7.5,22.7-7.5,45.5-7.5,60.7c0,0.8,0,1.7,0,2.5c-0.8,14.2-10,27.5-53,20.2
			c-8.5-1.5-15.5-3.2-21.2-5l0,0c0,0,0,0-0.2,0c0,0,0,0-0.2,0c-0.5-0.2-0.8-0.2-1.2-0.5c-1.3-0.5-3.3-1.3-3.5-1.3l0,0
			c-2.2-1-4.3-2-6.2-3.3c-2-1.5-3.8-3-5.5-4.5c-0.8-0.8-1.7-1.7-2.3-2.5c-1.5-1.7-2.8-3.3-4.2-5c-0.5-0.7-1-1.5-1.5-2.2
			c-4.5-6.8-6.7-12.8-7-13.3c-3.3-6.7,0.8-17.8,7.7-30.3c0.8-1.5,1.7-3,2.7-4.7l0,0c8.7-14.2,20-29.3,27.5-40.8
			c13.5-20.3,2.8-77,0.5-88.7c-0.3-1.7-0.2-3.5,0.7-5c2.5-4.8,6.5-6,11.5-4.8c1.7,0.3,3.3,1,5.2,1.8c2.5,2.3,5.3,4.7,8.8,6.8
			c0,0,0.7,0.3,1.5,0.8c1,0.7,2.2,1.3,3.3,1.8c0.8,0.5,1.7,1,2.5,1.3c8.8,7.3,18.3,16.7,26.7,25C268.4,178,268.4,223.5,260.7,246.1z
			"/>
		<path class="st7" d="M237.4,82.6v0.2c0,0.2,0,0.3,0,0.7c0,2.3-0.2,4.8-0.5,7.2c-0.2,2.2-0.3,4.2-0.5,6.3c0,0,0,0.3-0.2,0.8
			c-2,19.2-6.3,36.5-16,33c-0.3,0-0.8-0.2-1.2-0.5c-0.8-0.3-1.7-0.8-2.5-1.3c-1.3-0.7-2.5-1.3-3.3-1.8s-1.5-0.8-1.5-0.8
			c-3.3-2.2-6.3-4.5-8.8-6.8c-2.5-2.5-4.5-5-6.2-7.7c-3-5-4.2-10.5-4.2-16.8c0-0.3,0-0.8,0-1.3s0-1.2,0.2-1.8c0-0.3,0-0.7,0-1
			c0-0.7,0.2-1.3,0.2-1.8c0-0.2,0-0.5,0-0.7c0-0.7,0.2-1,0.2-1c1.8-12.8,7-33.3,10.7-46.8c3.2-11.8,18.7-15,26-5.2
			c0.8,1.2,1.7,2.3,2.3,3.5c0,0,0,0,0,0.2C232.7,40.6,236.1,61.5,237.4,82.6z"/>
		<path class="st7" d="M178.9,324.5c-81.7,10.2-99.5-39-99.5-39l2.3,0.7c2.2,1,4.3,1.7,6.7,2c8.3,1.3,17.7,1.5,23.3-2l0,0l35.2,5.5
			c0.5,0.8,8.5,23.3,26.7,30.8C174.1,322.6,178.7,324.5,178.9,324.5z"/>
		<path class="st7" d="M147.1,291.6l-35.2-5.5c3-1.8,5-5,5-9.7c0-5.8,0.5-14.2,1.3-23.7l8,3.2c8.8,3.5,18.2,5.3,27.7,5.3h0.8
			C147.9,273.8,143.7,284.8,147.1,291.6z"/>
		<path class="st7" d="M202.9,119.1c-1.8-0.8-3.5-1.5-5.2-1.8c-5-1.2-9,0-11.5,4.8c-0.8,1.5-1,3.2-0.7,5
			c2.3,11.8,13.2,68.5-0.5,88.8c-7.5,11.3-19,26.7-27.5,40.8l0,0c-0.8,1.7-1.8,3.2-2.7,4.7h-3.8c-5-0.2-9.8-0.8-14.7-2h-0.2
			c-1.2-0.3-2.5-0.7-3.7-1l-7.2-2.5l-7.2-2.8l0,0c0.2-1.7,0.3-3.5,0.5-5.3c0.8-7.7,1.8-16,3-24.3c0.3-2.3,0.7-4.7,1-7
			c2-13.3,4.3-26.2,6.7-36c0.2-1,0.5-2,0.8-3c0.7-2.5,1.2-4.7,1.8-6.7c6.8-20.7,13.7-47.5,15-52.3l0.2-0.8c0,0,15.8-40,46.2-30.3
			c0,0,0,0.3-0.2,1c0,0.8-0.2,2.2-0.3,3.5c-0.2,0.7-0.2,1.3-0.2,1.8s0,1,0,1.3c0,6.3,1.3,11.8,4.2,16.8
			C198.4,114.3,200.4,116.8,202.9,119.1z"/>
		<path class="st7" d="M328.9,314.3c0,22.7-45.3-0.8-45.3-1.2c7.5-45,15-82.7,7.5-142.8c-0.5-3.8-1.2-7.5-1.8-10.8
			c-9.3-40.2-39.7-57.2-52.7-62.7h-0.2c0.2-2.2,0.3-4.2,0.5-6.3c0.2-2.3,0.3-4.8,0.5-7.2c0-0.2,0-0.3,0-0.7l0,0
			c-1.3-21-4.7-41.8-5-44.2v-0.2c39.8,12,81.5,71.5,96.7,132C344.1,231,328.9,291.6,328.9,314.3z"/>
		<path class="st7" d="M283.7,313.1c-10.7,1.2-22.8-1.7-30.5-4c0-0.8,0-1.7,0-2.5c0-15.2,0-37.8,7.5-60.7c7.5-22.7,7.5-68.2-15.2-91
			c-8.3-8.3-17.7-17.7-26.7-25c0.3,0.2,0.8,0.3,1.2,0.5c9.7,3.5,14-13.8,16-33c0-0.5,0.2-0.8,0.2-0.8s0,0,0.2,0
			c13,5.5,43.3,22.5,52.7,62.7c0.8,3.3,1.5,7,1.8,10.8C298.6,230.5,291.2,268.3,283.7,313.1z"/>
		<g class="st8">
			<path class="st9" d="M121.2,306.8c0,0.7-0.2,1.2-0.5,1.8c-0.3,0.5-0.8,1-1.5,1.2s-1.3,0.5-2.3,0.5c-1,0-2-0.2-2.7-0.7
				c-0.5-0.3-0.8-0.7-1.2-1.2c-0.3-0.5-0.5-1-0.5-1.3c0-0.3,0.2-0.5,0.3-0.7c0.2-0.2,0.3-0.3,0.7-0.3c0.2,0,0.5,0,0.5,0.2
				c0.2,0.2,0.3,0.3,0.3,0.7c0.2,0.3,0.3,0.7,0.5,0.8c0.2,0.2,0.3,0.5,0.7,0.5c0.3,0.2,0.7,0.2,1.2,0.2c0.7,0,1.2-0.2,1.5-0.5
				c0.3-0.3,0.7-0.7,0.7-1.2c0-0.3-0.2-0.7-0.3-0.8c-0.2-0.2-0.5-0.3-0.8-0.5c-0.3-0.2-0.8-0.2-1.3-0.3c-0.8-0.2-1.5-0.3-2-0.7
				c-0.5-0.2-1-0.5-1.2-1c-0.3-0.5-0.5-1-0.5-1.5c0-0.7,0.2-1.2,0.5-1.5c0.3-0.3,0.8-0.8,1.3-1c0.7-0.2,1.3-0.3,2.2-0.3
				c0.7,0,1.2,0,1.7,0.2s0.8,0.3,1.2,0.7c0.3,0.3,0.5,0.5,0.7,0.8c0.2,0.3,0.2,0.7,0.2,0.8c0,0.3-0.2,0.5-0.3,0.7
				c-0.2,0.2-0.3,0.3-0.7,0.3c-0.2,0-0.5,0-0.5-0.2c-0.2-0.2-0.3-0.3-0.5-0.7c-0.2-0.3-0.5-0.7-0.7-1c-0.3-0.2-0.7-0.3-1.3-0.3
				c-0.5,0-1,0.2-1.3,0.3c-0.3,0.2-0.5,0.5-0.5,0.8c0,0.2,0,0.3,0.2,0.5c0.2,0.2,0.3,0.3,0.5,0.3c0.2,0,0.3,0.2,0.7,0.3
				c0.3,0.2,0.5,0.2,1,0.3c0.7,0.2,1.2,0.3,1.7,0.5c0.5,0.2,0.8,0.3,1.3,0.7c0.3,0.2,0.7,0.5,0.8,1
				C121.1,305.8,121.2,306.1,121.2,306.8z"/>
			<path class="st9" d="M126.2,309v-6.7c-1.2,1-2,1.5-2.5,1.5c-0.2,0-0.3,0-0.5-0.2c-0.2-0.2-0.2-0.3-0.2-0.5c0-0.2,0-0.5,0.2-0.5
				c0.2,0,0.5-0.3,0.8-0.5c0.7-0.3,1-0.5,1.5-0.8c0.3-0.3,0.7-0.7,1-1c0.3-0.3,0.5-0.7,0.5-0.7s0.2-0.2,0.5-0.2
				c0.3,0,0.5,0.2,0.7,0.3s0.2,0.5,0.2,0.8v8.3c0,1-0.3,1.5-1,1.5c-0.3,0-0.5-0.2-0.7-0.3C126.6,310,126.2,309.3,126.2,309z"/>
			<path class="st9" d="M138.9,301h-2.3v7.8c0,0.5-0.2,0.8-0.3,1c-0.2,0.2-0.5,0.3-0.8,0.3s-0.7-0.2-0.8-0.3c-0.2-0.2-0.3-0.5-0.3-1
				V301h-2.2c-0.3,0-0.7,0-0.8-0.2c-0.2-0.2-0.3-0.3-0.3-0.7c0-0.3,0.2-0.5,0.3-0.7c0.2-0.2,0.5-0.2,0.8-0.2h6.8
				c0.3,0,0.7,0,0.8,0.2c0.2,0.2,0.3,0.3,0.3,0.7c0,0.3-0.2,0.5-0.3,0.7C139.6,301,139.4,301,138.9,301z"/>
			<path class="st9" d="M142.7,307.3v1.7c0,0.3-0.2,0.7-0.3,0.8c-0.2,0.2-0.5,0.3-0.7,0.3c-0.3,0-0.5-0.2-0.7-0.3s-0.3-0.5-0.3-0.8
				v-5.5c0-0.8,0.3-1.3,1-1.3c0.3,0,0.5,0.2,0.7,0.3c0.2,0.2,0.2,0.5,0.2,1c0.2-0.3,0.5-0.7,0.7-1c0.3-0.2,0.7-0.3,1-0.3
				c0.3,0,0.8,0.2,1.2,0.3c0.3,0.2,0.7,0.5,0.7,0.8c0,0.2-0.2,0.5-0.3,0.7c-0.2,0.2-0.3,0.2-0.5,0.2c0,0-0.3,0-0.5-0.2
				c-0.3-0.2-0.5-0.2-0.7-0.2c-0.3,0-0.5,0-0.7,0.2c-0.2,0.2-0.3,0.3-0.5,0.7c-0.2,0.3-0.2,0.7-0.2,1
				C142.7,306.1,142.7,306.6,142.7,307.3z"/>
		</g>
		<path class="st7" d="M147.2,117.8l-0.2,0.8c-1.2,4.8-8,31.7-15,52.3c-5.2,15.5-10.3,49-13.2,75.7c-0.2,2.3-0.3,4.5-0.7,6.7
			c-0.8,9.5-1.3,17.8-1.3,23.7c0,4.7-1.8,7.7-5,9.7h-0.2l0,0c-5.7,3.5-15,3.3-23.3,2c-2.3-0.3-4.7-1-6.7-2
			c-7.8-3.5-13.8-10.7-15-19.3c-5-34.5,10.7-73.2,23.5-92.5C105.6,152,147.2,117.8,147.2,117.8z"/>
		<g>
			<g class="st8">
				<path class="st9" d="M150.1,190.1c0,0.7-0.2,1.2-0.5,1.8c-0.3,0.5-0.8,1-1.5,1.2s-1.3,0.5-2.3,0.5c-1,0-2-0.2-2.7-0.7
					c-0.5-0.3-0.8-0.7-1.2-1.2c-0.3-0.5-0.5-1-0.5-1.3c0-0.3,0.2-0.5,0.3-0.7c0.2-0.2,0.3-0.3,0.7-0.3c0.2,0,0.5,0,0.5,0.2
					c0.2,0.2,0.3,0.3,0.3,0.7c0.2,0.3,0.3,0.7,0.5,0.8s0.3,0.5,0.7,0.5c0.3,0.2,0.7,0.2,1.2,0.2c0.7,0,1.2-0.2,1.5-0.5
					c0.3-0.3,0.7-0.7,0.7-1.2c0-0.3-0.2-0.7-0.3-0.8c-0.2-0.2-0.5-0.3-0.8-0.5c-0.3-0.2-0.8-0.2-1.3-0.3c-0.8-0.2-1.5-0.3-2-0.7
					c-0.5-0.2-1-0.5-1.2-1c-0.3-0.5-0.5-1-0.5-1.5c0-0.7,0.2-1.2,0.5-1.5c0.3-0.3,0.8-0.8,1.3-1c0.7-0.2,1.3-0.3,2.2-0.3
					c0.7,0,1.2,0,1.7,0.2c0.5,0.2,0.8,0.3,1.2,0.7c0.3,0.3,0.5,0.5,0.7,0.8c0.2,0.3,0.2,0.7,0.2,0.8c0,0.3-0.2,0.5-0.3,0.7
					c-0.2,0.2-0.3,0.3-0.7,0.3c-0.2,0-0.5,0-0.5-0.2c-0.2-0.2-0.3-0.3-0.5-0.7c-0.2-0.3-0.5-0.7-0.7-1c-0.3-0.2-0.7-0.3-1.3-0.3
					c-0.5,0-1,0.2-1.3,0.3s-0.5,0.5-0.5,0.8c0,0.2,0,0.3,0.2,0.5c0.2,0.2,0.3,0.3,0.5,0.3c0.2,0,0.3,0.2,0.7,0.3s0.5,0.2,1,0.3
					c0.7,0.2,1.2,0.3,1.7,0.5c0.5,0.2,0.8,0.3,1.3,0.7c0.3,0.2,0.7,0.5,0.8,1C149.9,189.1,150.1,189.5,150.1,190.1z"/>
				<path class="st9" d="M154.9,192.3v-6.7c-1.2,1-2,1.5-2.5,1.5c-0.2,0-0.3,0-0.5-0.2s-0.2-0.3-0.2-0.5c0-0.2,0-0.5,0.2-0.5
					s0.5-0.3,0.8-0.5c0.7-0.3,1-0.5,1.5-0.8c0.3-0.3,0.7-0.7,1-1c0.3-0.3,0.5-0.7,0.5-0.7s0.2-0.2,0.5-0.2s0.5,0.2,0.7,0.3
					c0.2,0.2,0.2,0.5,0.2,0.8v8.3c0,1-0.3,1.5-1,1.5c-0.3,0-0.5-0.2-0.7-0.3S154.9,192.6,154.9,192.3z"/>
				<path class="st9" d="M168.9,190.1c0,0.7-0.2,1.2-0.5,1.8c-0.3,0.5-0.8,1-1.5,1.2c-0.7,0.2-1.3,0.5-2.3,0.5c-1,0-2-0.2-2.7-0.7
					c-0.5-0.3-0.8-0.7-1.2-1.2c-0.3-0.5-0.5-1-0.5-1.3c0-0.3,0.2-0.5,0.3-0.7c0.2-0.2,0.3-0.3,0.7-0.3c0.2,0,0.5,0,0.5,0.2
					c0.2,0.2,0.3,0.3,0.3,0.7c0.2,0.3,0.3,0.7,0.5,0.8c0.2,0.2,0.3,0.5,0.7,0.5c0.3,0.2,0.7,0.2,1.2,0.2c0.7,0,1.2-0.2,1.5-0.5
					c0.3-0.3,0.7-0.7,0.7-1.2c0-0.3-0.2-0.7-0.3-0.8c-0.2-0.2-0.5-0.3-0.8-0.5c-0.3-0.2-0.8-0.2-1.3-0.3c-0.8-0.2-1.5-0.3-2-0.7
					c-0.5-0.2-1-0.5-1.2-1c-0.3-0.5-0.5-1-0.5-1.5c0-0.7,0.2-1.2,0.5-1.5c0.3-0.3,0.8-0.8,1.3-1c0.7-0.2,1.3-0.3,2.2-0.3
					c0.7,0,1.2,0,1.7,0.2c0.5,0.2,0.8,0.3,1.2,0.7c0.3,0.3,0.5,0.5,0.7,0.8c0.2,0.3,0.2,0.7,0.2,0.8c0,0.3-0.2,0.5-0.3,0.7
					c-0.2,0.2-0.3,0.3-0.7,0.3c-0.2,0-0.5,0-0.5-0.2c-0.2-0.2-0.3-0.3-0.5-0.7c-0.2-0.3-0.5-0.7-0.7-1c-0.3-0.2-0.7-0.3-1.3-0.3
					c-0.5,0-1,0.2-1.3,0.3c-0.3,0.2-0.5,0.5-0.5,0.8c0,0.2,0,0.3,0.2,0.5c0.2,0.2,0.3,0.3,0.5,0.3c0.2,0,0.3,0.2,0.7,0.3
					s0.5,0.2,1,0.3c0.7,0.2,1.2,0.3,1.7,0.5c0.5,0.2,0.8,0.3,1.3,0.7c0.3,0.2,0.7,0.5,0.8,1C168.9,189.1,168.9,189.5,168.9,190.1z"
					/>
				<path class="st9" d="M172.6,183.6v3c0.3-0.3,0.5-0.5,0.7-0.7c0.2-0.2,0.5-0.3,0.8-0.3c0.3-0.2,0.7-0.2,1-0.2
					c0.5,0,1,0.2,1.3,0.3c0.3,0.2,0.7,0.5,1,1c0.2,0.2,0.2,0.5,0.3,0.8c0,0.3,0,0.7,0,1v3.8c0,0.3-0.2,0.7-0.3,0.8s-0.5,0.3-0.7,0.3
					c-0.7,0-1-0.3-1-1.2v-3.3c0-0.7-0.2-1.2-0.3-1.5c-0.2-0.3-0.5-0.5-1.2-0.5c-0.3,0-0.7,0.2-1,0.3c-0.3,0.2-0.5,0.5-0.7,0.8
					c-0.2,0.3-0.2,0.8-0.2,1.7v2.7c0,0.3-0.2,0.7-0.3,0.8c-0.2,0.2-0.5,0.3-0.7,0.3c-0.7,0-1-0.3-1-1.2V184c0-0.3,0.2-0.7,0.3-0.8
					c0.2-0.2,0.3-0.3,0.7-0.3s0.5,0.2,0.7,0.3C172.6,182.8,172.6,183.1,172.6,183.6z"/>
			</g>
		</g>
		<g>
			<g class="st8">
				<path class="st9" d="M205.9,91.1c0,0.7-0.2,1.2-0.5,1.8c-0.3,0.5-0.8,1-1.5,1.2c-0.7,0.2-1.3,0.5-2.3,0.5c-1,0-2-0.2-2.7-0.7
					c-0.5-0.3-0.8-0.7-1.2-1.2s-0.5-1-0.5-1.3c0-0.3,0.2-0.5,0.3-0.7c0.2-0.2,0.3-0.3,0.7-0.3c0.2,0,0.5,0,0.5,0.2
					c0.2,0.2,0.3,0.3,0.3,0.7c0.2,0.3,0.3,0.7,0.5,0.8c0.2,0.2,0.3,0.5,0.7,0.5c0.3,0.2,0.7,0.2,1.2,0.2c0.7,0,1.2-0.2,1.5-0.5
					c0.3-0.3,0.7-0.7,0.7-1.2c0-0.3-0.2-0.7-0.3-0.8c-0.2-0.2-0.5-0.3-0.8-0.5c-0.3-0.2-0.8-0.2-1.3-0.3c-0.8-0.2-1.5-0.3-2-0.7
					c-0.5-0.2-1-0.5-1.2-1c-0.3-0.5-0.5-1-0.5-1.5c0-0.7,0.2-1.2,0.5-1.5c0.3-0.3,0.8-0.8,1.3-1c0.7-0.2,1.3-0.3,2.2-0.3
					c0.7,0,1.2,0,1.7,0.2c0.5,0.2,0.8,0.3,1.2,0.7s0.5,0.5,0.7,0.8c0.2,0.3,0.2,0.7,0.2,0.8c0,0.3-0.2,0.5-0.3,0.7
					c-0.2,0.2-0.3,0.3-0.7,0.3c-0.2,0-0.5,0-0.5-0.2c-0.2-0.2-0.3-0.3-0.5-0.7c-0.2-0.3-0.5-0.7-0.7-1c-0.3-0.2-0.7-0.3-1.3-0.3
					c-0.5,0-1,0.2-1.3,0.3c-0.3,0.2-0.5,0.5-0.5,0.8c0,0.2,0,0.3,0.2,0.5c0.2,0.2,0.3,0.3,0.5,0.3c0.2,0,0.3,0.2,0.7,0.3
					c0.2,0,0.5,0.2,1,0.3c0.7,0.2,1.2,0.3,1.7,0.5c0.5,0.2,0.8,0.3,1.3,0.7c0.3,0.2,0.7,0.5,0.8,1C205.9,90.1,205.9,90.6,205.9,91.1
					z"/>
				<path class="st9" d="M210.9,93.3v-6.7c-1.2,1-2,1.5-2.5,1.5c-0.2,0-0.3,0-0.5-0.2c-0.2-0.2-0.2-0.3-0.2-0.5c0-0.2,0-0.5,0.2-0.5
					c0.2,0,0.5-0.3,0.8-0.5c0.7-0.3,1-0.5,1.5-0.8c0.3-0.3,0.7-0.7,1-1c0.3-0.3,0.5-0.7,0.5-0.7c0.2-0.2,0.2-0.2,0.5-0.2
					c0.3,0,0.5,0.2,0.7,0.3s0.2,0.5,0.2,0.8v8.3c0,1-0.3,1.5-1,1.5c-0.3,0-0.5-0.2-0.7-0.3C210.9,94,210.9,93.8,210.9,93.3z"/>
				<path class="st9" d="M223.1,85.3h-4.3V88h3.5c0.3,0,0.5,0,0.7,0.2c0.2,0.2,0.2,0.3,0.2,0.7c0,0.3,0,0.5-0.2,0.7
					c-0.2,0.2-0.3,0.2-0.7,0.2h-3.5v3.5c0,0.5-0.2,0.8-0.3,1c-0.2,0.2-0.5,0.3-0.8,0.3s-0.7-0.2-0.8-0.3c-0.2-0.2-0.3-0.5-0.3-1
					v-8.3c0-0.3,0-0.5,0.2-0.8c0.2-0.2,0.2-0.3,0.5-0.5c0.2-0.2,0.5-0.2,0.8-0.2h5.2c0.3,0,0.7,0,0.8,0.2c0.2,0.2,0.3,0.3,0.3,0.7
					c0,0.3-0.2,0.5-0.3,0.7C223.7,85.1,223.6,85.3,223.1,85.3z"/>
				<path class="st9" d="M227.9,84.8v7.8h4.3c0.3,0,0.7,0.2,0.8,0.3c0.2,0.2,0.3,0.3,0.3,0.7c0,0.3-0.2,0.5-0.3,0.7
					c-0.2,0.2-0.5,0.2-0.8,0.2h-5.2c-0.5,0-0.8-0.2-1-0.3c-0.2-0.2-0.3-0.5-0.3-1v-8.3c0-0.5,0.2-0.8,0.3-1c0.2-0.2,0.5-0.3,0.8-0.3
					s0.7,0.2,0.8,0.3C227.7,84,227.9,84.3,227.9,84.8z"/>
			</g>
		</g>
		<g class="st8">
			<path class="st9" d="M84.7,234.3c0,0.7-0.2,1.2-0.5,1.8c-0.3,0.5-0.8,1-1.5,1.2c-0.7,0.2-1.3,0.5-2.3,0.5s-2-0.2-2.7-0.7
				c-0.5-0.3-0.8-0.7-1.2-1.2c-0.3-0.5-0.5-1-0.5-1.3c0-0.3,0.2-0.5,0.3-0.7c0.2-0.2,0.3-0.3,0.7-0.3c0.2,0,0.5,0,0.5,0.2
				c0.2,0.2,0.3,0.3,0.3,0.7c0.2,0.3,0.3,0.7,0.5,0.8c0.2,0.2,0.3,0.5,0.7,0.5c0.3,0.2,0.7,0.2,1.2,0.2c0.7,0,1.2-0.2,1.5-0.5
				c0.3-0.3,0.7-0.7,0.7-1.2c0-0.3-0.2-0.7-0.3-0.8c-0.2-0.2-0.5-0.3-0.8-0.5c-0.3-0.2-0.8-0.2-1.3-0.3c-0.8-0.2-1.5-0.3-2-0.7
				c-0.5-0.2-1-0.5-1.2-1c-0.3-0.5-0.5-1-0.5-1.5c0-0.7,0.2-1.2,0.5-1.5s0.8-0.8,1.3-1c0.7-0.2,1.3-0.3,2.2-0.3c0.7,0,1.2,0,1.7,0.2
				s0.8,0.3,1.2,0.7c0.3,0.3,0.5,0.5,0.7,0.8c0.2,0.3,0.2,0.7,0.2,0.8c0,0.3-0.2,0.5-0.3,0.7c-0.2,0.2-0.3,0.3-0.7,0.3
				c-0.2,0-0.5,0-0.5-0.2c-0.2-0.2-0.3-0.3-0.5-0.7c-0.2-0.3-0.5-0.7-0.7-1c-0.3-0.2-0.7-0.3-1.3-0.3c-0.5,0-1,0.2-1.3,0.3
				c-0.3,0.2-0.5,0.5-0.5,0.8c0,0.2,0,0.3,0.2,0.5s0.3,0.3,0.5,0.3c0.2,0,0.3,0.2,0.7,0.3c0.3,0.2,0.5,0.2,1,0.3
				c0.7,0.2,1.2,0.3,1.7,0.5c0.5,0.2,0.8,0.3,1.3,0.7c0.3,0.2,0.7,0.5,0.8,1C84.6,233.3,84.7,233.6,84.7,234.3z"/>
			<path class="st9" d="M89.6,236.5v-6.7c-1.2,1-2,1.5-2.5,1.5c-0.2,0-0.3,0-0.5-0.2c-0.2-0.2-0.2-0.3-0.2-0.5c0-0.2,0-0.5,0.2-0.5
				s0.5-0.3,0.8-0.5c0.7-0.3,1-0.5,1.5-0.8c0.3-0.3,0.7-0.7,1-1s0.5-0.7,0.5-0.7s0.2-0.2,0.5-0.2c0.3,0,0.5,0.2,0.7,0.3
				s0.2,0.5,0.2,0.8v8.3c0,1-0.3,1.5-1,1.5c-0.3,0-0.5-0.2-0.7-0.3C89.9,237.5,89.6,236.8,89.6,236.5z"/>
			<path class="st9" d="M97.6,227.8v3h4.7v-3c0-0.5,0.2-0.8,0.3-1c0.2-0.2,0.5-0.3,0.8-0.3c0.3,0,0.7,0.2,0.8,0.3
				c0.2,0.2,0.3,0.5,0.3,1v8.5c0,0.5-0.2,0.8-0.3,1c-0.2,0.2-0.5,0.3-0.8,0.3c-0.3,0-0.7-0.2-0.8-0.3c-0.2-0.2-0.3-0.5-0.3-1v-3.7
				h-4.7v3.7c0,0.5-0.2,0.8-0.3,1c-0.2,0.2-0.5,0.3-0.8,0.3c-0.3,0-0.7-0.2-0.8-0.3c-0.2-0.2-0.3-0.5-0.3-1v-8.5
				c0-0.5,0.2-0.8,0.3-1c0.2-0.2,0.5-0.3,0.8-0.3c0.3,0,0.7,0.2,0.8,0.3C97.6,227.1,97.6,227.5,97.6,227.8z"/>
			<path class="st9" d="M108.9,227.8v7.8h4.3c0.3,0,0.7,0.2,0.8,0.3c0.2,0.2,0.3,0.3,0.3,0.7c0,0.3-0.2,0.5-0.3,0.7
				c-0.2,0.2-0.5,0.2-0.8,0.2h-5.3c-0.5,0-0.8-0.2-1-0.3c-0.2-0.2-0.3-0.5-0.3-1v-8.3c0-0.5,0.2-0.8,0.3-1c0.2-0.2,0.5-0.3,0.8-0.3
				c0.3,0,0.7,0.2,0.8,0.3C108.9,227.1,108.9,227.5,108.9,227.8z"/>
		</g>
		<g class="st8">
			<path class="st10" d="M71.2,51c0,1.7-0.5,3.2-1.3,4.5c-0.8,1.3-2.2,2.3-3.8,3.2s-3.7,1.2-5.8,1.2c-2.7,0-5-0.5-6.7-1.5
				c-1.2-0.7-2.3-1.7-3-3c-0.8-1.2-1.2-2.5-1.2-3.7c0-0.7,0.2-1.3,0.7-1.7c0.5-0.5,1-0.7,1.8-0.7c0.7,0,1,0.2,1.5,0.5
				c0.3,0.3,0.8,1,1,1.7c0.3,0.8,0.7,1.7,1.2,2.2c0.3,0.7,1,1,1.7,1.5c0.7,0.5,1.7,0.5,2.8,0.5c1.7,0,3-0.3,4-1.2
				c1-0.8,1.5-1.7,1.5-2.8c0-0.8-0.3-1.7-0.8-2.2s-1.3-1-2.2-1.3s-2-0.7-3.5-1c-2-0.5-3.7-1-5-1.7S51.7,44,50.9,43
				c-0.8-1-1.2-2.3-1.2-4c0-1.5,0.3-2.8,1.2-4c0.8-1.2,2-2,3.5-2.7c1.5-0.7,3.3-1,5.5-1c1.7,0,3.2,0.2,4.3,0.7c1.2,0.5,2.2,1,3,1.7
				c0.8,0.7,1.3,1.5,1.8,2.2c0.5,0.7,0.5,1.5,0.5,2.2c0,0.7-0.2,1.3-0.7,1.8s-1,0.8-1.8,0.8c-0.7,0-1.2-0.2-1.5-0.5
				c-0.3-0.3-0.7-0.8-1-1.5c-0.5-1-1.2-1.8-1.8-2.5c-0.7-0.5-1.8-0.8-3.3-0.8c-1.5,0-2.7,0.3-3.5,1c-0.8,0.7-1.3,1.3-1.3,2.3
				c0,0.5,0.2,1,0.5,1.5c0.3,0.5,0.7,0.7,1.2,1c0.5,0.3,1,0.5,1.7,0.7c0.5,0.2,1.5,0.3,2.7,0.7c1.5,0.3,3,0.8,4.2,1.2
				c1.3,0.5,2.3,1,3.2,1.7c0.8,0.7,1.5,1.3,2,2.3C71.1,48.5,71.2,49.6,71.2,51z"/>
			<path class="st10" d="M83.7,56.6v-17c-3.2,2.5-5.3,3.7-6.3,3.7c-0.5,0-1-0.2-1.3-0.7c-0.3-0.5-0.7-0.8-0.7-1.5s0.2-1.2,0.7-1.3
				s1.2-0.7,2.2-1.2c1.5-0.7,2.7-1.5,3.7-2.2c0.8-0.8,1.7-1.7,2.3-2.7s1.2-1.5,1.3-1.8c0.2-0.3,0.7-0.3,1.2-0.3
				c0.7,0,1.2,0.3,1.7,0.8c0.5,0.5,0.7,1.2,0.7,2.2V56c0,2.5-0.8,3.8-2.5,3.8c-0.8,0-1.3-0.3-1.8-0.8C84.2,58.5,83.7,57.6,83.7,56.6
				z"/>
		</g>
	</g>
</g>
</svg>
