<?xml version="1.0" encoding="utf-8"?>
<!-- Generator: Adobe Illustrator 23.0.4, SVG Export Plug-In . SVG Version: 6.00 Build 0)  -->
<svg version="1.1" id="Layer_1" xmlns="http://www.w3.org/2000/svg" xmlns:xlink="http://www.w3.org/1999/xlink" x="0px" y="0px"
	 viewBox="0 0 382.3 393.9" style="enable-background:new 0 0 382.3 393.9;" xml:space="preserve">
<style type="text/css">
	.st0{opacity:0.2;fill:#0B0780;enable-background:new    ;}
	.st1{fill:#B2B3B3;}
	.st2{fill:url(#SVGID_1_);}
	.st3{fill:#050A30;}
	.st4{fill:#52617D;}
	.st5{fill:#303354;stroke:#FFFFFF;stroke-width:1.6671;stroke-miterlimit:10;}
	.st6{fill:none;}
	.st7{enable-background:new    ;}
	.st8{fill:#FFFFFF;}
	.st9{fill:#FFC807;}
	.st10{fill:none;stroke:#FFFFFF;stroke-width:1.6671;stroke-miterlimit:10;}
</style>
<path id="Shadow" class="st0" d="M343.5,390.1H8.2c-2.2,0-4-1.8-4-4l5-14.2c0-2.2,1.8-4,4-4h325.4c2.2,0,4,1.8,4,4l5,14.2
	C347.5,388.4,345.7,390.1,343.5,390.1z"/>
<g id="Background_1_">
	<path class="st1" d="M347.8,341.4L48.6,356.1c-8.5,0-27.2-7.8-27.8-30.2V17.8c0-8.5,7-13.8,15.5-13.8h299.4
		C357.8,3.7,376,17,376,25.7l-12.7,300.4C363.3,334.4,356.3,341.4,347.8,341.4z"/>
	
		<linearGradient id="SVGID_1_" gradientUnits="userSpaceOnUse" x1="339.8046" y1="562.1932" x2="-279.8723" y2="1199.6383" gradientTransform="matrix(1 0 0 1 0 -512.11)">
		<stop  offset="0" style="stop-color:#FFFFFF"/>
		<stop  offset="0.1" style="stop-color:#FFFEFA"/>
		<stop  offset="0.2259" style="stop-color:#FFFAEA"/>
		<stop  offset="0.3656" style="stop-color:#FFF5D0"/>
		<stop  offset="0.5154" style="stop-color:#FFEDAC"/>
		<stop  offset="0.6731" style="stop-color:#FFE27E"/>
		<stop  offset="0.836" style="stop-color:#FFD646"/>
		<stop  offset="0.9989" style="stop-color:#FFC807"/>
	</linearGradient>
	<path class="st2" d="M363.5,357.3H51.9c-8.5,0-15.5-7-15.5-15.5V30.2c0-8.5,7-15.5,15.5-15.5h311.6c8.5,0,15.5,7,15.5,15.5v311.6
		C379,350.3,372,357.3,363.5,357.3z"/>
	<g id="Background">
		<path class="st3" d="M337.2,88.9c-8.7-10.3-6.2-9.8-13.5-21.5C218.3,20.7,126.1,39.8,126.1,39.8l5.2,30.7
			c78.4-3,135,18,191.7,45.8C326.3,109.9,330,93.5,337.2,88.9z"/>
		<path class="st3" d="M121.3,271.2l7.7,48.5c0,0,47.3-32.3,108-18.5c0.5,0.5-1.5,1.2-3-11.7C201.1,277.7,163.1,269.9,121.3,271.2z"
			/>
		<path class="st3" d="M122.1,215.7l5.5,46c49.2-0.8,89.9-18.2,129.9-3c0.5,0.5-2.3-4.5-11.2-19.5
			C177.8,212.9,122.1,215.7,122.1,215.7z"/>
		<path class="st3" d="M121.6,162l7.7,46.2c60.3,2.7,101.5-23.8,151.7-1.7c0.5,0-2-0.5-16.5-22.2C184.8,152.4,121.6,162,121.6,162z"
			/>
		<path class="st3" d="M121.6,80.5l10.5,70.5c75-0.3,125.9-42.8,185-17.7c1.5,0,2.5,1.2-16.8-25.8C202.6,65.2,121.6,80.5,121.6,80.5
			z"/>
		<path class="st4" d="M139.8,51.7l-13.2-9.8c-0.5,0.5-0.5-1.3-0.5-0.8l5.7,31.8l13.2,9.5L139.8,51.7z"/>
		<path class="st4" d="M135.6,92.4l-13.8-10c-0.5,0.5-0.5-1.3-0.5-0.8l11,71l13.8,10.5L135.6,92.4z"/>
		<path class="st4" d="M135.6,173.9l-13.2-12.3c-0.5,0.5-0.5,0.8-0.5,1.3l7,45.3l14.2,11.7L135.6,173.9z"/>
		<path class="st4" d="M135.6,227.7l-14.2-12.3c-0.5,0.5,7,50,7,50l13.5,9.5L135.6,227.7z"/>
		<path class="st4" d="M135.1,283.1l-13.8-12.5c-0.5,0.5-0.7,0.8-0.5,1.7l8.2,47.3l13.8,12.3L135.1,283.1z"/>
		<g>
			<path class="st5" d="M324.7,119.9C276,96,216.8,79.7,147.1,82c-1.2,0-2.3-0.8-2.5-2l-4.5-26.2c0-1.3,0.8-2.5,2.3-2.7
				c15.2-2,99.9-10.5,195.2,37.2L324.7,119.9z"/>
			<path class="st5" d="M242.5,292.1c-28.3-10.5-61.3-17.7-98.4-17.2c-1.3,0-2.5-0.7-2.5-2l-5.7-42.3c-0.2-1.7,0.8-2.7,2.5-2.7
				c12.2,0.5,60.7,4.5,119.4,30.8L242.5,292.1z"/>
			<path class="st5" d="M262.5,250.1c-34.3-15.7-73.9-27.7-117.2-29.8c-1.2,0-2-0.8-2.3-2l-6.8-41.7c-0.5-1.3,0.5-2.7,2-2.7
				c13-0.7,72.4-1.5,144.9,33L262.5,250.1z"/>
			<path id="L23fill_1_" class="st5" d="M319.2,131.7c-89.9-46-166.5-41-181.2-39.5c-1.3,0-2.3,1.3-2,2.5l9.8,66c0,1.2,1.2,2,2.3,2
				c53.7,0.2,101,13.5,141.2,32C299.3,173.7,309.3,152.7,319.2,131.7"/>
			<path id="L6fill_1_" class="st5" d="M137.6,283.1c-1.2,0-2.3,1.2-2,2.7l6.8,43.5c0.2,1.3,1.3,2,2.5,2c8.3-0.8,38.5-3,76.2,6.5
				c5.7-12.3,11.3-24.8,17.2-37.2C209.5,289.6,175.8,282.2,137.6,283.1z"/>
		</g>
	</g>
</g>
<g id="fill">
	<path id="L1fill" class="st6" d="M142.4,51.2c-1.3,0.2-2.3,1.3-2.3,2.7l4.5,26.2c0.2,1.2,1.3,2,2.5,2c69.7-2.3,128.9,14,177.5,37.8
		c4.8-10.3,9.5-20.7,14.2-31C243,40.7,157.6,49.2,142.4,51.2z"/>
	<path id="L23fill" class="st6" d="M319.2,131.7c-89.9-46-166.5-41-181.2-39.5c-1.3,0-2.3,1.3-2,2.5l9.8,66c0,1.2,1.2,2,2.3,2
		c53.7,0.2,101,13.5,141.2,32C299.3,173.7,309.3,152.7,319.2,131.7"/>
	<path id="L4fill" class="st6" d="M138.3,173.9c-1.7,0-2.5,1.3-2,2.7l6.8,41.7c0.2,1.2,1.2,2,2.3,2c43.3,2.2,82.9,14,117.2,29.8
		c6.8-14.3,13.8-28.7,20.8-43C210.8,172.2,151.3,173,138.3,173.9z"/>
	<path id="L5fill" class="st6" d="M138.4,227.7c-1.7,0-2.7,1.2-2.5,2.7l5.7,42.3c0,1.3,1.2,2,2.5,2c35.5-0.3,67.2,6.2,94.7,16
		c2,0.7,4.2-0.2,5-2c4.2-8.7,8.3-17.3,12.5-26.2c1-2,0-4.5-2-5.5C197.3,232.1,150.3,228.2,138.4,227.7z"/>
	<path id="L6fill" class="st6" d="M137.6,283.1c-1.2,0-2.3,1.2-2,2.7l6.8,43.5c0.2,1.3,1.3,2,2.5,2c8.3-0.8,38.5-3,76.2,6.5
		c5.7-12.3,11.3-24.8,17.2-37.2C209.5,289.6,175.8,282.2,137.6,283.1z"/>
</g>
<g id="linesandtext">
	<g class="st7">
		<path class="st8" d="M239,68.5v10.7h6c0.5,0,0.8,0.2,1.2,0.3c0.3,0.2,0.3,0.5,0.3,0.8s-0.2,0.7-0.3,0.8c-0.3,0.2-0.7,0.3-1.2,0.3
			h-7.2c-0.7,0-1.2-0.2-1.3-0.5c-0.2-0.3-0.5-0.8-0.5-1.3V68.4c0-0.7,0.2-1,0.3-1.3c0.3-0.3,0.7-0.5,1-0.5c0.5,0,0.8,0.2,1.2,0.5
			C238.8,67.5,239,67.9,239,68.5z"/>
		<path class="st8" d="M252.6,80.2V71c-1.7,1.3-2.8,2-3.3,2c-0.3,0-0.5-0.2-0.7-0.3c-0.2-0.2-0.3-0.5-0.3-0.8c0-0.3,0.2-0.7,0.3-0.7
			c0.2-0.2,0.7-0.3,1.2-0.7c0.8-0.3,1.5-0.8,2-1.2c0.5-0.5,0.8-0.8,1.3-1.3c0.5-0.5,0.7-0.8,0.7-1c0.2-0.2,0.3-0.2,0.7-0.2
			c0.3,0,0.7,0.2,0.8,0.3s0.3,0.7,0.3,1.2v11.5c0,1.3-0.5,2-1.3,2c-0.3,0-0.7-0.2-1-0.3C252.8,81.2,252.6,80.7,252.6,80.2z"/>
	</g>
	<g class="st7">
		<path class="st8" d="M213.1,127.9v10.7h6c0.5,0,0.8,0.2,1.2,0.3c0.3,0.2,0.3,0.5,0.3,0.8c0,0.3-0.2,0.7-0.3,0.8
			c-0.3,0.2-0.7,0.3-1.2,0.3H212c-0.7,0-1.2-0.2-1.3-0.5c-0.2-0.3-0.5-0.8-0.5-1.3v-11.3c0-0.7,0.2-1,0.3-1.3c0.3-0.3,0.7-0.5,1-0.5
			c0.5,0,0.8,0.2,1.2,0.5C213.1,126.9,213.1,127.4,213.1,127.9z"/>
		<path class="st8" d="M225.6,138.7h5.2c0.5,0,0.8,0.2,1.2,0.3c0.3,0.2,0.3,0.5,0.3,0.8c0,0.3-0.2,0.7-0.3,0.8
			c-0.2,0.2-0.5,0.3-1,0.3h-7.3c-0.5,0-0.8-0.2-1.2-0.3c-0.3-0.3-0.5-0.7-0.5-1c0-0.2,0.2-0.5,0.3-1c0.2-0.5,0.3-0.7,0.7-1
			c0.8-1,1.7-1.7,2.3-2.3c0.7-0.7,1.2-1.2,1.5-1.3c0.5-0.3,1-0.8,1.3-1.2c0.3-0.3,0.7-0.8,0.8-1.2c0.2-0.3,0.3-0.8,0.3-1.2
			c0-0.5-0.2-0.8-0.3-1.2c-0.2-0.3-0.5-0.7-0.8-0.8c-0.3-0.2-0.7-0.3-1.2-0.3c-0.8,0-1.5,0.3-2,1.2c0,0.2-0.2,0.3-0.3,0.8
			c-0.2,0.5-0.3,0.8-0.5,1s-0.5,0.3-0.8,0.3c-0.3,0-0.7-0.2-0.8-0.3c-0.2-0.2-0.3-0.5-0.3-0.8c0-0.5,0.2-1,0.3-1.5
			c0.2-0.5,0.5-1,1-1.3c0.3-0.3,1-0.7,1.5-1c0.5-0.3,1.3-0.3,2.2-0.3c1,0,1.8,0.2,2.7,0.5c0.5,0.2,0.8,0.5,1.2,0.8s0.7,0.8,0.8,1.3
			c0.2,0.5,0.3,1,0.3,1.5c0,0.8-0.2,1.5-0.7,2.3c-0.3,0.7-0.8,1.2-1.3,1.7c-0.5,0.5-1.2,1-2.2,1.8c-1,0.8-1.7,1.5-2,1.8
			C226,138.2,225.8,138.4,225.6,138.7z"/>
		<path class="st8" d="M238.8,132.2c0.7,0,1.2-0.2,1.7-0.5c0.5-0.3,0.7-0.8,0.7-1.5c0-0.5-0.2-1-0.5-1.3c-0.3-0.3-0.8-0.5-1.5-0.5
			c-0.3,0-0.7,0-1,0.2c-0.3,0.2-0.5,0.3-0.7,0.5c-0.2,0.2-0.3,0.5-0.5,0.7c-0.2,0.3-0.3,0.5-0.3,0.8c0,0.2-0.2,0.2-0.3,0.3
			c-0.2,0-0.3,0.2-0.7,0.2c-0.3,0-0.5-0.2-0.7-0.3c-0.2-0.2-0.3-0.5-0.3-0.8c0-0.3,0.2-0.7,0.3-1.2c0.2-0.3,0.5-0.7,1-1.2
			c0.3-0.3,0.8-0.7,1.5-0.8c0.7-0.2,1.3-0.3,2-0.3s1.2,0.2,1.8,0.3c0.5,0.2,1,0.5,1.3,0.8c0.3,0.3,0.7,0.7,0.8,1.2s0.3,0.8,0.3,1.5
			s-0.2,1.2-0.5,1.7c-0.3,0.5-0.7,1-1.2,1.3c0.5,0.3,1,0.7,1.3,1c0.3,0.3,0.7,0.8,0.8,1.2c0.2,0.5,0.3,0.8,0.3,1.3
			c0,0.7-0.2,1.2-0.3,1.8c-0.2,0.5-0.7,1-1,1.5c-0.5,0.5-1,0.8-1.7,1c-0.7,0.2-1.3,0.3-2.2,0.3c-0.8,0-1.5-0.2-2.2-0.5
			c-0.7-0.3-1.2-0.7-1.5-1c-0.3-0.5-0.7-0.8-1-1.3c-0.2-0.5-0.3-0.8-0.3-1.2c0-0.3,0.2-0.7,0.3-1c0.2-0.2,0.5-0.3,1-0.3
			c0.2,0,0.3,0,0.5,0.2c0.2,0.2,0.3,0.2,0.3,0.3c0.3,1,0.7,1.7,1.2,2c0.3,0.5,1,0.7,1.7,0.7c0.3,0,0.8-0.2,1.2-0.3
			c0.3-0.2,0.7-0.5,1-0.8c0.2-0.3,0.3-0.8,0.3-1.3c0-0.8-0.2-1.3-0.7-1.8c-0.5-0.5-1-0.7-1.8-0.7c-0.2,0-0.3,0-0.7,0
			c-0.3,0-0.5,0-0.5,0c-0.3,0-0.7-0.2-0.8-0.3c-0.2-0.2-0.3-0.5-0.3-0.8s0.2-0.5,0.3-0.8c0.2-0.3,0.7-0.3,1-0.3h0.3V132.2z"/>
	</g>
	<g class="st7">
		<path class="st8" d="M201.5,199.6l0.2,10.7h6c0.5,0,0.8,0.2,1.2,0.3c0.3,0.2,0.3,0.5,0.3,0.8s-0.2,0.7-0.3,0.8
			c-0.3,0.2-0.7,0.3-1.2,0.3h-7.2c-0.7,0-1.2-0.2-1.3-0.3c-0.2-0.2-0.5-0.7-0.5-1.3l-0.2-11.3c0-0.7,0.2-1,0.3-1.3
			c0.3-0.3,0.7-0.5,1-0.5c0.5,0,0.8,0.2,1.2,0.5C201.3,198.6,201.5,198.9,201.5,199.6z"/>
		<path class="st8" d="M216.6,211.2v-1.8h-5c-0.7,0-1.2-0.2-1.5-0.3c-0.3-0.3-0.5-0.7-0.5-1.2c0-0.2,0-0.3,0-0.3
			c0-0.2,0.2-0.3,0.2-0.3c0.2-0.2,0.2-0.3,0.3-0.5c0.2-0.2,0.2-0.3,0.3-0.5l5.2-7.2c0.3-0.5,0.7-0.8,0.8-1s0.5-0.3,0.8-0.3
			c1,0,1.5,0.5,1.5,1.7l0.2,7.7h0.5c0.5,0,1,0,1.2,0.2c0.3,0.2,0.5,0.5,0.5,0.8c0,0.3-0.2,0.7-0.3,0.8c-0.3,0.2-0.7,0.3-1.2,0.3H219
			v1.8c0,0.5-0.2,0.8-0.3,1.2c-0.2,0.3-0.5,0.3-0.8,0.3s-0.7-0.2-0.8-0.3C216.6,212.1,216.6,211.7,216.6,211.2z M212.3,207.2h4.3
			v-5.8L212.3,207.2z"/>
	</g>
	<g class="st7">
		<path class="st8" d="M187,253.2l-0.2,10.7h6c0.5,0,0.8,0.2,1.2,0.3c0.3,0.2,0.3,0.5,0.3,0.8s-0.2,0.7-0.3,0.8
			c-0.3,0.2-0.7,0.3-1.2,0.3h-7.2c-0.7,0-1.2-0.2-1.3-0.5c-0.2-0.3-0.3-0.8-0.3-1.3l0.2-11.3c0-0.7,0.2-1,0.5-1.3
			c0.3-0.3,0.7-0.5,1-0.5c0.5,0,0.8,0.2,1,0.5S187,252.7,187,253.2z"/>
		<path class="st8" d="M204.3,254.4h-4.8l-0.7,3.2c1-0.5,1.8-0.7,2.7-0.7c0.7,0,1.2,0.2,1.8,0.3c0.5,0.2,1,0.5,1.5,1
			c0.3,0.5,0.7,1,1,1.5c0.2,0.5,0.3,1.2,0.3,1.8c0,1-0.2,1.8-0.7,2.7c-0.5,0.8-1,1.3-1.8,1.8c-0.8,0.5-1.8,0.7-2.8,0.7
			c-1.2,0-2.2-0.2-2.8-0.7c-0.7-0.5-1.3-1-1.5-1.5c-0.2-0.5-0.5-1-0.5-1.5c0-0.3,0.2-0.5,0.3-0.7c0.2-0.2,0.5-0.3,0.8-0.3
			c0.5,0,1,0.3,1.2,1c0.3,0.7,0.7,1,1,1.3c0.5,0.3,1,0.5,1.5,0.5c0.5,0,1-0.2,1.3-0.3c0.3-0.3,0.7-0.7,0.8-1.2
			c0.2-0.5,0.3-1,0.3-1.7c0-0.7-0.2-1.2-0.3-1.7c-0.2-0.5-0.5-0.8-0.8-1c-0.3-0.2-0.8-0.3-1.3-0.3s-1,0-1.2,0.2
			c-0.2,0.2-0.7,0.3-1,0.7c-0.5,0.3-0.8,0.5-1.2,0.5s-0.7-0.2-0.8-0.3c-0.3-0.2-0.3-0.5-0.3-0.8c0,0,0-0.3,0.2-0.7l0.8-4.8
			c0.2-0.5,0.3-1,0.5-1.2c0.3-0.3,0.7-0.3,1.2-0.3h5.3c1,0,1.5,0.3,1.5,1.2c0,0.3-0.2,0.7-0.3,0.8
			C205.1,254.2,204.8,254.4,204.3,254.4z"/>
	</g>
	<g class="st7">
		<path class="st8" d="M180.6,305.1l-0.2,10.7l6,0.2c0.5,0,0.8,0.2,1.2,0.3c0.3,0.2,0.3,0.5,0.3,0.8s-0.2,0.7-0.3,0.8
			c-0.3,0.2-0.7,0.3-1.2,0.3l-7.2-0.2c-0.7,0-1.2-0.2-1.3-0.5c-0.2-0.3-0.3-0.8-0.3-1.3l0.2-11.3c0-0.7,0.2-1,0.5-1.3
			c0.3-0.3,0.7-0.5,1-0.5c0.5,0,0.8,0.2,1,0.5C180.4,303.9,180.6,304.4,180.6,305.1z"/>
		<path class="st8" d="M192.1,310.4c0.5-0.5,1-1,1.5-1.2c0.5-0.3,1.2-0.3,1.8-0.3c0.7,0,1.2,0.2,1.7,0.3s1,0.7,1.3,1
			c0.3,0.5,0.7,1,0.8,1.5c0.2,0.7,0.3,1.2,0.3,1.8c0,1-0.2,1.8-0.7,2.5c-0.5,0.7-1,1.3-1.8,1.8c-0.8,0.5-1.7,0.7-2.7,0.7
			c-1.2,0-2-0.3-2.8-0.8c-0.8-0.5-1.3-1.3-1.8-2.5c-0.3-1-0.7-2.3-0.5-4c0-1.3,0.2-2.3,0.5-3.3c0.3-1,0.7-1.8,1.2-2.5
			c0.5-0.7,1.2-1.2,1.8-1.5c0.7-0.3,1.5-0.5,2.3-0.5c0.8,0,1.7,0.2,2.2,0.5c0.7,0.3,1.2,0.8,1.5,1.3c0.3,0.5,0.5,1,0.5,1.5
			c0,0.3-0.2,0.5-0.3,0.7c-0.2,0.2-0.5,0.3-0.8,0.3s-0.5-0.2-0.8-0.3c-0.2-0.2-0.3-0.5-0.5-0.7c-0.2-0.3-0.3-0.7-0.7-1
			c-0.3-0.2-0.7-0.3-1.2-0.3c-0.3,0-0.7,0.2-1,0.3c-0.3,0.2-0.7,0.5-0.8,0.8C192.5,307.4,192.1,308.6,192.1,310.4z M194.6,316.8
			c0.7,0,1.2-0.3,1.7-0.8c0.5-0.5,0.7-1.3,0.7-2.2c0-0.7-0.2-1.2-0.3-1.5c-0.2-0.5-0.5-0.8-0.8-1c-0.3-0.2-0.8-0.3-1.2-0.3
			c-0.3,0-0.8,0.2-1.2,0.3c-0.3,0.2-0.7,0.5-1,1c-0.2,0.3-0.3,0.8-0.3,1.5c0,0.8,0.2,1.7,0.7,2.3C193.3,316.4,194,316.6,194.6,316.8
			z"/>
	</g>
	<g class="st7">
		<path class="st9" d="M333.7,324.6c0,1.7-0.5,3.2-1.3,4.5c-0.8,1.3-2.2,2.3-3.8,3.2c-1.7,0.8-3.7,1.2-5.8,1.2c-2.7,0-5-0.5-6.7-1.5
			c-1.2-0.7-2.3-1.7-3-3c-0.8-1.2-1.2-2.5-1.2-3.7c0-0.7,0.2-1.3,0.7-1.7c0.5-0.5,1-0.7,1.8-0.7c0.7,0,1,0.2,1.5,0.5
			c0.3,0.3,0.8,1,1,1.7c0.3,0.8,0.7,1.7,1.2,2.2c0.3,0.7,1,1,1.7,1.5c0.7,0.3,1.7,0.5,2.8,0.5c1.7,0,3-0.3,4-1.2s1.5-1.7,1.5-2.8
			c0-0.8-0.3-1.7-0.8-2.2c-0.5-0.5-1.3-1-2.2-1.3c-0.8-0.3-2-0.7-3.5-1c-2-0.5-3.7-1-5-1.7c-1.3-0.7-2.3-1.5-3.2-2.5
			c-0.8-1-1.2-2.3-1.2-4c0-1.5,0.3-2.8,1.2-4c0.8-1.2,2-2,3.5-2.7c1.5-0.7,3.3-1,5.5-1c1.7,0,3.2,0.2,4.3,0.7c1.2,0.5,2.2,1,3,1.7
			c0.8,0.7,1.3,1.5,1.8,2.2c0.5,0.7,0.5,1.5,0.5,2.2c0,0.7-0.2,1.3-0.7,1.8c-0.5,0.5-1,0.8-1.7,0.8s-1.2-0.2-1.5-0.5
			c-0.3-0.3-0.7-0.8-1-1.5c-0.5-1-1.2-1.8-1.8-2.5c-0.7-0.5-1.8-0.8-3.3-0.8c-1.5,0-2.7,0.3-3.5,1c-0.8,0.7-1.3,1.3-1.3,2.3
			c0,0.5,0.2,1,0.5,1.5c0.3,0.5,0.7,0.7,1.2,1c0.5,0.3,1,0.5,1.7,0.7c0.5,0.2,1.5,0.3,2.7,0.7c1.5,0.3,3,0.8,4.2,1.2
			c1.3,0.5,2.3,1,3.2,1.7s1.5,1.3,2,2.3C333.3,321.9,333.7,323.1,333.7,324.6z"/>
		<path class="st9" d="M346.2,330.3v-17.2c-3.2,2.5-5.3,3.7-6.3,3.7c-0.5,0-1-0.2-1.3-0.7c-0.3-0.5-0.7-0.8-0.7-1.5
			c0-0.7,0.2-1.2,0.7-1.3c0.3-0.3,1.2-0.7,2.2-1.2c1.5-0.7,2.7-1.5,3.7-2.2c0.8-0.8,1.7-1.7,2.3-2.7c0.7-1,1.2-1.5,1.3-1.8
			c0.2-0.2,0.7-0.3,1.2-0.3c0.7,0,1.2,0.3,1.7,0.8c0.3,0.5,0.7,1.2,0.7,2.2v21.5c0,2.5-0.8,3.8-2.5,3.8c-0.8,0-1.3-0.3-1.8-0.8
			C346.3,331.9,346.2,331.3,346.2,330.3z"/>
	</g>
	<g>
		<path class="st10" d="M325.8,115.9c-0.8,2.2-3.3,3-5.5,2c-47.8-22.7-105.7-38-173.2-35.8c-1.2,0-2.3-0.8-2.5-2l-4.5-26.2
			c0-1.3,0.8-2.5,2.3-2.7c15-2,97.9-10.3,191.7,35.5c2,1,2.8,3.3,2,5.2L325.8,115.9z"/>
		<path class="st10" d="M236.6,304.6c0.8-2.2-0.2-4.7-2.3-5.3c-28-10.3-60.3-16.8-96.7-16c-1.2,0-2.3,1.2-2,2.7l6.8,43.5
			c0.2,1.3,1.3,2,2.5,2c8.2-0.8,37.5-2.8,74.2,6c2,0.5,4-0.5,4.7-2.3L236.6,304.6z"/>
		<path class="st10" d="M242,291.9c-28.3-10.5-61-17.3-97.7-17c-1.3,0-2.5-0.7-2.5-2l-5.7-42.3c-0.2-1.7,0.8-2.7,2.5-2.7
			c12.2,0.5,61,4.5,119.9,31.2L242,291.9z"/>
		<path class="st10" d="M264.6,246.6c-1,2-3.3,2.8-5.3,2c-33.5-15-72-26.2-114-28.3c-1.2,0-2-0.8-2.3-2l-6.8-41.7
			c-0.5-1.3,0.5-2.7,2-2.7c12.8-0.7,70.5-1.5,141.4,31.3c2,1,2.8,3.3,2,5.5L264.6,246.6z"/>
		<path class="st10" d="M292.5,191.7c-0.8,2-3.3,3-5.3,2c-39.7-18-86.4-30.8-139-31c-1.2,0-2.3-0.8-2.3-2l-9.8-66
			c-0.2-1.2,0.7-2.5,2-2.5c14.3-1.5,89.2-6.3,177.4,37.5c2,1,2.8,3.3,1.8,5.3L292.5,191.7z"/>
	</g>
</g>
</svg>
