<?xml version="1.0" encoding="utf-8"?>
<!-- Generator: Adobe Illustrator 23.0.4, SVG Export Plug-In . SVG Version: 6.00 Build 0)  -->
<svg version="1.1" id="Layer_1" xmlns="http://www.w3.org/2000/svg" xmlns:xlink="http://www.w3.org/1999/xlink" x="0px" y="0px"
	 viewBox="0 0 295.3 566.9" style="enable-background:new 0 0 295.3 566.9;" xml:space="preserve">
<style type="text/css">
	.st0{opacity:0.2;fill:#0B0780;enable-background:new    ;}
	.st1{fill:#303354;stroke:#FFFFFF;stroke-width:2.1491;stroke-miterlimit:10;}
	.st2{fill:none;}
	.st3{enable-background:new    ;}
	.st4{fill:#FFFFFF;}
	.st5{fill:none;stroke:#FFFFFF;stroke-width:2.1491;stroke-miterlimit:10;}
</style>
<g id="shadow_1_">
	<polygon id="Shadow" class="st0" points="209.2,494.7 72.3,494.7 3.7,528.3 72.3,562 209.2,562 277.7,528.3 	"/>
</g>
<g id="Plain_background">
	<polygon id="Microcircuitback" class="st1" points="224.7,4.5 87.5,4.5 19.2,38.3 19.4,38.7 19.4,111.8 19.4,111.8 19.4,251.2 
		19.4,251.4 19.4,253 19.4,325.2 19.4,325.2 19.4,326.7 19.4,399.1 19.4,399.1 19.4,400.6 19.4,472.2 87.5,505.7 224.7,505.7 
		292.8,472.2 292.8,400.6 292.8,399.1 292.8,399.1 292.8,326.7 292.8,325.2 292.8,325.2 292.8,253 292.8,251.4 292.8,251.2 
		292.8,111.8 292.8,111.8 292.8,38.7 293,38.3 	"/>
</g>
<polygon id="Layer1fill" class="st2" points="224.7,71.8 224.7,71.8 87.5,71.8 87.5,71.8 19.2,38.3 87.5,4.5 19.2,38.3 19.4,38.7 
	19.4,111.8 19.4,111.8 87.5,145.3 87.5,145.3 224.7,145.3 224.7,145.3 292.8,111.8 292.8,111.8 292.8,38.7 293,38.3 "/>
<polygon id="Layer23fill" class="st2" points="224.7,145.3 224.7,145.3 87.5,145.3 87.5,145.3 19.4,111.8 19.4,251.2 19.4,251.4 
	87.5,284.8 87.5,285 224.7,285 224.7,284.8 292.8,251.4 292.8,251.2 292.8,111.8 "/>
<polygon id="Layer4fill" class="st2" points="224.7,284.8 224.7,285 87.5,285 87.5,284.8 19.4,251.4 19.4,253 19.4,325.2 
	19.4,325.2 87.5,358.7 87.5,358.7 224.7,358.7 224.7,358.7 292.8,325.2 292.8,325.2 292.8,253 292.8,251.4 "/>
<polygon id="Layer6fill" class="st2" points="224.7,432.6 224.7,432.6 87.5,432.6 87.5,432.6 19.4,399.1 19.4,400.6 19.4,472.2 
	87.5,505.7 224.7,505.7 292.8,472.2 292.8,400.6 292.8,399.1 "/>
<polygon id="Layer5fill" class="st2" points="224.7,358.7 224.7,358.7 87.5,358.7 87.5,358.7 19.4,325.2 19.4,326.7 19.4,399.1 
	19.4,399.1 87.5,432.6 87.5,432.6 224.7,432.6 224.7,432.6 292.8,399.1 292.8,399.1 292.8,326.7 292.8,325.2 "/>
<g id="Textandlines">
	<g class="st3">
		<path class="st4" d="M146.4,101.4v13.1h7.3c0.6,0,1.1,0.2,1.3,0.4c0.2,0.2,0.4,0.6,0.4,1.1c0,0.4-0.2,0.9-0.4,1.1
			c-0.2,0.2-0.9,0.4-1.3,0.4h-8.8c-0.9,0-1.3-0.2-1.7-0.4c-0.4-0.4-0.4-0.9-0.4-1.7v-14c0-0.6,0.2-1.3,0.4-1.7
			c0.4-0.4,0.9-0.6,1.3-0.6c0.6,0,1.1,0.2,1.3,0.6C146.2,100.2,146.4,100.8,146.4,101.4z"/>
		<path class="st4" d="M163.2,116.1v-11.2c-2.1,1.5-3.4,2.4-4.3,2.4c-0.4,0-0.6-0.2-0.9-0.4s-0.4-0.6-0.4-0.9c0-0.4,0.2-0.6,0.4-0.9
			c0.2-0.2,0.6-0.4,1.3-0.9c1.1-0.4,1.7-0.9,2.4-1.5c0.6-0.4,1.1-1.1,1.5-1.7c0.4-0.6,0.9-1.1,0.9-1.1c0.2-0.2,0.4-0.2,0.9-0.2
			c0.4,0,0.9,0.2,1.1,0.4c0.2,0.4,0.4,0.9,0.4,1.3v14c0,1.7-0.6,2.4-1.7,2.4c-0.4,0-0.9-0.2-1.3-0.4
			C163.4,117.1,163.2,116.7,163.2,116.1z"/>
	</g>
	<g class="st3">
		<path class="st4" d="M139.1,211.5v13.1h7.3c0.6,0,1.1,0.2,1.3,0.4c0.2,0.2,0.4,0.6,0.4,1.1s-0.2,0.9-0.4,1.1
			c-0.2,0.2-0.9,0.4-1.3,0.4h-8.8c-0.9,0-1.3-0.2-1.7-0.4c-0.4-0.4-0.4-0.9-0.4-1.7v-14c0-0.6,0.2-1.3,0.4-1.7
			c0.4-0.4,0.9-0.6,1.3-0.6c0.6,0,1.1,0.2,1.3,0.6C138.9,210.2,139.1,210.6,139.1,211.5z"/>
		<path class="st4" d="M154.4,224.6h6.4c0.6,0,1.1,0.2,1.5,0.4c0.4,0.2,0.4,0.6,0.4,1.1s-0.2,0.6-0.4,1.1c-0.2,0.2-0.6,0.4-1.3,0.4
			h-9c-0.6,0-1.1-0.2-1.5-0.4c-0.4-0.2-0.4-0.6-0.4-1.3c0-0.2,0.2-0.6,0.4-1.1c0.2-0.4,0.4-0.9,0.6-1.1c1.1-1.1,2.1-2.1,3-3
			c0.9-0.9,1.5-1.3,1.9-1.5c0.6-0.4,1.3-0.9,1.7-1.5c0.4-0.4,0.9-1.1,1.1-1.5c0.2-0.4,0.4-1.1,0.4-1.5s-0.2-1.1-0.4-1.5
			c-0.2-0.4-0.6-0.6-1.1-0.9c-0.4-0.2-0.9-0.4-1.5-0.4c-1.1,0-1.9,0.4-2.6,1.5c0,0.2-0.2,0.4-0.4,1.1c-0.2,0.6-0.4,1.1-0.6,1.3
			c-0.2,0.2-0.6,0.4-1.1,0.4c-0.4,0-0.6-0.2-1.1-0.4c-0.4-0.2-0.4-0.6-0.4-1.1c0-0.6,0.2-1.1,0.4-1.7c0.2-0.6,0.6-1.1,1.1-1.7
			c0.4-0.6,1.1-0.9,1.9-1.3c0.9-0.2,1.7-0.4,2.8-0.4c1.3,0,2.4,0.2,3.2,0.6c0.6,0.2,1.1,0.6,1.5,1.1c0.4,0.4,0.9,1.1,1.1,1.5
			c0.2,0.4,0.4,1.3,0.4,1.9c0,1.1-0.2,1.9-0.9,2.8c-0.6,0.9-1.1,1.5-1.5,1.9s-1.5,1.3-2.6,2.1c-1.3,1.1-2.1,1.7-2.6,2.4
			C154.8,224.2,154.6,224.4,154.4,224.6z"/>
		<path class="st4" d="M170.5,216.6c0.9,0,1.5-0.2,1.9-0.6c0.6-0.4,0.9-1.1,0.9-1.9c0-0.6-0.2-1.1-0.6-1.7c-0.4-0.4-1.1-0.6-1.7-0.6
			c-0.4,0-0.9,0-1.3,0.2c-0.4,0.2-0.6,0.4-0.9,0.6s-0.4,0.4-0.4,0.9c-0.2,0.4-0.2,0.6-0.4,1.1c0,0.2-0.2,0.2-0.4,0.4
			c-0.2,0-0.4,0.2-0.6,0.2c-0.4,0-0.6-0.2-0.9-0.4c-0.2-0.2-0.4-0.6-0.4-1.1s0.2-0.9,0.4-1.3c0.2-0.4,0.6-0.9,1.1-1.3
			c0.4-0.4,1.1-0.9,1.9-1.1c0.6-0.2,1.5-0.4,2.4-0.4c0.9,0,1.5,0,2.1,0.4c0.6,0.2,1.3,0.4,1.7,0.9c0.4,0.4,0.9,0.9,1.1,1.5
			c0.2,0.6,0.4,1.1,0.4,1.7c0,0.9-0.2,1.5-0.4,2.1c-0.2,0.6-0.9,1.1-1.5,1.7c0.6,0.4,1.1,0.6,1.7,1.1c0.4,0.4,0.9,0.9,1.1,1.5
			c0.2,0.4,0.4,1.1,0.4,1.7s-0.2,1.5-0.4,2.1c-0.2,0.6-0.6,1.3-1.3,1.9c-0.6,0.6-1.3,1.1-2.1,1.3c-0.9,0.2-1.7,0.4-2.6,0.4
			c-1.1,0-1.9-0.2-2.6-0.4c-0.9-0.4-1.5-0.9-1.9-1.3c-0.4-0.4-0.9-1.1-1.1-1.7c-0.2-0.6-0.4-1.1-0.4-1.5c0-0.4,0.2-0.9,0.4-1.1
			c0.2-0.2,0.6-0.4,1.1-0.4c0.2,0,0.4,0,0.6,0.2c0.2,0.2,0.4,0.2,0.4,0.4c0.4,1.1,0.9,1.9,1.3,2.6c0.4,0.6,1.1,0.9,2.1,0.9
			c0.4,0,1.1-0.2,1.5-0.4c0.4-0.2,0.9-0.6,1.1-1.1c0.2-0.4,0.4-1.1,0.4-1.7c0-0.9-0.2-1.7-0.9-2.1c-0.4-0.6-1.3-0.9-2.1-0.9
			c-0.2,0-0.4,0-0.9,0s-0.6,0-0.6,0c-0.4,0-0.9-0.2-1.1-0.4c-0.2-0.2-0.4-0.4-0.4-0.9s0.2-0.6,0.4-0.9c0.2-0.2,0.6-0.4,1.3-0.4h0.2
			V216.6z"/>
	</g>
	<g class="st3">
		<path class="st4" d="M146.4,315.7v13.1h7.3c0.6,0,1.1,0.2,1.3,0.4c0.2,0.2,0.4,0.6,0.4,1.1c0,0.4-0.2,0.9-0.4,1.1
			c-0.2,0.2-0.9,0.4-1.3,0.4h-8.8c-0.9,0-1.3-0.2-1.7-0.4c-0.4-0.4-0.4-0.9-0.4-1.7v-14c0-0.6,0.2-1.3,0.4-1.7
			c0.4-0.4,0.9-0.6,1.3-0.6c0.6,0,1.1,0.2,1.3,0.6C146.2,314.4,146.4,315.1,146.4,315.7z"/>
		<path class="st4" d="M164.9,330.3V328h-6.2c-0.9,0-1.3-0.2-1.7-0.4c-0.4-0.2-0.6-0.9-0.6-1.5c0-0.2,0-0.2,0-0.4
			c0-0.2,0.2-0.4,0.2-0.4c0.2-0.2,0.2-0.4,0.4-0.4c0.2-0.2,0.2-0.4,0.4-0.6l6.4-8.8c0.4-0.6,0.9-1.1,1.1-1.3
			c0.2-0.2,0.6-0.4,1.1-0.4c1.3,0,1.9,0.6,1.9,2.1v9.5h0.4c0.6,0,1.1,0,1.5,0.2s0.6,0.6,0.6,1.1c0,0.4-0.2,0.9-0.4,1.1
			c-0.2,0.2-0.9,0.4-1.5,0.4h-0.6v2.4c0,0.6-0.2,1.1-0.4,1.5c-0.2,0.2-0.6,0.4-1.1,0.4s-0.9-0.2-1.1-0.4
			C165.1,331.6,164.9,331,164.9,330.3z M159.5,325.4h5.4v-7.1L159.5,325.4z"/>
	</g>
	<g class="st3">
		<path class="st4" d="M146.4,388.1v13.1h7.3c0.6,0,1.1,0.2,1.3,0.4c0.2,0.2,0.4,0.6,0.4,1.1s-0.2,0.9-0.4,1.1
			c-0.2,0.2-0.9,0.4-1.3,0.4h-8.8c-0.9,0-1.3-0.2-1.7-0.4c-0.4-0.4-0.4-0.9-0.4-1.7v-14c0-0.6,0.2-1.3,0.4-1.7
			c0.4-0.4,0.9-0.6,1.3-0.6c0.6,0,1.1,0.2,1.3,0.6C146.2,386.8,146.4,387.5,146.4,388.1z"/>
		<path class="st4" d="M167.7,389.2h-5.8l-0.6,4.1c1.1-0.6,2.1-0.9,3.2-0.9c0.9,0,1.5,0.2,2.1,0.4c0.6,0.2,1.3,0.6,1.7,1.3
			c0.4,0.6,0.9,1.1,1.3,1.9c0.2,0.6,0.4,1.5,0.4,2.4c0,1.3-0.2,2.4-0.9,3.2c-0.4,1.1-1.3,1.7-2.4,2.4c-1.1,0.6-2.1,0.9-3.4,0.9
			c-1.5,0-2.6-0.2-3.7-0.9c-0.9-0.6-1.5-1.1-1.9-1.9s-0.6-1.3-0.6-1.9c0-0.2,0.2-0.6,0.4-0.9c0.2-0.2,0.6-0.4,1.1-0.4
			c0.6,0,1.3,0.4,1.5,1.3c0.4,0.6,0.9,1.3,1.3,1.7c0.6,0.4,1.1,0.6,1.9,0.6c0.6,0,1.3-0.2,1.7-0.4s0.9-0.9,1.1-1.3
			c0.2-0.6,0.4-1.3,0.4-1.9c0-0.9-0.2-1.5-0.4-1.9c-0.2-0.6-0.6-1.1-1.1-1.3s-1.1-0.4-1.5-0.4c-0.6,0-1.3,0-1.5,0.2
			c-0.2,0.2-0.6,0.4-1.3,0.9c-0.6,0.4-1.1,0.6-1.5,0.6c-0.4,0-0.9-0.2-1.1-0.4c-0.2-0.2-0.4-0.6-0.4-1.1c0,0,0-0.2,0.2-0.9l1.1-5.8
			c0.2-0.6,0.4-1.3,0.6-1.5c0.2-0.2,0.9-0.4,1.5-0.4h6.4c1.3,0,1.9,0.4,1.9,1.5c0,0.4-0.2,0.9-0.4,1.1S168.4,389.2,167.7,389.2z"/>
	</g>
	<g class="st3">
		<path class="st4" d="M146.4,460.1v13.1h7.3c0.6,0,1.1,0.2,1.3,0.4c0.2,0.2,0.4,0.6,0.4,1.1c0,0.4-0.2,0.9-0.4,1.1
			c-0.2,0.2-0.9,0.4-1.3,0.4h-8.8c-0.9,0-1.3-0.2-1.7-0.4c-0.4-0.4-0.4-0.9-0.4-1.7v-14c0-0.6,0.2-1.3,0.4-1.7
			c0.4-0.4,0.9-0.6,1.3-0.6c0.6,0,1.1,0.2,1.3,0.6C146.2,458.8,146.4,459.5,146.4,460.1z"/>
		<path class="st4" d="M160.6,466.6c0.6-0.6,1.1-1.1,1.7-1.5c0.6-0.2,1.3-0.4,2.1-0.4c0.9,0,1.5,0.2,2.1,0.4
			c0.6,0.2,1.3,0.6,1.7,1.3c0.4,0.4,0.9,1.1,1.1,1.9c0.2,0.6,0.4,1.5,0.4,2.4c0,1.1-0.2,2.1-0.9,3.2c-0.4,0.9-1.3,1.7-2.1,2.1
			c-0.9,0.4-1.9,0.9-3.2,0.9c-1.3,0-2.6-0.4-3.7-1.1s-1.7-1.7-2.4-3c-0.4-1.3-0.9-3-0.9-4.7c0-1.5,0.2-3,0.4-4.1
			c0.2-1.3,0.9-2.1,1.3-3c0.6-0.9,1.3-1.5,2.1-1.7c0.9-0.2,1.7-0.6,3-0.6c1.1,0,1.9,0.2,2.8,0.6c0.9,0.4,1.5,0.9,1.7,1.5
			c0.4,0.6,0.6,1.3,0.6,1.7c0,0.4-0.2,0.6-0.4,0.9c-0.2,0.2-0.6,0.4-1.1,0.4s-0.6-0.2-0.9-0.4c-0.2-0.2-0.4-0.4-0.6-0.9
			c-0.2-0.4-0.4-0.9-0.9-1.3c-0.4-0.2-0.9-0.4-1.5-0.4c-0.4,0-0.9,0.2-1.3,0.4s-0.9,0.6-1.1,1.1C161,462.7,160.6,464.4,160.6,466.6z
			 M163.8,474.3c0.9,0,1.5-0.4,2.1-1.1s0.9-1.5,0.9-2.6c0-0.6-0.2-1.3-0.4-1.9c-0.2-0.4-0.6-0.9-1.1-1.3c-0.4-0.2-0.9-0.4-1.5-0.4
			c-0.4,0-1.1,0.2-1.5,0.4s-0.9,0.6-1.1,1.1c-0.2,0.4-0.4,1.1-0.4,1.7c0,1.1,0.2,1.9,0.9,2.8C162.3,473.9,163,474.3,163.8,474.3z"/>
	</g>
	<polygon class="st5" points="293,38.3 224.7,4.5 87.5,4.5 19.2,38.3 19.4,38.7 19.4,472.2 87.5,505.7 224.7,505.7 292.8,472.2 
		292.8,38.7 	"/>
	<g>
		<polygon class="st5" points="19.4,111.8 19.4,250.4 87.5,284.1 224.7,284.1 292.8,250.4 292.8,111.8 224.2,144.9 88,144.9 		"/>
	</g>
	<polygon class="st5" points="224.7,4.5 87.5,4.5 19.2,38.3 87.5,71.8 224.7,71.8 293,38.3 	"/>
	<polyline class="st5" points="19.2,111.8 87.5,145.3 224.7,145.3 293,111.8 	"/>
	<line class="st5" x1="87.5" y1="72.2" x2="87.5" y2="145.3"/>
	<line class="st5" x1="224.7" y1="72.2" x2="224.7" y2="145.3"/>
	<line class="st5" x1="292.8" y1="38.7" x2="292.8" y2="111.8"/>
	<line class="st5" x1="19.4" y1="38.7" x2="19.4" y2="111.8"/>
	<path class="st5" d="M87.5,285"/>
	<path class="st5" d="M87.5,211.9"/>
	<path class="st5" d="M224.7,285"/>
	<path class="st5" d="M224.7,211.9"/>
	<line class="st5" x1="292.8" y1="111.8" x2="292.8" y2="251.2"/>
	<line class="st5" x1="224.7" y1="144.4" x2="224.7" y2="285.8"/>
	<line class="st5" x1="19.4" y1="111.8" x2="19.4" y2="251.2"/>
	<line class="st5" x1="87.5" y1="144.4" x2="87.5" y2="285"/>
	<polyline class="st5" points="19.2,325.2 87.5,358.7 224.7,358.7 293,325.2 	"/>
	<line class="st5" x1="87.5" y1="285.6" x2="87.5" y2="358.7"/>
	<line class="st5" x1="224.7" y1="285.6" x2="224.7" y2="358.7"/>
	<line class="st5" x1="292.8" y1="253" x2="292.8" y2="325.2"/>
	<line class="st5" x1="224.7" y1="285.6" x2="224.7" y2="291.4"/>
	<line class="st5" x1="19.4" y1="253" x2="19.4" y2="325.2"/>
	<line class="st5" x1="87.5" y1="285.6" x2="87.5" y2="291.4"/>
	<polyline class="st5" points="19.2,399.1 87.5,432.6 224.7,432.6 293,399.1 	"/>
	<line class="st5" x1="87.5" y1="359.6" x2="87.5" y2="432.6"/>
	<line class="st5" x1="224.7" y1="359.6" x2="224.7" y2="432.6"/>
	<line class="st5" x1="292.8" y1="326.7" x2="292.8" y2="399.1"/>
	<line class="st5" x1="224.7" y1="359.6" x2="224.7" y2="365.4"/>
	<line class="st5" x1="19.4" y1="326.7" x2="19.4" y2="399.1"/>
	<line class="st5" x1="87.5" y1="359.6" x2="87.5" y2="365.4"/>
	<polyline class="st5" points="19.2,472.8 87.5,506.6 224.7,506.6 293,472.8 	"/>
	<line class="st5" x1="87.5" y1="433.5" x2="87.5" y2="506.6"/>
	<line class="st5" x1="224.7" y1="433.5" x2="224.7" y2="506.6"/>
	<line class="st5" x1="292.8" y1="400.6" x2="292.8" y2="472.8"/>
	<line class="st5" x1="224.7" y1="433.5" x2="224.7" y2="439.3"/>
	<line class="st5" x1="19.4" y1="400.6" x2="19.4" y2="472.8"/>
	<line class="st5" x1="87.5" y1="433.5" x2="87.5" y2="439.3"/>
</g>
</svg>
