<?xml version="1.0" encoding="utf-8"?>
<!-- Generator: Adobe Illustrator 23.0.4, SVG Export Plug-In . SVG Version: 6.00 Build 0)  -->
<svg version="1.1" id="Layer_1" xmlns="http://www.w3.org/2000/svg" xmlns:xlink="http://www.w3.org/1999/xlink" x="0px" y="0px"
	 viewBox="0 0 302.3 566.9" style="enable-background:new 0 0 302.3 566.9;" xml:space="preserve">
<style type="text/css">
	.st0{opacity:0.2;fill:#0B0780;enable-background:new    ;}
	.st1{fill:#303354;stroke:#FFFFFF;stroke-width:2.1629;stroke-miterlimit:10;}
	.st2{fill:none;}
	.st3{enable-background:new    ;}
	.st4{fill:#FFFFFF;}
	.st5{fill:none;stroke:#FFFFFF;stroke-width:2.1629;stroke-miterlimit:10;}
</style>
<g id="shadow">
	<polygon id="Shadow" class="st0" points="212.2,495.3 74.4,495.3 5.4,529.3 74.4,563 212.2,563 281.2,529.3 	"/>
</g>
<g id="Plain_background">
	<polygon id="Synpaticback" class="st1" points="230.8,3.9 92.8,3.9 24,37.9 24.3,38.3 24.3,111.8 24.3,111.8 24.3,252.2 
		24.3,252.4 24.3,253.9 24.3,326.6 24.3,326.6 24.3,328.1 24.3,401 24.3,401 24.3,402.5 24.3,474.5 92.8,508.3 230.8,508.3 
		299.4,474.5 299.4,402.5 299.4,401 299.4,401 299.4,328.1 299.4,326.6 299.4,326.6 299.4,253.9 299.4,252.4 299.4,252.2 
		299.4,111.8 299.4,111.8 299.4,38.3 299.6,37.9 	"/>
</g>
<g id="Fill">
	<polygon id="l1postfill" class="st2" points="230.8,145.6 299.4,111.8 299.4,111.8 299.4,38.3 299.6,37.9 230.8,71.6 	"/>
	<polygon id="l1prefill" class="st2" points="92.8,71.6 24,37.9 92.8,3.9 24,37.9 24.3,38.3 24.3,111.8 24.3,111.8 92.8,145.6 	"/>
	<polygon id="l23postfill" class="st2" points="299.4,111.8 230.8,145.6 230.8,285.9 299.4,252.4 299.4,252.2 	"/>
	<polygon id="l23prefill" class="st2" points="92.8,145.6 24.3,111.8 24.3,252.2 24.3,252.4 92.8,285.9 	"/>
	<polygon id="l5postfill" class="st2" points="230.8,434.7 299.4,401 299.4,401 299.4,328.1 299.4,326.6 230.8,360.3 	"/>
	<polygon id="l6postfill" class="st2" points="230.8,508.3 299.4,474.5 299.4,402.5 299.4,401 230.8,434.7 	"/>
	<polygon id="l4postfill" class="st2" points="230.8,360.3 299.4,326.6 299.4,326.6 299.4,253.9 299.4,252.4 230.8,285.9 	"/>
	<polygon id="l4prefill" class="st2" points="92.8,285.9 24.3,252.4 24.3,253.9 24.3,326.6 24.3,326.6 92.8,360.3 	"/>
	<polygon id="l6prefill" class="st2" points="24.3,401 24.3,402.5 24.3,474.5 92.8,508.3 92.8,434.7 	"/>
	<polygon id="l5prefill" class="st2" points="92.8,360.3 24.3,326.6 24.3,328.1 24.3,401 24.3,401 92.8,434.7 	"/>
</g>
<g id="Lines__x2B__text">
	<g id="Synapticlines">
		<g>
			<g class="st3">
				<path class="st4" d="M154,101.4v13.2h7.4c0.6,0,1.1,0.2,1.3,0.4c0.2,0.2,0.4,0.6,0.4,1.1s-0.2,0.9-0.4,1.1
					c-0.2,0.2-0.9,0.4-1.3,0.4h-8.9c-0.9,0-1.3-0.2-1.7-0.4c-0.4-0.4-0.4-0.9-0.4-1.7v-14.1c0-0.6,0.2-1.3,0.4-1.7
					c0.4-0.4,0.9-0.6,1.3-0.6c0.6,0,1.1,0.2,1.3,0.6C153.8,100.1,154,100.8,154,101.4z"/>
				<path class="st4" d="M170.9,116.2v-11.2c-2.2,1.5-3.5,2.4-4.3,2.4c-0.4,0-0.6-0.2-0.9-0.4c-0.2-0.2-0.4-0.6-0.4-0.9
					c0-0.4,0.2-0.6,0.4-0.9c0.2-0.2,0.6-0.4,1.3-0.9c1.1-0.4,1.7-0.9,2.4-1.5c0.6-0.4,1.1-1.1,1.5-1.7c0.4-0.6,0.9-1.1,0.9-1.1
					c0.2-0.2,0.4-0.2,0.9-0.2c0.4,0,0.9,0.2,1.1,0.4c0.2,0.4,0.4,0.9,0.4,1.3v14.1c0,1.7-0.6,2.4-1.7,2.4c-0.4,0-0.9-0.2-1.3-0.4
					C170.7,117.2,170.9,116.8,170.9,116.2z"/>
			</g>
		</g>
		<g>
			<g class="st3">
				<path class="st4" d="M144.7,212.2v13.2h7.4c0.6,0,1.1,0.2,1.3,0.4c0.2,0.2,0.4,0.6,0.4,1.1c0,0.4-0.2,0.9-0.4,1.1
					c-0.2,0.2-0.9,0.4-1.3,0.4h-8.9c-0.9,0-1.3-0.2-1.7-0.4c-0.4-0.4-0.4-0.9-0.4-1.7v-14.1c0-0.6,0.2-1.3,0.4-1.7
					c0.4-0.4,0.9-0.6,1.3-0.6c0.6,0,1.1,0.2,1.3,0.6C144.7,210.9,144.7,211.3,144.7,212.2z"/>
				<path class="st4" d="M160.1,225.4h6.5c0.6,0,1.1,0.2,1.5,0.4c0.4,0.2,0.4,0.6,0.4,1.1c0,0.4-0.2,0.6-0.4,1.1
					c-0.2,0.2-0.6,0.4-1.3,0.4h-9.1c-0.6,0-1.1-0.2-1.5-0.4c-0.4-0.2-0.4-0.6-0.4-1.3c0-0.2,0.2-0.6,0.4-1.1
					c0.2-0.4,0.4-0.9,0.6-1.1c1.1-1.1,2.2-2.2,3-3c0.9-0.9,1.5-1.3,1.9-1.5c0.6-0.4,1.3-0.9,1.7-1.5c0.4-0.4,0.9-1.1,1.1-1.5
					s0.4-1.1,0.4-1.5c0-0.4-0.2-1.1-0.4-1.5c-0.2-0.4-0.6-0.6-1.1-0.9c-0.4-0.2-0.9-0.4-1.5-0.4c-1.1,0-1.9,0.4-2.6,1.5
					c0,0.2-0.2,0.4-0.4,1.1c-0.2,0.6-0.4,1.1-0.6,1.3c-0.2,0.2-0.6,0.4-1.1,0.4c-0.4,0-0.6-0.2-1.1-0.4c-0.4-0.2-0.4-0.6-0.4-1.1
					c0-0.6,0.2-1.1,0.4-1.7c0.2-0.6,0.6-1.1,1.1-1.7c0.4-0.6,1.1-0.9,1.9-1.3c0.9-0.2,1.7-0.4,2.8-0.4c1.3,0,2.4,0.2,3.2,0.6
					c0.6,0.2,1.1,0.6,1.5,1.1c0.4,0.4,0.9,1.1,1.1,1.5c0.2,0.4,0.4,1.3,0.4,1.9c0,1.1-0.2,1.9-0.9,2.8c-0.6,0.9-1.1,1.5-1.5,1.9
					s-1.5,1.3-2.6,2.2c-1.3,1.1-2.2,1.7-2.6,2.4C160.5,224.9,160.3,225.2,160.1,225.4z"/>
				<path class="st4" d="M176.5,217.4c0.9,0,1.5-0.2,1.9-0.6c0.6-0.4,0.9-1.1,0.9-1.9c0-0.6-0.2-1.1-0.6-1.7
					c-0.4-0.4-1.1-0.6-1.7-0.6c-0.4,0-0.9,0-1.3,0.2c-0.4,0.2-0.6,0.4-0.9,0.6c-0.2,0.2-0.4,0.4-0.4,0.9c-0.2,0.4-0.2,0.6-0.4,1.1
					c0,0.2-0.2,0.2-0.4,0.4c-0.2,0-0.4,0.2-0.6,0.2c-0.4,0-0.6-0.2-0.9-0.4c-0.2-0.2-0.4-0.6-0.4-1.1s0.2-0.9,0.4-1.3
					c0.2-0.4,0.6-0.9,1.1-1.3c0.4-0.4,1.1-0.9,1.9-1.1c0.6-0.2,1.5-0.4,2.4-0.4c0.9,0,1.5,0,2.2,0.4c0.6,0.2,1.3,0.4,1.7,0.9
					c0.4,0.4,0.9,0.9,1.1,1.5c0.2,0.6,0.4,1.1,0.4,1.7c0,0.9-0.2,1.5-0.4,2.2c-0.2,0.6-0.9,1.1-1.5,1.7c0.6,0.4,1.1,0.6,1.7,1.1
					c0.4,0.4,0.9,0.9,1.1,1.5c0.2,0.4,0.4,1.1,0.4,1.7s-0.2,1.5-0.4,2.2c-0.2,0.6-0.6,1.3-1.3,1.9c-0.6,0.6-1.3,1.1-2.2,1.3
					c-0.9,0.2-1.7,0.4-2.6,0.4c-1.1,0-1.9-0.2-2.6-0.4c-0.9-0.4-1.5-0.9-1.9-1.3c-0.4-0.4-0.9-1.1-1.1-1.7c-0.2-0.6-0.4-1.1-0.4-1.5
					c0-0.4,0.2-0.9,0.4-1.1c0.2-0.2,0.6-0.4,1.1-0.4c0.2,0,0.4,0,0.6,0.2c0.2,0.2,0.4,0.2,0.4,0.4c0.4,1.1,0.9,1.9,1.3,2.6
					c0.4,0.6,1.1,0.9,2.2,0.9c0.4,0,1.1-0.2,1.5-0.4c0.4-0.2,0.9-0.6,1.1-1.1c0.2-0.4,0.4-1.1,0.4-1.7c0-0.9-0.2-1.7-0.9-2.2
					c-0.4-0.6-1.3-0.9-2.2-0.9c-0.2,0-0.4,0-0.9,0c-0.4,0-0.6,0-0.6,0c-0.4,0-0.9-0.2-1.1-0.4c-0.2-0.2-0.4-0.4-0.4-0.9
					s0.2-0.6,0.4-0.9c0.2-0.2,0.6-0.4,1.3-0.4h0.2V217.4z"/>
			</g>
		</g>
		<g>
			<g class="st3">
				<path class="st4" d="M151.9,317.1v13.2h7.4c0.6,0,1.1,0.2,1.3,0.4c0.2,0.2,0.4,0.6,0.4,1.1c0,0.4-0.2,0.9-0.4,1.1
					c-0.2,0.2-0.9,0.4-1.3,0.4h-8.9c-0.9,0-1.3-0.2-1.7-0.4c-0.4-0.4-0.4-0.9-0.4-1.7v-14.1c0-0.6,0.2-1.3,0.4-1.7
					c0.4-0.4,0.9-0.6,1.3-0.6c0.6,0,1.1,0.2,1.3,0.6C151.9,315.8,151.9,316.4,151.9,317.1z"/>
				<path class="st4" d="M170.5,331.8v-2.4h-6.3c-0.9,0-1.3-0.2-1.7-0.4c-0.4-0.2-0.6-0.9-0.6-1.5c0-0.2,0-0.2,0-0.4
					c0-0.2,0.2-0.4,0.2-0.4c0.2-0.2,0.2-0.4,0.4-0.4c0.2-0.2,0.2-0.4,0.4-0.6l6.5-8.9c0.4-0.6,0.9-1.1,1.1-1.3
					c0.2-0.2,0.6-0.4,1.1-0.4c1.3,0,1.9,0.6,1.9,2.2v9.5h0.4c0.6,0,1.1,0,1.5,0.2c0.4,0.2,0.6,0.6,0.6,1.1s-0.2,0.9-0.4,1.1
					c-0.2,0.2-0.9,0.4-1.5,0.4h-0.6v2.4c0,0.6-0.2,1.1-0.4,1.5c-0.2,0.2-0.6,0.4-1.1,0.4c-0.4,0-0.9-0.2-1.1-0.4
					C170.7,333.1,170.5,332.4,170.5,331.8z M165.3,326.8h5.4v-7.1L165.3,326.8z"/>
			</g>
		</g>
		<g>
			<g class="st3">
				<path class="st4" d="M152.3,390v13.2h7.4c0.6,0,1.1,0.2,1.3,0.4c0.2,0.2,0.4,0.6,0.4,1.1c0,0.4-0.2,0.9-0.4,1.1
					c-0.2,0.2-0.9,0.4-1.3,0.4h-8.9c-0.9,0-1.3-0.2-1.7-0.4c-0.4-0.4-0.4-0.9-0.4-1.7V390c0-0.6,0.2-1.3,0.4-1.7
					c0.4-0.4,0.9-0.6,1.3-0.6c0.6,0,1.1,0.2,1.3,0.6C152.1,388.7,152.3,389.3,152.3,390z"/>
				<path class="st4" d="M173.7,391.1h-5.8l-0.6,4.1c1.1-0.6,2.2-0.9,3.2-0.9c0.9,0,1.5,0.2,2.2,0.4c0.6,0.2,1.3,0.6,1.7,1.3
					c0.4,0.4,0.9,1.1,1.3,1.9c0.2,0.6,0.4,1.5,0.4,2.4c0,1.3-0.2,2.4-0.9,3.2c-0.4,1.1-1.3,1.7-2.4,2.4c-1.1,0.6-2.2,0.9-3.5,0.9
					c-1.5,0-2.6-0.2-3.7-0.9c-1.1-0.6-1.5-1.1-1.9-1.9c-0.4-0.9-0.6-1.3-0.6-1.9c0-0.2,0.2-0.6,0.4-0.9c0.2-0.2,0.6-0.4,1.1-0.4
					c0.6,0,1.3,0.4,1.5,1.3c0.4,0.6,0.9,1.3,1.3,1.7c0.6,0.4,1.1,0.6,1.9,0.6c0.6,0,1.3-0.2,1.7-0.4c0.4-0.4,0.9-0.9,1.1-1.3
					c0.2-0.4,0.4-1.3,0.4-1.9c0-0.9-0.2-1.5-0.4-1.9c-0.2-0.6-0.6-1.1-1.1-1.3c-0.4-0.2-1.1-0.4-1.5-0.4c-0.6,0-1.3,0-1.5,0.2
					c-0.2,0.2-0.6,0.4-1.3,0.9c-0.6,0.4-1.1,0.6-1.5,0.6s-0.9-0.2-1.1-0.4c-0.2-0.2-0.4-0.6-0.4-1.1c0,0,0-0.2,0.2-0.9l1.1-5.8
					c0.2-0.6,0.4-1.3,0.6-1.5c0.2-0.2,0.9-0.4,1.5-0.4h6.5c1.3,0,1.9,0.4,1.9,1.5c0,0.4-0.2,0.9-0.4,1.1
					C175,391.5,174.4,391.1,173.7,391.1z"/>
			</g>
		</g>
		<g>
			<g class="st3">
				<path class="st4" d="M152.3,462.4v13.2h7.4c0.6,0,1.1,0.2,1.3,0.4c0.2,0.2,0.4,0.6,0.4,1.1c0,0.4-0.2,0.9-0.4,1.1
					c-0.2,0.2-0.9,0.4-1.3,0.4h-8.9c-0.9,0-1.3-0.2-1.7-0.4c-0.4-0.4-0.4-0.9-0.4-1.7v-14.1c0-0.6,0.2-1.3,0.4-1.7
					c0.4-0.4,0.9-0.6,1.3-0.6c0.6,0,1.1,0.2,1.3,0.6C152.1,461.1,152.3,461.8,152.3,462.4z"/>
				<path class="st4" d="M166.6,468.9c0.6-0.6,1.1-1.1,1.7-1.5c0.6-0.4,1.3-0.4,2.2-0.4s1.5,0.2,2.2,0.4c0.6,0.2,1.3,0.6,1.7,1.3
					c0.4,0.4,0.9,1.1,1.1,1.9c0.2,0.6,0.4,1.5,0.4,2.4c0,1.1-0.2,2.2-0.9,3.2s-1.3,1.7-2.2,2.2c-0.9,0.4-1.9,0.9-3.2,0.9
					s-2.6-0.4-3.7-1.1s-1.7-1.7-2.4-3c-0.4-1.3-0.9-3-0.9-4.8c0-1.5,0.2-3,0.4-4.1c0.2-1.3,0.9-2.2,1.3-3c0.6-0.9,1.3-1.5,2.2-1.7
					c0.9-0.2,1.7-0.6,3-0.6c1.1,0,1.9,0.2,2.8,0.6c0.9,0.4,1.5,0.9,1.7,1.5c0.4,0.6,0.6,1.3,0.6,1.7c0,0.4-0.2,0.6-0.4,0.9
					c-0.2,0.2-0.6,0.4-1.1,0.4c-0.4,0-0.6-0.2-0.9-0.4c-0.2-0.2-0.4-0.4-0.6-0.9c-0.2-0.4-0.4-0.9-0.9-1.3c-0.4-0.2-0.9-0.4-1.5-0.4
					c-0.4,0-0.9,0.2-1.3,0.4c-0.4,0.2-0.9,0.6-1.1,1.1C167,465,166.6,466.8,166.6,468.9z M169.8,476.7c0.9,0,1.5-0.4,2.2-1.1
					c0.6-0.6,0.9-1.5,0.9-2.6c0-0.6-0.2-1.3-0.4-1.9c-0.2-0.4-0.6-0.9-1.1-1.3c-0.4-0.4-0.9-0.4-1.5-0.4c-0.4,0-1.1,0.2-1.5,0.4
					c-0.4,0.2-0.9,0.6-1.1,1.1c-0.2,0.4-0.4,1.1-0.4,1.7c0,1.1,0.2,1.9,0.9,2.8C168.3,476.3,169,476.7,169.8,476.7z"/>
			</g>
		</g>
		<g>
			<polygon class="st5" points="299.8,37.9 230.8,3.9 92.8,3.9 24,37.9 24.3,38.3 24.3,474.5 92.8,508.3 230.8,508.3 299.4,474.5 
				299.4,38.3 			"/>
			<polygon class="st5" points="24.3,111.8 24.3,251.3 92.8,285.3 230.8,285.3 299.4,251.3 299.4,111.8 230.4,145.1 93.3,145.1 			
				"/>
			<polygon class="st5" points="230.8,3.9 92.8,3.9 24,37.9 92.8,71.6 230.8,71.6 299.8,37.9 			"/>
			<polyline class="st5" points="24,111.8 92.8,145.6 230.8,145.6 299.8,111.8 			"/>
			<line class="st5" x1="92.8" y1="72" x2="92.8" y2="145.6"/>
			<line class="st5" x1="230.8" y1="72" x2="230.8" y2="145.6"/>
			<line class="st5" x1="299.4" y1="38.3" x2="299.4" y2="111.8"/>
			<line class="st5" x1="24.3" y1="38.3" x2="24.3" y2="111.8"/>
			<path class="st5" d="M92.8,286.2"/>
			<path class="st5" d="M92.8,212.6"/>
			<path class="st5" d="M230.8,286.2"/>
			<path class="st5" d="M230.8,212.6"/>
			<line class="st5" x1="299.4" y1="111.8" x2="299.4" y2="252.2"/>
			<line class="st5" x1="230.8" y1="144.7" x2="230.8" y2="287"/>
			<line class="st5" x1="24.3" y1="111.8" x2="24.3" y2="252.2"/>
			<line class="st5" x1="92.8" y1="144.7" x2="92.8" y2="286.2"/>
			<polyline class="st5" points="24,326.6 92.8,360.3 230.8,360.3 299.8,326.6 			"/>
			<line class="st5" x1="92.8" y1="286.8" x2="92.8" y2="360.3"/>
			<line class="st5" x1="230.8" y1="286.8" x2="230.8" y2="360.3"/>
			<line class="st5" x1="299.4" y1="253.9" x2="299.4" y2="326.6"/>
			<line class="st5" x1="230.8" y1="286.8" x2="230.8" y2="292.6"/>
			<line class="st5" x1="24.3" y1="253.9" x2="24.3" y2="326.6"/>
			<line class="st5" x1="92.8" y1="286.8" x2="92.8" y2="292.6"/>
			<polyline class="st5" points="24,401 92.8,434.7 230.8,434.7 299.8,401 			"/>
			<line class="st5" x1="92.8" y1="361.2" x2="92.8" y2="434.7"/>
			<line class="st5" x1="230.8" y1="361.2" x2="230.8" y2="434.7"/>
			<line class="st5" x1="299.4" y1="328.1" x2="299.4" y2="401"/>
			<line class="st5" x1="230.8" y1="361.2" x2="230.8" y2="367"/>
			<line class="st5" x1="24.3" y1="328.1" x2="24.3" y2="401"/>
			<line class="st5" x1="92.8" y1="361.2" x2="92.8" y2="367"/>
			<polyline class="st5" points="24,475.2 92.8,509.1 230.8,509.1 299.8,475.2 			"/>
			<line class="st5" x1="92.8" y1="435.6" x2="92.8" y2="509.1"/>
			<line class="st5" x1="230.8" y1="435.6" x2="230.8" y2="509.1"/>
			<line class="st5" x1="299.4" y1="402.5" x2="299.4" y2="475.2"/>
			<line class="st5" x1="230.8" y1="435.6" x2="230.8" y2="441.4"/>
			<line class="st5" x1="24.3" y1="402.5" x2="24.3" y2="475.2"/>
			<line class="st5" x1="92.8" y1="435.6" x2="92.8" y2="441.4"/>
		</g>
	</g>
</g>
</svg>
