<?xml version="1.0" encoding="utf-8"?>
<!-- Generator: Adobe Illustrator 24.1.0, SVG Export Plug-In . SVG Version: 6.00 Build 0)  -->
<svg version="1.1" id="Layer_1" xmlns="http://www.w3.org/2000/svg" xmlns:xlink="http://www.w3.org/1999/xlink" x="0px" y="0px"
	 viewBox="0 0 751 1904" style="enable-background:new 0 0 751 1904;" xml:space="preserve">
<style type="text/css">
	.st0{fill:#303354;}
	.st1{fill:#FFC807;}
	.st2{fill:#84BBF8;}
	.st3{fill:#657BE1;}
	.st4{fill:#33B080;}
	.st5{fill:#B2B3B3;}
	.st6{fill:#FFFFFF;}
	.st7{fill:#EC1E24;}
</style>
<g>
	<path class="st0" d="M23.01,352.62V20.5c0-1.63,1.32-2.95,2.95-2.95h700.71c1.63,0,2.95,1.32,2.95,2.95v332.12
		c0,1.63-1.32,2.95-2.95,2.95H25.96C24.33,355.58,23.01,354.25,23.01,352.62z"/>
	<path class="st1" d="M718.74,358.13H33.89c-7.41,0-13.43-6.03-13.43-13.43V28.43c0-7.41,6.03-13.43,13.43-13.43h684.85
		c7.41,0,13.43,6.03,13.43,13.43V344.7C732.18,352.1,726.15,358.13,718.74,358.13z M33.89,20.11c-4.59,0-8.33,3.74-8.33,8.33V344.7
		c0,4.59,3.74,8.33,8.33,8.33h684.85c4.59,0,8.33-3.74,8.33-8.33V28.43c0-4.59-3.73-8.33-8.33-8.33H33.89z"/>
</g>
<g>
	<path class="st0" d="M23.01,737.61V405.49c0-1.63,1.32-2.95,2.95-2.95h700.71c1.63,0,2.95,1.32,2.95,2.95v332.12
		c0,1.63-1.32,2.95-2.95,2.95H25.96C24.33,740.56,23.01,739.24,23.01,737.61z"/>
	<path class="st2" d="M718.74,743.11H33.89c-7.41,0-13.43-6.03-13.43-13.43V413.42c0-7.41,6.03-13.43,13.43-13.43h684.85
		c7.41,0,13.43,6.03,13.43,13.43v316.26C732.18,737.08,726.15,743.11,718.74,743.11z M33.89,405.09c-4.59,0-8.33,3.74-8.33,8.33
		v316.26c0,4.59,3.74,8.33,8.33,8.33h684.85c4.59,0,8.33-3.74,8.33-8.33V413.42c0-4.59-3.73-8.33-8.33-8.33H33.89z"/>
</g>
<g>
	<path class="st0" d="M23.01,1117.47V785.34c0-1.63,1.32-2.95,2.95-2.95h700.71c1.63,0,2.95,1.32,2.95,2.95v332.12
		c0,1.63-1.32,2.95-2.95,2.95H25.96C24.33,1120.42,23.01,1119.1,23.01,1117.47z"/>
	<path class="st3" d="M718.74,1122.97H33.89c-7.41,0-13.43-6.03-13.43-13.43V793.27c0-7.41,6.03-13.43,13.43-13.43h684.85
		c7.41,0,13.43,6.03,13.43,13.43v316.27C732.18,1116.94,726.15,1122.97,718.74,1122.97z M33.89,784.94c-4.59,0-8.33,3.74-8.33,8.33
		v316.27c0,4.59,3.74,8.33,8.33,8.33h684.85c4.59,0,8.33-3.73,8.33-8.33V793.27c0-4.59-3.73-8.33-8.33-8.33H33.89z"/>
</g>
<g>
	<path class="st0" d="M23.01,1497.32V1165.2c0-1.63,1.32-2.95,2.95-2.95h700.71c1.63,0,2.95,1.32,2.95,2.95v332.12
		c0,1.63-1.32,2.95-2.95,2.95H25.96C24.33,1500.27,23.01,1498.95,23.01,1497.32z"/>
	<path class="st4" d="M718.74,1502.83H33.89c-7.41,0-13.43-6.03-13.43-13.43v-316.26c0-7.41,6.03-13.44,13.43-13.44h684.85
		c7.41,0,13.43,6.03,13.43,13.44v316.26C732.18,1496.8,726.15,1502.83,718.74,1502.83z M33.89,1164.8c-4.59,0-8.33,3.74-8.33,8.33
		v316.26c0,4.59,3.74,8.33,8.33,8.33h684.85c4.59,0,8.33-3.73,8.33-8.33v-316.26c0-4.59-3.73-8.33-8.33-8.33H33.89z"/>
</g>
<g>
	<path class="st0" d="M23.01,1881.5v-332.12c0-1.63,1.32-2.95,2.95-2.95h700.71c1.63,0,2.95,1.32,2.95,2.95v332.12
		c0,1.63-1.32,2.95-2.95,2.95H25.96C24.33,1884.45,23.01,1883.13,23.01,1881.5z"/>
	<path class="st5" d="M718.74,1887H33.89c-7.41,0-13.43-6.03-13.43-13.43V1557.3c0-7.41,6.03-13.43,13.43-13.43h684.85
		c7.41,0,13.43,6.03,13.43,13.43v316.27C732.18,1880.97,726.15,1887,718.74,1887z M33.89,1548.98c-4.59,0-8.33,3.73-8.33,8.33
		v316.27c0,4.59,3.74,8.33,8.33,8.33h684.85c4.59,0,8.33-3.73,8.33-8.33V1557.3c0-4.59-3.73-8.33-8.33-8.33H33.89z"/>
</g>
<path class="st1" d="M262.61,168.43c-6.05,0.04-9.91-1.65-12.16-3.18c-1.9-3.68-5.58-8.62-11.8-13.89
	c-10.49-8.88-21.83-12.61-32.07-15.85c-10.23-3.24-18.68-0.68-20.73-0.43c-2.05,0.26-5.43-0.6-5.43-0.6l0,0
	c0.23-0.39,0.46-0.77,0.66-1.11c1.88-3.24,0.43-8.1-2.22-10.23c-1.36-1.1-3.96-1.6-6.64-1.26c0.05-0.04,0.11-0.08,0.16-0.11
	c2.47-1.63,1.36-3.58,1.19-4.77c-0.17-1.19-2.22-2.39-6.74-1.79c-4.52,0.6-7.42,5.71-7.76,7.59c-0.34,1.88-3.68,10.75-3.68,10.75
	c-1.41,0.62-2.87,1.34-4.26,2.13c-5.2,2.99-13.31,6.23-17.65,12.79c-0.9,1.37-1.71,3.07-2.39,3.75c-0.68,0.68-6.65,6.4-6.4,8.78
	c0.26,2.39,1.79,2.56,1.96,3.07c0.17,0.51,1.19,1.28,2.56,1.11c0,0,0.26,2.47,4.18,3.67c3.92,1.19,8.19,0,9.64,0s2.9,0.26,3.92,0.17
	c0.42-0.04,1.74,0.54,3.8,1.1c3.91,1.96,7.1,5.88,8.05,7.17c0.18,0.24,0.39,0.54,0.64,0.86l0,0c-0.03,0.33-0.05,0.6-0.06,0.84
	c-0.09,1.44-0.55,2.83-1.36,4.02c-0.5,0.73-1.12,1.45-1.86,1.95c-2.13,1.45-3.24,2.05-3.75,2.05c-0.51,0-4.09-0.43-5.33-0.34
	c-1.24,0.09-3.62,1.28-3.37,3.58c0,0,0.51,0.43,0.85,0.34c0.34-0.09,0.68,1.54,3.5-0.6c0,0-0.51,2.56,1.88,1.88
	c2.39-0.68,2.64-1.79,2.64-1.79s0.94,0.77,1.88,0.43c0.94-0.34,1.54-1.11,1.54-1.11s-0.34,1.11,1.36,1.19
	c1.71,0.09,2.73-0.77,2.9-2.39c0.17-1.62,4.42-4.26,4.42-4.26c1.77,1.02,3.6,2.56,2.49,4.26c-0.07,0.11-0.13,0.22-0.18,0.32
	c-1.04,0.68-2.63,1.78-3.65,2.75c-1.63,1.54-3.85,3.28-5.98,3.13c0,0-1.45-2.56-2.56-2.42c-1.11,0.14-4.18,3.38-4.18,4.15h0.6
	c0,0-0.94,0.6,0,1.11c0,0-0.74,1.62,0.78,2.05c1.52,0.43,3.4,0.26,4-1.62c0,0,0,1.28,1.54,1.02l3.07-0.6c0,0,0.26,2.18,2.05,1.39
	c0,0,0.51-0.36,0.17-1.13c0,0,2.05,0.09,3.07-0.68c0.56-0.42,2.51-1.92,4.14-3.35c1.61,0.53,3.61-1.68,5.28-2.11
	c2-0.51,5.33-3.07,7.8-3.41c2.47-0.34,9.55-1.28,9.55-1.28c0.51,0.94,3.75,0.68,6.99,0.6c3.24-0.09,13.22-1.54,16.61-1.96
	c3.39-0.43,5.99,0.17,9.66,0.94c3.67,0.77,10.92-1.02,14.07-2.47l1.88,1.28v4.01l-2.3,2.73c0,0-4.18,0.81-5.29,1.77
	c-1.11,0.96-3.07,2.84-2.64,3.78c0.43,0.94,1.88,0.85,2.99,0.51c1.11-0.34,2.1-2.13,2.1-2.13s-1.42,2.52-0.4,3.1
	c1.02,0.57,3.33-0.2,3.41-0.54c0.09-0.34,0.09-1.71,0.43-1.96c0.34-0.26,1.02-1.02,1.02-1.02s-0.88,2.05-0.65,2.9
	c0.23,0.85,2.53,1.07,3.13,0.62c0.6-0.45,0.51-1.82,0.51-1.82l0.85-1.19c0,0,1.45-0.17,1.71-0.43c0.26-0.26,1.88,0.94,3.07,1.79
	c1.19,0.85,2.25-0.17,2.32-0.68c0.07-0.51-0.44-2.26-1.72-2.92c-1.28-0.66-1.96-1.43-1.96-1.43s0.17-5.37,0.26-7.25
	c0.09-1.88,0.26-4.95-0.77-5.8c-0.48-0.4-1.15-0.92-1.74-1.37c0.41-0.19,0.9-0.39,1.4-0.59c0.88-0.35,2.58-2.42,3.63-4.52
	c4.45-0.74,12.4-1.82,17.35-1.11c7.16,1.02,20.71,10.36,19.62,18.08c-1.1,7.72-13.13,13.82-13.13,13.82
	c-20.13,9.72-31.56,6.65-45.89,6.48c-14.33-0.17-17.23,9.89-17.23,9.89c14.5-19.28,29.85,3.58,64.99-14.84
	C312.08,187.36,276.42,168.34,262.61,168.43z"/>
<g>
	<path class="st1" d="M108.8,280.99V254.6h19.08v3.11h-15.59v8.08h14.6v3.1h-14.6v8.98h16.2v3.11H108.8z"/>
	<path class="st1" d="M130.74,280.99l6.98-9.94l-6.46-9.18h4.05l2.93,4.48c0.55,0.85,1,1.57,1.33,2.14
		c0.53-0.79,1.02-1.49,1.46-2.11l3.22-4.52h3.87l-6.61,9l7.11,10.12h-3.98l-3.92-5.94l-1.04-1.6l-5.02,7.54H130.74z"/>
	<path class="st1" d="M151.34,288.31v-26.44h2.95v2.48c0.69-0.97,1.48-1.7,2.36-2.19c0.87-0.48,1.94-0.73,3.19-0.73
		c1.63,0,3.07,0.42,4.32,1.26c1.25,0.84,2.19,2.02,2.83,3.56c0.64,1.53,0.95,3.2,0.95,5.03c0,1.95-0.35,3.72-1.05,5.28
		c-0.7,1.57-1.72,2.77-3.06,3.6c-1.34,0.84-2.74,1.25-4.22,1.25c-1.08,0-2.05-0.23-2.91-0.68c-0.86-0.46-1.56-1.03-2.11-1.73v9.31
		H151.34z M154.27,271.54c0,2.46,0.5,4.28,1.49,5.45s2.2,1.76,3.62,1.76c1.44,0,2.67-0.61,3.7-1.83c1.02-1.22,1.54-3.1,1.54-5.66
		c0-2.44-0.5-4.26-1.5-5.47c-1-1.21-2.2-1.82-3.59-1.82c-1.38,0-2.6,0.64-3.66,1.93C154.8,267.2,154.27,269.08,154.27,271.54z"/>
	<path class="st1" d="M184.93,274.83l3.35,0.41c-0.53,1.95-1.5,3.47-2.93,4.55s-3.25,1.62-5.47,1.62c-2.8,0-5.01-0.86-6.65-2.58
		c-1.64-1.72-2.46-4.14-2.46-7.24c0-3.21,0.83-5.71,2.48-7.49s3.81-2.66,6.44-2.66c2.56,0,4.64,0.87,6.26,2.61
		c1.62,1.74,2.43,4.19,2.43,7.34c0,0.19-0.01,0.48-0.02,0.86h-14.26c0.12,2.1,0.71,3.71,1.78,4.82c1.07,1.12,2.4,1.67,4,1.67
		c1.19,0,2.2-0.31,3.04-0.94C183.77,277.19,184.43,276.2,184.93,274.83z M174.29,269.59h10.67c-0.14-1.61-0.55-2.82-1.22-3.62
		c-1.03-1.25-2.37-1.87-4.01-1.87c-1.49,0-2.74,0.5-3.75,1.49C174.96,266.59,174.39,267.92,174.29,269.59z"/>
	<path class="st1" d="M192.31,280.99v-19.12h2.92v2.9c0.75-1.36,1.43-2.25,2.06-2.68c0.63-0.43,1.32-0.65,2.08-0.65
		c1.09,0,2.2,0.35,3.33,1.04l-1.12,3.01c-0.79-0.47-1.58-0.7-2.38-0.7c-0.71,0-1.34,0.21-1.91,0.64c-0.57,0.42-0.96,1.02-1.21,1.77
		c-0.36,1.15-0.54,2.41-0.54,3.78v10.01H192.31z"/>
	<path class="st1" d="M204.64,258.32v-3.73h3.24v3.73H204.64z M204.64,280.99v-19.12h3.24v19.12H204.64z"/>
	<path class="st1" d="M212.81,280.99v-19.12h2.9v2.68c0.6-0.94,1.4-1.69,2.39-2.26c1-0.57,2.13-0.86,3.4-0.86
		c1.41,0,2.58,0.3,3.48,0.88c0.9,0.59,1.54,1.41,1.92,2.47c1.51-2.23,3.48-3.35,5.9-3.35c1.9,0,3.36,0.53,4.37,1.58
		c1.02,1.05,1.53,2.66,1.53,4.85v13.12h-3.22v-12.04c0-1.3-0.1-2.23-0.31-2.8c-0.21-0.57-0.59-1.03-1.14-1.38
		c-0.55-0.35-1.2-0.52-1.94-0.52c-1.34,0-2.46,0.45-3.35,1.34c-0.89,0.9-1.33,2.33-1.33,4.29v11.11h-3.24v-12.42
		c0-1.44-0.26-2.52-0.79-3.24s-1.39-1.08-2.59-1.08c-0.91,0-1.76,0.24-2.53,0.72c-0.78,0.48-1.34,1.18-1.68,2.11s-0.52,2.26-0.52,4
		v9.92H212.81z"/>
	<path class="st1" d="M256.6,274.83l3.35,0.41c-0.53,1.95-1.5,3.47-2.93,4.55s-3.25,1.62-5.47,1.62c-2.8,0-5.01-0.86-6.65-2.58
		c-1.64-1.72-2.46-4.14-2.46-7.24c0-3.21,0.83-5.71,2.48-7.49c1.66-1.77,3.81-2.66,6.44-2.66c2.56,0,4.64,0.87,6.26,2.61
		c1.62,1.74,2.43,4.19,2.43,7.34c0,0.19-0.01,0.48-0.02,0.86h-14.26c0.12,2.1,0.71,3.71,1.78,4.82c1.07,1.12,2.4,1.67,4,1.67
		c1.19,0,2.2-0.31,3.04-0.94S256.11,276.2,256.6,274.83z M245.97,269.59h10.67c-0.14-1.61-0.55-2.82-1.22-3.62
		c-1.03-1.25-2.37-1.87-4.01-1.87c-1.49,0-2.74,0.5-3.75,1.49C246.64,266.59,246.07,267.92,245.97,269.59z"/>
	<path class="st1" d="M264.02,280.99v-19.12h2.92v2.72c1.4-2.1,3.43-3.15,6.08-3.15c1.15,0,2.21,0.21,3.18,0.62
		c0.96,0.42,1.69,0.96,2.17,1.63c0.48,0.67,0.82,1.47,1.01,2.39c0.12,0.6,0.18,1.65,0.18,3.15v11.75h-3.24v-11.63
		c0-1.32-0.13-2.31-0.38-2.96c-0.25-0.66-0.7-1.18-1.34-1.57c-0.64-0.39-1.39-0.58-2.26-0.58c-1.38,0-2.57,0.44-3.57,1.31
		c-1,0.87-1.5,2.54-1.5,4.99v10.44H264.02z"/>
	<path class="st1" d="M291.6,278.09l0.47,2.86c-0.91,0.19-1.73,0.29-2.45,0.29c-1.18,0-2.09-0.19-2.74-0.56
		c-0.65-0.37-1.11-0.86-1.37-1.47c-0.26-0.61-0.4-1.88-0.4-3.83v-11h-2.38v-2.52h2.38v-4.73l3.22-1.94v6.68h3.26v2.52h-3.26v11.18
		c0,0.93,0.06,1.52,0.17,1.78c0.12,0.26,0.3,0.48,0.56,0.63c0.26,0.15,0.63,0.23,1.11,0.23
		C290.54,278.21,291.01,278.17,291.6,278.09z"/>
	<path class="st1" d="M293.47,275.28l3.2-0.5c0.18,1.29,0.68,2.27,1.5,2.95c0.82,0.68,1.97,1.03,3.45,1.03
		c1.49,0,2.59-0.3,3.31-0.91c0.72-0.61,1.08-1.32,1.08-2.13c0-0.73-0.32-1.31-0.95-1.73c-0.44-0.29-1.55-0.66-3.31-1.1
		c-2.38-0.6-4.02-1.12-4.94-1.56c-0.91-0.44-1.61-1.04-2.09-1.82c-0.47-0.77-0.71-1.63-0.71-2.56c0-0.85,0.19-1.64,0.59-2.37
		c0.39-0.72,0.92-1.33,1.59-1.81c0.5-0.37,1.19-0.69,2.06-0.94c0.87-0.26,1.8-0.39,2.8-0.39c1.5,0,2.82,0.22,3.95,0.65
		c1.13,0.43,1.97,1.02,2.51,1.76c0.54,0.73,0.91,1.72,1.12,2.96l-3.17,0.43c-0.14-0.98-0.56-1.75-1.25-2.3
		c-0.69-0.55-1.67-0.83-2.93-0.83c-1.49,0-2.55,0.24-3.19,0.74s-0.95,1.07-0.95,1.73c0,0.42,0.13,0.8,0.4,1.13
		c0.26,0.35,0.68,0.64,1.24,0.86c0.32,0.12,1.28,0.4,2.86,0.83c2.29,0.61,3.89,1.11,4.8,1.5c0.9,0.39,1.62,0.95,2.13,1.7
		c0.51,0.75,0.77,1.67,0.77,2.77c0,1.08-0.31,2.1-0.95,3.05c-0.63,0.95-1.54,1.69-2.73,2.21c-1.19,0.53-2.53,0.78-4.03,0.78
		c-2.48,0-4.38-0.51-5.68-1.55C294.66,278.84,293.83,277.31,293.47,275.28z"/>
</g>
<g>
	<path class="st1" d="M457.09,272.51l3.29-0.29c0.15,1.32,0.52,2.4,1.09,3.25c0.57,0.84,1.45,1.53,2.65,2.05
		c1.2,0.52,2.55,0.78,4.05,0.78c1.33,0,2.51-0.2,3.53-0.59c1.02-0.4,1.78-0.94,2.28-1.63c0.5-0.69,0.75-1.44,0.75-2.26
		c0-0.83-0.24-1.55-0.72-2.17c-0.48-0.62-1.27-1.14-2.38-1.56c-0.71-0.28-2.28-0.71-4.7-1.29c-2.42-0.58-4.12-1.13-5.09-1.65
		c-1.26-0.66-2.2-1.48-2.82-2.46c-0.62-0.98-0.93-2.07-0.93-3.29c0-1.33,0.38-2.58,1.13-3.73c0.76-1.16,1.86-2.04,3.31-2.64
		c1.45-0.6,3.07-0.9,4.84-0.9c1.95,0,3.68,0.31,5.18,0.95c1.49,0.63,2.64,1.56,3.45,2.78c0.8,1.22,1.23,2.61,1.3,4.16l-3.35,0.25
		c-0.18-1.67-0.79-2.93-1.83-3.78c-1.04-0.85-2.57-1.28-4.6-1.28c-2.11,0-3.65,0.39-4.62,1.16c-0.97,0.78-1.45,1.71-1.45,2.8
		c0,0.95,0.34,1.73,1.03,2.34c0.67,0.61,2.43,1.24,5.26,1.88c2.84,0.64,4.79,1.21,5.84,1.68c1.54,0.71,2.67,1.61,3.4,2.69
		c0.73,1.08,1.1,2.34,1.1,3.75c0,1.4-0.4,2.73-1.21,3.97c-0.8,1.25-1.96,2.21-3.46,2.9c-1.51,0.69-3.2,1.03-5.09,1.03
		c-2.39,0-4.39-0.35-6-1.04c-1.62-0.69-2.88-1.74-3.8-3.14C457.63,275.85,457.14,274.27,457.09,272.51z"/>
	<path class="st1" d="M482.46,288.31v-26.44h2.95v2.48c0.69-0.97,1.48-1.7,2.36-2.19c0.87-0.48,1.94-0.73,3.19-0.73
		c1.63,0,3.07,0.42,4.32,1.26s2.19,2.02,2.83,3.56c0.64,1.53,0.95,3.2,0.95,5.03c0,1.95-0.35,3.72-1.05,5.28
		c-0.7,1.57-1.72,2.77-3.06,3.6c-1.34,0.84-2.74,1.25-4.22,1.25c-1.08,0-2.05-0.23-2.91-0.68c-0.86-0.46-1.56-1.03-2.11-1.73v9.31
		H482.46z M485.39,271.54c0,2.46,0.5,4.28,1.49,5.45c1,1.18,2.2,1.76,3.62,1.76c1.44,0,2.67-0.61,3.7-1.83
		c1.02-1.22,1.54-3.1,1.54-5.66c0-2.44-0.5-4.26-1.5-5.47c-1-1.21-2.2-1.82-3.59-1.82c-1.38,0-2.6,0.64-3.66,1.93
		C485.92,267.2,485.39,269.08,485.39,271.54z"/>
	<path class="st1" d="M515.43,278.63c-1.2,1.02-2.35,1.74-3.46,2.16c-1.11,0.42-2.3,0.63-3.57,0.63c-2.1,0-3.72-0.51-4.84-1.54
		c-1.13-1.02-1.69-2.34-1.69-3.93c0-0.94,0.21-1.79,0.64-2.56c0.42-0.78,0.98-1.4,1.67-1.86c0.69-0.47,1.47-0.82,2.33-1.06
		c0.64-0.17,1.59-0.33,2.88-0.49c2.62-0.31,4.54-0.68,5.78-1.12c0.01-0.44,0.02-0.73,0.02-0.85c0-1.32-0.31-2.25-0.92-2.79
		c-0.83-0.73-2.06-1.1-3.69-1.1c-1.52,0-2.65,0.27-3.38,0.8c-0.72,0.53-1.26,1.48-1.61,2.83l-3.17-0.43
		c0.29-1.36,0.76-2.45,1.42-3.29c0.66-0.83,1.61-1.48,2.86-1.92c1.25-0.45,2.69-0.68,4.34-0.68c1.63,0,2.96,0.19,3.98,0.58
		c1.02,0.39,1.77,0.87,2.25,1.45c0.48,0.58,0.82,1.32,1.01,2.21c0.11,0.55,0.16,1.55,0.16,2.99v4.32c0,3.01,0.07,4.92,0.21,5.71
		c0.14,0.8,0.41,1.57,0.82,2.3h-3.38C515.75,280.31,515.53,279.53,515.43,278.63z M515.16,271.39c-1.18,0.48-2.94,0.89-5.29,1.22
		c-1.33,0.19-2.28,0.41-2.83,0.65c-0.55,0.24-0.98,0.59-1.28,1.05c-0.3,0.46-0.45,0.97-0.45,1.54c0,0.86,0.33,1.58,0.98,2.16
		c0.66,0.58,1.61,0.86,2.87,0.86c1.25,0,2.36-0.27,3.33-0.82c0.97-0.55,1.68-1.3,2.14-2.24c0.35-0.73,0.52-1.81,0.52-3.24V271.39z"
		/>
	<path class="st1" d="M523.42,280.99v-19.12h2.92v2.9c0.75-1.36,1.43-2.25,2.06-2.68c0.63-0.43,1.32-0.65,2.08-0.65
		c1.09,0,2.2,0.35,3.33,1.04l-1.12,3.01c-0.79-0.47-1.58-0.7-2.38-0.7c-0.71,0-1.34,0.21-1.91,0.64c-0.57,0.42-0.96,1.02-1.21,1.77
		c-0.36,1.15-0.54,2.41-0.54,3.78v10.01H523.42z"/>
	<path class="st1" d="M534.44,275.28l3.2-0.5c0.18,1.29,0.68,2.27,1.5,2.95c0.82,0.68,1.97,1.03,3.45,1.03
		c1.49,0,2.59-0.3,3.31-0.91c0.72-0.61,1.08-1.32,1.08-2.13c0-0.73-0.32-1.31-0.95-1.73c-0.44-0.29-1.55-0.66-3.31-1.1
		c-2.38-0.6-4.02-1.12-4.94-1.56c-0.91-0.44-1.61-1.04-2.09-1.82c-0.47-0.77-0.71-1.63-0.71-2.56c0-0.85,0.19-1.64,0.59-2.37
		c0.39-0.72,0.92-1.33,1.59-1.81c0.5-0.37,1.19-0.69,2.06-0.94c0.87-0.26,1.8-0.39,2.8-0.39c1.5,0,2.82,0.22,3.95,0.65
		c1.13,0.43,1.97,1.02,2.51,1.76c0.54,0.73,0.91,1.72,1.12,2.96l-3.17,0.43c-0.14-0.98-0.56-1.75-1.25-2.3
		c-0.69-0.55-1.67-0.83-2.93-0.83c-1.49,0-2.55,0.24-3.19,0.74s-0.95,1.07-0.95,1.73c0,0.42,0.13,0.8,0.4,1.13
		c0.26,0.35,0.68,0.64,1.24,0.86c0.32,0.12,1.28,0.4,2.86,0.83c2.29,0.61,3.89,1.11,4.8,1.5c0.9,0.39,1.62,0.95,2.13,1.7
		s0.77,1.67,0.77,2.77c0,1.08-0.31,2.1-0.95,3.05c-0.63,0.95-1.54,1.69-2.73,2.21c-1.19,0.53-2.53,0.78-4.03,0.78
		c-2.48,0-4.38-0.51-5.68-1.55C535.63,278.84,534.8,277.31,534.44,275.28z"/>
	<path class="st1" d="M567.26,274.83l3.35,0.41c-0.53,1.95-1.5,3.47-2.93,4.55s-3.25,1.62-5.47,1.62c-2.8,0-5.02-0.86-6.65-2.58
		c-1.64-1.72-2.46-4.14-2.46-7.24c0-3.21,0.83-5.71,2.48-7.49s3.81-2.66,6.44-2.66c2.56,0,4.64,0.87,6.26,2.61
		c1.62,1.74,2.43,4.19,2.43,7.34c0,0.19-0.01,0.48-0.02,0.86h-14.26c0.12,2.1,0.71,3.71,1.78,4.82c1.07,1.12,2.4,1.67,4,1.67
		c1.19,0,2.2-0.31,3.04-0.94S566.76,276.2,567.26,274.83z M556.62,269.59h10.67c-0.14-1.61-0.55-2.82-1.22-3.62
		c-1.03-1.25-2.37-1.87-4.01-1.87c-1.49,0-2.74,0.5-3.75,1.49C557.29,266.59,556.73,267.92,556.62,269.59z"/>
	<path class="st1" d="M597.32,280.99v-2.41c-1.21,1.9-3,2.84-5.35,2.84c-1.52,0-2.93-0.42-4.2-1.26c-1.28-0.84-2.27-2.01-2.97-3.52
		c-0.7-1.5-1.05-3.24-1.05-5.19c0-1.91,0.32-3.64,0.95-5.19c0.64-1.56,1.59-2.75,2.86-3.57c1.27-0.83,2.69-1.24,4.27-1.24
		c1.15,0,2.18,0.24,3.08,0.73c0.9,0.49,1.63,1.12,2.2,1.9v-9.47h3.22v26.39H597.32z M587.08,271.45c0,2.45,0.51,4.28,1.55,5.49
		c1.03,1.21,2.25,1.82,3.65,1.82c1.41,0,2.62-0.58,3.61-1.74c0.99-1.16,1.49-2.93,1.49-5.3c0-2.62-0.5-4.54-1.51-5.76
		c-1.01-1.22-2.25-1.84-3.73-1.84c-1.44,0-2.64,0.59-3.61,1.76C587.56,267.06,587.08,268.91,587.08,271.45z"/>
	<path class="st1" d="M617.89,278.63c-1.2,1.02-2.35,1.74-3.46,2.16c-1.11,0.42-2.3,0.63-3.57,0.63c-2.1,0-3.72-0.51-4.84-1.54
		c-1.13-1.02-1.69-2.34-1.69-3.93c0-0.94,0.21-1.79,0.64-2.56c0.42-0.78,0.98-1.4,1.67-1.86c0.69-0.47,1.47-0.82,2.33-1.06
		c0.64-0.17,1.59-0.33,2.88-0.49c2.62-0.31,4.54-0.68,5.78-1.12c0.01-0.44,0.02-0.73,0.02-0.85c0-1.32-0.31-2.25-0.92-2.79
		c-0.83-0.73-2.06-1.1-3.69-1.1c-1.52,0-2.65,0.27-3.38,0.8c-0.72,0.53-1.26,1.48-1.61,2.83l-3.17-0.43
		c0.29-1.36,0.76-2.45,1.42-3.29c0.66-0.83,1.61-1.48,2.86-1.92c1.25-0.45,2.69-0.68,4.34-0.68c1.63,0,2.96,0.19,3.98,0.58
		c1.02,0.39,1.77,0.87,2.25,1.45c0.48,0.58,0.82,1.32,1.01,2.21c0.11,0.55,0.16,1.55,0.16,2.99v4.32c0,3.01,0.07,4.92,0.21,5.71
		c0.14,0.8,0.41,1.57,0.82,2.3h-3.38C618.21,280.31,617.99,279.53,617.89,278.63z M617.62,271.39c-1.18,0.48-2.94,0.89-5.29,1.22
		c-1.33,0.19-2.28,0.41-2.83,0.65c-0.55,0.24-0.98,0.59-1.28,1.05c-0.3,0.46-0.45,0.97-0.45,1.54c0,0.86,0.33,1.58,0.98,2.16
		c0.66,0.58,1.61,0.86,2.87,0.86c1.25,0,2.36-0.27,3.33-0.82c0.97-0.55,1.68-1.3,2.14-2.24c0.35-0.73,0.52-1.81,0.52-3.24V271.39z"
		/>
	<path class="st1" d="M633,278.09l0.47,2.86c-0.91,0.19-1.73,0.29-2.45,0.29c-1.18,0-2.09-0.19-2.74-0.56
		c-0.65-0.37-1.11-0.86-1.37-1.47c-0.26-0.61-0.4-1.88-0.4-3.83v-11h-2.38v-2.52h2.38v-4.73l3.22-1.94v6.68H633v2.52h-3.26v11.18
		c0,0.93,0.06,1.52,0.17,1.78c0.12,0.26,0.3,0.48,0.56,0.63c0.26,0.15,0.63,0.23,1.11,0.23C631.93,278.21,632.41,278.17,633,278.09z
		"/>
	<path class="st1" d="M648.64,278.63c-1.2,1.02-2.35,1.74-3.46,2.16c-1.11,0.42-2.3,0.63-3.57,0.63c-2.1,0-3.72-0.51-4.84-1.54
		c-1.13-1.02-1.69-2.34-1.69-3.93c0-0.94,0.21-1.79,0.64-2.56c0.42-0.78,0.98-1.4,1.67-1.86c0.69-0.47,1.47-0.82,2.33-1.06
		c0.64-0.17,1.59-0.33,2.88-0.49c2.62-0.31,4.54-0.68,5.78-1.12c0.01-0.44,0.02-0.73,0.02-0.85c0-1.32-0.31-2.25-0.92-2.79
		c-0.83-0.73-2.06-1.1-3.69-1.1c-1.52,0-2.65,0.27-3.38,0.8c-0.72,0.53-1.26,1.48-1.61,2.83l-3.17-0.43
		c0.29-1.36,0.76-2.45,1.42-3.29c0.66-0.83,1.61-1.48,2.86-1.92c1.25-0.45,2.69-0.68,4.34-0.68c1.63,0,2.96,0.19,3.98,0.58
		s1.77,0.87,2.25,1.45c0.48,0.58,0.82,1.32,1.01,2.21c0.11,0.55,0.16,1.55,0.16,2.99v4.32c0,3.01,0.07,4.92,0.21,5.71
		c0.14,0.8,0.41,1.57,0.82,2.3h-3.38C648.95,280.31,648.74,279.53,648.64,278.63z M648.37,271.39c-1.18,0.48-2.94,0.89-5.29,1.22
		c-1.33,0.19-2.28,0.41-2.83,0.65c-0.55,0.24-0.98,0.59-1.28,1.05c-0.3,0.46-0.45,0.97-0.45,1.54c0,0.86,0.33,1.58,0.98,2.16
		c0.66,0.58,1.61,0.86,2.87,0.86c1.25,0,2.36-0.27,3.33-0.82c0.97-0.55,1.68-1.3,2.14-2.24c0.35-0.73,0.52-1.81,0.52-3.24V271.39z"
		/>
</g>
<g>
	<line class="st6" x1="338.86" y1="165.3" x2="415.45" y2="165.3"/>
	<g>
		<path class="st1" d="M393.45,167.14h-54.59c-1.02,0-1.84-0.82-1.84-1.84c0-1.02,0.82-1.84,1.84-1.84h54.59
			c1.02,0,1.84,0.82,1.84,1.84C395.29,166.31,394.47,167.14,393.45,167.14z"/>
		<g>
			<polygon class="st1" points="383.09,178.95 388.89,165.3 383.09,151.64 415.45,165.3 			"/>
		</g>
	</g>
</g>
<g>
	<g>
		<g>
			<path class="st1" d="M658.18,140.07c0,0.33-0.04,0.86-0.45,1.27l-78.24,78.2c-0.41,0.45-0.95,0.49-1.32,0.49
				c-0.62,0-1.23-0.29-1.73-0.78l-15.53-15.53h12.53c5.84,0,10.56-4.52,10.56-10.15V121l26.67-26.67c0.41-0.37,0.86-0.45,1.23-0.45
				c0,0,0.04,0,0.08,0c0.62,0,1.23,0.29,1.68,0.78l43.72,43.68C657.89,138.84,658.14,139.45,658.18,140.07z"/>
			<path class="st7" d="M541.1,195.51l0.08,0.12v-0.12H541.1z"/>
		</g>
	</g>
	<g>
		<g>
			<path class="st1" d="M545.83,211.86c0.33,1.03-0.45,2.14-1.68,2.51l-59.46,16.97c-1.19,0.33-2.47-0.25-2.79-1.23l-30.33-106.39
				c-0.16-0.53,0.04-1.03,0.25-1.36c0.29-0.49,0.86-0.9,1.48-1.11l47.79-13.6v85.93c0,5.63,4.77,10.15,10.56,10.15h31.89
				L545.83,211.86z"/>
			<polygon class="st1" points="541.18,195.51 541.18,195.63 541.1,195.51 			"/>
		</g>
	</g>
	<g>
		<g>
			<path class="st1" d="M575.78,82.95v110.63c0,1.07-1.03,1.93-2.34,1.93h-61.81c-1.27,0-2.34-0.86-2.34-1.93V82.95
				c0-1.03,1.07-1.89,2.34-1.89h61.81C574.76,81.06,575.78,81.92,575.78,82.95z"/>
			<polygon class="st1" points="541.18,195.51 541.18,195.63 541.1,195.51 			"/>
			<path class="st7" d="M541.1,195.51l0.08,0.12v-0.12H541.1z"/>
		</g>
	</g>
</g>
<g>
	<path class="st2" d="M577.51,505.27H443.28c-0.77,0-1.39-0.62-1.39-1.39v-30.33c0-0.77,0.62-1.39,1.39-1.39h134.23
		c0.77,0,1.39,0.62,1.39,1.39v30.33C578.9,504.65,578.27,505.27,577.51,505.27z"/>
	<path class="st2" d="M607.14,547.86H472.91c-0.77,0-1.39-0.62-1.39-1.39v-30.33c0-0.77,0.62-1.39,1.39-1.39h134.23
		c0.77,0,1.39,0.62,1.39,1.39v30.33C608.53,547.23,607.9,547.86,607.14,547.86z"/>
	<path class="st2" d="M636.77,590.44H502.54c-0.77,0-1.39-0.62-1.39-1.39v-30.33c0-0.77,0.62-1.39,1.39-1.39h134.23
		c0.77,0,1.39,0.62,1.39,1.39v30.33C638.16,589.82,637.54,590.44,636.77,590.44z"/>
	<path class="st2" d="M666.4,633.02H532.17c-0.77,0-1.39-0.62-1.39-1.39V601.3c0-0.77,0.62-1.39,1.39-1.39H666.4
		c0.77,0,1.39,0.62,1.39,1.39v30.33C667.79,632.4,667.17,633.02,666.4,633.02z"/>
</g>
<g>
	<path class="st2" d="M469.94,690.9v-26.39h9.09c2.05,0,3.62,0.13,4.7,0.38c1.51,0.35,2.8,0.98,3.87,1.89
		c1.39,1.18,2.43,2.68,3.12,4.51c0.69,1.83,1.04,3.92,1.04,6.28c0,2.01-0.23,3.78-0.7,5.33c-0.47,1.55-1.07,2.83-1.8,3.84
		c-0.73,1.02-1.53,1.81-2.4,2.4c-0.87,0.58-1.92,1.02-3.15,1.32c-1.23,0.3-2.64,0.45-4.24,0.45H469.94z M473.43,687.79h5.63
		c1.74,0,3.11-0.16,4.09-0.49c0.99-0.32,1.78-0.78,2.37-1.37c0.83-0.83,1.47-1.94,1.94-3.34c0.46-1.4,0.69-3.09,0.69-5.08
		c0-2.76-0.45-4.88-1.36-6.37c-0.9-1.48-2.01-2.47-3.3-2.98c-0.94-0.36-2.44-0.54-4.52-0.54h-5.54V687.79z"/>
	<path class="st2" d="M509.24,684.75l3.35,0.41c-0.53,1.95-1.5,3.47-2.93,4.55c-1.43,1.08-3.25,1.62-5.47,1.62
		c-2.8,0-5.01-0.86-6.65-2.58c-1.64-1.72-2.46-4.14-2.46-7.24c0-3.21,0.83-5.71,2.48-7.49c1.66-1.77,3.81-2.66,6.44-2.66
		c2.56,0,4.64,0.87,6.26,2.61c1.62,1.74,2.43,4.19,2.43,7.34c0,0.19-0.01,0.48-0.02,0.86h-14.26c0.12,2.1,0.71,3.71,1.78,4.82
		s2.4,1.67,4,1.67c1.19,0,2.2-0.31,3.04-0.94C508.08,687.11,508.74,686.11,509.24,684.75z M498.6,679.51h10.67
		c-0.14-1.61-0.55-2.82-1.22-3.62c-1.03-1.25-2.37-1.87-4.01-1.87c-1.49,0-2.74,0.5-3.75,1.49
		C499.27,676.51,498.71,677.84,498.6,679.51z"/>
	<path class="st2" d="M516.65,690.9v-19.12h2.92v2.72c1.4-2.1,3.43-3.15,6.08-3.15c1.15,0,2.21,0.21,3.18,0.62
		c0.96,0.42,1.69,0.96,2.17,1.63s0.82,1.47,1.01,2.39c0.12,0.6,0.18,1.65,0.18,3.15v11.75h-3.24v-11.63c0-1.32-0.13-2.31-0.38-2.96
		c-0.25-0.66-0.7-1.18-1.34-1.57c-0.64-0.39-1.39-0.58-2.26-0.58c-1.38,0-2.57,0.44-3.57,1.31c-1,0.87-1.5,2.54-1.5,4.99v10.44
		H516.65z"/>
	<path class="st2" d="M535.86,685.2l3.2-0.5c0.18,1.29,0.68,2.27,1.5,2.95c0.82,0.68,1.97,1.03,3.45,1.03c1.49,0,2.59-0.3,3.31-0.91
		c0.72-0.61,1.08-1.32,1.08-2.13c0-0.73-0.32-1.31-0.95-1.73c-0.44-0.29-1.55-0.66-3.31-1.1c-2.38-0.6-4.02-1.12-4.94-1.56
		c-0.91-0.44-1.61-1.04-2.09-1.82c-0.47-0.77-0.71-1.63-0.71-2.56c0-0.85,0.19-1.64,0.59-2.37c0.39-0.72,0.92-1.33,1.59-1.81
		c0.5-0.37,1.19-0.69,2.06-0.94c0.87-0.26,1.8-0.39,2.8-0.39c1.5,0,2.82,0.22,3.95,0.65c1.13,0.43,1.97,1.02,2.51,1.76
		c0.54,0.73,0.91,1.72,1.12,2.96l-3.17,0.43c-0.14-0.98-0.56-1.75-1.25-2.3c-0.69-0.55-1.67-0.83-2.93-0.83
		c-1.49,0-2.55,0.24-3.19,0.74s-0.95,1.07-0.95,1.73c0,0.42,0.13,0.8,0.4,1.13c0.26,0.35,0.68,0.64,1.24,0.86
		c0.32,0.12,1.28,0.4,2.86,0.83c2.29,0.61,3.89,1.11,4.8,1.5c0.9,0.39,1.62,0.95,2.13,1.7c0.51,0.75,0.77,1.67,0.77,2.77
		c0,1.08-0.31,2.1-0.95,3.05c-0.63,0.95-1.54,1.69-2.73,2.21c-1.19,0.53-2.53,0.78-4.03,0.78c-2.48,0-4.38-0.51-5.68-1.55
		C537.05,688.75,536.22,687.22,535.86,685.2z"/>
	<path class="st2" d="M568.68,684.75l3.35,0.41c-0.53,1.95-1.5,3.47-2.93,4.55c-1.43,1.08-3.25,1.62-5.47,1.62
		c-2.8,0-5.02-0.86-6.65-2.58c-1.64-1.72-2.46-4.14-2.46-7.24c0-3.21,0.83-5.71,2.48-7.49c1.66-1.77,3.81-2.66,6.44-2.66
		c2.56,0,4.64,0.87,6.26,2.61c1.62,1.74,2.43,4.19,2.43,7.34c0,0.19-0.01,0.48-0.02,0.86h-14.26c0.12,2.1,0.71,3.71,1.78,4.82
		c1.07,1.12,2.4,1.67,4,1.67c1.19,0,2.2-0.31,3.04-0.94C567.52,687.11,568.18,686.11,568.68,684.75z M558.04,679.51h10.67
		c-0.14-1.61-0.55-2.82-1.22-3.62c-1.03-1.25-2.37-1.87-4.01-1.87c-1.49,0-2.74,0.5-3.75,1.49
		C558.71,676.51,558.14,677.84,558.04,679.51z"/>
	<path class="st2" d="M598.74,690.9v-2.41c-1.21,1.9-3,2.84-5.35,2.84c-1.52,0-2.93-0.42-4.2-1.26c-1.28-0.84-2.27-2.01-2.97-3.52
		c-0.7-1.5-1.05-3.24-1.05-5.19c0-1.91,0.32-3.64,0.95-5.19c0.64-1.56,1.59-2.75,2.86-3.57c1.27-0.83,2.69-1.24,4.27-1.24
		c1.15,0,2.18,0.24,3.08,0.73c0.9,0.49,1.63,1.12,2.2,1.9v-9.47h3.22v26.39H598.74z M588.49,681.36c0,2.45,0.51,4.28,1.55,5.49
		c1.03,1.21,2.25,1.82,3.65,1.82c1.41,0,2.62-0.58,3.61-1.74c0.99-1.16,1.49-2.93,1.49-5.3c0-2.62-0.5-4.54-1.51-5.76
		s-2.25-1.84-3.73-1.84c-1.44,0-2.64,0.59-3.61,1.76C588.98,676.98,588.49,678.83,588.49,681.36z"/>
	<path class="st2" d="M619.31,688.54c-1.2,1.02-2.35,1.74-3.46,2.16c-1.11,0.42-2.3,0.63-3.57,0.63c-2.1,0-3.72-0.51-4.84-1.54
		c-1.13-1.02-1.69-2.34-1.69-3.93c0-0.94,0.21-1.79,0.64-2.56c0.42-0.78,0.98-1.4,1.67-1.86c0.69-0.47,1.47-0.82,2.33-1.06
		c0.64-0.17,1.59-0.33,2.88-0.49c2.62-0.31,4.54-0.68,5.78-1.12c0.01-0.44,0.02-0.73,0.02-0.85c0-1.32-0.31-2.25-0.92-2.79
		c-0.83-0.73-2.06-1.1-3.69-1.1c-1.52,0-2.65,0.27-3.38,0.8c-0.72,0.53-1.26,1.48-1.61,2.83l-3.17-0.43
		c0.29-1.36,0.76-2.45,1.42-3.29c0.66-0.83,1.61-1.48,2.86-1.92c1.25-0.45,2.69-0.68,4.34-0.68c1.63,0,2.96,0.19,3.98,0.58
		c1.02,0.39,1.77,0.87,2.25,1.45c0.48,0.58,0.82,1.32,1.01,2.21c0.11,0.55,0.16,1.55,0.16,2.99v4.32c0,3.01,0.07,4.92,0.21,5.71
		c0.14,0.8,0.41,1.57,0.82,2.3h-3.38C619.62,690.23,619.41,689.44,619.31,688.54z M619.04,681.31c-1.18,0.48-2.94,0.89-5.29,1.22
		c-1.33,0.19-2.28,0.41-2.83,0.65c-0.55,0.24-0.98,0.59-1.28,1.05c-0.3,0.46-0.45,0.97-0.45,1.54c0,0.86,0.33,1.58,0.98,2.16
		c0.66,0.58,1.61,0.86,2.87,0.86c1.25,0,2.36-0.27,3.33-0.82c0.97-0.55,1.68-1.3,2.14-2.24c0.35-0.73,0.52-1.81,0.52-3.24V681.31z"
		/>
	<path class="st2" d="M634.41,688l0.47,2.86c-0.91,0.19-1.73,0.29-2.45,0.29c-1.18,0-2.09-0.19-2.74-0.56
		c-0.65-0.37-1.11-0.86-1.37-1.47c-0.26-0.61-0.4-1.88-0.4-3.83v-11h-2.38v-2.52h2.38v-4.73l3.22-1.94v6.68h3.26v2.52h-3.26v11.18
		c0,0.93,0.06,1.52,0.17,1.78c0.12,0.26,0.3,0.48,0.56,0.63c0.26,0.15,0.63,0.23,1.11,0.23C633.35,688.13,633.83,688.09,634.41,688z
		"/>
	<path class="st2" d="M650.06,688.54c-1.2,1.02-2.35,1.74-3.46,2.16c-1.11,0.42-2.3,0.63-3.57,0.63c-2.1,0-3.72-0.51-4.84-1.54
		c-1.13-1.02-1.69-2.34-1.69-3.93c0-0.94,0.21-1.79,0.64-2.56c0.42-0.78,0.98-1.4,1.67-1.86c0.69-0.47,1.47-0.82,2.33-1.06
		c0.64-0.17,1.59-0.33,2.88-0.49c2.62-0.31,4.54-0.68,5.78-1.12c0.01-0.44,0.02-0.73,0.02-0.85c0-1.32-0.31-2.25-0.92-2.79
		c-0.83-0.73-2.06-1.1-3.69-1.1c-1.52,0-2.65,0.27-3.38,0.8c-0.72,0.53-1.26,1.48-1.61,2.83l-3.17-0.43
		c0.29-1.36,0.76-2.45,1.42-3.29c0.66-0.83,1.61-1.48,2.86-1.92c1.25-0.45,2.69-0.68,4.34-0.68c1.63,0,2.96,0.19,3.98,0.58
		c1.02,0.39,1.77,0.87,2.25,1.45c0.48,0.58,0.82,1.32,1.01,2.21c0.11,0.55,0.16,1.55,0.16,2.99v4.32c0,3.01,0.07,4.92,0.21,5.71
		c0.14,0.8,0.41,1.57,0.82,2.3h-3.38C650.37,690.23,650.15,689.44,650.06,688.54z M649.79,681.31c-1.18,0.48-2.94,0.89-5.29,1.22
		c-1.33,0.19-2.28,0.41-2.83,0.65s-0.98,0.59-1.28,1.05c-0.3,0.46-0.45,0.97-0.45,1.54c0,0.86,0.33,1.58,0.98,2.16
		c0.66,0.58,1.61,0.86,2.87,0.86c1.25,0,2.36-0.27,3.33-0.82c0.97-0.55,1.68-1.3,2.14-2.24c0.35-0.73,0.52-1.81,0.52-3.24V681.31z"
		/>
</g>
<g>
	<path class="st2" d="M397.07,565.75h-61.83c-1.02,0-1.84-0.82-1.84-1.84c0-1.02,0.82-1.84,1.84-1.84h61.83
		c1.02,0,1.84,0.82,1.84,1.84C398.91,564.92,398.09,565.75,397.07,565.75z"/>
	<g>
		<polygon class="st2" points="386.72,577.56 392.52,563.9 386.72,550.25 419.08,563.9 		"/>
	</g>
</g>
<g>
	<path class="st2" d="M110.58,682.42l3.29-0.29c0.15,1.32,0.52,2.4,1.09,3.25c0.57,0.84,1.45,1.53,2.65,2.05
		c1.2,0.52,2.55,0.78,4.05,0.78c1.33,0,2.51-0.2,3.53-0.59c1.02-0.4,1.78-0.94,2.28-1.63c0.5-0.69,0.75-1.44,0.75-2.26
		c0-0.83-0.24-1.55-0.72-2.17c-0.48-0.62-1.27-1.14-2.38-1.56c-0.71-0.28-2.28-0.71-4.7-1.29c-2.42-0.58-4.12-1.13-5.09-1.65
		c-1.26-0.66-2.2-1.48-2.82-2.46c-0.62-0.98-0.93-2.07-0.93-3.29c0-1.33,0.38-2.58,1.13-3.73c0.76-1.16,1.86-2.04,3.31-2.64
		c1.45-0.6,3.07-0.9,4.84-0.9c1.95,0,3.68,0.31,5.18,0.95c1.49,0.63,2.64,1.56,3.45,2.78c0.8,1.22,1.23,2.61,1.3,4.16l-3.35,0.25
		c-0.18-1.67-0.79-2.93-1.83-3.78c-1.04-0.85-2.57-1.28-4.6-1.28c-2.11,0-3.65,0.39-4.62,1.16c-0.97,0.78-1.45,1.71-1.45,2.8
		c0,0.95,0.34,1.73,1.03,2.34c0.67,0.61,2.43,1.24,5.26,1.88c2.84,0.64,4.79,1.21,5.84,1.68c1.54,0.71,2.67,1.61,3.4,2.69
		c0.73,1.08,1.1,2.34,1.1,3.75c0,1.4-0.4,2.73-1.21,3.97c-0.8,1.25-1.96,2.21-3.46,2.9c-1.51,0.69-3.2,1.03-5.09,1.03
		c-2.39,0-4.39-0.35-6-1.04c-1.62-0.69-2.88-1.74-3.8-3.14C111.12,685.77,110.63,684.19,110.58,682.42z"/>
	<path class="st2" d="M135.95,698.23v-26.44h2.95v2.48c0.69-0.97,1.48-1.7,2.36-2.19c0.87-0.48,1.94-0.73,3.19-0.73
		c1.63,0,3.07,0.42,4.32,1.26c1.25,0.84,2.19,2.02,2.83,3.56c0.64,1.53,0.95,3.2,0.95,5.03c0,1.95-0.35,3.72-1.05,5.28
		c-0.7,1.57-1.72,2.77-3.06,3.6c-1.34,0.84-2.74,1.25-4.22,1.25c-1.08,0-2.05-0.23-2.91-0.68c-0.86-0.46-1.56-1.03-2.11-1.73v9.31
		H135.95z M138.88,681.45c0,2.46,0.5,4.28,1.49,5.45s2.2,1.76,3.62,1.76c1.44,0,2.67-0.61,3.7-1.83c1.02-1.22,1.54-3.1,1.54-5.66
		c0-2.44-0.5-4.26-1.5-5.47c-1-1.21-2.2-1.82-3.59-1.82c-1.38,0-2.6,0.64-3.66,1.93C139.41,677.12,138.88,678.99,138.88,681.45z"/>
	<path class="st2" d="M168.92,688.54c-1.2,1.02-2.35,1.74-3.46,2.16c-1.11,0.42-2.3,0.63-3.57,0.63c-2.1,0-3.72-0.51-4.84-1.54
		c-1.13-1.02-1.69-2.34-1.69-3.93c0-0.94,0.21-1.79,0.64-2.56c0.42-0.78,0.98-1.4,1.67-1.86c0.69-0.47,1.47-0.82,2.33-1.06
		c0.64-0.17,1.59-0.33,2.88-0.49c2.62-0.31,4.54-0.68,5.78-1.12c0.01-0.44,0.02-0.73,0.02-0.85c0-1.32-0.31-2.25-0.92-2.79
		c-0.83-0.73-2.06-1.1-3.69-1.1c-1.52,0-2.65,0.27-3.38,0.8c-0.72,0.53-1.26,1.48-1.61,2.83l-3.17-0.43
		c0.29-1.36,0.76-2.45,1.42-3.29c0.66-0.83,1.61-1.48,2.86-1.92c1.25-0.45,2.69-0.68,4.34-0.68c1.63,0,2.96,0.19,3.98,0.58
		c1.02,0.39,1.77,0.87,2.25,1.45c0.48,0.58,0.82,1.32,1.01,2.21c0.11,0.55,0.16,1.55,0.16,2.99v4.32c0,3.01,0.07,4.92,0.21,5.71
		c0.14,0.8,0.41,1.57,0.82,2.3h-3.38C169.24,690.23,169.02,689.44,168.92,688.54z M168.65,681.31c-1.18,0.48-2.94,0.89-5.29,1.22
		c-1.33,0.19-2.28,0.41-2.83,0.65c-0.55,0.24-0.98,0.59-1.28,1.05c-0.3,0.46-0.45,0.97-0.45,1.54c0,0.86,0.33,1.58,0.98,2.16
		c0.66,0.58,1.61,0.86,2.87,0.86c1.25,0,2.36-0.27,3.33-0.82c0.97-0.55,1.68-1.3,2.14-2.24c0.35-0.73,0.52-1.81,0.52-3.24V681.31z"
		/>
	<path class="st2" d="M176.91,690.9v-19.12h2.92v2.9c0.75-1.36,1.43-2.25,2.06-2.68c0.63-0.43,1.32-0.65,2.08-0.65
		c1.09,0,2.2,0.35,3.33,1.04l-1.12,3.01c-0.79-0.47-1.58-0.7-2.38-0.7c-0.71,0-1.34,0.21-1.91,0.64c-0.57,0.42-0.96,1.02-1.21,1.77
		c-0.36,1.15-0.54,2.41-0.54,3.78v10.01H176.91z"/>
	<path class="st2" d="M187.93,685.2l3.2-0.5c0.18,1.29,0.68,2.27,1.5,2.95c0.82,0.68,1.97,1.03,3.45,1.03c1.49,0,2.59-0.3,3.31-0.91
		c0.72-0.61,1.08-1.32,1.08-2.13c0-0.73-0.32-1.31-0.95-1.73c-0.44-0.29-1.55-0.66-3.31-1.1c-2.38-0.6-4.02-1.12-4.94-1.56
		c-0.91-0.44-1.61-1.04-2.09-1.82c-0.47-0.77-0.71-1.63-0.71-2.56c0-0.85,0.19-1.64,0.59-2.37c0.39-0.72,0.92-1.33,1.59-1.81
		c0.5-0.37,1.19-0.69,2.06-0.94c0.87-0.26,1.8-0.39,2.8-0.39c1.5,0,2.82,0.22,3.95,0.65c1.13,0.43,1.97,1.02,2.51,1.76
		c0.54,0.73,0.91,1.72,1.12,2.96l-3.17,0.43c-0.14-0.98-0.56-1.75-1.25-2.3c-0.69-0.55-1.67-0.83-2.93-0.83
		c-1.49,0-2.55,0.24-3.19,0.74s-0.95,1.07-0.95,1.73c0,0.42,0.13,0.8,0.4,1.13c0.26,0.35,0.68,0.64,1.24,0.86
		c0.32,0.12,1.28,0.4,2.86,0.83c2.29,0.61,3.89,1.11,4.8,1.5c0.9,0.39,1.62,0.95,2.13,1.7c0.51,0.75,0.77,1.67,0.77,2.77
		c0,1.08-0.31,2.1-0.95,3.05c-0.63,0.95-1.54,1.69-2.73,2.21c-1.19,0.53-2.53,0.78-4.03,0.78c-2.48,0-4.38-0.51-5.68-1.55
		C189.12,688.75,188.29,687.22,187.93,685.2z"/>
	<path class="st2" d="M220.75,684.75l3.35,0.41c-0.53,1.95-1.5,3.47-2.93,4.55c-1.43,1.08-3.25,1.62-5.47,1.62
		c-2.8,0-5.01-0.86-6.65-2.58c-1.64-1.72-2.46-4.14-2.46-7.24c0-3.21,0.83-5.71,2.48-7.49c1.66-1.77,3.81-2.66,6.44-2.66
		c2.56,0,4.64,0.87,6.26,2.61c1.62,1.74,2.43,4.19,2.43,7.34c0,0.19-0.01,0.48-0.02,0.86h-14.26c0.12,2.1,0.71,3.71,1.78,4.82
		s2.4,1.67,4,1.67c1.19,0,2.2-0.31,3.04-0.94C219.59,687.11,220.25,686.11,220.75,684.75z M210.11,679.51h10.67
		c-0.14-1.61-0.55-2.82-1.22-3.62c-1.03-1.25-2.37-1.87-4.01-1.87c-1.49,0-2.74,0.5-3.75,1.49
		C210.78,676.51,210.22,677.84,210.11,679.51z"/>
	<path class="st2" d="M250.81,690.9v-2.41c-1.21,1.9-3,2.84-5.35,2.84c-1.52,0-2.93-0.42-4.2-1.26c-1.28-0.84-2.27-2.01-2.97-3.52
		c-0.7-1.5-1.05-3.24-1.05-5.19c0-1.91,0.32-3.64,0.95-5.19c0.64-1.56,1.59-2.75,2.86-3.57c1.27-0.83,2.69-1.24,4.27-1.24
		c1.15,0,2.18,0.24,3.08,0.73c0.9,0.49,1.63,1.12,2.2,1.9v-9.47h3.22v26.39H250.81z M240.57,681.36c0,2.45,0.51,4.28,1.55,5.49
		c1.03,1.21,2.25,1.82,3.65,1.82c1.41,0,2.62-0.58,3.61-1.74c0.99-1.16,1.49-2.93,1.49-5.3c0-2.62-0.5-4.54-1.51-5.76
		c-1.01-1.22-2.25-1.84-3.73-1.84c-1.44,0-2.64,0.59-3.61,1.76C241.05,676.98,240.57,678.83,240.57,681.36z"/>
	<path class="st2" d="M271.38,688.54c-1.2,1.02-2.35,1.74-3.46,2.16c-1.11,0.42-2.3,0.63-3.57,0.63c-2.1,0-3.72-0.51-4.84-1.54
		c-1.13-1.02-1.69-2.34-1.69-3.93c0-0.94,0.21-1.79,0.64-2.56c0.42-0.78,0.98-1.4,1.67-1.86c0.69-0.47,1.47-0.82,2.33-1.06
		c0.64-0.17,1.59-0.33,2.88-0.49c2.62-0.31,4.54-0.68,5.78-1.12c0.01-0.44,0.02-0.73,0.02-0.85c0-1.32-0.31-2.25-0.92-2.79
		c-0.83-0.73-2.06-1.1-3.69-1.1c-1.52,0-2.65,0.27-3.38,0.8c-0.72,0.53-1.26,1.48-1.61,2.83l-3.17-0.43
		c0.29-1.36,0.76-2.45,1.42-3.29c0.66-0.83,1.61-1.48,2.86-1.92c1.25-0.45,2.69-0.68,4.34-0.68c1.63,0,2.96,0.19,3.98,0.58
		c1.02,0.39,1.77,0.87,2.25,1.45c0.48,0.58,0.82,1.32,1.01,2.21c0.11,0.55,0.16,1.55,0.16,2.99v4.32c0,3.01,0.07,4.92,0.21,5.71
		c0.14,0.8,0.41,1.57,0.82,2.3h-3.38C271.7,690.23,271.48,689.44,271.38,688.54z M271.11,681.31c-1.18,0.48-2.94,0.89-5.29,1.22
		c-1.33,0.19-2.28,0.41-2.83,0.65s-0.98,0.59-1.28,1.05c-0.3,0.46-0.45,0.97-0.45,1.54c0,0.86,0.33,1.58,0.98,2.16
		c0.66,0.58,1.61,0.86,2.87,0.86c1.25,0,2.36-0.27,3.33-0.82c0.97-0.55,1.68-1.3,2.14-2.24c0.35-0.73,0.52-1.81,0.52-3.24V681.31z"
		/>
	<path class="st2" d="M286.49,688l0.47,2.86c-0.91,0.19-1.73,0.29-2.45,0.29c-1.18,0-2.09-0.19-2.74-0.56
		c-0.65-0.37-1.11-0.86-1.37-1.47c-0.26-0.61-0.4-1.88-0.4-3.83v-11h-2.38v-2.52H280v-4.73l3.22-1.94v6.68h3.26v2.52h-3.26v11.18
		c0,0.93,0.06,1.52,0.17,1.78c0.12,0.26,0.3,0.48,0.56,0.63c0.26,0.15,0.63,0.23,1.11,0.23C285.42,688.13,285.9,688.09,286.49,688z"
		/>
	<path class="st2" d="M302.13,688.54c-1.2,1.02-2.35,1.74-3.46,2.16c-1.11,0.42-2.3,0.63-3.57,0.63c-2.1,0-3.72-0.51-4.84-1.54
		c-1.13-1.02-1.69-2.34-1.69-3.93c0-0.94,0.21-1.79,0.64-2.56c0.42-0.78,0.98-1.4,1.67-1.86c0.69-0.47,1.47-0.82,2.33-1.06
		c0.64-0.17,1.59-0.33,2.88-0.49c2.62-0.31,4.54-0.68,5.78-1.12c0.01-0.44,0.02-0.73,0.02-0.85c0-1.32-0.31-2.25-0.92-2.79
		c-0.83-0.73-2.06-1.1-3.69-1.1c-1.52,0-2.65,0.27-3.38,0.8c-0.72,0.53-1.26,1.48-1.61,2.83l-3.17-0.43
		c0.29-1.36,0.76-2.45,1.42-3.29c0.66-0.83,1.61-1.48,2.86-1.92c1.25-0.45,2.69-0.68,4.34-0.68c1.63,0,2.96,0.19,3.98,0.58
		c1.02,0.39,1.77,0.87,2.25,1.45c0.48,0.58,0.82,1.32,1.01,2.21c0.11,0.55,0.16,1.55,0.16,2.99v4.32c0,3.01,0.07,4.92,0.21,5.71
		c0.14,0.8,0.41,1.57,0.82,2.3h-3.38C302.44,690.23,302.22,689.44,302.13,688.54z M301.86,681.31c-1.18,0.48-2.94,0.89-5.29,1.22
		c-1.33,0.19-2.28,0.41-2.83,0.65s-0.98,0.59-1.28,1.05c-0.3,0.46-0.45,0.97-0.45,1.54c0,0.86,0.33,1.58,0.98,2.16
		c0.66,0.58,1.61,0.86,2.87,0.86c1.25,0,2.36-0.27,3.33-0.82c0.97-0.55,1.68-1.3,2.14-2.24c0.35-0.73,0.52-1.81,0.52-3.24V681.31z"
		/>
</g>
<g>
	<g>
		<g>
			<path class="st2" d="M321.45,534.98c0,0.36-0.05,0.94-0.5,1.39l-85.65,85.61c-0.45,0.49-1.03,0.54-1.44,0.54
				c-0.67,0-1.35-0.32-1.89-0.85l-17-17h13.72c6.39,0,11.56-4.95,11.56-11.11v-79.44l29.2-29.2c0.45-0.4,0.94-0.49,1.35-0.49
				c0,0,0.05,0,0.09,0c0.67,0,1.35,0.31,1.84,0.85l47.86,47.82C321.14,533.63,321.41,534.31,321.45,534.98z"/>
			<path class="st2" d="M193.29,595.67l0.09,0.14v-0.14H193.29z"/>
		</g>
	</g>
	<g>
		<g>
			<path class="st2" d="M198.46,613.57c0.36,1.12-0.49,2.34-1.84,2.74l-65.09,18.58c-1.3,0.36-2.7-0.27-3.06-1.35l-33.2-116.46
				c-0.18-0.59,0.05-1.12,0.27-1.48c0.31-0.54,0.94-0.99,1.62-1.21l52.32-14.89v94.06c0,6.16,5.22,11.11,11.56,11.11h34.91
				L198.46,613.57z"/>
			<polygon class="st2" points="193.38,595.67 193.38,595.8 193.29,595.67 			"/>
		</g>
	</g>
	<g>
		<g>
			<path class="st2" d="M231.26,472.45v121.1c0,1.17-1.12,2.11-2.56,2.11h-67.66c-1.39,0-2.56-0.94-2.56-2.11v-121.1
				c0-1.12,1.17-2.07,2.56-2.07h67.66C230.13,470.38,231.26,471.33,231.26,472.45z"/>
			<polygon class="st2" points="193.38,595.67 193.38,595.8 193.29,595.67 			"/>
			<path class="st2" d="M193.29,595.67l0.09,0.14v-0.14H193.29z"/>
		</g>
	</g>
</g>
<g>
	<path class="st3" d="M531.74,826.83l-14.9-7.3c-0.59-0.29-0.59-1.12,0-1.41l14.9-7.34c0.11-0.05,0.23-0.08,0.35-0.08h47.31
		c0.12,0,0.24,0.03,0.35,0.08l14.9,7.34c0.59,0.29,0.59,1.13,0,1.41l-14.9,7.3c-0.11,0.05-0.23,0.08-0.35,0.08h-47.31
		C531.96,826.91,531.85,826.89,531.74,826.83z"/>
	<path class="st3" d="M526.84,834.02v146.22c0,0.58-0.61,0.96-1.13,0.71l-14.93-7.36c-0.27-0.13-0.44-0.41-0.44-0.71V826.71
		c0-0.58,0.61-0.96,1.13-0.71l14.93,7.32C526.66,833.45,526.84,833.72,526.84,834.02z"/>
	<path class="st3" d="M576.48,835.87v147.35c0,0.43-0.35,0.79-0.79,0.79h-39.89c-0.43,0-0.79-0.35-0.79-0.79V835.87
		c0-0.43,0.35-0.79,0.79-0.79h39.89C576.12,835.09,576.48,835.44,576.48,835.87z"/>
	<path class="st3" d="M600.71,973.6l-14.93,7.36c-0.52,0.26-1.13-0.12-1.13-0.71V834.02c0-0.3,0.17-0.57,0.44-0.71l14.93-7.36
		c0.52-0.26,1.13,0.12,1.13,0.71v146.23C601.15,973.19,600.98,973.47,600.71,973.6z"/>
</g>
<g>
	<path class="st3" d="M446.9,1039.67v-26.39h9.09c2.05,0,3.62,0.13,4.7,0.38c1.51,0.35,2.8,0.98,3.87,1.89
		c1.39,1.18,2.43,2.68,3.12,4.51c0.69,1.83,1.04,3.92,1.04,6.28c0,2.01-0.23,3.78-0.7,5.33s-1.07,2.83-1.8,3.84
		c-0.73,1.02-1.53,1.81-2.4,2.4c-0.87,0.58-1.92,1.02-3.15,1.32c-1.23,0.3-2.64,0.45-4.24,0.45H446.9z M450.4,1036.56h5.63
		c1.74,0,3.11-0.16,4.09-0.49c0.99-0.32,1.78-0.78,2.37-1.37c0.83-0.83,1.47-1.94,1.94-3.34c0.46-1.4,0.69-3.09,0.69-5.08
		c0-2.76-0.45-4.88-1.36-6.37c-0.9-1.48-2.01-2.47-3.3-2.98c-0.94-0.36-2.44-0.54-4.52-0.54h-5.54V1036.56z"/>
	<path class="st3" d="M486.2,1033.51l3.35,0.41c-0.53,1.95-1.5,3.47-2.93,4.55c-1.43,1.08-3.25,1.62-5.47,1.62
		c-2.8,0-5.02-0.86-6.65-2.58c-1.64-1.72-2.46-4.14-2.46-7.24c0-3.21,0.83-5.71,2.48-7.49c1.66-1.77,3.81-2.66,6.44-2.66
		c2.56,0,4.64,0.87,6.26,2.61s2.43,4.19,2.43,7.34c0,0.19-0.01,0.48-0.02,0.86h-14.26c0.12,2.1,0.71,3.71,1.78,4.82
		c1.07,1.12,2.4,1.67,4,1.67c1.19,0,2.2-0.31,3.04-0.94S485.71,1034.88,486.2,1033.51z M475.56,1028.28h10.67
		c-0.14-1.61-0.55-2.82-1.22-3.62c-1.03-1.25-2.37-1.87-4.01-1.87c-1.49,0-2.74,0.5-3.75,1.49
		C476.23,1025.28,475.67,1026.61,475.56,1028.28z"/>
	<path class="st3" d="M493.62,1039.67v-19.12h2.92v2.72c1.4-2.1,3.43-3.15,6.08-3.15c1.15,0,2.21,0.21,3.18,0.62
		c0.96,0.42,1.69,0.96,2.17,1.63c0.48,0.67,0.82,1.47,1.01,2.39c0.12,0.6,0.18,1.65,0.18,3.15v11.75h-3.24v-11.63
		c0-1.32-0.13-2.31-0.38-2.96c-0.25-0.66-0.7-1.18-1.34-1.57c-0.64-0.39-1.39-0.58-2.26-0.58c-1.38,0-2.57,0.44-3.57,1.31
		c-1,0.87-1.5,2.54-1.5,4.99v10.44H493.62z"/>
	<path class="st3" d="M512.82,1033.96l3.2-0.5c0.18,1.29,0.68,2.27,1.5,2.95c0.82,0.68,1.97,1.03,3.45,1.03
		c1.49,0,2.59-0.3,3.31-0.91c0.72-0.61,1.08-1.32,1.08-2.13c0-0.73-0.32-1.31-0.95-1.73c-0.44-0.29-1.55-0.66-3.31-1.1
		c-2.38-0.6-4.02-1.12-4.94-1.56c-0.91-0.44-1.61-1.04-2.09-1.82c-0.47-0.77-0.71-1.63-0.71-2.56c0-0.85,0.19-1.64,0.59-2.37
		c0.39-0.72,0.92-1.33,1.59-1.81c0.5-0.37,1.19-0.69,2.06-0.94c0.87-0.26,1.8-0.39,2.8-0.39c1.5,0,2.82,0.22,3.95,0.65
		c1.13,0.43,1.97,1.02,2.51,1.76c0.54,0.73,0.91,1.72,1.12,2.96l-3.17,0.43c-0.14-0.98-0.56-1.75-1.25-2.3
		c-0.69-0.55-1.67-0.83-2.93-0.83c-1.49,0-2.55,0.24-3.19,0.74s-0.95,1.07-0.95,1.73c0,0.42,0.13,0.8,0.4,1.13
		c0.26,0.35,0.68,0.64,1.24,0.86c0.32,0.12,1.28,0.4,2.86,0.83c2.29,0.61,3.89,1.11,4.8,1.5c0.9,0.39,1.62,0.95,2.13,1.7
		c0.51,0.75,0.77,1.67,0.77,2.77c0,1.08-0.31,2.1-0.95,3.05c-0.63,0.95-1.54,1.69-2.73,2.21c-1.19,0.53-2.53,0.78-4.03,0.78
		c-2.48,0-4.38-0.51-5.68-1.55C514.01,1037.52,513.18,1035.99,512.82,1033.96z"/>
	<path class="st3" d="M545.64,1033.51l3.35,0.41c-0.53,1.95-1.5,3.47-2.93,4.55c-1.43,1.08-3.25,1.62-5.47,1.62
		c-2.8,0-5.02-0.86-6.65-2.58c-1.64-1.72-2.46-4.14-2.46-7.24c0-3.21,0.83-5.71,2.48-7.49c1.66-1.77,3.81-2.66,6.44-2.66
		c2.56,0,4.64,0.87,6.26,2.61s2.43,4.19,2.43,7.34c0,0.19-0.01,0.48-0.02,0.86h-14.26c0.12,2.1,0.71,3.71,1.78,4.82
		c1.07,1.12,2.4,1.67,4,1.67c1.19,0,2.2-0.31,3.04-0.94C544.48,1035.88,545.14,1034.88,545.64,1033.51z M535,1028.28h10.67
		c-0.14-1.61-0.55-2.82-1.22-3.62c-1.03-1.25-2.37-1.87-4.01-1.87c-1.49,0-2.74,0.5-3.75,1.49
		C535.67,1025.28,535.11,1026.61,535,1028.28z"/>
	<path class="st3" d="M575.7,1039.67v-2.41c-1.21,1.9-3,2.84-5.35,2.84c-1.52,0-2.93-0.42-4.2-1.26c-1.28-0.84-2.27-2.01-2.97-3.52
		c-0.7-1.5-1.05-3.24-1.05-5.19c0-1.91,0.32-3.64,0.95-5.19c0.64-1.56,1.59-2.75,2.86-3.57c1.27-0.83,2.69-1.24,4.27-1.24
		c1.15,0,2.18,0.24,3.08,0.73c0.9,0.49,1.63,1.12,2.2,1.9v-9.47h3.22v26.39H575.7z M565.46,1030.13c0,2.45,0.51,4.28,1.55,5.49
		c1.03,1.21,2.25,1.82,3.65,1.82c1.41,0,2.62-0.58,3.61-1.74c0.99-1.16,1.49-2.93,1.49-5.3c0-2.62-0.5-4.54-1.51-5.76
		c-1.01-1.22-2.25-1.84-3.73-1.84c-1.44,0-2.64,0.59-3.61,1.76C565.94,1025.75,565.46,1027.6,565.46,1030.13z"/>
	<path class="st3" d="M583.82,1017.01v-3.73h3.24v3.73H583.82z M583.82,1039.67v-19.12h3.24v19.12H583.82z"/>
	<path class="st3" d="M591.4,1041.25l3.15,0.47c0.13,0.97,0.5,1.68,1.1,2.12c0.8,0.6,1.9,0.9,3.29,0.9c1.5,0,2.66-0.3,3.47-0.9
		c0.82-0.6,1.37-1.44,1.66-2.52c0.17-0.66,0.24-2.04,0.23-4.16c-1.41,1.67-3.18,2.5-5.29,2.5c-2.63,0-4.66-0.95-6.1-2.84
		c-1.44-1.9-2.16-4.17-2.16-6.82c0-1.83,0.33-3.51,0.99-5.05c0.66-1.54,1.62-2.73,2.87-3.57c1.26-0.84,2.73-1.26,4.42-1.26
		c2.26,0,4.11,0.91,5.58,2.74v-2.3h2.99v16.52c0,2.98-0.3,5.08-0.91,6.33c-0.61,1.24-1.57,2.22-2.88,2.94
		c-1.32,0.72-2.93,1.08-4.85,1.08c-2.28,0-4.12-0.51-5.53-1.54C592.03,1044.86,591.35,1043.32,591.4,1041.25z M594.08,1029.77
		c0,2.51,0.5,4.34,1.49,5.49c1,1.15,2.24,1.73,3.74,1.73c1.49,0,2.74-0.57,3.74-1.72c1.01-1.15,1.51-2.94,1.51-5.39
		c0-2.34-0.52-4.1-1.56-5.29c-1.04-1.19-2.29-1.78-3.75-1.78c-1.44,0-2.66,0.59-3.67,1.75
		C594.58,1025.73,594.08,1027.47,594.08,1029.77z"/>
	<path class="st3" d="M612.51,1017.01v-3.73h3.24v3.73H612.51z M612.51,1039.67v-19.12h3.24v19.12H612.51z"/>
	<path class="st3" d="M627.76,1036.77l0.47,2.86c-0.91,0.19-1.73,0.29-2.45,0.29c-1.18,0-2.09-0.19-2.74-0.56
		c-0.65-0.37-1.11-0.86-1.37-1.47c-0.26-0.61-0.4-1.88-0.4-3.83v-11h-2.38v-2.52h2.38v-4.73l3.22-1.94v6.68h3.26v2.52h-3.26v11.18
		c0,0.93,0.06,1.52,0.17,1.78c0.12,0.26,0.3,0.48,0.56,0.63c0.26,0.15,0.63,0.23,1.11,0.23
		C626.69,1036.9,627.17,1036.86,627.76,1036.77z"/>
	<path class="st3" d="M643.4,1037.31c-1.2,1.02-2.35,1.74-3.46,2.16c-1.11,0.42-2.3,0.63-3.57,0.63c-2.1,0-3.72-0.51-4.84-1.54
		c-1.13-1.02-1.69-2.34-1.69-3.93c0-0.94,0.21-1.79,0.64-2.56c0.42-0.78,0.98-1.4,1.67-1.86c0.69-0.47,1.47-0.82,2.33-1.06
		c0.64-0.17,1.59-0.33,2.88-0.49c2.62-0.31,4.54-0.68,5.78-1.12c0.01-0.44,0.02-0.73,0.02-0.85c0-1.32-0.31-2.25-0.92-2.79
		c-0.83-0.73-2.06-1.1-3.69-1.1c-1.52,0-2.65,0.27-3.38,0.8c-0.72,0.53-1.26,1.48-1.61,2.83l-3.17-0.43
		c0.29-1.36,0.76-2.45,1.42-3.29c0.66-0.83,1.61-1.48,2.86-1.92c1.25-0.45,2.69-0.68,4.34-0.68c1.63,0,2.96,0.19,3.98,0.58
		c1.02,0.39,1.77,0.87,2.25,1.45c0.48,0.58,0.82,1.32,1.01,2.21c0.11,0.55,0.16,1.55,0.16,2.99v4.32c0,3.01,0.07,4.92,0.21,5.71
		c0.14,0.8,0.41,1.57,0.82,2.3h-3.38C643.71,1039,643.5,1038.21,643.4,1037.31z M643.13,1030.08c-1.18,0.48-2.94,0.89-5.29,1.22
		c-1.33,0.19-2.28,0.41-2.83,0.65s-0.98,0.59-1.28,1.05c-0.3,0.46-0.45,0.97-0.45,1.54c0,0.86,0.33,1.58,0.98,2.16
		c0.66,0.58,1.61,0.86,2.87,0.86c1.25,0,2.36-0.27,3.33-0.82c0.97-0.55,1.68-1.3,2.14-2.24c0.35-0.73,0.52-1.81,0.52-3.24V1030.08z"
		/>
	<path class="st3" d="M651.36,1039.67v-26.39h3.24v26.39H651.36z"/>
	<path class="st3" d="M442.36,1083.91v-19.12h2.92v2.9c0.75-1.36,1.43-2.25,2.06-2.68c0.63-0.43,1.32-0.65,2.08-0.65
		c1.09,0,2.2,0.35,3.33,1.04l-1.12,3.01c-0.79-0.47-1.58-0.7-2.38-0.7c-0.71,0-1.34,0.21-1.91,0.64c-0.57,0.42-0.96,1.02-1.21,1.77
		c-0.36,1.15-0.54,2.41-0.54,3.78v10.01H442.36z"/>
	<path class="st3" d="M467.76,1077.75l3.35,0.41c-0.53,1.95-1.5,3.47-2.93,4.55s-3.25,1.62-5.47,1.62c-2.8,0-5.01-0.86-6.65-2.58
		c-1.64-1.72-2.46-4.14-2.46-7.24c0-3.21,0.83-5.71,2.48-7.49c1.66-1.77,3.81-2.66,6.44-2.66c2.56,0,4.64,0.87,6.26,2.61
		c1.62,1.74,2.43,4.19,2.43,7.34c0,0.19-0.01,0.48-0.02,0.86h-14.26c0.12,2.1,0.71,3.71,1.78,4.82c1.07,1.12,2.4,1.67,4,1.67
		c1.19,0,2.2-0.31,3.04-0.94C466.6,1080.12,467.27,1079.12,467.76,1077.75z M457.12,1072.51h10.67c-0.14-1.61-0.55-2.82-1.22-3.62
		c-1.03-1.25-2.37-1.87-4.01-1.87c-1.49,0-2.74,0.5-3.75,1.49C457.79,1069.52,457.23,1070.85,457.12,1072.51z"/>
	<path class="st3" d="M487.65,1076.91l3.19,0.41c-0.35,2.2-1.24,3.92-2.67,5.16c-1.43,1.25-3.19,1.86-5.28,1.86
		c-2.62,0-4.72-0.86-6.31-2.56c-1.59-1.71-2.38-4.16-2.38-7.36c0-2.06,0.34-3.87,1.03-5.42c0.68-1.55,1.72-2.71,3.12-3.48
		c1.4-0.77,2.92-1.16,4.56-1.16c2.08,0,3.77,0.53,5.09,1.58c1.32,1.05,2.17,2.54,2.54,4.47l-3.15,0.49c-0.3-1.29-0.83-2.25-1.59-2.9
		c-0.76-0.65-1.68-0.97-2.76-0.97c-1.63,0-2.96,0.58-3.98,1.76c-1.02,1.17-1.53,3.02-1.53,5.55c0,2.57,0.49,4.44,1.48,5.6
		s2.27,1.75,3.85,1.75c1.27,0,2.33-0.39,3.19-1.17C486.89,1079.73,487.43,1078.53,487.65,1076.91z"/>
	<path class="st3" d="M492.41,1074.35c0-3.54,0.98-6.16,2.95-7.87c1.65-1.41,3.65-2.12,6.01-2.12c2.63,0,4.78,0.86,6.44,2.58
		c1.67,1.72,2.5,4.1,2.5,7.14c0,2.46-0.37,4.4-1.11,5.8c-0.74,1.41-1.81,2.51-3.23,3.29c-1.41,0.78-2.95,1.17-4.62,1.17
		c-2.67,0-4.84-0.86-6.49-2.57C493.23,1080.05,492.41,1077.58,492.41,1074.35z M495.74,1074.35c0,2.45,0.53,4.28,1.6,5.5
		c1.07,1.22,2.41,1.83,4.03,1.83c1.61,0,2.94-0.61,4.01-1.84c1.07-1.22,1.6-3.09,1.6-5.6c0-2.37-0.54-4.15-1.61-5.38
		c-1.07-1.22-2.41-1.83-4-1.83c-1.62,0-2.96,0.6-4.03,1.82S495.74,1071.9,495.74,1074.35z"/>
	<path class="st3" d="M514.11,1083.91v-19.12h2.92v2.72c1.4-2.1,3.43-3.15,6.08-3.15c1.15,0,2.21,0.21,3.18,0.62
		c0.96,0.42,1.69,0.96,2.17,1.63s0.82,1.47,1.01,2.39c0.12,0.6,0.18,1.65,0.18,3.15v11.75h-3.24v-11.63c0-1.32-0.13-2.31-0.38-2.96
		c-0.25-0.66-0.7-1.18-1.34-1.57c-0.64-0.39-1.39-0.58-2.26-0.58c-1.38,0-2.57,0.44-3.57,1.31c-1,0.87-1.5,2.54-1.5,4.99v10.44
		H514.11z"/>
	<path class="st3" d="M533.32,1078.2l3.2-0.5c0.18,1.29,0.68,2.27,1.5,2.95c0.82,0.68,1.97,1.03,3.45,1.03
		c1.49,0,2.59-0.3,3.31-0.91c0.72-0.61,1.08-1.32,1.08-2.13c0-0.73-0.32-1.31-0.95-1.73c-0.44-0.29-1.55-0.66-3.31-1.1
		c-2.38-0.6-4.02-1.12-4.94-1.56c-0.91-0.44-1.61-1.04-2.09-1.82c-0.47-0.77-0.71-1.63-0.71-2.56c0-0.85,0.19-1.64,0.59-2.37
		c0.39-0.72,0.92-1.33,1.59-1.81c0.5-0.37,1.19-0.69,2.06-0.94c0.87-0.26,1.8-0.39,2.8-0.39c1.5,0,2.82,0.22,3.95,0.65
		c1.13,0.43,1.97,1.02,2.51,1.76c0.54,0.73,0.91,1.72,1.12,2.96l-3.17,0.43c-0.14-0.98-0.56-1.75-1.25-2.3
		c-0.69-0.55-1.67-0.83-2.93-0.83c-1.49,0-2.55,0.24-3.19,0.74c-0.64,0.49-0.95,1.07-0.95,1.73c0,0.42,0.13,0.8,0.4,1.13
		c0.26,0.35,0.68,0.64,1.24,0.86c0.32,0.12,1.28,0.4,2.86,0.83c2.29,0.61,3.89,1.11,4.8,1.5c0.9,0.39,1.62,0.95,2.13,1.7
		c0.51,0.75,0.77,1.67,0.77,2.77c0,1.08-0.31,2.1-0.95,3.05c-0.63,0.95-1.54,1.69-2.73,2.21c-1.19,0.53-2.53,0.78-4.03,0.78
		c-2.48,0-4.38-0.51-5.68-1.55C534.51,1081.76,533.68,1080.23,533.32,1078.2z"/>
	<path class="st3" d="M560.12,1081.01l0.47,2.86c-0.91,0.19-1.73,0.29-2.45,0.29c-1.18,0-2.09-0.19-2.74-0.56s-1.11-0.86-1.37-1.47
		c-0.26-0.61-0.4-1.88-0.4-3.83v-11h-2.38v-2.52h2.38v-4.73l3.22-1.94v6.68h3.26v2.52h-3.26v11.18c0,0.93,0.06,1.52,0.17,1.78
		c0.12,0.26,0.3,0.48,0.56,0.63c0.26,0.15,0.63,0.23,1.11,0.23C559.06,1081.14,559.54,1081.09,560.12,1081.01z"/>
	<path class="st3" d="M563.26,1083.91v-19.12h2.92v2.9c0.75-1.36,1.43-2.25,2.06-2.68c0.63-0.43,1.32-0.65,2.08-0.65
		c1.09,0,2.2,0.35,3.33,1.04l-1.12,3.01c-0.79-0.47-1.58-0.7-2.38-0.7c-0.71,0-1.34,0.21-1.91,0.64c-0.57,0.42-0.96,1.02-1.21,1.77
		c-0.36,1.15-0.54,2.41-0.54,3.78v10.01H563.26z"/>
	<path class="st3" d="M588.1,1083.91v-2.81c-1.49,2.16-3.51,3.24-6.07,3.24c-1.13,0-2.18-0.22-3.16-0.65
		c-0.98-0.43-1.7-0.98-2.17-1.63c-0.48-0.66-0.81-1.46-1-2.4c-0.13-0.64-0.2-1.65-0.2-3.02v-11.84h3.24v10.6
		c0,1.69,0.06,2.83,0.2,3.42c0.21,0.85,0.64,1.52,1.3,2.01c0.66,0.49,1.48,0.73,2.45,0.73s1.88-0.25,2.74-0.75
		c0.85-0.5,1.45-1.18,1.81-2.04c0.36-0.86,0.53-2.1,0.53-3.73v-10.24H591v19.12H588.1z"/>
	<path class="st3" d="M608.55,1076.91l3.19,0.41c-0.35,2.2-1.24,3.92-2.67,5.16c-1.43,1.25-3.19,1.86-5.28,1.86
		c-2.62,0-4.72-0.86-6.31-2.56c-1.59-1.71-2.38-4.16-2.38-7.36c0-2.06,0.34-3.87,1.03-5.42c0.68-1.55,1.72-2.71,3.12-3.48
		c1.4-0.77,2.92-1.16,4.57-1.16c2.08,0,3.77,0.53,5.09,1.58c1.32,1.05,2.17,2.54,2.54,4.47l-3.15,0.49c-0.3-1.29-0.83-2.25-1.59-2.9
		c-0.76-0.65-1.68-0.97-2.76-0.97c-1.63,0-2.96,0.58-3.98,1.76c-1.02,1.17-1.53,3.02-1.53,5.55c0,2.57,0.49,4.44,1.48,5.6
		s2.27,1.75,3.85,1.75c1.27,0,2.33-0.39,3.19-1.17C607.78,1079.73,608.32,1078.53,608.55,1076.91z"/>
	<path class="st3" d="M621.58,1081.01l0.47,2.86c-0.91,0.19-1.73,0.29-2.45,0.29c-1.18,0-2.09-0.19-2.74-0.56s-1.11-0.86-1.37-1.47
		c-0.26-0.61-0.4-1.88-0.4-3.83v-11h-2.38v-2.52h2.38v-4.73l3.22-1.94v6.68h3.26v2.52h-3.26v11.18c0,0.93,0.06,1.52,0.17,1.78
		c0.12,0.26,0.3,0.48,0.56,0.63c0.26,0.15,0.63,0.23,1.11,0.23C620.52,1081.14,620.99,1081.09,621.58,1081.01z"/>
	<path class="st3" d="M624.77,1061.25v-3.73h3.24v3.73H624.77z M624.77,1083.91v-19.12h3.24v19.12H624.77z"/>
	<path class="st3" d="M631.73,1074.35c0-3.54,0.98-6.16,2.95-7.87c1.65-1.41,3.65-2.12,6.01-2.12c2.63,0,4.78,0.86,6.44,2.58
		c1.67,1.72,2.5,4.1,2.5,7.14c0,2.46-0.37,4.4-1.11,5.8c-0.74,1.41-1.81,2.51-3.23,3.29c-1.41,0.78-2.95,1.17-4.62,1.17
		c-2.67,0-4.84-0.86-6.49-2.57C632.56,1080.05,631.73,1077.58,631.73,1074.35z M635.06,1074.35c0,2.45,0.53,4.28,1.6,5.5
		c1.07,1.22,2.41,1.83,4.03,1.83c1.61,0,2.94-0.61,4.01-1.84c1.07-1.22,1.6-3.09,1.6-5.6c0-2.37-0.54-4.15-1.61-5.38
		c-1.07-1.22-2.41-1.83-4-1.83c-1.62,0-2.96,0.6-4.03,1.82C635.59,1070.07,635.06,1071.9,635.06,1074.35z"/>
	<path class="st3" d="M653.44,1083.91v-19.12h2.92v2.72c1.4-2.1,3.43-3.15,6.08-3.15c1.15,0,2.21,0.21,3.18,0.62
		c0.96,0.42,1.69,0.96,2.17,1.63s0.82,1.47,1.01,2.39c0.12,0.6,0.18,1.65,0.18,3.15v11.75h-3.24v-11.63c0-1.32-0.13-2.31-0.38-2.96
		c-0.25-0.66-0.7-1.18-1.34-1.57c-0.64-0.39-1.39-0.58-2.26-0.58c-1.38,0-2.57,0.44-3.57,1.31c-1,0.87-1.5,2.54-1.5,4.99v10.44
		H653.44z"/>
</g>
<g>
	<path class="st3" d="M393.61,923.52H338.7c-1.02,0-1.84-0.82-1.84-1.84c0-1.02,0.82-1.84,1.84-1.84h54.91
		c1.02,0,1.84,0.82,1.84,1.84C395.45,922.69,394.63,923.52,393.61,923.52z"/>
	<g>
		<polygon class="st3" points="383.26,935.33 389.06,921.68 383.26,908.02 415.62,921.68 		"/>
	</g>
</g>
<g>
	<path class="st4" d="M93.11,1443.88v-26.39h9.95c1.75,0,3.09,0.08,4.01,0.25c1.3,0.22,2.38,0.63,3.26,1.23
		c0.87,0.61,1.58,1.46,2.11,2.55c0.54,1.09,0.8,2.29,0.8,3.6c0,2.24-0.71,4.14-2.14,5.7c-1.43,1.56-4.01,2.33-7.74,2.33H96.6v10.73
		H93.11z M96.6,1430.03h6.82c2.26,0,3.86-0.42,4.81-1.26s1.42-2.02,1.42-3.55c0-1.11-0.28-2.05-0.84-2.84
		c-0.55-0.78-1.29-1.3-2.2-1.56c-0.59-0.15-1.67-0.23-3.26-0.23H96.6V1430.03z"/>
	<path class="st4" d="M117.25,1443.88v-19.12h2.92v2.9c0.75-1.36,1.43-2.25,2.06-2.68c0.63-0.43,1.32-0.65,2.08-0.65
		c1.09,0,2.2,0.35,3.33,1.04l-1.12,3.01c-0.79-0.47-1.58-0.7-2.38-0.7c-0.71,0-1.34,0.21-1.91,0.64c-0.57,0.42-0.96,1.02-1.21,1.77
		c-0.36,1.15-0.54,2.41-0.54,3.78v10.01H117.25z"/>
	<path class="st4" d="M142.65,1437.72l3.35,0.41c-0.53,1.95-1.5,3.47-2.93,4.55c-1.43,1.08-3.25,1.62-5.47,1.62
		c-2.8,0-5.01-0.86-6.65-2.58c-1.64-1.72-2.46-4.14-2.46-7.24c0-3.21,0.83-5.71,2.48-7.49c1.66-1.77,3.81-2.66,6.44-2.66
		c2.56,0,4.64,0.87,6.26,2.61c1.62,1.74,2.43,4.19,2.43,7.34c0,0.19-0.01,0.48-0.02,0.86h-14.26c0.12,2.1,0.71,3.71,1.78,4.82
		c1.07,1.12,2.4,1.67,4,1.67c1.19,0,2.2-0.31,3.04-0.94S142.16,1439.09,142.65,1437.72z M132.01,1432.48h10.67
		c-0.14-1.61-0.55-2.82-1.22-3.62c-1.03-1.25-2.37-1.87-4.01-1.87c-1.49,0-2.74,0.5-3.75,1.49
		C132.68,1429.48,132.12,1430.82,132.01,1432.48z"/>
	<path class="st4" d="M162.47,1443.88v-2.41c-1.21,1.9-3,2.84-5.35,2.84c-1.52,0-2.93-0.42-4.2-1.26c-1.28-0.84-2.27-2.01-2.97-3.52
		c-0.7-1.5-1.05-3.24-1.05-5.19c0-1.91,0.32-3.64,0.95-5.19c0.64-1.56,1.59-2.75,2.86-3.57c1.27-0.83,2.69-1.24,4.27-1.24
		c1.15,0,2.18,0.24,3.08,0.73c0.9,0.49,1.63,1.12,2.2,1.9v-9.47h3.22v26.39H162.47z M152.23,1434.34c0,2.45,0.51,4.28,1.55,5.49
		c1.03,1.21,2.25,1.82,3.65,1.82c1.41,0,2.62-0.58,3.61-1.74c0.99-1.16,1.49-2.93,1.49-5.3c0-2.62-0.5-4.54-1.51-5.76
		s-2.25-1.84-3.73-1.84c-1.44,0-2.64,0.59-3.61,1.76C152.71,1429.95,152.23,1431.81,152.23,1434.34z"/>
	<path class="st4" d="M170.59,1421.21v-3.73h3.24v3.73H170.59z M170.59,1443.88v-19.12h3.24v19.12H170.59z"/>
	<path class="st4" d="M191.23,1436.87l3.19,0.41c-0.35,2.2-1.24,3.92-2.67,5.16c-1.43,1.25-3.19,1.86-5.28,1.86
		c-2.62,0-4.72-0.86-6.31-2.56c-1.59-1.71-2.38-4.16-2.38-7.36c0-2.06,0.34-3.87,1.03-5.42c0.68-1.55,1.72-2.71,3.12-3.48
		c1.4-0.77,2.92-1.16,4.56-1.16c2.08,0,3.77,0.53,5.09,1.58c1.32,1.05,2.17,2.54,2.54,4.47l-3.15,0.49c-0.3-1.29-0.83-2.25-1.59-2.9
		c-0.76-0.65-1.68-0.97-2.76-0.97c-1.63,0-2.96,0.58-3.98,1.76c-1.02,1.17-1.53,3.02-1.53,5.55c0,2.57,0.49,4.44,1.48,5.6
		c0.98,1.16,2.27,1.75,3.85,1.75c1.27,0,2.33-0.39,3.19-1.17C190.47,1439.69,191.01,1438.49,191.23,1436.87z"/>
	<path class="st4" d="M204.27,1440.98l0.47,2.86c-0.91,0.19-1.73,0.29-2.45,0.29c-1.18,0-2.09-0.19-2.74-0.56
		c-0.65-0.37-1.11-0.86-1.37-1.47c-0.26-0.61-0.4-1.88-0.4-3.83v-11h-2.38v-2.52h2.38v-4.73l3.22-1.94v6.68h3.26v2.52h-3.26v11.18
		c0,0.93,0.06,1.52,0.17,1.78c0.12,0.26,0.3,0.48,0.56,0.63c0.26,0.15,0.63,0.23,1.11,0.23
		C203.2,1441.1,203.68,1441.06,204.27,1440.98z"/>
	<path class="st4" d="M207.45,1421.21v-3.73h3.24v3.73H207.45z M207.45,1443.88v-19.12h3.24v19.12H207.45z"/>
	<path class="st4" d="M214.42,1434.32c0-3.54,0.98-6.16,2.95-7.87c1.65-1.41,3.65-2.12,6.01-2.12c2.63,0,4.78,0.86,6.44,2.58
		c1.67,1.72,2.5,4.1,2.5,7.14c0,2.46-0.37,4.4-1.11,5.8c-0.74,1.41-1.81,2.51-3.23,3.29c-1.41,0.78-2.95,1.17-4.62,1.17
		c-2.67,0-4.84-0.86-6.49-2.57C215.24,1440.02,214.42,1437.55,214.42,1434.32z M217.75,1434.32c0,2.45,0.53,4.28,1.6,5.5
		c1.07,1.22,2.41,1.83,4.03,1.83c1.61,0,2.94-0.61,4.01-1.84c1.07-1.22,1.6-3.09,1.6-5.6c0-2.37-0.54-4.15-1.61-5.38
		c-1.07-1.22-2.41-1.83-4-1.83c-1.62,0-2.96,0.6-4.03,1.82C218.28,1430.04,217.75,1431.87,217.75,1434.32z"/>
	<path class="st4" d="M236.13,1443.88v-19.12h2.92v2.72c1.4-2.1,3.43-3.15,6.08-3.15c1.15,0,2.21,0.21,3.18,0.62
		c0.96,0.42,1.69,0.96,2.17,1.63c0.48,0.67,0.82,1.47,1.01,2.39c0.12,0.6,0.18,1.65,0.18,3.15v11.75h-3.24v-11.63
		c0-1.32-0.13-2.31-0.38-2.96c-0.25-0.66-0.7-1.18-1.34-1.57c-0.64-0.39-1.39-0.58-2.26-0.58c-1.38,0-2.57,0.44-3.57,1.31
		c-1,0.87-1.5,2.54-1.5,4.99v10.44H236.13z"/>
	<path class="st4" d="M255.33,1438.17l3.2-0.5c0.18,1.29,0.68,2.27,1.5,2.95c0.82,0.68,1.97,1.03,3.45,1.03
		c1.49,0,2.59-0.3,3.31-0.91c0.72-0.61,1.08-1.32,1.08-2.13c0-0.73-0.32-1.31-0.95-1.73c-0.44-0.29-1.55-0.66-3.31-1.1
		c-2.38-0.6-4.02-1.12-4.94-1.56c-0.91-0.44-1.61-1.04-2.09-1.82c-0.47-0.77-0.71-1.63-0.71-2.56c0-0.85,0.19-1.64,0.59-2.37
		c0.39-0.72,0.92-1.33,1.59-1.81c0.5-0.37,1.19-0.69,2.06-0.94c0.87-0.26,1.8-0.39,2.8-0.39c1.5,0,2.82,0.22,3.95,0.65
		c1.13,0.43,1.97,1.02,2.51,1.76c0.54,0.73,0.91,1.72,1.12,2.96l-3.17,0.43c-0.14-0.98-0.56-1.75-1.25-2.3
		c-0.69-0.55-1.67-0.83-2.93-0.83c-1.49,0-2.55,0.24-3.19,0.74c-0.64,0.49-0.95,1.07-0.95,1.73c0,0.42,0.13,0.8,0.4,1.13
		c0.26,0.35,0.68,0.64,1.24,0.86c0.32,0.12,1.28,0.4,2.86,0.83c2.29,0.61,3.89,1.11,4.8,1.5c0.9,0.39,1.62,0.95,2.13,1.7
		c0.51,0.75,0.77,1.67,0.77,2.77c0,1.08-0.31,2.1-0.95,3.05c-0.63,0.95-1.54,1.69-2.73,2.21c-1.19,0.53-2.53,0.78-4.03,0.78
		c-2.48,0-4.38-0.51-5.68-1.55C256.52,1441.73,255.69,1440.2,255.33,1438.17z"/>
</g>
<path class="st4" d="M277.37,1235.55l-17.63-7.44l2.31,5.43h-75.74c-1.86-0.17-3.74-0.29-5.65-0.29c-26.34,0-48.85,16.5-57.88,39.69
	v-62.13l5.43,2.31l-7.44-17.63l-7.44,17.63l5.43-2.31v78.53c0,0.08,0.04,0.15,0.05,0.23c-0.18,1.92-0.3,3.86-0.3,5.83
	c0,26.35,16.52,48.87,39.72,57.89h-57.38l2.31-5.43l-17.63,7.44l17.63,7.44l-2.31-5.43h75.16c1.54,0.11,3.08,0.24,4.65,0.24
	c26.7,0,49.45-16.96,58.23-40.64v55.1l-5.43-2.31l7.44,17.63l7.44-17.63l-5.43,2.31v-78.53c0-0.33-0.1-0.64-0.25-0.91
	c-1.14-25.07-17.15-46.28-39.44-55.01h58.83l-2.31,5.43L277.37,1235.55z M187.72,1327.01h-9.04v-9.03h9.04V1327.01z M204.03,1278.93
	c0,2.82-0.66,5.42-1.98,7.8c-1.32,2.38-3.91,5.27-7.76,8.68c-2.59,2.29-4.27,3.98-5.07,5.07c-0.79,1.09-1.38,2.34-1.76,3.75
	c-0.38,1.41-0.6,3.7-0.66,6.87h-7.62c-0.03-1.06-0.04-1.85-0.04-2.38c0-3.11,0.44-5.8,1.32-8.06c0.65-1.7,1.69-3.42,3.13-5.16
	c1.06-1.26,2.96-3.11,5.71-5.53s4.53-4.36,5.35-5.79c0.82-1.44,1.23-3.01,1.23-4.72c0-3.09-1.21-5.8-3.61-8.13
	c-2.41-2.34-5.36-3.5-8.86-3.5c-3.38,0-6.2,1.06-8.46,3.17c-2.26,2.11-3.75,5.42-4.45,9.92l-8.15-0.97
	c0.73-6.02,2.92-10.63,6.54-13.84c3.63-3.2,8.42-4.8,14.39-4.8c6.32,0,11.36,1.72,15.12,5.16S204.03,1274.05,204.03,1278.93z"/>
<path class="st4" d="M672.24,1236.8l-18.18-7.67l2.38,5.6h-78.09c-1.92-0.17-3.86-0.3-5.83-0.3c-27.16,0-50.37,17.01-59.68,40.92
	v-64.06l5.6,2.38l-7.67-18.18l-7.67,18.18l5.6-2.38v80.97c0,0.08,0.04,0.16,0.05,0.24c-0.19,1.98-0.3,3.98-0.3,6.01
	c0,27.17,17.03,50.39,40.96,59.69h-59.16l2.38-5.6l-18.18,7.67l18.18,7.67l-2.38-5.6h77.49c1.59,0.12,3.17,0.24,4.79,0.24
	c27.53,0,50.99-17.48,60.04-41.9v56.82l-5.6-2.38l7.67,18.18l7.67-18.18l-5.6,2.38v-80.97c0-0.34-0.1-0.66-0.25-0.94
	c-1.18-25.85-17.68-47.72-40.67-56.72h60.66l-2.38,5.6L672.24,1236.8z M597.77,1285.67c-1.98,1.99-4.3,2.39-6.36,1.8
	c-1.85,2.25-3.84,5.28-4.47,6.11c-1.97,2.6-3.83,5.29-5.62,8.02c-4.18,6.39-7.76,13.1-10.98,20.02c-1.95,4.18-7.92,4.23-10.88,1.4
	c-5.93-5.67-11.85-11.34-17.78-17c-6.46-6.18,3.35-15.96,9.8-9.8c3.63,3.47,7.26,6.94,10.89,10.41c2.67-5.07,5.56-10,8.81-14.75
	c3.99-5.83,8.82-13.89,14.59-18.09C594.35,1267.55,605.92,1277.46,597.77,1285.67z"/>
<g>
	<g>
		<path class="st4" d="M503.11,1433.44l-10.22-26.39h3.78l6.86,19.17c0.55,1.54,1.02,2.98,1.38,4.32c0.41-1.44,0.89-2.88,1.43-4.32
			l7.13-19.17h3.56l-10.33,26.39H503.11z"/>
		<path class="st4" d="M529.48,1431.09c-1.2,1.02-2.35,1.74-3.46,2.16c-1.12,0.42-2.3,0.63-3.58,0.63c-2.1,0-3.72-0.51-4.84-1.54
			c-1.13-1.02-1.69-2.34-1.69-3.93c0-0.94,0.21-1.79,0.64-2.56c0.42-0.78,0.98-1.4,1.67-1.86s1.47-0.82,2.33-1.06
			c0.63-0.17,1.59-0.33,2.88-0.49c2.61-0.31,4.54-0.68,5.77-1.12c0.01-0.44,0.02-0.73,0.02-0.85c0-1.32-0.31-2.25-0.92-2.79
			c-0.83-0.73-2.06-1.1-3.69-1.1c-1.53,0-2.65,0.27-3.38,0.8c-0.73,0.53-1.26,1.48-1.61,2.83l-3.17-0.43
			c0.29-1.36,0.76-2.45,1.43-3.29c0.66-0.83,1.61-1.48,2.86-1.92c1.25-0.45,2.69-0.68,4.34-0.68c1.63,0,2.96,0.19,3.97,0.58
			c1.02,0.39,1.77,0.87,2.25,1.45c0.48,0.58,0.81,1.32,1.01,2.21c0.11,0.55,0.16,1.55,0.16,2.99v4.32c0,3.01,0.07,4.92,0.21,5.71
			c0.14,0.8,0.41,1.57,0.82,2.3h-3.38C529.79,1432.77,529.58,1431.99,529.48,1431.09z M529.21,1423.85
			c-1.17,0.48-2.94,0.89-5.29,1.22c-1.33,0.19-2.28,0.41-2.82,0.65c-0.55,0.24-0.98,0.59-1.28,1.05c-0.3,0.46-0.45,0.97-0.45,1.54
			c0,0.86,0.32,1.58,0.98,2.16c0.66,0.58,1.61,0.86,2.87,0.86c1.25,0,2.35-0.27,3.33-0.82c0.97-0.55,1.68-1.3,2.15-2.24
			c0.35-0.73,0.52-1.81,0.52-3.24V1423.85z"/>
		<path class="st4" d="M537.44,1433.44v-26.39h3.24v26.39H537.44z"/>
		<path class="st4" d="M545.72,1410.78v-3.73h3.24v3.73H545.72z M545.72,1433.44v-19.12h3.24v19.12H545.72z"/>
		<path class="st4" d="M566.29,1433.44v-2.41c-1.21,1.9-3,2.84-5.34,2.84c-1.53,0-2.93-0.42-4.2-1.26
			c-1.28-0.84-2.27-2.01-2.97-3.52c-0.7-1.5-1.05-3.24-1.05-5.19c0-1.91,0.32-3.64,0.96-5.19c0.63-1.56,1.59-2.75,2.86-3.57
			c1.27-0.83,2.69-1.24,4.27-1.24c1.15,0,2.17,0.24,3.07,0.73c0.9,0.49,1.63,1.12,2.2,1.9v-9.47h3.23v26.39H566.29z M556.05,1423.9
			c0,2.45,0.51,4.28,1.55,5.49c1.03,1.21,2.25,1.82,3.65,1.82c1.42,0,2.62-0.58,3.61-1.74c0.99-1.16,1.49-2.93,1.49-5.3
			c0-2.62-0.5-4.54-1.51-5.76s-2.25-1.84-3.73-1.84c-1.44,0-2.64,0.59-3.61,1.76S556.05,1421.37,556.05,1423.9z"/>
		<path class="st4" d="M586.87,1431.09c-1.2,1.02-2.35,1.74-3.46,2.16c-1.12,0.42-2.3,0.63-3.58,0.63c-2.1,0-3.72-0.51-4.84-1.54
			c-1.13-1.02-1.69-2.34-1.69-3.93c0-0.94,0.21-1.79,0.64-2.56c0.42-0.78,0.98-1.4,1.67-1.86s1.47-0.82,2.33-1.06
			c0.63-0.17,1.59-0.33,2.88-0.49c2.61-0.31,4.54-0.68,5.77-1.12c0.01-0.44,0.02-0.73,0.02-0.85c0-1.32-0.31-2.25-0.92-2.79
			c-0.83-0.73-2.06-1.1-3.69-1.1c-1.53,0-2.65,0.27-3.38,0.8c-0.73,0.53-1.26,1.48-1.61,2.83l-3.17-0.43
			c0.29-1.36,0.76-2.45,1.43-3.29c0.66-0.83,1.61-1.48,2.86-1.92c1.25-0.45,2.69-0.68,4.34-0.68c1.63,0,2.96,0.19,3.97,0.58
			c1.02,0.39,1.77,0.87,2.25,1.45c0.48,0.58,0.81,1.32,1.01,2.21c0.11,0.55,0.16,1.55,0.16,2.99v4.32c0,3.01,0.07,4.92,0.21,5.71
			c0.14,0.8,0.41,1.57,0.82,2.3h-3.38C587.18,1432.77,586.96,1431.99,586.87,1431.09z M586.6,1423.85
			c-1.17,0.48-2.94,0.89-5.29,1.22c-1.33,0.19-2.28,0.41-2.82,0.65c-0.55,0.24-0.98,0.59-1.28,1.05c-0.3,0.46-0.45,0.97-0.45,1.54
			c0,0.86,0.32,1.58,0.98,2.16c0.66,0.58,1.61,0.86,2.87,0.86c1.25,0,2.35-0.27,3.33-0.82c0.97-0.55,1.68-1.3,2.15-2.24
			c0.35-0.73,0.52-1.81,0.52-3.24V1423.85z"/>
		<path class="st4" d="M601.97,1430.55l0.47,2.86c-0.91,0.19-1.73,0.29-2.45,0.29c-1.17,0-2.09-0.19-2.74-0.56
			c-0.65-0.37-1.1-0.86-1.37-1.47c-0.26-0.61-0.4-1.88-0.4-3.83v-11h-2.38v-2.52h2.38v-4.73l3.23-1.94v6.68h3.25v2.52h-3.25v11.18
			c0,0.93,0.06,1.52,0.17,1.78c0.12,0.26,0.3,0.48,0.56,0.63c0.26,0.15,0.63,0.23,1.11,0.23
			C600.91,1430.67,601.39,1430.63,601.97,1430.55z"/>
		<path class="st4" d="M618.23,1427.29l3.35,0.41c-0.53,1.95-1.5,3.47-2.94,4.55c-1.43,1.08-3.25,1.62-5.47,1.62
			c-2.79,0-5.01-0.86-6.65-2.58c-1.64-1.72-2.46-4.14-2.46-7.24c0-3.21,0.83-5.71,2.48-7.49c1.66-1.77,3.81-2.66,6.44-2.66
			c2.56,0,4.64,0.87,6.26,2.61s2.43,4.19,2.43,7.34c0,0.19-0.01,0.48-0.02,0.86h-14.26c0.12,2.1,0.71,3.71,1.79,4.82
			c1.07,1.12,2.4,1.67,4,1.67c1.19,0,2.2-0.31,3.04-0.94C617.07,1429.65,617.73,1428.66,618.23,1427.29z M607.59,1422.05h10.68
			c-0.14-1.61-0.55-2.82-1.22-3.62c-1.04-1.25-2.37-1.87-4.02-1.87c-1.48,0-2.74,0.5-3.75,1.49
			C608.26,1419.05,607.69,1420.38,607.59,1422.05z"/>
		<path class="st4" d="M638.04,1433.44v-2.41c-1.21,1.9-3,2.84-5.34,2.84c-1.53,0-2.93-0.42-4.2-1.26
			c-1.28-0.84-2.27-2.01-2.97-3.52c-0.7-1.5-1.05-3.24-1.05-5.19c0-1.91,0.32-3.64,0.96-5.19c0.63-1.56,1.59-2.75,2.86-3.57
			c1.27-0.83,2.69-1.24,4.27-1.24c1.15,0,2.17,0.24,3.07,0.73c0.9,0.49,1.63,1.12,2.2,1.9v-9.47h3.23v26.39H638.04z M627.8,1423.9
			c0,2.45,0.51,4.28,1.55,5.49c1.03,1.21,2.25,1.82,3.65,1.82c1.42,0,2.62-0.58,3.61-1.74c0.99-1.16,1.49-2.93,1.49-5.3
			c0-2.62-0.5-4.54-1.51-5.76c-1.01-1.22-2.25-1.84-3.73-1.84c-1.44,0-2.64,0.59-3.61,1.76
			C628.29,1419.52,627.8,1421.37,627.8,1423.9z"/>
		<path class="st4" d="M486.63,1485.01v-26.44h2.95v2.48c0.7-0.97,1.48-1.7,2.36-2.19c0.87-0.48,1.94-0.73,3.18-0.73
			c1.63,0,3.07,0.42,4.32,1.26c1.25,0.84,2.19,2.02,2.83,3.56c0.63,1.53,0.95,3.2,0.95,5.03c0,1.95-0.35,3.72-1.05,5.28
			c-0.7,1.57-1.72,2.77-3.06,3.6c-1.34,0.84-2.74,1.25-4.22,1.25c-1.08,0-2.05-0.23-2.91-0.68c-0.86-0.46-1.56-1.03-2.12-1.73v9.31
			H486.63z M489.57,1468.23c0,2.46,0.5,4.28,1.49,5.45c1,1.18,2.2,1.76,3.62,1.76c1.44,0,2.67-0.61,3.7-1.83
			c1.02-1.22,1.53-3.1,1.53-5.66c0-2.44-0.5-4.26-1.5-5.47c-1.01-1.21-2.2-1.82-3.59-1.82c-1.38,0-2.6,0.64-3.66,1.93
			C490.1,1463.9,489.57,1465.77,489.57,1468.23z"/>
		<path class="st4" d="M507.1,1477.68v-19.12h2.92v2.9c0.74-1.36,1.43-2.25,2.06-2.68c0.63-0.43,1.32-0.65,2.08-0.65
			c1.09,0,2.2,0.35,3.33,1.04l-1.12,3.01c-0.79-0.47-1.58-0.7-2.38-0.7c-0.71,0-1.34,0.21-1.91,0.64c-0.56,0.42-0.96,1.02-1.2,1.77
			c-0.36,1.15-0.54,2.41-0.54,3.78v10.01H507.1z"/>
		<path class="st4" d="M532.49,1471.53l3.35,0.41c-0.53,1.95-1.5,3.47-2.93,4.55c-1.43,1.08-3.25,1.62-5.47,1.62
			c-2.8,0-5.02-0.86-6.65-2.58c-1.64-1.72-2.46-4.14-2.46-7.24c0-3.21,0.83-5.71,2.48-7.49c1.66-1.77,3.8-2.66,6.44-2.66
			c2.56,0,4.64,0.87,6.26,2.61s2.43,4.19,2.43,7.34c0,0.19-0.01,0.48-0.01,0.86h-14.26c0.12,2.1,0.71,3.71,1.78,4.82
			c1.07,1.12,2.4,1.67,4,1.67c1.19,0,2.2-0.31,3.05-0.94C531.33,1473.89,532,1472.89,532.49,1471.53z M521.86,1466.29h10.67
			c-0.14-1.61-0.55-2.82-1.22-3.62c-1.03-1.25-2.37-1.87-4.01-1.87c-1.49,0-2.74,0.5-3.76,1.49
			C522.53,1463.29,521.97,1464.62,521.86,1466.29z"/>
		<path class="st4" d="M552.32,1477.68v-2.41c-1.22,1.9-3,2.84-5.35,2.84c-1.52,0-2.92-0.42-4.2-1.26
			c-1.28-0.84-2.27-2.01-2.97-3.52c-0.7-1.5-1.05-3.24-1.05-5.19c0-1.91,0.32-3.64,0.95-5.19c0.64-1.56,1.59-2.75,2.87-3.57
			c1.27-0.83,2.69-1.24,4.26-1.24c1.15,0,2.18,0.24,3.08,0.73c0.9,0.49,1.63,1.12,2.2,1.9v-9.47h3.22v26.39H552.32z M542.07,1468.14
			c0,2.45,0.52,4.28,1.55,5.49c1.04,1.21,2.25,1.82,3.66,1.82c1.41,0,2.62-0.58,3.61-1.74c0.99-1.16,1.48-2.93,1.48-5.3
			c0-2.62-0.5-4.54-1.51-5.76c-1.01-1.22-2.25-1.84-3.72-1.84c-1.44,0-2.64,0.59-3.61,1.76
			C542.55,1463.76,542.07,1465.61,542.07,1468.14z"/>
		<path class="st4" d="M560.43,1455.02v-3.73h3.24v3.73H560.43z M560.43,1477.68v-19.12h3.24v19.12H560.43z"/>
		<path class="st4" d="M581.08,1470.68l3.18,0.41c-0.35,2.2-1.24,3.92-2.67,5.16c-1.43,1.25-3.2,1.86-5.29,1.86
			c-2.61,0-4.72-0.86-6.31-2.56c-1.59-1.71-2.38-4.16-2.38-7.36c0-2.06,0.34-3.87,1.02-5.42c0.68-1.55,1.73-2.71,3.12-3.48
			c1.4-0.77,2.92-1.16,4.57-1.16c2.07,0,3.77,0.53,5.09,1.58c1.32,1.05,2.17,2.54,2.54,4.47l-3.15,0.49
			c-0.3-1.29-0.83-2.25-1.59-2.9c-0.76-0.65-1.68-0.97-2.76-0.97c-1.63,0-2.96,0.58-3.97,1.76c-1.02,1.17-1.53,3.02-1.53,5.55
			c0,2.57,0.5,4.44,1.48,5.6c0.99,1.16,2.27,1.75,3.85,1.75c1.27,0,2.33-0.39,3.19-1.17C580.31,1473.5,580.85,1472.3,581.08,1470.68
			z"/>
		<path class="st4" d="M594.11,1474.78l0.47,2.86c-0.91,0.19-1.73,0.29-2.45,0.29c-1.18,0-2.09-0.19-2.74-0.56
			c-0.65-0.37-1.11-0.86-1.37-1.47c-0.27-0.61-0.4-1.88-0.4-3.83v-11h-2.38v-2.52h2.38v-4.73l3.22-1.94v6.68h3.26v2.52h-3.26v11.18
			c0,0.93,0.06,1.52,0.17,1.78c0.12,0.26,0.3,0.48,0.56,0.63c0.25,0.15,0.63,0.23,1.1,0.23
			C593.05,1474.91,593.52,1474.87,594.11,1474.78z"/>
		<path class="st4" d="M597.3,1455.02v-3.73h3.24v3.73H597.3z M597.3,1477.68v-19.12h3.24v19.12H597.3z"/>
		<path class="st4" d="M604.27,1468.12c0-3.54,0.98-6.16,2.95-7.87c1.64-1.41,3.64-2.12,6.01-2.12c2.63,0,4.77,0.86,6.44,2.58
			c1.66,1.72,2.5,4.1,2.5,7.14c0,2.46-0.37,4.4-1.1,5.8c-0.74,1.41-1.81,2.51-3.23,3.29s-2.95,1.17-4.62,1.17
			c-2.68,0-4.84-0.86-6.49-2.57C605.09,1473.82,604.27,1471.35,604.27,1468.12z M607.59,1468.12c0,2.45,0.53,4.28,1.61,5.5
			c1.07,1.22,2.41,1.83,4.03,1.83c1.61,0,2.94-0.61,4.01-1.84c1.07-1.22,1.61-3.09,1.61-5.6c0-2.37-0.54-4.15-1.61-5.38
			c-1.07-1.22-2.41-1.83-4-1.83c-1.62,0-2.97,0.6-4.03,1.82C608.13,1463.85,607.59,1465.68,607.59,1468.12z"/>
		<path class="st4" d="M625.97,1477.68v-19.12h2.92v2.72c1.4-2.1,3.43-3.15,6.08-3.15c1.15,0,2.21,0.21,3.18,0.62
			c0.96,0.42,1.69,0.96,2.17,1.63c0.48,0.67,0.82,1.47,1.01,2.39c0.12,0.6,0.18,1.65,0.18,3.15v11.75h-3.24v-11.63
			c0-1.32-0.12-2.31-0.37-2.96c-0.25-0.66-0.7-1.18-1.35-1.57c-0.64-0.39-1.39-0.58-2.25-0.58c-1.38,0-2.57,0.44-3.58,1.31
			c-1,0.87-1.5,2.54-1.5,4.99v10.44H625.97z"/>
		<path class="st4" d="M645.18,1471.98l3.2-0.5c0.18,1.29,0.68,2.27,1.5,2.95c0.82,0.68,1.97,1.03,3.45,1.03
			c1.48,0,2.59-0.3,3.31-0.91c0.72-0.61,1.08-1.32,1.08-2.13c0-0.73-0.32-1.31-0.96-1.73c-0.44-0.29-1.55-0.66-3.31-1.1
			c-2.38-0.6-4.02-1.12-4.94-1.56c-0.91-0.44-1.61-1.04-2.09-1.82c-0.48-0.77-0.71-1.63-0.71-2.56c0-0.85,0.19-1.64,0.59-2.37
			c0.39-0.72,0.91-1.33,1.59-1.81c0.5-0.37,1.19-0.69,2.06-0.94c0.87-0.26,1.8-0.39,2.8-0.39c1.5,0,2.82,0.22,3.95,0.65
			c1.13,0.43,1.97,1.02,2.51,1.76c0.54,0.73,0.91,1.72,1.12,2.96l-3.17,0.43c-0.14-0.98-0.56-1.75-1.25-2.3
			c-0.69-0.55-1.67-0.83-2.93-0.83c-1.48,0-2.55,0.24-3.18,0.74c-0.64,0.49-0.96,1.07-0.96,1.73c0,0.42,0.14,0.8,0.4,1.13
			c0.27,0.35,0.68,0.64,1.25,0.86c0.32,0.12,1.27,0.4,2.86,0.83c2.3,0.61,3.9,1.11,4.8,1.5c0.9,0.39,1.61,0.95,2.13,1.7
			c0.51,0.75,0.77,1.67,0.77,2.77c0,1.08-0.31,2.1-0.94,3.05c-0.63,0.95-1.54,1.69-2.73,2.21c-1.19,0.53-2.53,0.78-4.03,0.78
			c-2.48,0-4.38-0.51-5.67-1.55C646.37,1475.53,645.54,1474,645.18,1471.98z"/>
	</g>
</g>
<g>
	<path class="st4" d="M394.81,1306.7h-57.3c-1.02,0-1.84-0.82-1.84-1.84c0-1.02,0.82-1.84,1.84-1.84h57.3
		c1.02,0,1.84,0.82,1.84,1.84C396.65,1305.87,395.83,1306.7,394.81,1306.7z"/>
	<g>
		<polygon class="st4" points="384.45,1318.51 390.25,1304.85 384.45,1291.2 416.81,1304.85 		"/>
	</g>
</g>
<g>
	<g>
		<path class="st5" d="M289.33,1828.24v-26.39h9.95c1.75,0,3.09,0.08,4.01,0.25c1.3,0.22,2.38,0.63,3.26,1.23
			c0.87,0.6,1.58,1.45,2.11,2.55c0.54,1.09,0.8,2.29,0.8,3.6c0,2.24-0.71,4.14-2.14,5.7c-1.43,1.56-4.01,2.33-7.74,2.33h-6.77v10.73
			H289.33z M292.83,1814.39h6.82c2.26,0,3.86-0.42,4.81-1.26c0.95-0.84,1.42-2.02,1.42-3.54c0-1.11-0.28-2.05-0.84-2.84
			c-0.55-0.78-1.29-1.3-2.2-1.56c-0.59-0.16-1.67-0.24-3.26-0.24h-6.75V1814.39z"/>
		<path class="st5" d="M313.47,1828.24v-19.12h2.92v2.89c0.75-1.35,1.43-2.25,2.06-2.68c0.63-0.43,1.32-0.65,2.08-0.65
			c1.09,0,2.2,0.35,3.33,1.04l-1.12,3c-0.79-0.47-1.58-0.7-2.38-0.7c-0.71,0-1.34,0.21-1.91,0.64c-0.57,0.42-0.96,1.02-1.21,1.77
			c-0.36,1.15-0.54,2.41-0.54,3.78v10.01H313.47z"/>
		<path class="st5" d="M338.87,1822.08l3.35,0.41c-0.53,1.96-1.5,3.48-2.93,4.56c-1.43,1.08-3.25,1.62-5.47,1.62
			c-2.8,0-5.01-0.86-6.65-2.58c-1.64-1.72-2.46-4.14-2.46-7.24c0-3.22,0.83-5.72,2.48-7.49c1.66-1.78,3.81-2.66,6.44-2.66
			c2.56,0,4.64,0.87,6.26,2.61c1.62,1.74,2.43,4.19,2.43,7.34c0,0.19-0.01,0.48-0.02,0.86h-14.26c0.12,2.1,0.71,3.71,1.78,4.82
			s2.4,1.68,4,1.68c1.19,0,2.2-0.32,3.04-0.94C337.71,1824.44,338.38,1823.45,338.87,1822.08z M328.23,1816.84h10.67
			c-0.14-1.61-0.55-2.82-1.22-3.61c-1.03-1.25-2.37-1.87-4.01-1.87c-1.49,0-2.74,0.5-3.75,1.49
			C328.9,1813.85,328.34,1815.18,328.23,1816.84z"/>
		<path class="st5" d="M358.69,1828.24v-2.41c-1.21,1.89-3,2.84-5.35,2.84c-1.52,0-2.93-0.42-4.2-1.26
			c-1.28-0.84-2.27-2.02-2.97-3.52c-0.7-1.5-1.05-3.24-1.05-5.19c0-1.91,0.32-3.64,0.95-5.19c0.64-1.56,1.59-2.75,2.86-3.58
			c1.27-0.83,2.69-1.24,4.27-1.24c1.15,0,2.18,0.24,3.08,0.73c0.9,0.49,1.63,1.12,2.2,1.9v-9.47h3.22v26.39H358.69z M348.45,1818.7
			c0,2.45,0.51,4.28,1.55,5.49c1.03,1.22,2.25,1.82,3.65,1.82c1.41,0,2.62-0.58,3.61-1.74c0.99-1.16,1.49-2.93,1.49-5.31
			c0-2.61-0.5-4.54-1.51-5.76c-1.01-1.22-2.25-1.84-3.73-1.84c-1.44,0-2.64,0.59-3.61,1.76
			C348.93,1814.31,348.45,1816.16,348.45,1818.7z"/>
		<path class="st5" d="M366.81,1805.57v-3.72h3.24v3.72H366.81z M366.81,1828.24v-19.12h3.24v19.12H366.81z"/>
		<path class="st5" d="M387.45,1821.23l3.19,0.42c-0.35,2.2-1.24,3.92-2.67,5.16c-1.43,1.25-3.19,1.86-5.28,1.86
			c-2.62,0-4.72-0.86-6.31-2.56c-1.59-1.71-2.38-4.16-2.38-7.36c0-2.06,0.34-3.87,1.03-5.41c0.68-1.55,1.72-2.71,3.12-3.48
			c1.4-0.77,2.92-1.16,4.56-1.16c2.08,0,3.77,0.53,5.09,1.58c1.32,1.04,2.17,2.53,2.54,4.47l-3.15,0.48
			c-0.3-1.28-0.83-2.25-1.59-2.89c-0.76-0.65-1.68-0.97-2.76-0.97c-1.63,0-2.96,0.58-3.98,1.76c-1.02,1.17-1.53,3.02-1.53,5.55
			c0,2.56,0.49,4.44,1.48,5.59c0.98,1.17,2.27,1.75,3.85,1.75c1.27,0,2.33-0.39,3.19-1.17
			C386.69,1824.06,387.23,1822.85,387.45,1821.23z"/>
		<path class="st5" d="M400.49,1825.34l0.47,2.87c-0.91,0.19-1.73,0.29-2.45,0.29c-1.18,0-2.09-0.19-2.74-0.56
			c-0.65-0.37-1.11-0.86-1.37-1.46c-0.26-0.61-0.4-1.89-0.4-3.83v-10.99h-2.38v-2.52h2.38v-4.74l3.22-1.94v6.68h3.26v2.52h-3.26
			v11.17c0,0.93,0.06,1.52,0.17,1.79c0.12,0.26,0.3,0.48,0.56,0.63c0.26,0.16,0.63,0.24,1.11,0.24
			C399.43,1825.47,399.9,1825.42,400.49,1825.34z"/>
		<path class="st5" d="M403.67,1805.57v-3.72h3.24v3.72H403.67z M403.67,1828.24v-19.12h3.24v19.12H403.67z"/>
		<path class="st5" d="M410.64,1818.68c0-3.54,0.98-6.16,2.95-7.86c1.65-1.42,3.65-2.12,6.01-2.12c2.63,0,4.78,0.86,6.44,2.58
			c1.67,1.72,2.5,4.1,2.5,7.14c0,2.46-0.37,4.39-1.11,5.8c-0.74,1.41-1.81,2.51-3.23,3.28c-1.41,0.78-2.95,1.17-4.62,1.17
			c-2.67,0-4.84-0.86-6.49-2.58C411.46,1824.38,410.64,1821.91,410.64,1818.68z M413.97,1818.68c0,2.45,0.53,4.28,1.6,5.5
			c1.07,1.22,2.41,1.83,4.03,1.83c1.61,0,2.94-0.61,4.01-1.84c1.07-1.22,1.6-3.09,1.6-5.6c0-2.36-0.54-4.15-1.61-5.37
			c-1.07-1.22-2.41-1.83-4-1.83c-1.62,0-2.96,0.6-4.03,1.82C414.5,1814.4,413.97,1816.23,413.97,1818.68z"/>
		<path class="st5" d="M432.35,1828.24v-19.12h2.92v2.71c1.4-2.1,3.43-3.15,6.08-3.15c1.15,0,2.21,0.21,3.18,0.62
			c0.96,0.42,1.69,0.96,2.17,1.63c0.48,0.68,0.82,1.47,1.01,2.4c0.12,0.6,0.18,1.65,0.18,3.15v11.76h-3.24v-11.63
			c0-1.32-0.13-2.31-0.38-2.96c-0.25-0.66-0.7-1.18-1.34-1.57c-0.64-0.39-1.39-0.58-2.26-0.58c-1.38,0-2.57,0.44-3.57,1.31
			c-1,0.88-1.5,2.54-1.5,4.99v10.44H432.35z"/>
		<path class="st5" d="M451.56,1822.53l3.2-0.5c0.18,1.29,0.68,2.27,1.5,2.95c0.82,0.68,1.97,1.03,3.45,1.03
			c1.49,0,2.59-0.3,3.31-0.91c0.72-0.61,1.08-1.32,1.08-2.14c0-0.73-0.32-1.3-0.95-1.73c-0.44-0.29-1.55-0.66-3.31-1.09
			c-2.38-0.6-4.02-1.12-4.94-1.56c-0.91-0.44-1.61-1.04-2.09-1.82c-0.47-0.77-0.71-1.63-0.71-2.56c0-0.86,0.19-1.64,0.59-2.37
			c0.39-0.73,0.92-1.33,1.59-1.81c0.5-0.37,1.19-0.69,2.06-0.94c0.87-0.26,1.8-0.39,2.8-0.39c1.5,0,2.82,0.22,3.95,0.65
			c1.13,0.43,1.97,1.02,2.51,1.76c0.54,0.73,0.91,1.72,1.12,2.96l-3.17,0.43c-0.14-0.99-0.56-1.76-1.25-2.3
			c-0.69-0.55-1.67-0.83-2.93-0.83c-1.49,0-2.55,0.24-3.19,0.73c-0.64,0.5-0.95,1.07-0.95,1.73c0,0.42,0.13,0.8,0.4,1.14
			c0.26,0.35,0.68,0.63,1.24,0.86c0.32,0.12,1.28,0.4,2.86,0.83c2.29,0.61,3.89,1.11,4.8,1.5c0.9,0.39,1.62,0.95,2.13,1.7
			c0.51,0.74,0.77,1.66,0.77,2.77c0,1.08-0.31,2.1-0.95,3.05c-0.63,0.95-1.54,1.69-2.73,2.21c-1.19,0.53-2.53,0.78-4.03,0.78
			c-2.48,0-4.38-0.52-5.68-1.55C452.75,1826.09,451.92,1824.56,451.56,1822.53z"/>
	</g>
</g>
<path class="st5" d="M482.62,1615.15l-18.9-7.97l2.47,5.82h-81.21c-2-0.18-4.02-0.31-6.06-0.31c-28.25,0-52.38,17.69-62.07,42.56
	v-66.62l5.82,2.47l-7.97-18.9l-7.97,18.9l5.82-2.47v84.21c0,0.09,0.04,0.16,0.05,0.25c-0.19,2.06-0.32,4.14-0.32,6.25
	c0,28.26,17.71,52.4,42.59,62.08h-61.53l2.47-5.82l-18.9,7.97l18.9,7.97l-2.47-5.82h80.59c1.65,0.12,3.3,0.25,4.98,0.25
	c28.63,0,53.03-18.18,62.44-43.58v59.09l-5.82-2.47l7.97,18.9l7.97-18.9l-5.82,2.47v-84.2c0-0.36-0.11-0.68-0.26-0.98
	c-1.22-26.88-18.39-49.62-42.29-58.98h63.08l-2.47,5.82L482.62,1615.15z M386.5,1713.22h-9.69v-9.69h9.69V1713.22z M403.98,1661.66
	c0,3.03-0.71,5.81-2.13,8.37c-1.42,2.55-4.19,5.65-8.32,9.31c-2.77,2.46-4.58,4.27-5.43,5.44c-0.85,1.17-1.48,2.5-1.89,4.02
	c-0.41,1.51-0.65,3.97-0.71,7.37h-8.18c-0.03-1.13-0.05-1.99-0.05-2.55c0-3.34,0.47-6.22,1.42-8.65c0.69-1.83,1.81-3.67,3.36-5.53
	c1.13-1.35,3.17-3.33,6.12-5.93c2.95-2.6,4.86-4.67,5.74-6.21c0.88-1.55,1.32-3.23,1.32-5.06c0-3.31-1.29-6.22-3.88-8.72
	c-2.58-2.5-5.75-3.75-9.5-3.75c-3.62,0-6.65,1.13-9.07,3.4c-2.43,2.27-4.02,5.81-4.77,10.63l-8.74-1.04
	c0.79-6.46,3.13-11.4,7.02-14.84c3.89-3.43,9.03-5.15,15.43-5.15c6.77,0,12.18,1.84,16.21,5.53
	C401.97,1651.98,403.98,1656.43,403.98,1661.66z"/>
<path class="st1" d="M321.2,357.3l45.98,62.73c4.65,6.34,14.19,6.08,18.49-0.5l40.61-62.22"/>
<path class="st2" d="M321.2,741.26l45.98,62.73c4.65,6.34,14.19,6.08,18.49-0.5l40.61-62.22"/>
<path class="st3" d="M321.2,1120.04l45.98,62.73c4.65,6.34,14.19,6.08,18.49-0.5l40.61-62.22"/>
<g>
	<path class="st3" d="M205.98,857.73H71.75c-0.77,0-1.39-0.62-1.39-1.39v-30.33c0-0.77,0.62-1.39,1.39-1.39h134.23
		c0.77,0,1.39,0.62,1.39,1.39v30.33C207.37,857.11,206.74,857.73,205.98,857.73z"/>
	<path class="st3" d="M235.61,900.31H101.38c-0.77,0-1.39-0.62-1.39-1.39v-30.33c0-0.77,0.62-1.39,1.39-1.39h134.23
		c0.77,0,1.39,0.62,1.39,1.39v30.33C237,899.69,236.38,900.31,235.61,900.31z"/>
	<path class="st3" d="M265.24,942.89H131.01c-0.77,0-1.39-0.62-1.39-1.39v-30.33c0-0.77,0.62-1.39,1.39-1.39h134.23
		c0.77,0,1.39,0.62,1.39,1.39v30.33C266.63,942.27,266.01,942.89,265.24,942.89z"/>
	<path class="st3" d="M294.87,985.48H160.64c-0.77,0-1.39-0.62-1.39-1.39v-30.33c0-0.77,0.62-1.39,1.39-1.39h134.23
		c0.77,0,1.39,0.62,1.39,1.39v30.33C296.26,984.85,295.64,985.48,294.87,985.48z"/>
</g>
<g>
	<path class="st3" d="M98.41,1061.79v-26.39h9.09c2.05,0,3.62,0.12,4.7,0.37c1.51,0.35,2.8,0.98,3.87,1.89
		c1.39,1.17,2.43,2.68,3.12,4.51c0.69,1.83,1.04,3.92,1.04,6.27c0,2.01-0.23,3.78-0.7,5.33c-0.47,1.55-1.07,2.83-1.8,3.84
		c-0.73,1.02-1.53,1.81-2.4,2.4c-0.87,0.58-1.92,1.02-3.15,1.32c-1.23,0.3-2.64,0.45-4.24,0.45H98.41z M101.9,1058.67h5.63
		c1.74,0,3.11-0.16,4.09-0.48c0.99-0.32,1.78-0.78,2.37-1.37c0.83-0.83,1.47-1.94,1.94-3.34c0.46-1.4,0.69-3.1,0.69-5.08
		c0-2.76-0.45-4.88-1.36-6.36c-0.9-1.48-2.01-2.48-3.3-2.98c-0.94-0.36-2.44-0.54-4.52-0.54h-5.54V1058.67z"/>
	<path class="st3" d="M137.71,1055.63l3.35,0.41c-0.53,1.96-1.5,3.48-2.93,4.56s-3.25,1.62-5.47,1.62c-2.8,0-5.01-0.86-6.65-2.58
		c-1.64-1.72-2.46-4.14-2.46-7.24c0-3.22,0.83-5.72,2.48-7.49c1.66-1.78,3.81-2.66,6.44-2.66c2.56,0,4.64,0.87,6.26,2.61
		c1.62,1.74,2.43,4.19,2.43,7.34c0,0.19-0.01,0.48-0.02,0.86h-14.26c0.12,2.1,0.71,3.71,1.78,4.82c1.07,1.12,2.4,1.68,4,1.68
		c1.19,0,2.2-0.32,3.04-0.94C136.55,1058,137.21,1057,137.71,1055.63z M127.07,1050.39h10.67c-0.14-1.61-0.55-2.82-1.22-3.61
		c-1.03-1.25-2.37-1.87-4.01-1.87c-1.49,0-2.74,0.5-3.75,1.49C127.74,1047.4,127.18,1048.73,127.07,1050.39z"/>
	<path class="st3" d="M145.12,1061.79v-19.12h2.92v2.71c1.4-2.1,3.43-3.15,6.08-3.15c1.15,0,2.21,0.21,3.18,0.62
		c0.96,0.42,1.69,0.96,2.17,1.63c0.48,0.68,0.82,1.47,1.01,2.4c0.12,0.6,0.18,1.65,0.18,3.15v11.76h-3.24v-11.63
		c0-1.32-0.13-2.31-0.38-2.96c-0.25-0.66-0.7-1.18-1.34-1.57c-0.64-0.39-1.39-0.58-2.26-0.58c-1.38,0-2.57,0.44-3.57,1.31
		c-1,0.88-1.5,2.54-1.5,4.99v10.44H145.12z"/>
	<path class="st3" d="M164.33,1056.08l3.2-0.5c0.18,1.29,0.68,2.27,1.5,2.95c0.82,0.68,1.97,1.03,3.45,1.03
		c1.49,0,2.59-0.3,3.31-0.91c0.72-0.61,1.08-1.32,1.08-2.14c0-0.73-0.32-1.3-0.95-1.73c-0.44-0.29-1.55-0.66-3.31-1.09
		c-2.38-0.6-4.02-1.12-4.94-1.56c-0.91-0.44-1.61-1.04-2.09-1.82c-0.47-0.77-0.71-1.63-0.71-2.56c0-0.86,0.19-1.64,0.59-2.37
		c0.39-0.73,0.92-1.33,1.59-1.81c0.5-0.37,1.19-0.69,2.06-0.94c0.87-0.26,1.8-0.39,2.8-0.39c1.5,0,2.82,0.22,3.95,0.65
		c1.13,0.43,1.97,1.02,2.51,1.76c0.54,0.73,0.91,1.72,1.12,2.96l-3.17,0.43c-0.14-0.99-0.56-1.76-1.25-2.3
		c-0.69-0.55-1.67-0.83-2.93-0.83c-1.49,0-2.55,0.24-3.19,0.73c-0.64,0.5-0.95,1.07-0.95,1.73c0,0.42,0.13,0.8,0.4,1.14
		c0.26,0.35,0.68,0.63,1.24,0.86c0.32,0.12,1.28,0.4,2.86,0.83c2.29,0.61,3.89,1.11,4.8,1.5c0.9,0.39,1.62,0.95,2.13,1.7
		c0.51,0.74,0.77,1.66,0.77,2.77c0,1.08-0.31,2.1-0.95,3.05c-0.63,0.95-1.54,1.69-2.73,2.21c-1.19,0.53-2.53,0.78-4.03,0.78
		c-2.48,0-4.38-0.52-5.68-1.55C165.52,1059.64,164.69,1058.11,164.33,1056.08z"/>
	<path class="st3" d="M197.14,1055.63l3.35,0.41c-0.53,1.96-1.5,3.48-2.93,4.56c-1.43,1.08-3.25,1.62-5.47,1.62
		c-2.8,0-5.01-0.86-6.65-2.58c-1.64-1.72-2.46-4.14-2.46-7.24c0-3.22,0.83-5.72,2.48-7.49c1.66-1.78,3.81-2.66,6.44-2.66
		c2.56,0,4.64,0.87,6.26,2.61c1.62,1.74,2.43,4.19,2.43,7.34c0,0.19-0.01,0.48-0.02,0.86h-14.26c0.12,2.1,0.71,3.71,1.78,4.82
		s2.4,1.68,4,1.68c1.19,0,2.2-0.32,3.04-0.94C195.98,1058,196.65,1057,197.14,1055.63z M186.51,1050.39h10.67
		c-0.14-1.61-0.55-2.82-1.22-3.61c-1.03-1.25-2.37-1.87-4.01-1.87c-1.49,0-2.74,0.5-3.75,1.49
		C187.18,1047.4,186.61,1048.73,186.51,1050.39z"/>
	<path class="st3" d="M227.21,1061.79v-2.41c-1.21,1.89-3,2.84-5.35,2.84c-1.52,0-2.93-0.42-4.2-1.26
		c-1.28-0.84-2.27-2.02-2.97-3.52c-0.7-1.5-1.05-3.24-1.05-5.19c0-1.91,0.32-3.64,0.95-5.19c0.64-1.56,1.59-2.75,2.86-3.58
		c1.27-0.83,2.69-1.24,4.27-1.24c1.15,0,2.18,0.24,3.08,0.73c0.9,0.49,1.63,1.12,2.2,1.9v-9.47h3.22v26.39H227.21z M216.96,1052.25
		c0,2.45,0.51,4.28,1.55,5.49c1.03,1.22,2.25,1.82,3.65,1.82c1.41,0,2.62-0.58,3.61-1.74c0.99-1.16,1.49-2.93,1.49-5.31
		c0-2.61-0.5-4.54-1.51-5.76c-1.01-1.22-2.25-1.84-3.73-1.84c-1.44,0-2.64,0.59-3.61,1.76
		C217.45,1047.86,216.96,1049.71,216.96,1052.25z"/>
	<path class="st3" d="M247.78,1059.43c-1.2,1.02-2.35,1.74-3.46,2.16c-1.11,0.42-2.3,0.63-3.57,0.63c-2.1,0-3.72-0.51-4.84-1.54
		c-1.13-1.02-1.69-2.34-1.69-3.93c0-0.94,0.21-1.79,0.64-2.56c0.42-0.78,0.98-1.4,1.67-1.86c0.69-0.47,1.47-0.82,2.33-1.07
		c0.64-0.17,1.59-0.33,2.88-0.48c2.62-0.32,4.54-0.68,5.78-1.12c0.01-0.45,0.02-0.73,0.02-0.85c0-1.32-0.31-2.25-0.92-2.79
		c-0.83-0.73-2.06-1.1-3.69-1.1c-1.52,0-2.65,0.27-3.38,0.81c-0.72,0.53-1.26,1.48-1.61,2.83l-3.17-0.43
		c0.29-1.35,0.76-2.45,1.42-3.28c0.66-0.84,1.61-1.48,2.86-1.92c1.25-0.45,2.69-0.68,4.34-0.68c1.63,0,2.96,0.19,3.98,0.58
		c1.02,0.38,1.77,0.86,2.25,1.45s0.82,1.32,1.01,2.2c0.11,0.55,0.16,1.55,0.16,2.99v4.32c0,3.02,0.07,4.92,0.21,5.72
		c0.14,0.8,0.41,1.56,0.82,2.3h-3.38C248.09,1061.11,247.88,1060.33,247.78,1059.43z M247.51,1052.19
		c-1.18,0.48-2.94,0.89-5.29,1.22c-1.33,0.19-2.28,0.41-2.83,0.65c-0.55,0.24-0.98,0.59-1.28,1.06c-0.3,0.46-0.45,0.97-0.45,1.53
		c0,0.86,0.33,1.58,0.98,2.16c0.66,0.58,1.61,0.86,2.87,0.86c1.25,0,2.36-0.27,3.33-0.81c0.97-0.55,1.68-1.3,2.14-2.25
		c0.35-0.73,0.52-1.81,0.52-3.24V1052.19z"/>
	<path class="st3" d="M262.88,1058.89l0.47,2.87c-0.91,0.19-1.73,0.29-2.45,0.29c-1.18,0-2.09-0.19-2.74-0.56
		c-0.65-0.37-1.11-0.86-1.37-1.46c-0.26-0.61-0.4-1.89-0.4-3.83v-10.99h-2.38v-2.52h2.38v-4.74l3.22-1.94v6.68h3.26v2.52h-3.26
		v11.17c0,0.93,0.06,1.52,0.17,1.79c0.12,0.26,0.3,0.48,0.56,0.63c0.26,0.16,0.63,0.24,1.11,0.24
		C261.82,1059.02,262.3,1058.97,262.88,1058.89z"/>
	<path class="st3" d="M278.53,1059.43c-1.2,1.02-2.35,1.74-3.46,2.16c-1.11,0.42-2.3,0.63-3.57,0.63c-2.1,0-3.72-0.51-4.84-1.54
		c-1.13-1.02-1.69-2.34-1.69-3.93c0-0.94,0.21-1.79,0.64-2.56c0.42-0.78,0.98-1.4,1.67-1.86c0.69-0.47,1.47-0.82,2.33-1.07
		c0.64-0.17,1.59-0.33,2.88-0.48c2.62-0.32,4.54-0.68,5.78-1.12c0.01-0.45,0.02-0.73,0.02-0.85c0-1.32-0.31-2.25-0.92-2.79
		c-0.83-0.73-2.06-1.1-3.69-1.1c-1.52,0-2.65,0.27-3.38,0.81c-0.72,0.53-1.26,1.48-1.61,2.83l-3.17-0.43
		c0.29-1.35,0.76-2.45,1.42-3.28c0.66-0.84,1.61-1.48,2.86-1.92c1.25-0.45,2.69-0.68,4.34-0.68c1.63,0,2.96,0.19,3.98,0.58
		c1.02,0.38,1.77,0.86,2.25,1.45s0.82,1.32,1.01,2.2c0.11,0.55,0.16,1.55,0.16,2.99v4.32c0,3.02,0.07,4.92,0.21,5.72
		c0.14,0.8,0.41,1.56,0.82,2.3h-3.38C278.84,1061.11,278.62,1060.33,278.53,1059.43z M278.26,1052.19
		c-1.18,0.48-2.94,0.89-5.29,1.22c-1.33,0.19-2.28,0.41-2.83,0.65c-0.55,0.24-0.98,0.59-1.28,1.06c-0.3,0.46-0.45,0.97-0.45,1.53
		c0,0.86,0.33,1.58,0.98,2.16c0.66,0.58,1.61,0.86,2.87,0.86c1.25,0,2.36-0.27,3.33-0.81c0.97-0.55,1.68-1.3,2.14-2.25
		c0.35-0.73,0.52-1.81,0.52-3.24V1052.19z"/>
</g>
</svg>
