<?xml version="1.0" encoding="utf-8"?>
<!-- Generator: Adobe Illustrator 24.1.0, SVG Export Plug-In . SVG Version: 6.00 Build 0)  -->
<svg version="1.1" id="Layer_1" xmlns="http://www.w3.org/2000/svg" xmlns:xlink="http://www.w3.org/1999/xlink" x="0px" y="0px"
	 viewBox="0 0 578 578" style="enable-background:new 0 0 578 578;" xml:space="preserve">
<style type="text/css">
	.st0{fill:#050A30;}
	.st1{fill:#FFFFFF;}
</style>
<g>
	<circle class="st0" cx="289" cy="288.3" r="289"/>
	<path class="st1" d="M230.65,252.77h33.34V144.41c0-4.62,3.73-8.34,8.33-8.34h33.34c4.59,0,8.33,3.72,8.33,8.34v108.36h33.34
		c3.27,0,6.24,1.91,7.58,4.89c1.36,2.98,0.83,6.48-1.32,8.93l-58.35,66.69c-0.25,0.29-0.52,0.56-0.81,0.81
		c-3.46,3.01-8.71,2.64-11.72-0.81l-58.35-66.69c-1.34-1.52-2.06-3.46-2.06-5.48C222.32,256.51,226.05,252.77,230.65,252.77z"/>
	<path class="st1" d="M414.03,386.14v0.02c0,9.2-7.47,16.65-16.67,16.64H180.64c-9.2,0-16.67-7.45-16.67-16.66v-66.69h33.34v50.01
		h183.38v-50.01h33.35V386.14z"/>
</g>
</svg>
