<svg xmlns="http://www.w3.org/2000/svg" viewBox="0 0 52.94 52.94"><defs><style>.cls-1{fill:#fff;}.cls-2{fill:#050a30;}</style></defs><g id="Layer_2" data-name="Layer 2"><g id="Layer_1-2" data-name="Layer 1"><circle class="cls-1" cx="26.47" cy="26.47" r="26.47"/><path class="cls-2" d="M20.44,22.93h3.68V11a.93.93,0,0,1,.93-.92h3.68a.92.92,0,0,1,.92.92v12h3.68A.92.92,0,0,1,34,24.46l-6.44,7.36-.09.09a.93.93,0,0,1-1.3-.09l-6.44-7.36a.91.91,0,0,1-.23-.61A.92.92,0,0,1,20.44,22.93Z"/><path class="cls-2" d="M40.69,37.66h0a1.84,1.84,0,0,1-1.84,1.84H14.92a1.84,1.84,0,0,1-1.84-1.84V30.29h3.68v5.53H37V30.29h3.68Z"/></g></g></svg>