<svg xmlns="http://www.w3.org/2000/svg" viewBox="0 0 52.8 52.8"><defs><style>.cls-1{fill:#fff;opacity:0.98;isolation:isolate;}.cls-2{fill:#050a30;}</style></defs><g id="Layer_2" data-name="Layer 2"><g id="Layer_1-2" data-name="Layer 1"><path class="cls-1" d="M26.4,0A26.4,26.4,0,1,1,0,26.4"/><path class="cls-1" d="M0,26.4A26.4,26.4,0,0,1,26.4,0"/><path class="cls-2" d="M41.31,37.45H11.48a1,1,0,0,1-1-1V16.33a1,1,0,0,1,1-1H41.31a1,1,0,0,1,1,1V36.46A1,1,0,0,1,41.31,37.45Zm-28.84-2H40.32V17.32H12.47Z"/><path class="cls-2" d="M26.4,29.5a4.4,4.4,0,0,1-2.92-1.12L10.82,17.07a1,1,0,0,1,.66-1.73H41.31a1,1,0,0,1,.93.64A1,1,0,0,1,42,17.07L29.31,28.38A4.37,4.37,0,0,1,26.4,29.5ZM14.07,17.32,24.8,26.91a2.4,2.4,0,0,0,3.19,0h0l10.73-9.59Z"/><path class="cls-2" d="M41.31,37.31H11.48a1,1,0,0,1-.92-.63,1,1,0,0,1,.26-1.09l11.11-9.93a1,1,0,0,1,1.4.08,1,1,0,0,1-.08,1.39l-9.18,8.21H38.72l-9.18-8.21a1,1,0,0,1,1.32-1.47L42,35.59a1,1,0,0,1-.66,1.72Z"/></g></g></svg>