<svg xmlns="http://www.w3.org/2000/svg" viewBox="0 0 14.98 15.23"><defs><style>.cls-1{fill:#fff;opacity:0.7;}</style></defs><title>Asset 15</title><g id="Layer_2" data-name="Layer 2"><g id="Layer_1-2" data-name="Layer 1"><path class="cls-1" d="M7.49,0A7.55,7.55,0,0,0,0,7.61a7.55,7.55,0,0,0,7.49,7.62A7.55,7.55,0,0,0,15,7.61,7.55,7.55,0,0,0,7.49,0ZM5.34,12.75,4,12.08V3.14l1.34.67Zm3.77.16H5.87v-9H9.11ZM5.67,3.37,4.33,2.7,5.67,2H9.32l1.34.67-1.34.67ZM11,12.08l-1.34.67V3.81L11,3.14Z"/></g></g></svg>