<svg xmlns="http://www.w3.org/2000/svg" viewBox="0 0 14.98 15.23"><defs><style>.cls-1{fill:#fff;opacity:0.7;}</style></defs><title>Asset 17</title><g id="Layer_2" data-name="Layer 2"><g id="Layer_1-2" data-name="Layer 1"><path class="cls-1" d="M7.49,0A7.55,7.55,0,0,0,0,7.61a7.55,7.55,0,0,0,7.49,7.62A7.55,7.55,0,0,0,15,7.61,7.55,7.55,0,0,0,7.49,0Zm4.57,3.85A5.56,5.56,0,0,1,10,4.71c-.51.12-1,.2-1.53.32s-1.06.23-1.18.6A1.52,1.52,0,0,1,8.45,8.06,5.34,5.34,0,0,1,8,8.45c-.13.15-.09.18,0,.39s0,.33.07.49.08.47.12.71a1.93,1.93,0,0,0,.15.72,1.15,1.15,0,0,0,.4.39c.24.18.49.36.75.53a3.61,3.61,0,0,1,.68.44c.29.36-.29.65-.65.43-.08-.05-.1-.15-.17-.21a3.83,3.83,0,0,0-.42-.28c-.26-.17-.52-.35-.76-.54,0,.6,0,1.19,0,1.79,0,.28.19,1.11-.37,1.09-.19,0-.43-.16-.44-.33s.09-.17.1-.27a1.77,1.77,0,0,0,0-.4c0-.58,0-1.16-.05-1.75-.32.21-.89.57-1,.93-.05.18.08.2-.15.36a.52.52,0,0,1-.51.09c-.74-.34.8-1.54,1.12-1.74s.58-.37.6-.73a3.2,3.2,0,0,0-.12-.87c0-.21,0-.92-.18-1s-.37,0-.49-.08a1.56,1.56,0,0,1-.43-.21,1.54,1.54,0,0,1-.5-1.86c.16-.34.52-.51.71-.79a.68.68,0,0,0,0-.83c-.25-.23-.63-.34-.89-.58a2.56,2.56,0,0,1-.64-1A4.16,4.16,0,0,1,4.7,2.21a2.11,2.11,0,0,0-.09-.45.32.32,0,0,1,0-.35c.25-.3.62-.07.73.18a2.8,2.8,0,0,1,.1.91,2.09,2.09,0,0,0,1,1.68c.49-.69,1.6-.84,2.05-1.53a1.32,1.32,0,0,0,.18-.78.38.38,0,0,1,.59-.31c.59.4-.19,1.52-.58,1.82A8.24,8.24,0,0,1,7.62,4a1.94,1.94,0,0,0-.45.35c-.15.22,0,.2.11.42,1.32-.58,2.92-.54,4.15-1.27.22-.13.45-.35.73-.16S12.25,3.72,12.06,3.85Z"/></g></g></svg>