<?xml version="1.0" encoding="utf-8"?>
<!-- Generator: Adobe Illustrator 24.1.0, SVG Export Plug-In . SVG Version: 6.00 Build 0)  -->
<svg version="1.1" id="Layer_1" xmlns="http://www.w3.org/2000/svg" xmlns:xlink="http://www.w3.org/1999/xlink" x="0px" y="0px"
	 viewBox="0 0 578 578" style="enable-background:new 0 0 578 578;" xml:space="preserve">
<style type="text/css">
	.st0{fill:#050A30;}
	.st1{fill:#FFFFFF;}
</style>
<g>
	<circle class="st0" cx="288.82" cy="289.07" r="289.28"/>
	<g>
		<path class="st1" d="M444.32,436.8L330.39,303.77c12.87-14.34,21.91-31.81,26.21-51.14c13.64-61.21-25.07-122.11-86.29-135.74
			c-29.65-6.61-60.1-1.27-85.74,15.03s-43.4,41.61-50,71.26c-6.61,29.65-1.27,60.11,15.03,85.74c16.3,25.65,41.6,43.4,71.26,50
			c8.3,1.86,16.66,2.77,24.95,2.77c20.48,0,40.59-5.57,58.48-16.38l114.32,133.5c3.36,3.9,8.1,5.91,12.87,5.91
			c3.89,0,7.8-1.33,10.99-4.06C449.57,454.57,450.4,443.9,444.32,436.8z M228.22,305.9c-20.84-4.64-38.61-17.12-50.06-35.13
			c-11.45-18.01-15.2-39.4-10.56-60.23c4.64-20.84,17.11-38.62,35.12-50.06c12.97-8.25,27.7-12.5,42.71-12.5
			c5.83,0,11.7,0.64,17.53,1.93c20.83,4.65,38.6,17.12,50.05,35.13c8.25,12.97,12.51,27.7,12.51,42.71c0,5.82-0.64,11.69-1.94,17.52
			c-4.64,20.84-17.12,38.61-35.13,50.06C270.44,306.78,249.05,310.55,228.22,305.9z"/>
	</g>
</g>
</svg>
