<svg xmlns="http://www.w3.org/2000/svg" viewBox="0 0 14.98 15.23"><defs><style>.cls-1{fill:#fff;opacity:0.7;}</style></defs><title>Asset 16</title><g id="Layer_2" data-name="Layer 2"><g id="Layer_1-2" data-name="Layer 1"><path class="cls-1" d="M7.49,0A7.55,7.55,0,0,0,0,7.61a7.55,7.55,0,0,0,7.49,7.62A7.55,7.55,0,0,0,15,7.61,7.55,7.55,0,0,0,7.49,0ZM3.7,11.89a1,1,0,1,1,1-1A1,1,0,0,1,3.7,11.89Zm0-3.59a1,1,0,1,1,1-1A1,1,0,0,1,3.7,8.3Zm7.59,3.78a1,1,0,0,1-.9-.67A6,6,0,0,1,7.14,7.66c-.42-1.27-2-2.46-3-3.08a1,1,0,0,1-.47.13,1,1,0,1,1,1-1s0,.06,0,.09c1.05.68,2.81,2,3.32,3.54a5.36,5.36,0,0,0,2.57,3.15,1,1,0,1,1,.76,1.55Zm0-3.59a1,1,0,1,1,1-1A1,1,0,0,1,11.29,8.49Zm0-3.59a1,1,0,1,1,1-1A1,1,0,0,1,11.29,4.9Z"/></g></g></svg>