<?xml version="1.0" encoding="utf-8"?>
<!-- Generator: Adobe Illustrator 23.0.4, SVG Export Plug-In . SVG Version: 6.00 Build 0)  -->
<svg version="1.1" id="Layer_1" xmlns="http://www.w3.org/2000/svg" xmlns:xlink="http://www.w3.org/1999/xlink" x="0px" y="0px"
	 viewBox="0 0 1920 1080" style="enable-background:new 0 0 1920 1080;" xml:space="preserve">
<style type="text/css">
	.st0{fill:#050A30;}
	.st1{opacity:0.1;}
	.st2{fill:#FFFFFF;}
	.st3{fill:none;stroke:#FFFFFF;stroke-width:1.1358;stroke-miterlimit:10;}
	.st4{opacity:0.9;}
	.st5{opacity:0.7;}
	.st6{opacity:0.2;fill:#FFFFFF;}
</style>
<rect id="bckgrd" x="-0.5" y="-0.1" class="st0" width="1920" height="1080"/>
<g id="Dots">
	<g class="st1">
		<circle class="st2" cx="0.1" cy="282.1" r="2.6"/>
		<circle class="st2" cx="0.1" cy="329.5" r="2.6"/>
		<circle class="st2" cx="0.1" cy="377" r="2.6"/>
		<circle class="st2" cx="0.1" cy="424.4" r="2.6"/>
		<circle class="st2" cx="0.1" cy="471.9" r="2.6"/>
		<circle class="st2" cx="0.1" cy="519.3" r="2.6"/>
		<circle class="st2" cx="0.1" cy="566.8" r="2.6"/>
		<circle class="st2" cx="0.1" cy="614.2" r="2.6"/>
		<circle class="st2" cx="0.1" cy="661.7" r="2.6"/>
		<circle class="st2" cx="41.6" cy="306.1" r="2.6"/>
		<circle class="st2" cx="41.6" cy="353.6" r="2.6"/>
		<circle class="st2" cx="41.6" cy="401" r="2.6"/>
		<circle class="st2" cx="41.6" cy="448.5" r="2.6"/>
		<circle class="st2" cx="41.6" cy="495.9" r="2.6"/>
		<circle class="st2" cx="41.6" cy="543.4" r="2.6"/>
		<circle class="st2" cx="41.6" cy="590.8" r="2.6"/>
		<circle class="st2" cx="41.6" cy="638.3" r="2.6"/>
		<circle class="st2" cx="41.6" cy="685.7" r="2.6"/>
		<circle class="st2" cx="82.7" cy="282.4" r="2.6"/>
		<circle class="st2" cx="82.7" cy="329.9" r="2.6"/>
		<circle class="st2" cx="82.7" cy="377.3" r="2.6"/>
		<circle class="st2" cx="82.7" cy="424.8" r="2.6"/>
		<circle class="st2" cx="82.7" cy="472.2" r="2.6"/>
		<circle class="st2" cx="82.7" cy="519.7" r="2.6"/>
		<circle class="st2" cx="82.7" cy="567.2" r="2.6"/>
		<circle class="st2" cx="82.7" cy="614.6" r="2.6"/>
		<circle class="st2" cx="82.7" cy="662.1" r="2.6"/>
		<circle class="st2" cx="123" cy="305.3" r="2.6"/>
		<circle class="st2" cx="123" cy="352.8" r="2.6"/>
		<circle class="st2" cx="123" cy="400.2" r="2.6"/>
		<circle class="st2" cx="123" cy="447.7" r="2.6"/>
		<circle class="st2" cx="123" cy="495.1" r="2.6"/>
		<circle class="st2" cx="123" cy="542.6" r="2.6"/>
		<circle class="st2" cx="123" cy="590" r="2.6"/>
		<circle class="st2" cx="123" cy="637.5" r="2.6"/>
		<circle class="st2" cx="123" cy="684.9" r="2.6"/>
		<circle class="st2" cx="164.5" cy="282" r="2.6"/>
		<circle class="st2" cx="164.5" cy="329.4" r="2.6"/>
		<circle class="st2" cx="164.5" cy="376.9" r="2.6"/>
		<circle class="st2" cx="164.5" cy="424.3" r="2.6"/>
		<circle class="st2" cx="164.5" cy="471.8" r="2.6"/>
		<circle class="st2" cx="164.5" cy="519.2" r="2.6"/>
		<circle class="st2" cx="164.5" cy="566.7" r="2.6"/>
		<circle class="st2" cx="164.5" cy="614.1" r="2.6"/>
		<circle class="st2" cx="164.5" cy="661.6" r="2.6"/>
		<circle class="st2" cx="206" cy="306" r="2.6"/>
		<circle class="st2" cx="206" cy="353.5" r="2.6"/>
		<circle class="st2" cx="206" cy="400.9" r="2.6"/>
		<circle class="st2" cx="206" cy="448.4" r="2.6"/>
		<circle class="st2" cx="206" cy="495.8" r="2.6"/>
		<circle class="st2" cx="206" cy="543.3" r="2.6"/>
		<circle class="st2" cx="206" cy="590.7" r="2.6"/>
		<circle class="st2" cx="206" cy="638.2" r="2.6"/>
		<circle class="st2" cx="206" cy="685.6" r="2.6"/>
		<circle class="st2" cx="247.1" cy="282.4" r="2.6"/>
		<circle class="st2" cx="247.1" cy="329.8" r="2.6"/>
		<circle class="st2" cx="247.1" cy="377.3" r="2.6"/>
		<circle class="st2" cx="247.1" cy="424.7" r="2.6"/>
		<circle class="st2" cx="247.1" cy="472.2" r="2.6"/>
		<circle class="st2" cx="247.1" cy="519.6" r="2.6"/>
		<circle class="st2" cx="247.1" cy="567.1" r="2.6"/>
		<circle class="st2" cx="247.1" cy="614.5" r="2.6"/>
		<circle class="st2" cx="247.1" cy="662" r="2.6"/>
		<circle class="st2" cx="287.4" cy="305.2" r="2.6"/>
		<circle class="st2" cx="287.4" cy="352.7" r="2.6"/>
		<circle class="st2" cx="287.4" cy="400.1" r="2.6"/>
		<circle class="st2" cx="287.4" cy="447.6" r="2.6"/>
		<circle class="st2" cx="287.4" cy="495.1" r="2.6"/>
		<circle class="st2" cx="287.4" cy="542.5" r="2.6"/>
		<circle class="st2" cx="287.4" cy="590" r="2.6"/>
		<circle class="st2" cx="287.4" cy="637.4" r="2.6"/>
		<circle class="st2" cx="287.4" cy="684.9" r="2.6"/>
		<circle class="st2" cx="328.1" cy="282.1" r="2.6"/>
		<circle class="st2" cx="328.1" cy="329.5" r="2.6"/>
		<circle class="st2" cx="328.1" cy="377" r="2.6"/>
		<circle class="st2" cx="328.1" cy="424.4" r="2.6"/>
		<circle class="st2" cx="328.1" cy="471.9" r="2.6"/>
		<circle class="st2" cx="328.1" cy="519.3" r="2.6"/>
		<circle class="st2" cx="328.1" cy="566.8" r="2.6"/>
		<circle class="st2" cx="328.1" cy="614.2" r="2.6"/>
		<circle class="st2" cx="328.1" cy="661.7" r="2.6"/>
		<circle class="st2" cx="369.6" cy="306.1" r="2.6"/>
		<circle class="st2" cx="369.6" cy="353.6" r="2.6"/>
		<circle class="st2" cx="369.6" cy="401" r="2.6"/>
		<circle class="st2" cx="369.6" cy="448.5" r="2.6"/>
		<circle class="st2" cx="369.6" cy="495.9" r="2.6"/>
		<circle class="st2" cx="369.6" cy="543.4" r="2.6"/>
		<circle class="st2" cx="369.6" cy="590.8" r="2.6"/>
		<circle class="st2" cx="369.6" cy="638.3" r="2.6"/>
		<circle class="st2" cx="369.6" cy="685.7" r="2.6"/>
		<circle class="st2" cx="410.7" cy="282.4" r="2.6"/>
		<circle class="st2" cx="410.7" cy="329.9" r="2.6"/>
		<circle class="st2" cx="410.7" cy="377.3" r="2.6"/>
		<circle class="st2" cx="410.7" cy="424.8" r="2.6"/>
		<circle class="st2" cx="410.7" cy="472.2" r="2.6"/>
		<circle class="st2" cx="410.7" cy="519.7" r="2.6"/>
		<circle class="st2" cx="410.7" cy="567.2" r="2.6"/>
		<circle class="st2" cx="410.7" cy="614.6" r="2.6"/>
		<circle class="st2" cx="410.7" cy="662.1" r="2.6"/>
		<circle class="st2" cx="451" cy="305.3" r="2.6"/>
		<circle class="st2" cx="451" cy="352.8" r="2.6"/>
		<circle class="st2" cx="451" cy="400.2" r="2.6"/>
		<circle class="st2" cx="451" cy="447.7" r="2.6"/>
		<circle class="st2" cx="451" cy="495.1" r="2.6"/>
		<circle class="st2" cx="451" cy="542.6" r="2.6"/>
		<circle class="st2" cx="451" cy="590" r="2.6"/>
		<circle class="st2" cx="451" cy="637.5" r="2.6"/>
		<circle class="st2" cx="451" cy="684.9" r="2.6"/>
		<path class="st3" d="M33.7,358.9l-22.9,13.7c-3.3,2-3.3,6.8,0,8.7l23,13.4c4.5,2.7,10.1,2.7,14.7,0.1l23.6-13.5
			c3.4-1.9,3.4-6.8,0-8.8l-23.6-13.7C44.1,356.2,38.3,356.2,33.7,358.9z"/>
		<circle class="st2" cx="492.2" cy="281.7" r="2.6"/>
		<circle class="st2" cx="492.2" cy="329.2" r="2.6"/>
		<circle class="st2" cx="492.2" cy="376.6" r="2.6"/>
		<circle class="st2" cx="492.2" cy="424.1" r="2.6"/>
		<circle class="st2" cx="492.2" cy="471.5" r="2.6"/>
		<circle class="st2" cx="492.2" cy="519" r="2.6"/>
		<circle class="st2" cx="492.2" cy="566.4" r="2.6"/>
		<circle class="st2" cx="492.2" cy="613.9" r="2.6"/>
		<circle class="st2" cx="492.2" cy="661.3" r="2.6"/>
		<circle class="st2" cx="533.7" cy="305.8" r="2.6"/>
		<circle class="st2" cx="533.7" cy="353.2" r="2.6"/>
		<circle class="st2" cx="533.7" cy="400.7" r="2.6"/>
		<circle class="st2" cx="533.7" cy="448.1" r="2.6"/>
		<circle class="st2" cx="533.7" cy="495.6" r="2.6"/>
		<circle class="st2" cx="533.7" cy="543" r="2.6"/>
		<circle class="st2" cx="533.7" cy="590.5" r="2.6"/>
		<circle class="st2" cx="533.7" cy="637.9" r="2.6"/>
		<circle class="st2" cx="533.7" cy="685.4" r="2.6"/>
		<circle class="st2" cx="574.8" cy="282.1" r="2.6"/>
		<circle class="st2" cx="574.8" cy="329.6" r="2.6"/>
		<circle class="st2" cx="574.8" cy="377" r="2.6"/>
		<circle class="st2" cx="574.8" cy="424.5" r="2.6"/>
		<circle class="st2" cx="574.8" cy="471.9" r="2.6"/>
		<circle class="st2" cx="574.8" cy="519.4" r="2.6"/>
		<circle class="st2" cx="574.8" cy="566.8" r="2.6"/>
		<circle class="st2" cx="574.8" cy="614.3" r="2.6"/>
		<circle class="st2" cx="574.8" cy="661.7" r="2.6"/>
		<circle class="st2" cx="615.1" cy="305" r="2.6"/>
		<circle class="st2" cx="615.1" cy="352.4" r="2.6"/>
		<circle class="st2" cx="615.1" cy="399.9" r="2.6"/>
		<circle class="st2" cx="615.1" cy="447.3" r="2.6"/>
		<circle class="st2" cx="615.1" cy="494.8" r="2.6"/>
		<circle class="st2" cx="615.1" cy="542.2" r="2.6"/>
		<circle class="st2" cx="615.1" cy="589.7" r="2.6"/>
		<circle class="st2" cx="615.1" cy="637.2" r="2.6"/>
		<circle class="st2" cx="615.1" cy="684.6" r="2.6"/>
		<circle class="st2" cx="656.6" cy="281.6" r="2.6"/>
		<circle class="st2" cx="656.6" cy="329.1" r="2.6"/>
		<circle class="st2" cx="656.6" cy="376.5" r="2.6"/>
		<circle class="st2" cx="656.6" cy="424" r="2.6"/>
		<circle class="st2" cx="656.6" cy="471.4" r="2.6"/>
		<circle class="st2" cx="656.6" cy="518.9" r="2.6"/>
		<circle class="st2" cx="656.6" cy="566.3" r="2.6"/>
		<circle class="st2" cx="656.6" cy="613.8" r="2.6"/>
		<circle class="st2" cx="656.6" cy="661.2" r="2.6"/>
		<circle class="st2" cx="698.1" cy="305.7" r="2.6"/>
		<circle class="st2" cx="698.1" cy="353.1" r="2.6"/>
		<circle class="st2" cx="698.1" cy="400.6" r="2.6"/>
		<circle class="st2" cx="698.1" cy="448" r="2.6"/>
		<circle class="st2" cx="698.1" cy="495.5" r="2.6"/>
		<circle class="st2" cx="698.1" cy="543" r="2.6"/>
		<circle class="st2" cx="698.1" cy="590.4" r="2.6"/>
		<circle class="st2" cx="698.1" cy="637.9" r="2.6"/>
		<circle class="st2" cx="698.1" cy="685.3" r="2.6"/>
		<circle class="st2" cx="739.2" cy="282" r="2.6"/>
		<circle class="st2" cx="739.2" cy="329.5" r="2.6"/>
		<circle class="st2" cx="739.2" cy="376.9" r="2.6"/>
		<circle class="st2" cx="739.2" cy="424.4" r="2.6"/>
		<circle class="st2" cx="739.2" cy="471.8" r="2.6"/>
		<circle class="st2" cx="739.2" cy="519.3" r="2.6"/>
		<circle class="st2" cx="739.2" cy="566.7" r="2.6"/>
		<circle class="st2" cx="739.2" cy="614.2" r="2.6"/>
		<circle class="st2" cx="739.2" cy="661.6" r="2.6"/>
		<circle class="st2" cx="779.5" cy="304.9" r="2.6"/>
		<circle class="st2" cx="779.5" cy="352.4" r="2.6"/>
		<circle class="st2" cx="779.5" cy="399.8" r="2.6"/>
		<circle class="st2" cx="779.5" cy="447.3" r="2.6"/>
		<circle class="st2" cx="779.5" cy="494.7" r="2.6"/>
		<circle class="st2" cx="779.5" cy="542.2" r="2.6"/>
		<circle class="st2" cx="779.5" cy="589.6" r="2.6"/>
		<circle class="st2" cx="779.5" cy="637.1" r="2.6"/>
		<circle class="st2" cx="779.5" cy="684.5" r="2.6"/>
		<circle class="st2" cx="820.2" cy="281.7" r="2.6"/>
		<circle class="st2" cx="820.2" cy="329.2" r="2.6"/>
		<circle class="st2" cx="820.2" cy="376.6" r="2.6"/>
		<circle class="st2" cx="820.2" cy="424.1" r="2.6"/>
		<circle class="st2" cx="820.2" cy="471.5" r="2.6"/>
		<circle class="st2" cx="820.2" cy="519" r="2.6"/>
		<circle class="st2" cx="820.2" cy="566.4" r="2.6"/>
		<circle class="st2" cx="820.2" cy="613.9" r="2.6"/>
		<circle class="st2" cx="820.2" cy="661.3" r="2.6"/>
		<circle class="st2" cx="861.7" cy="305.8" r="2.6"/>
		<circle class="st2" cx="861.7" cy="353.2" r="2.6"/>
		<circle class="st2" cx="861.7" cy="400.7" r="2.6"/>
		<circle class="st2" cx="861.7" cy="448.1" r="2.6"/>
		<circle class="st2" cx="861.7" cy="495.6" r="2.6"/>
		<circle class="st2" cx="861.7" cy="543" r="2.6"/>
		<circle class="st2" cx="861.7" cy="590.5" r="2.6"/>
		<circle class="st2" cx="861.7" cy="637.9" r="2.6"/>
		<circle class="st2" cx="861.7" cy="685.4" r="2.6"/>
		<circle class="st2" cx="902.8" cy="282.1" r="2.6"/>
		<circle class="st2" cx="902.8" cy="329.6" r="2.6"/>
		<circle class="st2" cx="902.8" cy="377" r="2.6"/>
		<circle class="st2" cx="902.8" cy="424.5" r="2.6"/>
		<circle class="st2" cx="902.8" cy="471.9" r="2.6"/>
		<circle class="st2" cx="902.8" cy="519.4" r="2.6"/>
		<circle class="st2" cx="902.8" cy="566.8" r="2.6"/>
		<circle class="st2" cx="902.8" cy="614.3" r="2.6"/>
		<circle class="st2" cx="902.8" cy="661.7" r="2.6"/>
		<circle class="st2" cx="943.1" cy="305" r="2.6"/>
		<circle class="st2" cx="943.1" cy="352.4" r="2.6"/>
		<circle class="st2" cx="943.1" cy="399.9" r="2.6"/>
		<circle class="st2" cx="943.1" cy="447.3" r="2.6"/>
		<circle class="st2" cx="943.1" cy="494.8" r="2.6"/>
		<circle class="st2" cx="943.1" cy="542.2" r="2.6"/>
		<circle class="st2" cx="943.1" cy="589.7" r="2.6"/>
		<circle class="st2" cx="943.1" cy="637.2" r="2.6"/>
		<circle class="st2" cx="943.1" cy="684.6" r="2.6"/>
		<path class="st3" d="M525.9,358.6L503,372.3c-3.3,2-3.3,6.8,0,8.7l23,13.4c4.5,2.7,10.1,2.7,14.7,0.1l23.6-13.5
			c3.4-1.9,3.4-6.8,0-8.8l-23.6-13.7C536.2,355.8,530.5,355.9,525.9,358.6z"/>
		<circle class="st2" cx="-0.5" cy="708.6" r="2.6"/>
		<circle class="st2" cx="-0.5" cy="756.1" r="2.6"/>
		<circle class="st2" cx="-0.5" cy="803.5" r="2.6"/>
		<circle class="st2" cx="-0.5" cy="851" r="2.6"/>
		<circle class="st2" cx="-0.5" cy="898.4" r="2.6"/>
		<circle class="st2" cx="-0.5" cy="945.9" r="2.6"/>
		<circle class="st2" cx="-0.5" cy="993.3" r="2.6"/>
		<circle class="st2" cx="-0.5" cy="1040.8" r="2.6"/>
		<circle class="st2" cx="-0.5" cy="1088.2" r="2.6"/>
		<circle class="st2" cx="41.1" cy="732.7" r="2.6"/>
		<circle class="st2" cx="41.1" cy="780.2" r="2.6"/>
		<circle class="st2" cx="41.1" cy="827.6" r="2.6"/>
		<circle class="st2" cx="41.1" cy="875.1" r="2.6"/>
		<circle class="st2" cx="41.1" cy="922.5" r="2.6"/>
		<circle class="st2" cx="41.1" cy="970" r="2.6"/>
		<circle class="st2" cx="41.1" cy="1017.4" r="2.6"/>
		<circle class="st2" cx="41.1" cy="1064.9" r="2.6"/>
		<circle class="st2" cx="41.1" cy="1112.3" r="2.6"/>
		<circle class="st2" cx="82.2" cy="709" r="2.6"/>
		<circle class="st2" cx="82.2" cy="756.5" r="2.6"/>
		<circle class="st2" cx="82.2" cy="803.9" r="2.6"/>
		<circle class="st2" cx="82.2" cy="851.4" r="2.6"/>
		<circle class="st2" cx="82.2" cy="898.8" r="2.6"/>
		<circle class="st2" cx="82.2" cy="946.3" r="2.6"/>
		<circle class="st2" cx="82.2" cy="993.7" r="2.6"/>
		<circle class="st2" cx="82.2" cy="1041.2" r="2.6"/>
		<circle class="st2" cx="82.2" cy="1088.6" r="2.6"/>
		<circle class="st2" cx="122.5" cy="731.9" r="2.6"/>
		<circle class="st2" cx="122.5" cy="779.4" r="2.6"/>
		<circle class="st2" cx="122.5" cy="826.8" r="2.6"/>
		<circle class="st2" cx="122.5" cy="874.3" r="2.6"/>
		<circle class="st2" cx="122.5" cy="921.7" r="2.6"/>
		<circle class="st2" cx="122.5" cy="969.2" r="2.6"/>
		<circle class="st2" cx="122.5" cy="1016.6" r="2.6"/>
		<circle class="st2" cx="122.5" cy="1064.1" r="2.6"/>
		<circle class="st2" cx="122.5" cy="1111.5" r="2.6"/>
		<circle class="st2" cx="163.9" cy="708.5" r="2.6"/>
		<circle class="st2" cx="163.9" cy="756" r="2.6"/>
		<circle class="st2" cx="163.9" cy="803.5" r="2.6"/>
		<circle class="st2" cx="163.9" cy="850.9" r="2.6"/>
		<circle class="st2" cx="163.9" cy="898.4" r="2.6"/>
		<circle class="st2" cx="163.9" cy="945.8" r="2.6"/>
		<circle class="st2" cx="163.9" cy="993.3" r="2.6"/>
		<circle class="st2" cx="163.9" cy="1040.7" r="2.6"/>
		<circle class="st2" cx="163.9" cy="1088.2" r="2.6"/>
		<circle class="st2" cx="205.5" cy="732.6" r="2.6"/>
		<circle class="st2" cx="205.5" cy="780.1" r="2.6"/>
		<circle class="st2" cx="205.5" cy="827.5" r="2.6"/>
		<circle class="st2" cx="205.5" cy="875" r="2.6"/>
		<circle class="st2" cx="205.5" cy="922.4" r="2.6"/>
		<circle class="st2" cx="205.5" cy="969.9" r="2.6"/>
		<circle class="st2" cx="205.5" cy="1017.3" r="2.6"/>
		<circle class="st2" cx="205.5" cy="1064.8" r="2.6"/>
		<circle class="st2" cx="205.5" cy="1112.2" r="2.6"/>
		<circle class="st2" cx="246.6" cy="708.9" r="2.6"/>
		<circle class="st2" cx="246.6" cy="756.4" r="2.6"/>
		<circle class="st2" cx="246.6" cy="803.8" r="2.6"/>
		<circle class="st2" cx="246.6" cy="851.3" r="2.6"/>
		<circle class="st2" cx="246.6" cy="898.7" r="2.6"/>
		<circle class="st2" cx="246.6" cy="946.2" r="2.6"/>
		<circle class="st2" cx="246.6" cy="993.6" r="2.6"/>
		<circle class="st2" cx="246.6" cy="1041.1" r="2.6"/>
		<circle class="st2" cx="246.6" cy="1088.5" r="2.6"/>
		<circle class="st2" cx="286.9" cy="731.8" r="2.6"/>
		<circle class="st2" cx="286.9" cy="779.3" r="2.6"/>
		<circle class="st2" cx="286.9" cy="826.7" r="2.6"/>
		<circle class="st2" cx="286.9" cy="874.2" r="2.6"/>
		<circle class="st2" cx="286.9" cy="921.6" r="2.6"/>
		<circle class="st2" cx="286.9" cy="969.1" r="2.6"/>
		<circle class="st2" cx="286.9" cy="1016.5" r="2.6"/>
		<circle class="st2" cx="286.9" cy="1064" r="2.6"/>
		<circle class="st2" cx="286.9" cy="1111.4" r="2.6"/>
		<circle class="st2" cx="327.5" cy="708.6" r="2.6"/>
		<circle class="st2" cx="327.5" cy="756.1" r="2.6"/>
		<circle class="st2" cx="327.5" cy="803.5" r="2.6"/>
		<circle class="st2" cx="327.5" cy="851" r="2.6"/>
		<circle class="st2" cx="327.5" cy="898.4" r="2.6"/>
		<circle class="st2" cx="327.5" cy="945.9" r="2.6"/>
		<circle class="st2" cx="327.5" cy="993.3" r="2.6"/>
		<circle class="st2" cx="327.5" cy="1040.8" r="2.6"/>
		<circle class="st2" cx="327.5" cy="1088.2" r="2.6"/>
		<circle class="st2" cx="369.1" cy="732.7" r="2.6"/>
		<circle class="st2" cx="369.1" cy="780.2" r="2.6"/>
		<circle class="st2" cx="369.1" cy="827.6" r="2.6"/>
		<circle class="st2" cx="369.1" cy="875.1" r="2.6"/>
		<circle class="st2" cx="369.1" cy="922.5" r="2.6"/>
		<circle class="st2" cx="369.1" cy="970" r="2.6"/>
		<circle class="st2" cx="369.1" cy="1017.4" r="2.6"/>
		<circle class="st2" cx="369.1" cy="1064.9" r="2.6"/>
		<circle class="st2" cx="369.1" cy="1112.3" r="2.6"/>
		<circle class="st2" cx="410.2" cy="709" r="2.6"/>
		<circle class="st2" cx="410.2" cy="756.5" r="2.6"/>
		<circle class="st2" cx="410.2" cy="803.9" r="2.6"/>
		<circle class="st2" cx="410.2" cy="851.4" r="2.6"/>
		<circle class="st2" cx="410.2" cy="898.8" r="2.6"/>
		<circle class="st2" cx="410.2" cy="946.3" r="2.6"/>
		<circle class="st2" cx="410.2" cy="993.7" r="2.6"/>
		<circle class="st2" cx="410.2" cy="1041.2" r="2.6"/>
		<circle class="st2" cx="410.2" cy="1088.6" r="2.6"/>
		<circle class="st2" cx="450.5" cy="731.9" r="2.6"/>
		<circle class="st2" cx="450.5" cy="779.4" r="2.6"/>
		<circle class="st2" cx="450.5" cy="826.8" r="2.6"/>
		<circle class="st2" cx="450.5" cy="874.3" r="2.6"/>
		<circle class="st2" cx="450.5" cy="921.7" r="2.6"/>
		<circle class="st2" cx="450.5" cy="969.2" r="2.6"/>
		<circle class="st2" cx="450.5" cy="1016.6" r="2.6"/>
		<circle class="st2" cx="450.5" cy="1064.1" r="2.6"/>
		<circle class="st2" cx="450.5" cy="1111.5" r="2.6"/>
		<path class="st3" d="M33.2,785.5l-22.9,13.7c-3.3,2-3.3,6.8,0,8.7l23,13.4c4.5,2.7,10.1,2.7,14.7,0.1L71.7,808
			c3.4-1.9,3.4-6.8,0-8.8l-23.6-13.7C43.5,782.7,37.8,782.8,33.2,785.5z"/>
		<circle class="st2" cx="491.7" cy="708.3" r="2.6"/>
		<circle class="st2" cx="491.7" cy="755.7" r="2.6"/>
		<circle class="st2" cx="491.7" cy="803.2" r="2.6"/>
		<circle class="st2" cx="491.7" cy="850.6" r="2.6"/>
		<circle class="st2" cx="491.7" cy="898.1" r="2.6"/>
		<circle class="st2" cx="491.7" cy="945.6" r="2.6"/>
		<circle class="st2" cx="491.7" cy="993" r="2.6"/>
		<circle class="st2" cx="491.7" cy="1040.5" r="2.6"/>
		<circle class="st2" cx="491.7" cy="1087.9" r="2.6"/>
		<circle class="st2" cx="533.2" cy="732.4" r="2.6"/>
		<circle class="st2" cx="533.2" cy="779.8" r="2.6"/>
		<circle class="st2" cx="533.2" cy="827.3" r="2.6"/>
		<circle class="st2" cx="533.2" cy="874.7" r="2.6"/>
		<circle class="st2" cx="533.2" cy="922.2" r="2.6"/>
		<circle class="st2" cx="533.2" cy="969.6" r="2.6"/>
		<circle class="st2" cx="533.2" cy="1017.1" r="2.6"/>
		<circle class="st2" cx="533.2" cy="1064.5" r="2.6"/>
		<circle class="st2" cx="533.2" cy="1112" r="2.6"/>
		<circle class="st2" cx="574.3" cy="708.7" r="2.6"/>
		<circle class="st2" cx="574.3" cy="756.1" r="2.6"/>
		<circle class="st2" cx="574.3" cy="803.6" r="2.6"/>
		<circle class="st2" cx="574.3" cy="851" r="2.6"/>
		<circle class="st2" cx="574.3" cy="898.5" r="2.6"/>
		<circle class="st2" cx="574.3" cy="945.9" r="2.6"/>
		<circle class="st2" cx="574.3" cy="993.4" r="2.6"/>
		<circle class="st2" cx="574.3" cy="1040.8" r="2.6"/>
		<circle class="st2" cx="574.3" cy="1088.3" r="2.6"/>
		<circle class="st2" cx="614.6" cy="731.6" r="2.6"/>
		<circle class="st2" cx="614.6" cy="779" r="2.6"/>
		<circle class="st2" cx="614.6" cy="826.5" r="2.6"/>
		<circle class="st2" cx="614.6" cy="873.9" r="2.6"/>
		<circle class="st2" cx="614.6" cy="921.4" r="2.6"/>
		<circle class="st2" cx="614.6" cy="968.8" r="2.6"/>
		<circle class="st2" cx="614.6" cy="1016.3" r="2.6"/>
		<circle class="st2" cx="614.6" cy="1063.7" r="2.6"/>
		<circle class="st2" cx="614.6" cy="1111.2" r="2.6"/>
		<circle class="st2" cx="656.1" cy="708.2" r="2.6"/>
		<circle class="st2" cx="656.1" cy="755.7" r="2.6"/>
		<circle class="st2" cx="656.1" cy="803.1" r="2.6"/>
		<circle class="st2" cx="656.1" cy="850.6" r="2.6"/>
		<circle class="st2" cx="656.1" cy="898" r="2.6"/>
		<circle class="st2" cx="656.1" cy="945.5" r="2.6"/>
		<circle class="st2" cx="656.1" cy="992.9" r="2.6"/>
		<circle class="st2" cx="656.1" cy="1040.4" r="2.6"/>
		<circle class="st2" cx="656.1" cy="1087.8" r="2.6"/>
		<circle class="st2" cx="697.6" cy="732.3" r="2.6"/>
		<circle class="st2" cx="697.6" cy="779.7" r="2.6"/>
		<circle class="st2" cx="697.6" cy="827.2" r="2.6"/>
		<circle class="st2" cx="697.6" cy="874.6" r="2.6"/>
		<circle class="st2" cx="697.6" cy="922.1" r="2.6"/>
		<circle class="st2" cx="697.6" cy="969.5" r="2.6"/>
		<circle class="st2" cx="697.6" cy="1017" r="2.6"/>
		<circle class="st2" cx="697.6" cy="1064.4" r="2.6"/>
		<circle class="st2" cx="697.6" cy="1111.9" r="2.6"/>
		<circle class="st2" cx="738.7" cy="708.6" r="2.6"/>
		<circle class="st2" cx="738.7" cy="756.1" r="2.6"/>
		<circle class="st2" cx="738.7" cy="803.5" r="2.6"/>
		<circle class="st2" cx="738.7" cy="851" r="2.6"/>
		<circle class="st2" cx="738.7" cy="898.4" r="2.6"/>
		<circle class="st2" cx="738.7" cy="945.9" r="2.6"/>
		<circle class="st2" cx="738.7" cy="993.3" r="2.6"/>
		<circle class="st2" cx="738.7" cy="1040.8" r="2.6"/>
		<circle class="st2" cx="738.7" cy="1088.2" r="2.6"/>
		<circle class="st2" cx="779" cy="731.5" r="2.6"/>
		<circle class="st2" cx="779" cy="778.9" r="2.6"/>
		<circle class="st2" cx="779" cy="826.4" r="2.6"/>
		<circle class="st2" cx="779" cy="873.8" r="2.6"/>
		<circle class="st2" cx="779" cy="921.3" r="2.6"/>
		<circle class="st2" cx="779" cy="968.7" r="2.6"/>
		<circle class="st2" cx="779" cy="1016.2" r="2.6"/>
		<circle class="st2" cx="779" cy="1063.6" r="2.6"/>
		<circle class="st2" cx="779" cy="1111.1" r="2.6"/>
		<circle class="st2" cx="819.7" cy="708.3" r="2.6"/>
		<circle class="st2" cx="819.7" cy="755.7" r="2.6"/>
		<circle class="st2" cx="819.7" cy="803.2" r="2.6"/>
		<circle class="st2" cx="819.7" cy="850.6" r="2.6"/>
		<circle class="st2" cx="819.7" cy="898.1" r="2.6"/>
		<circle class="st2" cx="819.7" cy="945.6" r="2.6"/>
		<circle class="st2" cx="819.7" cy="993" r="2.6"/>
		<circle class="st2" cx="819.7" cy="1040.5" r="2.6"/>
		<circle class="st2" cx="819.7" cy="1087.9" r="2.6"/>
		<circle class="st2" cx="861.2" cy="732.4" r="2.6"/>
		<circle class="st2" cx="861.2" cy="779.8" r="2.6"/>
		<circle class="st2" cx="861.2" cy="827.3" r="2.6"/>
		<circle class="st2" cx="861.2" cy="874.7" r="2.6"/>
		<circle class="st2" cx="861.2" cy="922.2" r="2.6"/>
		<circle class="st2" cx="861.2" cy="969.6" r="2.6"/>
		<circle class="st2" cx="861.2" cy="1017.1" r="2.6"/>
		<circle class="st2" cx="861.2" cy="1064.5" r="2.6"/>
		<circle class="st2" cx="861.2" cy="1112" r="2.6"/>
		<circle class="st2" cx="902.3" cy="708.7" r="2.6"/>
		<circle class="st2" cx="902.3" cy="756.1" r="2.6"/>
		<circle class="st2" cx="902.3" cy="803.6" r="2.6"/>
		<circle class="st2" cx="902.3" cy="851" r="2.6"/>
		<circle class="st2" cx="902.3" cy="898.5" r="2.6"/>
		<circle class="st2" cx="902.3" cy="945.9" r="2.6"/>
		<circle class="st2" cx="902.3" cy="993.4" r="2.6"/>
		<circle class="st2" cx="902.3" cy="1040.8" r="2.6"/>
		<circle class="st2" cx="902.3" cy="1088.3" r="2.6"/>
		<circle class="st2" cx="942.6" cy="731.6" r="2.6"/>
		<circle class="st2" cx="942.6" cy="779" r="2.6"/>
		<circle class="st2" cx="942.6" cy="826.5" r="2.6"/>
		<circle class="st2" cx="942.6" cy="873.9" r="2.6"/>
		<circle class="st2" cx="942.6" cy="921.4" r="2.6"/>
		<circle class="st2" cx="942.6" cy="968.8" r="2.6"/>
		<circle class="st2" cx="942.6" cy="1016.3" r="2.6"/>
		<circle class="st2" cx="942.6" cy="1063.7" r="2.6"/>
		<circle class="st2" cx="942.6" cy="1111.2" r="2.6"/>
		<path class="st3" d="M525.3,785.2l-22.9,13.7c-3.3,2-3.3,6.8,0,8.7l23,13.4c4.5,2.7,10.1,2.7,14.7,0.1l23.6-13.5
			c3.4-1.9,3.4-6.8,0-8.8l-23.6-13.7C535.7,782.4,529.9,782.4,525.3,785.2z"/>
		<path class="st3" d="M567.8,334.4L544.9,348c-3.3,2-3.3,6.8,0,8.7l23,13.4c4.5,2.7,10.1,2.7,14.7,0.1l23.6-13.5
			c3.4-1.9,3.4-6.8,0-8.8l-23.6-13.7C578.1,331.6,572.4,331.6,567.8,334.4z"/>
		<path class="st3" d="M607.4,358.4l-22.9,13.7c-3.3,2-3.3,6.8,0,8.7l23,13.4c4.5,2.7,10.1,2.7,14.7,0.1l23.6-13.5
			c3.4-1.9,3.4-6.8,0-8.8l-23.6-13.7C617.7,355.6,612,355.6,607.4,358.4z"/>
		<path class="st3" d="M566.7,761.9l-22.9,13.7c-3.3,2-3.3,6.8,0,8.7l23,13.4c4.5,2.7,10.1,2.7,14.7,0.1l23.6-13.5
			c3.4-1.9,3.4-6.8,0-8.8l-23.6-13.7C577,759.1,571.3,759.1,566.7,761.9z"/>
		<path class="st3" d="M443,690.8l-22.9,13.7c-3.3,2-3.3,6.8,0,8.7l23,13.4c4.5,2.7,10.1,2.7,14.7,0.1l23.6-13.5
			c3.4-1.9,3.4-6.8,0-8.8l-23.6-13.7C453.3,688,447.6,688.1,443,690.8z"/>
	</g>
	<g class="st1">
		<circle class="st2" cx="982.7" cy="282.1" r="2.6"/>
		<circle class="st2" cx="982.7" cy="329.5" r="2.6"/>
		<circle class="st2" cx="982.7" cy="377" r="2.6"/>
		<circle class="st2" cx="982.7" cy="424.4" r="2.6"/>
		<circle class="st2" cx="982.7" cy="471.9" r="2.6"/>
		<circle class="st2" cx="982.7" cy="519.3" r="2.6"/>
		<circle class="st2" cx="982.7" cy="566.8" r="2.6"/>
		<circle class="st2" cx="982.7" cy="614.2" r="2.6"/>
		<circle class="st2" cx="982.7" cy="661.7" r="2.6"/>
		<circle class="st2" cx="1024.2" cy="306.1" r="2.6"/>
		<circle class="st2" cx="1024.2" cy="353.6" r="2.6"/>
		<circle class="st2" cx="1024.2" cy="401" r="2.6"/>
		<circle class="st2" cx="1024.2" cy="448.5" r="2.6"/>
		<circle class="st2" cx="1024.2" cy="495.9" r="2.6"/>
		<circle class="st2" cx="1024.2" cy="543.4" r="2.6"/>
		<circle class="st2" cx="1024.2" cy="590.8" r="2.6"/>
		<circle class="st2" cx="1024.2" cy="638.3" r="2.6"/>
		<circle class="st2" cx="1024.2" cy="685.7" r="2.6"/>
		<circle class="st2" cx="1065.3" cy="282.4" r="2.6"/>
		<circle class="st2" cx="1065.3" cy="329.9" r="2.6"/>
		<circle class="st2" cx="1065.3" cy="377.3" r="2.6"/>
		<circle class="st2" cx="1065.3" cy="424.8" r="2.6"/>
		<circle class="st2" cx="1065.3" cy="472.2" r="2.6"/>
		<circle class="st2" cx="1065.3" cy="519.7" r="2.6"/>
		<circle class="st2" cx="1065.3" cy="567.2" r="2.6"/>
		<circle class="st2" cx="1065.3" cy="614.6" r="2.6"/>
		<circle class="st2" cx="1065.3" cy="662.1" r="2.6"/>
		<circle class="st2" cx="1105.6" cy="305.3" r="2.6"/>
		<circle class="st2" cx="1105.6" cy="352.8" r="2.6"/>
		<circle class="st2" cx="1105.6" cy="400.2" r="2.6"/>
		<circle class="st2" cx="1105.6" cy="447.7" r="2.6"/>
		<circle class="st2" cx="1105.6" cy="495.1" r="2.6"/>
		<circle class="st2" cx="1105.6" cy="542.6" r="2.6"/>
		<circle class="st2" cx="1105.6" cy="590" r="2.6"/>
		<circle class="st2" cx="1105.6" cy="637.5" r="2.6"/>
		<circle class="st2" cx="1105.6" cy="684.9" r="2.6"/>
		<circle class="st2" cx="1147.1" cy="282" r="2.6"/>
		<circle class="st2" cx="1147.1" cy="329.4" r="2.6"/>
		<circle class="st2" cx="1147.1" cy="376.9" r="2.6"/>
		<circle class="st2" cx="1147.1" cy="424.3" r="2.6"/>
		<circle class="st2" cx="1147.1" cy="471.8" r="2.6"/>
		<circle class="st2" cx="1147.1" cy="519.2" r="2.6"/>
		<circle class="st2" cx="1147.1" cy="566.7" r="2.6"/>
		<circle class="st2" cx="1147.1" cy="614.1" r="2.6"/>
		<circle class="st2" cx="1147.1" cy="661.6" r="2.6"/>
		<circle class="st2" cx="1188.6" cy="306" r="2.6"/>
		<circle class="st2" cx="1188.6" cy="353.5" r="2.6"/>
		<circle class="st2" cx="1188.6" cy="400.9" r="2.6"/>
		<circle class="st2" cx="1188.6" cy="448.4" r="2.6"/>
		<circle class="st2" cx="1188.6" cy="495.8" r="2.6"/>
		<circle class="st2" cx="1188.6" cy="543.3" r="2.6"/>
		<circle class="st2" cx="1188.6" cy="590.7" r="2.6"/>
		<circle class="st2" cx="1188.6" cy="638.2" r="2.6"/>
		<circle class="st2" cx="1188.6" cy="685.6" r="2.6"/>
		<circle class="st2" cx="1229.7" cy="282.4" r="2.6"/>
		<circle class="st2" cx="1229.7" cy="329.8" r="2.6"/>
		<circle class="st2" cx="1229.7" cy="377.3" r="2.6"/>
		<circle class="st2" cx="1229.7" cy="424.7" r="2.6"/>
		<circle class="st2" cx="1229.7" cy="472.2" r="2.6"/>
		<circle class="st2" cx="1229.7" cy="519.6" r="2.6"/>
		<circle class="st2" cx="1229.7" cy="567.1" r="2.6"/>
		<circle class="st2" cx="1229.7" cy="614.5" r="2.6"/>
		<circle class="st2" cx="1229.7" cy="662" r="2.6"/>
		<circle class="st2" cx="1270" cy="305.2" r="2.6"/>
		<circle class="st2" cx="1270" cy="352.7" r="2.6"/>
		<circle class="st2" cx="1270" cy="400.1" r="2.6"/>
		<circle class="st2" cx="1270" cy="447.6" r="2.6"/>
		<circle class="st2" cx="1270" cy="495.1" r="2.6"/>
		<circle class="st2" cx="1270" cy="542.5" r="2.6"/>
		<circle class="st2" cx="1270" cy="590" r="2.6"/>
		<circle class="st2" cx="1270" cy="637.4" r="2.6"/>
		<circle class="st2" cx="1270" cy="684.9" r="2.6"/>
		<circle class="st2" cx="1310.7" cy="282.1" r="2.6"/>
		<circle class="st2" cx="1310.7" cy="329.5" r="2.6"/>
		<circle class="st2" cx="1310.7" cy="377" r="2.6"/>
		<circle class="st2" cx="1310.7" cy="424.4" r="2.6"/>
		<circle class="st2" cx="1310.7" cy="471.9" r="2.6"/>
		<circle class="st2" cx="1310.7" cy="519.3" r="2.6"/>
		<circle class="st2" cx="1310.7" cy="566.8" r="2.6"/>
		<circle class="st2" cx="1310.7" cy="614.2" r="2.6"/>
		<circle class="st2" cx="1310.7" cy="661.7" r="2.6"/>
		<circle class="st2" cx="1352.2" cy="306.1" r="2.6"/>
		<circle class="st2" cx="1352.2" cy="353.6" r="2.6"/>
		<circle class="st2" cx="1352.2" cy="401" r="2.6"/>
		<circle class="st2" cx="1352.2" cy="448.5" r="2.6"/>
		<circle class="st2" cx="1352.2" cy="495.9" r="2.6"/>
		<circle class="st2" cx="1352.2" cy="543.4" r="2.6"/>
		<circle class="st2" cx="1352.2" cy="590.8" r="2.6"/>
		<circle class="st2" cx="1352.2" cy="638.3" r="2.6"/>
		<circle class="st2" cx="1352.2" cy="685.7" r="2.6"/>
		<circle class="st2" cx="1393.3" cy="282.4" r="2.6"/>
		<circle class="st2" cx="1393.3" cy="329.9" r="2.6"/>
		<circle class="st2" cx="1393.3" cy="377.3" r="2.6"/>
		<circle class="st2" cx="1393.3" cy="424.8" r="2.6"/>
		<circle class="st2" cx="1393.3" cy="472.2" r="2.6"/>
		<circle class="st2" cx="1393.3" cy="519.7" r="2.6"/>
		<circle class="st2" cx="1393.3" cy="567.2" r="2.6"/>
		<circle class="st2" cx="1393.3" cy="614.6" r="2.6"/>
		<circle class="st2" cx="1393.3" cy="662.1" r="2.6"/>
		<circle class="st2" cx="1433.6" cy="305.3" r="2.6"/>
		<circle class="st2" cx="1433.6" cy="352.8" r="2.6"/>
		<circle class="st2" cx="1433.6" cy="400.2" r="2.6"/>
		<circle class="st2" cx="1433.6" cy="447.7" r="2.6"/>
		<circle class="st2" cx="1433.6" cy="495.1" r="2.6"/>
		<circle class="st2" cx="1433.6" cy="542.6" r="2.6"/>
		<circle class="st2" cx="1433.6" cy="590" r="2.6"/>
		<circle class="st2" cx="1433.6" cy="637.5" r="2.6"/>
		<circle class="st2" cx="1433.6" cy="684.9" r="2.6"/>
		<path class="st3" d="M1016.4,358.9l-22.9,13.7c-3.3,2-3.3,6.8,0,8.7l23,13.4c4.5,2.7,10.1,2.7,14.7,0.1l23.6-13.5
			c3.4-1.9,3.4-6.8,0-8.8l-23.6-13.7C1026.7,356.2,1021,356.2,1016.4,358.9z"/>
		<circle class="st2" cx="1474.8" cy="281.7" r="2.6"/>
		<circle class="st2" cx="1474.8" cy="329.2" r="2.6"/>
		<circle class="st2" cx="1474.8" cy="376.6" r="2.6"/>
		<circle class="st2" cx="1474.8" cy="424.1" r="2.6"/>
		<circle class="st2" cx="1474.8" cy="471.5" r="2.6"/>
		<circle class="st2" cx="1474.8" cy="519" r="2.6"/>
		<circle class="st2" cx="1474.8" cy="566.4" r="2.6"/>
		<circle class="st2" cx="1474.8" cy="613.9" r="2.6"/>
		<circle class="st2" cx="1474.8" cy="661.3" r="2.6"/>
		<circle class="st2" cx="1516.4" cy="305.8" r="2.6"/>
		<circle class="st2" cx="1516.4" cy="353.2" r="2.6"/>
		<circle class="st2" cx="1516.4" cy="400.7" r="2.6"/>
		<circle class="st2" cx="1516.4" cy="448.1" r="2.6"/>
		<circle class="st2" cx="1516.4" cy="495.6" r="2.6"/>
		<circle class="st2" cx="1516.4" cy="543" r="2.6"/>
		<circle class="st2" cx="1516.4" cy="590.5" r="2.6"/>
		<circle class="st2" cx="1516.4" cy="637.9" r="2.6"/>
		<circle class="st2" cx="1516.4" cy="685.4" r="2.6"/>
		<circle class="st2" cx="1557.5" cy="282.1" r="2.6"/>
		<circle class="st2" cx="1557.5" cy="329.6" r="2.6"/>
		<circle class="st2" cx="1557.5" cy="377" r="2.6"/>
		<circle class="st2" cx="1557.5" cy="424.5" r="2.6"/>
		<circle class="st2" cx="1557.5" cy="471.9" r="2.6"/>
		<circle class="st2" cx="1557.5" cy="519.4" r="2.6"/>
		<circle class="st2" cx="1557.5" cy="566.8" r="2.6"/>
		<circle class="st2" cx="1557.5" cy="614.3" r="2.6"/>
		<circle class="st2" cx="1557.5" cy="661.7" r="2.6"/>
		<circle class="st2" cx="1597.8" cy="305" r="2.6"/>
		<circle class="st2" cx="1597.8" cy="352.4" r="2.6"/>
		<circle class="st2" cx="1597.8" cy="399.9" r="2.6"/>
		<circle class="st2" cx="1597.8" cy="447.3" r="2.6"/>
		<circle class="st2" cx="1597.8" cy="494.8" r="2.6"/>
		<circle class="st2" cx="1597.8" cy="542.2" r="2.6"/>
		<circle class="st2" cx="1597.8" cy="589.7" r="2.6"/>
		<circle class="st2" cx="1597.8" cy="637.2" r="2.6"/>
		<circle class="st2" cx="1597.8" cy="684.6" r="2.6"/>
		<circle class="st2" cx="1639.2" cy="281.6" r="2.6"/>
		<circle class="st2" cx="1639.2" cy="329.1" r="2.6"/>
		<circle class="st2" cx="1639.2" cy="376.5" r="2.6"/>
		<circle class="st2" cx="1639.2" cy="424" r="2.6"/>
		<circle class="st2" cx="1639.2" cy="471.4" r="2.6"/>
		<circle class="st2" cx="1639.2" cy="518.9" r="2.6"/>
		<circle class="st2" cx="1639.2" cy="566.3" r="2.6"/>
		<circle class="st2" cx="1639.2" cy="613.8" r="2.6"/>
		<circle class="st2" cx="1639.2" cy="661.2" r="2.6"/>
		<circle class="st2" cx="1680.8" cy="305.7" r="2.6"/>
		<circle class="st2" cx="1680.8" cy="400.6" r="2.6"/>
		<circle class="st2" cx="1680.8" cy="448" r="2.6"/>
		<circle class="st2" cx="1680.8" cy="495.5" r="2.6"/>
		<circle class="st2" cx="1680.8" cy="543" r="2.6"/>
		<circle class="st2" cx="1680.8" cy="590.4" r="2.6"/>
		<circle class="st2" cx="1680.8" cy="637.9" r="2.6"/>
		<circle class="st2" cx="1680.8" cy="685.3" r="2.6"/>
		<circle class="st2" cx="1721.9" cy="282" r="2.6"/>
		<circle class="st2" cx="1721.9" cy="329.5" r="2.6"/>
		<circle class="st2" cx="1721.9" cy="376.9" r="2.6"/>
		<circle class="st2" cx="1721.9" cy="424.4" r="2.6"/>
		<circle class="st2" cx="1721.9" cy="471.8" r="2.6"/>
		<circle class="st2" cx="1721.9" cy="519.3" r="2.6"/>
		<circle class="st2" cx="1721.9" cy="566.7" r="2.6"/>
		<circle class="st2" cx="1721.9" cy="614.2" r="2.6"/>
		<circle class="st2" cx="1721.9" cy="661.6" r="2.6"/>
		<circle class="st2" cx="1762.2" cy="304.9" r="2.6"/>
		<circle class="st2" cx="1762.2" cy="352.4" r="2.6"/>
		<circle class="st2" cx="1762.2" cy="399.8" r="2.6"/>
		<circle class="st2" cx="1762.2" cy="447.3" r="2.6"/>
		<circle class="st2" cx="1762.2" cy="494.7" r="2.6"/>
		<circle class="st2" cx="1762.2" cy="542.2" r="2.6"/>
		<circle class="st2" cx="1762.2" cy="589.6" r="2.6"/>
		<circle class="st2" cx="1762.2" cy="637.1" r="2.6"/>
		<circle class="st2" cx="1762.2" cy="684.5" r="2.6"/>
		<circle class="st2" cx="1802.8" cy="281.7" r="2.6"/>
		<circle class="st2" cx="1802.8" cy="329.2" r="2.6"/>
		<circle class="st2" cx="1802.8" cy="376.6" r="2.6"/>
		<circle class="st2" cx="1802.8" cy="424.1" r="2.6"/>
		<circle class="st2" cx="1802.8" cy="471.5" r="2.6"/>
		<circle class="st2" cx="1802.8" cy="519" r="2.6"/>
		<circle class="st2" cx="1802.8" cy="566.4" r="2.6"/>
		<circle class="st2" cx="1802.8" cy="613.9" r="2.6"/>
		<circle class="st2" cx="1802.8" cy="661.3" r="2.6"/>
		<circle class="st2" cx="1844.4" cy="305.8" r="2.6"/>
		<circle class="st2" cx="1844.4" cy="353.2" r="2.6"/>
		<circle class="st2" cx="1844.4" cy="400.7" r="2.6"/>
		<circle class="st2" cx="1844.4" cy="448.1" r="2.6"/>
		<circle class="st2" cx="1844.4" cy="495.6" r="2.6"/>
		<circle class="st2" cx="1844.4" cy="543" r="2.6"/>
		<circle class="st2" cx="1844.4" cy="590.5" r="2.6"/>
		<circle class="st2" cx="1844.4" cy="637.9" r="2.6"/>
		<circle class="st2" cx="1844.4" cy="685.4" r="2.6"/>
		<circle class="st2" cx="1885.5" cy="282.1" r="2.6"/>
		<circle class="st2" cx="1885.5" cy="329.6" r="2.6"/>
		<circle class="st2" cx="1885.5" cy="377" r="2.6"/>
		<circle class="st2" cx="1885.5" cy="424.5" r="2.6"/>
		<circle class="st2" cx="1885.5" cy="471.9" r="2.6"/>
		<circle class="st2" cx="1885.5" cy="519.4" r="2.6"/>
		<circle class="st2" cx="1885.5" cy="566.8" r="2.6"/>
		<circle class="st2" cx="1885.5" cy="614.3" r="2.6"/>
		<circle class="st2" cx="1885.5" cy="661.7" r="2.6"/>
		<circle class="st2" cx="1925.8" cy="305" r="2.6"/>
		<circle class="st2" cx="1925.8" cy="352.4" r="2.6"/>
		<circle class="st2" cx="1925.8" cy="399.9" r="2.6"/>
		<circle class="st2" cx="1925.8" cy="447.3" r="2.6"/>
		<circle class="st2" cx="1925.8" cy="494.8" r="2.6"/>
		<circle class="st2" cx="1925.8" cy="542.2" r="2.6"/>
		<circle class="st2" cx="1925.8" cy="589.7" r="2.6"/>
		<circle class="st2" cx="1925.8" cy="637.2" r="2.6"/>
		<circle class="st2" cx="1925.8" cy="684.6" r="2.6"/>
		<path class="st3" d="M1508.5,358.6l-22.9,13.7c-3.3,2-3.3,6.8,0,8.7l23,13.4c4.5,2.7,10.1,2.7,14.7,0.1L1547,381
			c3.4-1.9,3.4-6.8,0-8.8l-23.6-13.7C1518.8,355.8,1513.1,355.9,1508.5,358.6z"/>
		<circle class="st2" cx="982.2" cy="708.6" r="2.6"/>
		<circle class="st2" cx="982.2" cy="756.1" r="2.6"/>
		<circle class="st2" cx="982.2" cy="803.5" r="2.6"/>
		<circle class="st2" cx="982.2" cy="851" r="2.6"/>
		<circle class="st2" cx="982.2" cy="898.4" r="2.6"/>
		<circle class="st2" cx="982.2" cy="945.9" r="2.6"/>
		<circle class="st2" cx="982.2" cy="993.3" r="2.6"/>
		<circle class="st2" cx="982.2" cy="1040.8" r="2.6"/>
		<circle class="st2" cx="982.2" cy="1088.2" r="2.6"/>
		<circle class="st2" cx="1023.7" cy="732.7" r="2.6"/>
		<circle class="st2" cx="1023.7" cy="780.2" r="2.6"/>
		<circle class="st2" cx="1023.7" cy="827.6" r="2.6"/>
		<circle class="st2" cx="1023.7" cy="875.1" r="2.6"/>
		<circle class="st2" cx="1023.7" cy="922.5" r="2.6"/>
		<circle class="st2" cx="1023.7" cy="970" r="2.6"/>
		<circle class="st2" cx="1023.7" cy="1017.4" r="2.6"/>
		<circle class="st2" cx="1023.7" cy="1064.9" r="2.6"/>
		<circle class="st2" cx="1023.7" cy="1112.3" r="2.6"/>
		<circle class="st2" cx="1064.8" cy="709" r="2.6"/>
		<circle class="st2" cx="1064.8" cy="756.5" r="2.6"/>
		<circle class="st2" cx="1064.8" cy="803.9" r="2.6"/>
		<circle class="st2" cx="1064.8" cy="851.4" r="2.6"/>
		<circle class="st2" cx="1064.8" cy="898.8" r="2.6"/>
		<circle class="st2" cx="1064.8" cy="946.3" r="2.6"/>
		<circle class="st2" cx="1064.8" cy="993.7" r="2.6"/>
		<circle class="st2" cx="1064.8" cy="1041.2" r="2.6"/>
		<circle class="st2" cx="1064.8" cy="1088.6" r="2.6"/>
		<circle class="st2" cx="1105.1" cy="731.9" r="2.6"/>
		<circle class="st2" cx="1105.1" cy="779.4" r="2.6"/>
		<circle class="st2" cx="1105.1" cy="826.8" r="2.6"/>
		<circle class="st2" cx="1105.1" cy="874.3" r="2.6"/>
		<circle class="st2" cx="1105.1" cy="921.7" r="2.6"/>
		<circle class="st2" cx="1105.1" cy="969.2" r="2.6"/>
		<circle class="st2" cx="1105.1" cy="1016.6" r="2.6"/>
		<circle class="st2" cx="1105.1" cy="1064.1" r="2.6"/>
		<circle class="st2" cx="1105.1" cy="1111.5" r="2.6"/>
		<circle class="st2" cx="1146.6" cy="708.5" r="2.6"/>
		<circle class="st2" cx="1146.6" cy="756" r="2.6"/>
		<circle class="st2" cx="1146.6" cy="803.5" r="2.6"/>
		<circle class="st2" cx="1146.6" cy="850.9" r="2.6"/>
		<circle class="st2" cx="1146.6" cy="898.4" r="2.6"/>
		<circle class="st2" cx="1146.6" cy="945.8" r="2.6"/>
		<circle class="st2" cx="1146.6" cy="993.3" r="2.6"/>
		<circle class="st2" cx="1146.6" cy="1040.7" r="2.6"/>
		<circle class="st2" cx="1146.6" cy="1088.2" r="2.6"/>
		<circle class="st2" cx="1188.1" cy="732.6" r="2.6"/>
		<circle class="st2" cx="1188.1" cy="780.1" r="2.6"/>
		<circle class="st2" cx="1188.1" cy="827.5" r="2.6"/>
		<circle class="st2" cx="1188.1" cy="875" r="2.6"/>
		<circle class="st2" cx="1188.1" cy="922.4" r="2.6"/>
		<circle class="st2" cx="1188.1" cy="969.9" r="2.6"/>
		<circle class="st2" cx="1188.1" cy="1017.3" r="2.6"/>
		<circle class="st2" cx="1188.1" cy="1064.8" r="2.6"/>
		<circle class="st2" cx="1188.1" cy="1112.2" r="2.6"/>
		<circle class="st2" cx="1229.2" cy="708.9" r="2.6"/>
		<circle class="st2" cx="1229.2" cy="756.4" r="2.6"/>
		<circle class="st2" cx="1229.2" cy="803.8" r="2.6"/>
		<circle class="st2" cx="1229.2" cy="851.3" r="2.6"/>
		<circle class="st2" cx="1229.2" cy="898.7" r="2.6"/>
		<circle class="st2" cx="1229.2" cy="946.2" r="2.6"/>
		<circle class="st2" cx="1229.2" cy="993.6" r="2.6"/>
		<circle class="st2" cx="1229.2" cy="1041.1" r="2.6"/>
		<circle class="st2" cx="1229.2" cy="1088.5" r="2.6"/>
		<circle class="st2" cx="1269.5" cy="731.8" r="2.6"/>
		<circle class="st2" cx="1269.5" cy="779.3" r="2.6"/>
		<circle class="st2" cx="1269.5" cy="826.7" r="2.6"/>
		<circle class="st2" cx="1269.5" cy="874.2" r="2.6"/>
		<circle class="st2" cx="1269.5" cy="921.6" r="2.6"/>
		<circle class="st2" cx="1269.5" cy="969.1" r="2.6"/>
		<circle class="st2" cx="1269.5" cy="1016.5" r="2.6"/>
		<circle class="st2" cx="1269.5" cy="1064" r="2.6"/>
		<circle class="st2" cx="1269.5" cy="1111.4" r="2.6"/>
		<circle class="st2" cx="1310.2" cy="708.6" r="2.6"/>
		<circle class="st2" cx="1310.2" cy="756.1" r="2.6"/>
		<circle class="st2" cx="1310.2" cy="803.5" r="2.6"/>
		<circle class="st2" cx="1310.2" cy="851" r="2.6"/>
		<circle class="st2" cx="1310.2" cy="898.4" r="2.6"/>
		<circle class="st2" cx="1310.2" cy="945.9" r="2.6"/>
		<circle class="st2" cx="1310.2" cy="993.3" r="2.6"/>
		<circle class="st2" cx="1310.2" cy="1040.8" r="2.6"/>
		<circle class="st2" cx="1310.2" cy="1088.2" r="2.6"/>
		<circle class="st2" cx="1351.7" cy="732.7" r="2.6"/>
		<circle class="st2" cx="1351.7" cy="780.2" r="2.6"/>
		<circle class="st2" cx="1351.7" cy="827.6" r="2.6"/>
		<circle class="st2" cx="1351.7" cy="875.1" r="2.6"/>
		<circle class="st2" cx="1351.7" cy="922.5" r="2.6"/>
		<circle class="st2" cx="1351.7" cy="970" r="2.6"/>
		<circle class="st2" cx="1351.7" cy="1017.4" r="2.6"/>
		<circle class="st2" cx="1351.7" cy="1064.9" r="2.6"/>
		<circle class="st2" cx="1351.7" cy="1112.3" r="2.6"/>
		<circle class="st2" cx="1392.8" cy="709" r="2.6"/>
		<circle class="st2" cx="1392.8" cy="756.5" r="2.6"/>
		<circle class="st2" cx="1392.8" cy="803.9" r="2.6"/>
		<circle class="st2" cx="1392.8" cy="851.4" r="2.6"/>
		<circle class="st2" cx="1392.8" cy="898.8" r="2.6"/>
		<circle class="st2" cx="1392.8" cy="946.3" r="2.6"/>
		<circle class="st2" cx="1392.8" cy="993.7" r="2.6"/>
		<circle class="st2" cx="1392.8" cy="1041.2" r="2.6"/>
		<circle class="st2" cx="1392.8" cy="1088.6" r="2.6"/>
		<circle class="st2" cx="1433.1" cy="731.9" r="2.6"/>
		<circle class="st2" cx="1433.1" cy="779.4" r="2.6"/>
		<circle class="st2" cx="1433.1" cy="826.8" r="2.6"/>
		<circle class="st2" cx="1433.1" cy="874.3" r="2.6"/>
		<circle class="st2" cx="1433.1" cy="921.7" r="2.6"/>
		<circle class="st2" cx="1433.1" cy="969.2" r="2.6"/>
		<circle class="st2" cx="1433.1" cy="1016.6" r="2.6"/>
		<circle class="st2" cx="1433.1" cy="1064.1" r="2.6"/>
		<circle class="st2" cx="1433.1" cy="1111.5" r="2.6"/>
		<path class="st3" d="M1015.9,785.5L993,799.2c-3.3,2-3.3,6.8,0,8.7l23,13.4c4.5,2.7,10.1,2.7,14.7,0.1l23.6-13.5
			c3.4-1.9,3.4-6.8,0-8.8l-23.6-13.7C1026.2,782.7,1020.5,782.8,1015.9,785.5z"/>
		<circle class="st2" cx="1474.3" cy="708.3" r="2.6"/>
		<circle class="st2" cx="1474.3" cy="755.7" r="2.6"/>
		<circle class="st2" cx="1474.3" cy="803.2" r="2.6"/>
		<circle class="st2" cx="1474.3" cy="850.6" r="2.6"/>
		<circle class="st2" cx="1474.3" cy="898.1" r="2.6"/>
		<circle class="st2" cx="1474.3" cy="945.6" r="2.6"/>
		<circle class="st2" cx="1474.3" cy="993" r="2.6"/>
		<circle class="st2" cx="1474.3" cy="1040.5" r="2.6"/>
		<circle class="st2" cx="1474.3" cy="1087.9" r="2.6"/>
		<circle class="st2" cx="1515.8" cy="732.4" r="2.6"/>
		<circle class="st2" cx="1515.8" cy="779.8" r="2.6"/>
		<circle class="st2" cx="1515.8" cy="827.3" r="2.6"/>
		<circle class="st2" cx="1515.8" cy="874.7" r="2.6"/>
		<circle class="st2" cx="1515.8" cy="922.2" r="2.6"/>
		<circle class="st2" cx="1515.8" cy="969.6" r="2.6"/>
		<circle class="st2" cx="1515.8" cy="1017.1" r="2.6"/>
		<circle class="st2" cx="1515.8" cy="1064.5" r="2.6"/>
		<circle class="st2" cx="1515.8" cy="1112" r="2.6"/>
		<circle class="st2" cx="1556.9" cy="708.7" r="2.6"/>
		<circle class="st2" cx="1556.9" cy="756.1" r="2.6"/>
		<circle class="st2" cx="1556.9" cy="803.6" r="2.6"/>
		<circle class="st2" cx="1556.9" cy="851" r="2.6"/>
		<circle class="st2" cx="1556.9" cy="898.5" r="2.6"/>
		<circle class="st2" cx="1556.9" cy="945.9" r="2.6"/>
		<circle class="st2" cx="1556.9" cy="993.4" r="2.6"/>
		<circle class="st2" cx="1556.9" cy="1040.8" r="2.6"/>
		<circle class="st2" cx="1556.9" cy="1088.3" r="2.6"/>
		<circle class="st2" cx="1597.2" cy="731.6" r="2.6"/>
		<circle class="st2" cx="1597.2" cy="779" r="2.6"/>
		<circle class="st2" cx="1597.2" cy="826.5" r="2.6"/>
		<circle class="st2" cx="1597.2" cy="873.9" r="2.6"/>
		<circle class="st2" cx="1597.2" cy="921.4" r="2.6"/>
		<circle class="st2" cx="1597.2" cy="968.8" r="2.6"/>
		<circle class="st2" cx="1597.2" cy="1016.3" r="2.6"/>
		<circle class="st2" cx="1597.2" cy="1063.7" r="2.6"/>
		<circle class="st2" cx="1597.2" cy="1111.2" r="2.6"/>
		<circle class="st2" cx="1638.7" cy="708.2" r="2.6"/>
		<circle class="st2" cx="1638.7" cy="755.7" r="2.6"/>
		<circle class="st2" cx="1638.7" cy="803.1" r="2.6"/>
		<circle class="st2" cx="1638.7" cy="850.6" r="2.6"/>
		<circle class="st2" cx="1638.7" cy="898" r="2.6"/>
		<circle class="st2" cx="1638.7" cy="945.5" r="2.6"/>
		<circle class="st2" cx="1638.7" cy="992.9" r="2.6"/>
		<circle class="st2" cx="1638.7" cy="1040.4" r="2.6"/>
		<circle class="st2" cx="1638.7" cy="1087.8" r="2.6"/>
		<circle class="st2" cx="1680.2" cy="732.3" r="2.6"/>
		<circle class="st2" cx="1680.2" cy="779.7" r="2.6"/>
		<circle class="st2" cx="1680.2" cy="827.2" r="2.6"/>
		<circle class="st2" cx="1680.2" cy="874.6" r="2.6"/>
		<circle class="st2" cx="1680.2" cy="922.1" r="2.6"/>
		<circle class="st2" cx="1680.2" cy="969.5" r="2.6"/>
		<circle class="st2" cx="1680.2" cy="1017" r="2.6"/>
		<circle class="st2" cx="1680.2" cy="1064.4" r="2.6"/>
		<circle class="st2" cx="1680.2" cy="1111.9" r="2.6"/>
		<circle class="st2" cx="1721.3" cy="708.6" r="2.6"/>
		<circle class="st2" cx="1721.3" cy="756.1" r="2.6"/>
		<circle class="st2" cx="1721.3" cy="803.5" r="2.6"/>
		<circle class="st2" cx="1721.3" cy="851" r="2.6"/>
		<circle class="st2" cx="1721.3" cy="898.4" r="2.6"/>
		<circle class="st2" cx="1721.3" cy="945.9" r="2.6"/>
		<circle class="st2" cx="1721.3" cy="993.3" r="2.6"/>
		<circle class="st2" cx="1721.3" cy="1040.8" r="2.6"/>
		<circle class="st2" cx="1721.3" cy="1088.2" r="2.6"/>
		<circle class="st2" cx="1761.6" cy="731.5" r="2.6"/>
		<circle class="st2" cx="1761.6" cy="778.9" r="2.6"/>
		<circle class="st2" cx="1761.6" cy="826.4" r="2.6"/>
		<circle class="st2" cx="1761.6" cy="873.8" r="2.6"/>
		<circle class="st2" cx="1761.6" cy="921.3" r="2.6"/>
		<circle class="st2" cx="1761.6" cy="968.7" r="2.6"/>
		<circle class="st2" cx="1761.6" cy="1016.2" r="2.6"/>
		<circle class="st2" cx="1761.6" cy="1063.6" r="2.6"/>
		<circle class="st2" cx="1761.6" cy="1111.1" r="2.6"/>
		<circle class="st2" cx="1802.3" cy="708.3" r="2.6"/>
		<circle class="st2" cx="1802.3" cy="755.7" r="2.6"/>
		<circle class="st2" cx="1802.3" cy="803.2" r="2.6"/>
		<circle class="st2" cx="1802.3" cy="850.6" r="2.6"/>
		<circle class="st2" cx="1802.3" cy="898.1" r="2.6"/>
		<circle class="st2" cx="1802.3" cy="945.6" r="2.6"/>
		<circle class="st2" cx="1802.3" cy="993" r="2.6"/>
		<circle class="st2" cx="1802.3" cy="1040.5" r="2.6"/>
		<circle class="st2" cx="1802.3" cy="1087.9" r="2.6"/>
		<circle class="st2" cx="1843.8" cy="732.4" r="2.6"/>
		<circle class="st2" cx="1843.8" cy="779.8" r="2.6"/>
		<circle class="st2" cx="1843.8" cy="827.3" r="2.6"/>
		<circle class="st2" cx="1843.8" cy="874.7" r="2.6"/>
		<circle class="st2" cx="1843.8" cy="922.2" r="2.6"/>
		<circle class="st2" cx="1843.8" cy="969.6" r="2.6"/>
		<circle class="st2" cx="1843.8" cy="1017.1" r="2.6"/>
		<circle class="st2" cx="1843.8" cy="1064.5" r="2.6"/>
		<circle class="st2" cx="1843.8" cy="1112" r="2.6"/>
		<circle class="st2" cx="1884.9" cy="708.7" r="2.6"/>
		<circle class="st2" cx="1884.9" cy="756.1" r="2.6"/>
		<circle class="st2" cx="1884.9" cy="803.6" r="2.6"/>
		<circle class="st2" cx="1884.9" cy="851" r="2.6"/>
		<circle class="st2" cx="1884.9" cy="898.5" r="2.6"/>
		<circle class="st2" cx="1884.9" cy="945.9" r="2.6"/>
		<circle class="st2" cx="1884.9" cy="993.4" r="2.6"/>
		<circle class="st2" cx="1884.9" cy="1040.8" r="2.6"/>
		<circle class="st2" cx="1884.9" cy="1088.3" r="2.6"/>
		<circle class="st2" cx="1925.2" cy="731.6" r="2.6"/>
		<circle class="st2" cx="1925.2" cy="779" r="2.6"/>
		<circle class="st2" cx="1925.2" cy="826.5" r="2.6"/>
		<circle class="st2" cx="1925.2" cy="873.9" r="2.6"/>
		<circle class="st2" cx="1925.2" cy="921.4" r="2.6"/>
		<circle class="st2" cx="1925.2" cy="968.8" r="2.6"/>
		<circle class="st2" cx="1925.2" cy="1016.3" r="2.6"/>
		<circle class="st2" cx="1925.2" cy="1063.7" r="2.6"/>
		<circle class="st2" cx="1925.2" cy="1111.2" r="2.6"/>
		<path class="st3" d="M1508,785.2l-22.9,13.7c-3.3,2-3.3,6.8,0,8.7l23,13.4c4.5,2.7,10.1,2.7,14.7,0.1l23.6-13.5
			c3.4-1.9,3.4-6.8,0-8.8l-23.6-13.7C1518.3,782.4,1512.6,782.4,1508,785.2z"/>
		<path class="st3" d="M1550.5,334.4l-22.9,13.7c-3.3,2-3.3,6.8,0,8.7l23,13.4c4.5,2.7,10.1,2.7,14.7,0.1l23.6-13.5
			c3.4-1.9,3.4-6.8,0-8.8l-23.6-13.7C1560.8,331.6,1555.1,331.6,1550.5,334.4z"/>
		<path class="st3" d="M1590,358.4l-22.9,13.7c-3.3,2-3.3,6.8,0,8.7l23,13.4c4.5,2.7,10.1,2.7,14.7,0.1l23.6-13.5
			c3.4-1.9,3.4-6.8,0-8.8l-23.6-13.7C1600.3,355.6,1594.6,355.6,1590,358.4z"/>
		<path class="st3" d="M1549.3,761.9l-22.9,13.7c-3.3,2-3.3,6.8,0,8.7l23,13.4c4.5,2.7,10.1,2.7,14.7,0.1l23.6-13.5
			c3.4-1.9,3.4-6.8,0-8.8l-23.6-13.7C1559.6,759.1,1553.9,759.1,1549.3,761.9z"/>
		<path class="st3" d="M1425.6,690.8l-22.9,13.7c-3.3,2-3.3,6.8,0,8.7l23,13.4c4.5,2.7,10.1,2.7,14.7,0.1l23.6-13.5
			c3.4-1.9,3.4-6.8,0-8.8l-23.6-13.7C1435.9,688,1430.2,688.1,1425.6,690.8z"/>
		<circle class="st2" cx="1680.9" cy="352.9" r="2.6"/>
	</g>
	<g class="st1">
		<circle class="st2" cx="-0.9" cy="-48" r="2.6"/>
		<circle class="st2" cx="-0.9" cy="-0.5" r="2.6"/>
		<circle class="st2" cx="-0.9" cy="46.9" r="2.6"/>
		<circle class="st2" cx="-0.9" cy="94.4" r="2.6"/>
		<circle class="st2" cx="-0.9" cy="141.8" r="2.6"/>
		<circle class="st2" cx="-0.9" cy="189.3" r="2.6"/>
		<circle class="st2" cx="-0.9" cy="236.7" r="2.6"/>
		<circle class="st2" cx="40.6" cy="-71.4" r="2.6"/>
		<circle class="st2" cx="40.6" cy="-23.9" r="2.6"/>
		<circle class="st2" cx="40.6" cy="23.5" r="2.6"/>
		<circle class="st2" cx="40.6" cy="71" r="2.6"/>
		<circle class="st2" cx="40.6" cy="118.4" r="2.6"/>
		<circle class="st2" cx="40.6" cy="165.9" r="2.6"/>
		<circle class="st2" cx="40.6" cy="213.3" r="2.6"/>
		<circle class="st2" cx="40.6" cy="260.8" r="2.6"/>
		<circle class="st2" cx="81.7" cy="-47.6" r="2.6"/>
		<circle class="st2" cx="81.7" cy="-0.1" r="2.6"/>
		<circle class="st2" cx="81.7" cy="47.3" r="2.6"/>
		<circle class="st2" cx="81.7" cy="94.8" r="2.6"/>
		<circle class="st2" cx="81.7" cy="142.2" r="2.6"/>
		<circle class="st2" cx="81.7" cy="189.7" r="2.6"/>
		<circle class="st2" cx="81.7" cy="237.1" r="2.6"/>
		<circle class="st2" cx="122" cy="-72.1" r="2.6"/>
		<circle class="st2" cx="122" cy="-24.7" r="2.6"/>
		<circle class="st2" cx="122" cy="22.8" r="2.6"/>
		<circle class="st2" cx="122" cy="70.2" r="2.6"/>
		<circle class="st2" cx="122" cy="117.7" r="2.6"/>
		<circle class="st2" cx="122" cy="165.1" r="2.6"/>
		<circle class="st2" cx="122" cy="212.6" r="2.6"/>
		<circle class="st2" cx="122" cy="260" r="2.6"/>
		<circle class="st2" cx="163.5" cy="-48.1" r="2.6"/>
		<circle class="st2" cx="163.5" cy="-0.6" r="2.6"/>
		<circle class="st2" cx="163.5" cy="46.8" r="2.6"/>
		<circle class="st2" cx="163.5" cy="94.3" r="2.6"/>
		<circle class="st2" cx="163.5" cy="141.7" r="2.6"/>
		<circle class="st2" cx="163.5" cy="189.2" r="2.6"/>
		<circle class="st2" cx="163.5" cy="236.6" r="2.6"/>
		<circle class="st2" cx="205" cy="-71.4" r="2.6"/>
		<circle class="st2" cx="205" cy="-24" r="2.6"/>
		<circle class="st2" cx="205" cy="23.5" r="2.6"/>
		<circle class="st2" cx="205" cy="70.9" r="2.6"/>
		<circle class="st2" cx="205" cy="118.4" r="2.6"/>
		<circle class="st2" cx="205" cy="165.8" r="2.6"/>
		<circle class="st2" cx="205" cy="213.3" r="2.6"/>
		<circle class="st2" cx="205" cy="260.7" r="2.6"/>
		<circle class="st2" cx="246.1" cy="-47.7" r="2.6"/>
		<circle class="st2" cx="246.1" cy="-0.2" r="2.6"/>
		<circle class="st2" cx="246.1" cy="47.2" r="2.6"/>
		<circle class="st2" cx="246.1" cy="94.7" r="2.6"/>
		<circle class="st2" cx="246.1" cy="142.1" r="2.6"/>
		<circle class="st2" cx="246.1" cy="189.6" r="2.6"/>
		<circle class="st2" cx="246.1" cy="237" r="2.6"/>
		<circle class="st2" cx="286.4" cy="-72.2" r="2.6"/>
		<circle class="st2" cx="286.4" cy="-24.8" r="2.6"/>
		<circle class="st2" cx="286.4" cy="22.7" r="2.6"/>
		<circle class="st2" cx="286.4" cy="70.1" r="2.6"/>
		<circle class="st2" cx="286.4" cy="117.6" r="2.6"/>
		<circle class="st2" cx="286.4" cy="165" r="2.6"/>
		<circle class="st2" cx="286.4" cy="212.5" r="2.6"/>
		<circle class="st2" cx="286.4" cy="259.9" r="2.6"/>
		<circle class="st2" cx="327.1" cy="-48" r="2.6"/>
		<circle class="st2" cx="327.1" cy="-0.5" r="2.6"/>
		<circle class="st2" cx="327.1" cy="46.9" r="2.6"/>
		<circle class="st2" cx="327.1" cy="94.4" r="2.6"/>
		<circle class="st2" cx="327.1" cy="141.8" r="2.6"/>
		<circle class="st2" cx="327.1" cy="189.3" r="2.6"/>
		<circle class="st2" cx="327.1" cy="236.7" r="2.6"/>
		<circle class="st2" cx="368.6" cy="-71.4" r="2.6"/>
		<circle class="st2" cx="368.6" cy="-23.9" r="2.6"/>
		<circle class="st2" cx="368.6" cy="23.5" r="2.6"/>
		<circle class="st2" cx="368.6" cy="71" r="2.6"/>
		<circle class="st2" cx="368.6" cy="118.4" r="2.6"/>
		<circle class="st2" cx="368.6" cy="165.9" r="2.6"/>
		<circle class="st2" cx="368.6" cy="213.3" r="2.6"/>
		<circle class="st2" cx="368.6" cy="260.8" r="2.6"/>
		<circle class="st2" cx="409.7" cy="-47.6" r="2.6"/>
		<circle class="st2" cx="409.7" cy="-0.1" r="2.6"/>
		<circle class="st2" cx="409.7" cy="47.3" r="2.6"/>
		<circle class="st2" cx="409.7" cy="94.8" r="2.6"/>
		<circle class="st2" cx="409.7" cy="142.2" r="2.6"/>
		<circle class="st2" cx="409.7" cy="189.7" r="2.6"/>
		<circle class="st2" cx="409.7" cy="237.1" r="2.6"/>
		<circle class="st2" cx="450" cy="-72.1" r="2.6"/>
		<circle class="st2" cx="450" cy="-24.7" r="2.6"/>
		<circle class="st2" cx="450" cy="22.8" r="2.6"/>
		<circle class="st2" cx="450" cy="70.2" r="2.6"/>
		<circle class="st2" cx="450" cy="117.7" r="2.6"/>
		<circle class="st2" cx="450" cy="165.1" r="2.6"/>
		<circle class="st2" cx="450" cy="212.6" r="2.6"/>
		<circle class="st2" cx="450" cy="260" r="2.6"/>
		<path class="st3" d="M32.8-66L9.9-52.3c-3.3,2-3.3,6.8,0,8.7l23,13.4c4.5,2.7,10.1,2.7,14.7,0.1l23.6-13.5c3.4-1.9,3.4-6.8,0-8.8
			L47.7-66.1C43.1-68.8,37.4-68.7,32.8-66z"/>
		<circle class="st2" cx="491.2" cy="-48.3" r="2.6"/>
		<circle class="st2" cx="491.2" cy="-0.9" r="2.6"/>
		<circle class="st2" cx="491.2" cy="46.6" r="2.6"/>
		<circle class="st2" cx="491.2" cy="94" r="2.6"/>
		<circle class="st2" cx="491.2" cy="141.5" r="2.6"/>
		<circle class="st2" cx="491.2" cy="188.9" r="2.6"/>
		<circle class="st2" cx="491.2" cy="236.4" r="2.6"/>
		<circle class="st2" cx="532.8" cy="-71.7" r="2.6"/>
		<circle class="st2" cx="532.8" cy="-24.2" r="2.6"/>
		<circle class="st2" cx="532.8" cy="23.2" r="2.6"/>
		<circle class="st2" cx="532.8" cy="70.7" r="2.6"/>
		<circle class="st2" cx="532.8" cy="118.1" r="2.6"/>
		<circle class="st2" cx="532.8" cy="165.6" r="2.6"/>
		<circle class="st2" cx="532.8" cy="213" r="2.6"/>
		<circle class="st2" cx="532.8" cy="260.5" r="2.6"/>
		<circle class="st2" cx="573.9" cy="-47.9" r="2.6"/>
		<circle class="st2" cx="573.9" cy="-0.5" r="2.6"/>
		<circle class="st2" cx="573.9" cy="47" r="2.6"/>
		<circle class="st2" cx="573.9" cy="94.4" r="2.6"/>
		<circle class="st2" cx="573.9" cy="141.9" r="2.6"/>
		<circle class="st2" cx="573.9" cy="189.3" r="2.6"/>
		<circle class="st2" cx="573.9" cy="236.8" r="2.6"/>
		<circle class="st2" cx="614.2" cy="-72.5" r="2.6"/>
		<circle class="st2" cx="614.2" cy="-25" r="2.6"/>
		<circle class="st2" cx="614.2" cy="22.4" r="2.6"/>
		<circle class="st2" cx="614.2" cy="69.9" r="2.6"/>
		<circle class="st2" cx="614.2" cy="117.3" r="2.6"/>
		<circle class="st2" cx="614.2" cy="164.8" r="2.6"/>
		<circle class="st2" cx="614.2" cy="212.2" r="2.6"/>
		<circle class="st2" cx="614.2" cy="259.7" r="2.6"/>
		<circle class="st2" cx="655.6" cy="-48.4" r="2.6"/>
		<circle class="st2" cx="655.6" cy="-1" r="2.6"/>
		<circle class="st2" cx="655.6" cy="46.5" r="2.6"/>
		<circle class="st2" cx="655.6" cy="93.9" r="2.6"/>
		<circle class="st2" cx="655.6" cy="141.4" r="2.6"/>
		<circle class="st2" cx="655.6" cy="188.8" r="2.6"/>
		<circle class="st2" cx="655.6" cy="236.3" r="2.6"/>
		<circle class="st2" cx="697.1" cy="-71.8" r="2.6"/>
		<circle class="st2" cx="697.1" cy="-24.3" r="2.6"/>
		<circle class="st2" cx="697.1" cy="23.1" r="2.6"/>
		<circle class="st2" cx="697.1" cy="70.6" r="2.6"/>
		<circle class="st2" cx="697.1" cy="118" r="2.6"/>
		<circle class="st2" cx="697.1" cy="165.5" r="2.6"/>
		<circle class="st2" cx="697.1" cy="212.9" r="2.6"/>
		<circle class="st2" cx="697.1" cy="260.4" r="2.6"/>
		<circle class="st2" cx="738.2" cy="-48" r="2.6"/>
		<circle class="st2" cx="738.2" cy="-0.6" r="2.6"/>
		<circle class="st2" cx="738.2" cy="46.9" r="2.6"/>
		<circle class="st2" cx="738.2" cy="94.3" r="2.6"/>
		<circle class="st2" cx="738.2" cy="141.8" r="2.6"/>
		<circle class="st2" cx="738.2" cy="189.2" r="2.6"/>
		<circle class="st2" cx="738.2" cy="236.7" r="2.6"/>
		<circle class="st2" cx="778.6" cy="-72.6" r="2.6"/>
		<circle class="st2" cx="778.6" cy="-25.1" r="2.6"/>
		<circle class="st2" cx="778.6" cy="22.3" r="2.6"/>
		<circle class="st2" cx="778.6" cy="69.8" r="2.6"/>
		<circle class="st2" cx="778.6" cy="117.2" r="2.6"/>
		<circle class="st2" cx="778.6" cy="164.7" r="2.6"/>
		<circle class="st2" cx="778.6" cy="212.1" r="2.6"/>
		<circle class="st2" cx="778.6" cy="259.6" r="2.6"/>
		<circle class="st2" cx="819.2" cy="-48.3" r="2.6"/>
		<circle class="st2" cx="819.2" cy="-0.9" r="2.6"/>
		<circle class="st2" cx="819.2" cy="46.6" r="2.6"/>
		<circle class="st2" cx="819.2" cy="94" r="2.6"/>
		<circle class="st2" cx="819.2" cy="141.5" r="2.6"/>
		<circle class="st2" cx="819.2" cy="188.9" r="2.6"/>
		<circle class="st2" cx="819.2" cy="236.4" r="2.6"/>
		<circle class="st2" cx="860.8" cy="-71.7" r="2.6"/>
		<circle class="st2" cx="860.8" cy="-24.2" r="2.6"/>
		<circle class="st2" cx="860.8" cy="23.2" r="2.6"/>
		<circle class="st2" cx="860.8" cy="70.7" r="2.6"/>
		<circle class="st2" cx="860.8" cy="118.1" r="2.6"/>
		<circle class="st2" cx="860.8" cy="165.6" r="2.6"/>
		<circle class="st2" cx="860.8" cy="213" r="2.6"/>
		<circle class="st2" cx="860.8" cy="260.5" r="2.6"/>
		<circle class="st2" cx="901.8" cy="-47.9" r="2.6"/>
		<circle class="st2" cx="901.8" cy="-0.5" r="2.6"/>
		<circle class="st2" cx="901.8" cy="47" r="2.6"/>
		<circle class="st2" cx="901.8" cy="94.4" r="2.6"/>
		<circle class="st2" cx="901.8" cy="141.9" r="2.6"/>
		<circle class="st2" cx="901.8" cy="189.3" r="2.6"/>
		<circle class="st2" cx="901.8" cy="236.8" r="2.6"/>
		<circle class="st2" cx="942.2" cy="-72.5" r="2.6"/>
		<circle class="st2" cx="942.2" cy="-25" r="2.6"/>
		<circle class="st2" cx="942.2" cy="22.4" r="2.6"/>
		<circle class="st2" cx="942.2" cy="69.9" r="2.6"/>
		<circle class="st2" cx="942.2" cy="117.3" r="2.6"/>
		<circle class="st2" cx="942.2" cy="164.8" r="2.6"/>
		<circle class="st2" cx="942.2" cy="212.2" r="2.6"/>
		<circle class="st2" cx="942.2" cy="259.7" r="2.6"/>
		<path class="st3" d="M524.9-66.3L502-52.7c-3.3,2-3.3,6.8,0,8.7l23,13.4c4.5,2.7,10.1,2.7,14.7,0.1l23.6-13.5
			c3.4-1.9,3.4-6.8,0-8.8l-23.6-13.7C535.2-69.1,529.5-69.1,524.9-66.3z"/>
		<circle class="st2" cx="981.8" cy="-48" r="2.6"/>
		<circle class="st2" cx="981.8" cy="-0.5" r="2.6"/>
		<circle class="st2" cx="981.8" cy="46.9" r="2.6"/>
		<circle class="st2" cx="981.8" cy="94.4" r="2.6"/>
		<circle class="st2" cx="981.8" cy="141.8" r="2.6"/>
		<circle class="st2" cx="981.8" cy="189.3" r="2.6"/>
		<circle class="st2" cx="981.8" cy="236.7" r="2.6"/>
		<circle class="st2" cx="1023.3" cy="-71.4" r="2.6"/>
		<circle class="st2" cx="1023.3" cy="-23.9" r="2.6"/>
		<circle class="st2" cx="1023.3" cy="23.5" r="2.6"/>
		<circle class="st2" cx="1023.3" cy="71" r="2.6"/>
		<circle class="st2" cx="1023.3" cy="118.4" r="2.6"/>
		<circle class="st2" cx="1023.3" cy="165.9" r="2.6"/>
		<circle class="st2" cx="1023.3" cy="213.3" r="2.6"/>
		<circle class="st2" cx="1023.3" cy="260.8" r="2.6"/>
		<circle class="st2" cx="1064.4" cy="-47.6" r="2.6"/>
		<circle class="st2" cx="1064.4" cy="-0.1" r="2.6"/>
		<circle class="st2" cx="1064.4" cy="47.3" r="2.6"/>
		<circle class="st2" cx="1064.4" cy="94.8" r="2.6"/>
		<circle class="st2" cx="1064.4" cy="142.2" r="2.6"/>
		<circle class="st2" cx="1064.4" cy="189.7" r="2.6"/>
		<circle class="st2" cx="1064.4" cy="237.1" r="2.6"/>
		<circle class="st2" cx="1104.7" cy="-72.1" r="2.6"/>
		<circle class="st2" cx="1104.7" cy="-24.7" r="2.6"/>
		<circle class="st2" cx="1104.7" cy="22.8" r="2.6"/>
		<circle class="st2" cx="1104.7" cy="70.2" r="2.6"/>
		<circle class="st2" cx="1104.7" cy="117.7" r="2.6"/>
		<circle class="st2" cx="1104.7" cy="165.1" r="2.6"/>
		<circle class="st2" cx="1104.7" cy="212.6" r="2.6"/>
		<circle class="st2" cx="1104.7" cy="260" r="2.6"/>
		<circle class="st2" cx="1146.2" cy="-48.1" r="2.6"/>
		<circle class="st2" cx="1146.2" cy="-0.6" r="2.6"/>
		<circle class="st2" cx="1146.2" cy="46.8" r="2.6"/>
		<circle class="st2" cx="1146.2" cy="94.3" r="2.6"/>
		<circle class="st2" cx="1146.2" cy="141.7" r="2.6"/>
		<circle class="st2" cx="1146.2" cy="189.2" r="2.6"/>
		<circle class="st2" cx="1146.2" cy="236.6" r="2.6"/>
		<circle class="st2" cx="1187.7" cy="-71.4" r="2.6"/>
		<circle class="st2" cx="1187.7" cy="-24" r="2.6"/>
		<circle class="st2" cx="1187.7" cy="23.5" r="2.6"/>
		<circle class="st2" cx="1187.7" cy="70.9" r="2.6"/>
		<circle class="st2" cx="1187.7" cy="118.4" r="2.6"/>
		<circle class="st2" cx="1187.7" cy="165.8" r="2.6"/>
		<circle class="st2" cx="1187.7" cy="213.3" r="2.6"/>
		<circle class="st2" cx="1187.7" cy="260.7" r="2.6"/>
		<circle class="st2" cx="1228.8" cy="-47.7" r="2.6"/>
		<circle class="st2" cx="1228.8" cy="-0.2" r="2.6"/>
		<circle class="st2" cx="1228.8" cy="47.2" r="2.6"/>
		<circle class="st2" cx="1228.8" cy="94.7" r="2.6"/>
		<circle class="st2" cx="1228.8" cy="142.1" r="2.6"/>
		<circle class="st2" cx="1228.8" cy="189.6" r="2.6"/>
		<circle class="st2" cx="1228.8" cy="237" r="2.6"/>
		<circle class="st2" cx="1269.1" cy="-72.2" r="2.6"/>
		<circle class="st2" cx="1269.1" cy="-24.8" r="2.6"/>
		<circle class="st2" cx="1269.1" cy="22.7" r="2.6"/>
		<circle class="st2" cx="1269.1" cy="70.1" r="2.6"/>
		<circle class="st2" cx="1269.1" cy="117.6" r="2.6"/>
		<circle class="st2" cx="1269.1" cy="165" r="2.6"/>
		<circle class="st2" cx="1269.1" cy="212.5" r="2.6"/>
		<circle class="st2" cx="1269.1" cy="259.9" r="2.6"/>
		<circle class="st2" cx="1309.8" cy="-48" r="2.6"/>
		<circle class="st2" cx="1309.8" cy="-0.5" r="2.6"/>
		<circle class="st2" cx="1309.8" cy="46.9" r="2.6"/>
		<circle class="st2" cx="1309.8" cy="94.4" r="2.6"/>
		<circle class="st2" cx="1309.8" cy="141.8" r="2.6"/>
		<circle class="st2" cx="1309.8" cy="189.3" r="2.6"/>
		<circle class="st2" cx="1309.8" cy="236.7" r="2.6"/>
		<circle class="st2" cx="1351.3" cy="-71.4" r="2.6"/>
		<circle class="st2" cx="1351.3" cy="-23.9" r="2.6"/>
		<circle class="st2" cx="1351.3" cy="23.5" r="2.6"/>
		<circle class="st2" cx="1351.3" cy="71" r="2.6"/>
		<circle class="st2" cx="1351.3" cy="118.4" r="2.6"/>
		<circle class="st2" cx="1351.3" cy="165.9" r="2.6"/>
		<circle class="st2" cx="1351.3" cy="213.3" r="2.6"/>
		<circle class="st2" cx="1351.3" cy="260.8" r="2.6"/>
		<circle class="st2" cx="1392.4" cy="-47.6" r="2.6"/>
		<circle class="st2" cx="1392.4" cy="-0.1" r="2.6"/>
		<circle class="st2" cx="1392.4" cy="47.3" r="2.6"/>
		<circle class="st2" cx="1392.4" cy="94.8" r="2.6"/>
		<circle class="st2" cx="1392.4" cy="142.2" r="2.6"/>
		<circle class="st2" cx="1392.4" cy="189.7" r="2.6"/>
		<circle class="st2" cx="1392.4" cy="237.1" r="2.6"/>
		<circle class="st2" cx="1432.7" cy="-72.1" r="2.6"/>
		<circle class="st2" cx="1432.7" cy="-24.7" r="2.6"/>
		<circle class="st2" cx="1432.7" cy="22.8" r="2.6"/>
		<circle class="st2" cx="1432.7" cy="70.2" r="2.6"/>
		<circle class="st2" cx="1432.7" cy="117.7" r="2.6"/>
		<circle class="st2" cx="1432.7" cy="165.1" r="2.6"/>
		<circle class="st2" cx="1432.7" cy="212.6" r="2.6"/>
		<circle class="st2" cx="1432.7" cy="260" r="2.6"/>
		<path class="st3" d="M1015.4-66l-22.9,13.7c-3.3,2-3.3,6.8,0,8.7l23,13.4c4.5,2.7,10.1,2.7,14.7,0.1l23.6-13.5
			c3.4-1.9,3.4-6.8,0-8.8l-23.6-13.7C1025.8-68.8,1020-68.7,1015.4-66z"/>
		<circle class="st2" cx="1473.9" cy="-48.3" r="2.6"/>
		<circle class="st2" cx="1473.9" cy="-0.9" r="2.6"/>
		<circle class="st2" cx="1473.9" cy="46.6" r="2.6"/>
		<circle class="st2" cx="1473.9" cy="94" r="2.6"/>
		<circle class="st2" cx="1473.9" cy="141.5" r="2.6"/>
		<circle class="st2" cx="1473.9" cy="188.9" r="2.6"/>
		<circle class="st2" cx="1473.9" cy="236.4" r="2.6"/>
		<circle class="st2" cx="1515.4" cy="-71.7" r="2.6"/>
		<circle class="st2" cx="1515.4" cy="-24.2" r="2.6"/>
		<circle class="st2" cx="1515.4" cy="23.2" r="2.6"/>
		<circle class="st2" cx="1515.4" cy="70.7" r="2.6"/>
		<circle class="st2" cx="1515.4" cy="118.1" r="2.6"/>
		<circle class="st2" cx="1515.4" cy="165.6" r="2.6"/>
		<circle class="st2" cx="1515.4" cy="213" r="2.6"/>
		<circle class="st2" cx="1515.4" cy="260.5" r="2.6"/>
		<circle class="st2" cx="1556.5" cy="-47.9" r="2.6"/>
		<circle class="st2" cx="1556.5" cy="-0.5" r="2.6"/>
		<circle class="st2" cx="1556.5" cy="47" r="2.6"/>
		<circle class="st2" cx="1556.5" cy="94.4" r="2.6"/>
		<circle class="st2" cx="1556.5" cy="141.9" r="2.6"/>
		<circle class="st2" cx="1556.5" cy="189.3" r="2.6"/>
		<circle class="st2" cx="1556.5" cy="236.8" r="2.6"/>
		<circle class="st2" cx="1596.8" cy="-72.5" r="2.6"/>
		<circle class="st2" cx="1596.8" cy="-25" r="2.6"/>
		<circle class="st2" cx="1596.8" cy="22.4" r="2.6"/>
		<circle class="st2" cx="1596.8" cy="69.9" r="2.6"/>
		<circle class="st2" cx="1596.8" cy="117.3" r="2.6"/>
		<circle class="st2" cx="1596.8" cy="164.8" r="2.6"/>
		<circle class="st2" cx="1596.8" cy="212.2" r="2.6"/>
		<circle class="st2" cx="1596.8" cy="259.7" r="2.6"/>
		<circle class="st2" cx="1638.3" cy="-48.4" r="2.6"/>
		<circle class="st2" cx="1638.3" cy="-1" r="2.6"/>
		<circle class="st2" cx="1638.3" cy="46.5" r="2.6"/>
		<circle class="st2" cx="1638.3" cy="93.9" r="2.6"/>
		<circle class="st2" cx="1638.3" cy="141.4" r="2.6"/>
		<circle class="st2" cx="1638.3" cy="188.8" r="2.6"/>
		<circle class="st2" cx="1638.3" cy="236.3" r="2.6"/>
		<circle class="st2" cx="1679.8" cy="-71.8" r="2.6"/>
		<circle class="st2" cx="1679.8" cy="-24.3" r="2.6"/>
		<circle class="st2" cx="1679.8" cy="23.1" r="2.6"/>
		<circle class="st2" cx="1679.8" cy="70.6" r="2.6"/>
		<circle class="st2" cx="1679.8" cy="118" r="2.6"/>
		<circle class="st2" cx="1679.8" cy="165.5" r="2.6"/>
		<circle class="st2" cx="1679.8" cy="212.9" r="2.6"/>
		<circle class="st2" cx="1679.8" cy="260.4" r="2.6"/>
		<circle class="st2" cx="1720.9" cy="-48" r="2.6"/>
		<circle class="st2" cx="1720.9" cy="-0.6" r="2.6"/>
		<circle class="st2" cx="1720.9" cy="46.9" r="2.6"/>
		<circle class="st2" cx="1720.9" cy="94.3" r="2.6"/>
		<circle class="st2" cx="1720.9" cy="141.8" r="2.6"/>
		<circle class="st2" cx="1720.9" cy="189.2" r="2.6"/>
		<circle class="st2" cx="1720.9" cy="236.7" r="2.6"/>
		<circle class="st2" cx="1761.2" cy="-72.6" r="2.6"/>
		<circle class="st2" cx="1761.2" cy="-25.1" r="2.6"/>
		<circle class="st2" cx="1761.2" cy="22.3" r="2.6"/>
		<circle class="st2" cx="1761.2" cy="69.8" r="2.6"/>
		<circle class="st2" cx="1761.2" cy="117.2" r="2.6"/>
		<circle class="st2" cx="1761.2" cy="164.7" r="2.6"/>
		<circle class="st2" cx="1761.2" cy="212.1" r="2.6"/>
		<circle class="st2" cx="1761.2" cy="259.6" r="2.6"/>
		<circle class="st2" cx="1801.9" cy="-48.3" r="2.6"/>
		<circle class="st2" cx="1801.9" cy="-0.9" r="2.6"/>
		<circle class="st2" cx="1801.9" cy="46.6" r="2.6"/>
		<circle class="st2" cx="1801.9" cy="94" r="2.6"/>
		<circle class="st2" cx="1801.9" cy="141.5" r="2.6"/>
		<circle class="st2" cx="1801.9" cy="188.9" r="2.6"/>
		<circle class="st2" cx="1801.9" cy="236.4" r="2.6"/>
		<circle class="st2" cx="1843.4" cy="-71.7" r="2.6"/>
		<circle class="st2" cx="1843.4" cy="-24.2" r="2.6"/>
		<circle class="st2" cx="1843.4" cy="23.2" r="2.6"/>
		<circle class="st2" cx="1843.4" cy="70.7" r="2.6"/>
		<circle class="st2" cx="1843.4" cy="118.1" r="2.6"/>
		<circle class="st2" cx="1843.4" cy="165.6" r="2.6"/>
		<circle class="st2" cx="1843.4" cy="213" r="2.6"/>
		<circle class="st2" cx="1843.4" cy="260.5" r="2.6"/>
		<circle class="st2" cx="1884.5" cy="-47.9" r="2.6"/>
		<circle class="st2" cx="1884.5" cy="-0.5" r="2.6"/>
		<circle class="st2" cx="1884.5" cy="47" r="2.6"/>
		<circle class="st2" cx="1884.5" cy="94.4" r="2.6"/>
		<circle class="st2" cx="1884.5" cy="141.9" r="2.6"/>
		<circle class="st2" cx="1884.5" cy="189.3" r="2.6"/>
		<circle class="st2" cx="1884.5" cy="236.8" r="2.6"/>
		<circle class="st2" cx="1924.8" cy="-72.5" r="2.6"/>
		<circle class="st2" cx="1924.8" cy="-25" r="2.6"/>
		<circle class="st2" cx="1924.8" cy="22.4" r="2.6"/>
		<circle class="st2" cx="1924.8" cy="69.9" r="2.6"/>
		<circle class="st2" cx="1924.8" cy="117.3" r="2.6"/>
		<circle class="st2" cx="1924.8" cy="164.8" r="2.6"/>
		<circle class="st2" cx="1924.8" cy="212.2" r="2.6"/>
		<circle class="st2" cx="1924.8" cy="259.7" r="2.6"/>
		<path class="st3" d="M1507.6-66.3l-22.9,13.7c-3.3,2-3.3,6.8,0,8.7l23,13.4c4.5,2.7,10.1,2.7,14.7,0.1l23.6-13.5
			c3.4-1.9,3.4-6.8,0-8.8l-23.6-13.7C1517.9-69.1,1512.2-69.1,1507.6-66.3z"/>
	</g>
</g>
<g id="Illustration" class="st5">
	<g>
		<path class="st6" d="M923.8,521c-31.1-53-63.6-88.1-99.8-115.1c-44-32.8-96-46.3-96-46.3c-7.9-2.6-16.1-5.1-24.4-7.5
			c-29.5-8.4-87.8-18.7-88.1-18.4c-22-2.7-41.9-3.6-58.7-2.4c-41.9,2.9-69.7,24-85.6,41.2c-12.4,13.4-19.7,26.3-22.9,32.8
			c-3.2-6.4-10.4-19.4-22.9-32.9c-15.9-17.2-43.7-38.3-85.6-41.2c-79.1-5.5-221.5,34.2-267.3,74.7c-1.7,1.5-3.5,3.1-5.4,4.8
			c-44.2,38.6-136,119.1-132.6,257.3c0.5,18.8,3.6,38,9.3,57.1c10.1,33.8,27.6,93.3,31.6,112.3c2.7,12.7,15.8,37.6,33.4,63.5
			c18.5,27.2,36.2,47.4,47.4,54c8.5,5,13.9,9.7,18.8,13.8c8.8,7.6,15.8,13.6,35.1,17.2c4.6,0.9,10.9,1.3,18.4,1.3
			c42.3,0,124.1-13.2,166.1-33.6c24.1-11.7,34.9-10.3,39.8-7.2c4.2,2.7,4.7,7.3,4.8,8.8c-0.9,1.4-1.6,3.9-0.3,6.5
			c4,8.4,26,12.3,65.3,11.6c2.5,0.2,33.4,2.4,44.4-26.9c10.9,29.4,41.9,27.3,44.4,27.1c39.3,0.7,61.2-3.2,65.3-11.6
			c1.3-2.6,0.5-5.1-0.3-6.5c0.1-1.6,0.6-6.1,4.7-8.8c4.9-3.2,15.7-4.6,39.8,7.1c42,20.4,123.8,33.6,166.1,33.6
			c7.5,0,13.8-0.4,18.4-1.3c19.2-3.7,26.2-9.6,35.1-17.2c4.8-4.1,10.3-8.8,18.8-13.8c11.2-6.6,28.9-26.7,47.4-54
			c17.6-25.9,30.7-50.9,33.4-63.5c3.5-16.5,17.1-63.4,27.9-99.9C970.8,664.2,961.6,585.3,923.8,521z M727,363.6l-1.9,7.7
			c-21.8-6-44.8-9.6-68.7-10.8c-10.2-0.6-20.5-0.8-30.7-0.4c-0.4-1.5-0.8-3.1-1.3-4.7c-1.5-5.6-3.1-11.7-4.5-17
			c25.6,3.5,53.7,9.4,82.4,17.6C710.8,358.5,719,361,727,363.6z M817,723c-0.9-33-10.6-64.5-29.6-96.3
			c-39.5-66.2-72.9-89.3-148.8-102.9c-60.6-10.9-84,6.2-104.7,21.2c-4.4,3.2-8.6,6.3-13,8.9c-1.3,0.8-2.7,1.5-4.1,2.2
			c-0.9-0.2-1.8,0.2-2.3,1.1C491,568,454.1,570.7,448.8,571c-0.1,0-0.3-0.1-0.5-0.1c-0.4,0-41.2-2.2-66.5-13.8
			c-0.4-0.8-1.4-1.3-2.3-1.1c-1.4-0.7-2.8-1.4-4.1-2.2c-4.4-2.6-8.6-5.7-13-8.9c-20.7-15-44.1-32.1-104.7-21.2c0,0-0.1,0-0.1,0
			c-75.8,13.6-109.2,36.7-148.7,102.9c-19,31.8-28.6,63.3-29.6,96.3c-0.5,17.1,1.5,34.7,5.9,53.3c-7.4-22-9.6-45.2-6.9-70.2
			c3.8-35,17.5-73.5,41.6-117.7c19.5-35.6,48.1-61.7,87.7-79.9c33.4-15.4,68.6-22,94.2-26.8c3-0.6,6-1.1,8.8-1.7
			c39.5-7.6,45.8,5.9,55.4,26.4c2.5,5.3,5.3,11.3,8.9,17.3c7.5,12.5,22.6,20.5,43.7,23.1c13.9,1.7,26,0.6,29,0.3c0.1,0,0.1,0,0.2,0
			c0.6,0.1,13.9,1.7,29.7-0.2c21.1-2.6,36.3-10.6,43.7-23.1c3.6-6.1,6.4-12.1,8.9-17.3c9.6-20.5,16-34,55.4-26.4
			c2.8,0.5,5.7,1.1,8.8,1.7c14.8,2.8,32.9,6.2,51.9,11.5c0.4,0.5,1,0.9,1.7,0.9c0.1,0,0.3,0,0.4,0c0.1,0,0.3-0.1,0.4-0.1
			c13.1,3.8,26.6,8.5,39.9,14.6c2.8,1.3,5.6,2.6,8.3,4l0,0.1c-0.2,1.1,0.5,2.2,1.7,2.4c0.1,0,0.3,0,0.4,0c0.6,0,1.2-0.3,1.6-0.7
			c33.5,17.8,58.3,42.1,75.8,74c24.2,44.2,37.8,82.7,41.6,117.7c2.7,25,0.5,48.2-6.9,70.2C815.6,757.8,817.5,740.1,817,723z
			 M602.6,589.4c2.4,31,2.6,43.3-4.9,70.2c-7.2,25.7-58.2,50.2-73.5,52.6c-3.7,0.6-8.5,0.5-10.3-3.1c-1.5-3-0.4-7.6,1.5-9.6
			c1.4-1.4,6.8-3.2,12.6-5.2c10.2-3.5,24.1-8.3,35.6-16.3c20.4-14.2,14.2-26.6,8.8-37.5c-5.2-10.4-28.2-39.4-42-56.7l-3.6-4.6
			c-8.1-10.3-8.8-16.7-8.6-19.1c1.7-0.9,3.4-1.7,4.9-2.7c4.5-2.7,8.8-5.8,13.3-9.1c18.7-13.6,39.8-28.9,90.6-22.2
			c-4,1.7-7.5,4.3-10.7,7.8C605.9,545.5,600.8,566.2,602.6,589.4z M609.1,754.4c12.7,23.1,16.1,37.3,10.2,43.6
			c-0.9,1-2.4,1.1-4.4,0.2c-10.3-4.1-29.2-30.6-28.7-66.6c0.6-42.3,13.3-66.2,24.5-87.2c0.7-1.3,1.4-2.6,2-3.8c10-19,27.3-20,31-20
			c0.2,0,0.3,0,0.4,0c5.4,1.8,8.4,6.3,8.3,12.3c-0.2,8.6-7,19.2-19.7,22.8c-6.8,1.9-12.7,8.8-17.7,20.6
			C604.8,700.8,601.7,741,609.1,754.4z M369.6,579.2l-3.7,4.6c-13.8,17.3-36.8,46.3-42,56.7c-5.4,10.9-11.6,23.2,8.8,37.5
			c11.5,8.1,25.5,12.8,35.6,16.3c5.8,2,11.2,3.8,12.6,5.2c1.9,1.9,3,6.5,1.5,9.6c-1.8,3.6-6.6,3.6-10.3,3.1
			c-15.3-2.4-66.4-26.9-73.5-52.6c-7.5-26.8-7.3-39.1-4.9-70.2c1.8-23.2-3.3-43.9-13.6-55.4c-3.2-3.5-6.7-6.1-10.7-7.8
			c50.8-6.7,71.8,8.6,90.6,22.2c4.5,3.3,8.7,6.4,13.3,9.1c1.5,0.9,3.2,1.8,4.9,2.7C378.4,562.5,377.8,568.9,369.6,579.2z
			 M281.3,676.1c-4.9-11.8-10.9-18.7-17.7-20.6c-12.7-3.5-19.5-14.1-19.7-22.8c-0.1-6,2.9-10.5,8.3-12.3c2.5,0,20.9,0.2,31.4,20
			c0.7,1.3,1.3,2.5,2,3.8c11.2,21.1,23.9,44.9,24.5,87.2c0.5,36-18.4,62.5-28.7,66.6c-2,0.8-3.5,0.7-4.4-0.2
			c-5.8-6.3-2.5-20.5,10.2-43.6C294.7,740.9,291.6,700.7,281.3,676.1z M652,491c-1.1-6-3.1-16.6-3-19c2.3,0.4,5.7,1.2,8,1.6
			c14.8,2.8,30.1,5.7,45.5,9.5l-4.7,25.3C681.8,500.3,667.7,495.5,652,491z M703.4,476l-0.3,1.9c-13.5-3.1-26.9-5.5-39.9-7.9
			c-4.8-0.9-9.6-1.7-14.2-2.6c0.1-0.5-3-14.4-4.9-24.5c23.8,3.6,45.9,7.8,63,12.5C705.8,462.4,704.6,469.3,703.4,476z M707.8,450.9
			c-18.3-5.2-42-9.5-65.8-12.9c-1.6-7-4.2-21.9-5-25c24.2-1.9,51.2,0.4,76.7,8.1C711.8,429.9,709.9,439.5,707.8,450.9z M714.8,416
			c-26.4-8.4-53.7-11.1-78.8-8c-3-13.3-5.1-27.2-9.1-43.5c10.3-0.4,20.5-0.3,30.5,0.3c22.8,1.4,45.4,5.2,66.9,11.2
			c-0.3,2.9-0.7,5.3-1.3,7.5C720.1,393.5,717.4,404.2,714.8,416z M945.1,736.2c-10.8,36.6-24.5,83.6-28,100.2
			c-5.4,25.5-54.9,100.7-78.8,114.7c-8.8,5.2-14.4,10-19.4,14.2c-8.4,7.2-15,12.8-33.1,16.3c-29.2,5.6-134-8.7-182-32
			c-20.8-10.1-35.6-12.4-43.9-6.9c-3.3,2.2-5,5.2-5.8,7.8l-2.8-1.2c-0.7-0.3-1.3-0.6-2-0.8l-2-0.7c-1.3-0.4-2.7-0.9-4-1.3l-4.1-1
			c-5.5-1.2-11-2.1-16.6-2.3c-5.6-0.3-11.1-0.2-16.6,0.3c-5.5,0.5-11,1.4-16.4,2.5c5.5-0.7,11-1.3,16.4-1.4c5.5-0.1,11,0.1,16.4,0.7
			c5.4,0.6,10.8,1.8,16,3.3l3.9,1.2c1.3,0.5,2.5,1,3.8,1.5l1.9,0.8c0.6,0.3,1.2,0.6,1.8,0.9l3.6,1.8c0,0.6,0,1,0,1.1
			c0,0.4,0.2,0.9,0.5,1.2c0.1,0.1,1,1.3,0.2,2.8c-1.5,3.1-10.6,10.1-61.5,9.2c-0.1,0-0.2,0-0.3,0c-1.4,0.2-34.1,3.5-42-30.5
			c-0.1-0.9-0.7-1.6-1.6-1.8c-1.1-0.3-2.2,0.4-2.5,1.6c-7.9,34.1-40.6,30.7-42,30.6c-0.1,0-0.2,0-0.3,0c-50.9,0.9-60-6.1-61.5-9.2
			c-0.7-1.5,0.1-2.7,0.2-2.8c0.3-0.3,0.5-0.8,0.5-1.2c0-0.1,0-0.5,0-1.1l3.6-1.8c0.6-0.3,1.2-0.6,1.8-0.9l1.9-0.8
			c1.3-0.5,2.5-1,3.8-1.5l3.9-1.2c5.2-1.5,10.5-2.7,16-3.3c5.4-0.6,10.9-0.9,16.4-0.7c5.5,0.1,11,0.7,16.4,1.4
			c-5.4-1.1-10.9-2-16.4-2.5c-5.5-0.5-11.1-0.6-16.6-0.3c-5.6,0.2-11.1,1.1-16.6,2.3l-4.1,1c-1.4,0.4-2.7,0.9-4,1.3l-2,0.7
			c-0.7,0.3-1.3,0.5-2,0.8l-2.8,1.2c-0.8-2.6-2.5-5.6-5.8-7.8c-8.4-5.5-23.2-3.2-43.9,6.9c-47.9,23.3-152.8,37.6-182,32
			c-18.1-3.5-24.8-9.1-33.1-16.3c-4.9-4.2-10.6-9-19.4-14.2c-23.8-14-73.4-89.2-78.8-114.7c-4-19.1-21.6-78.8-31.7-112.6
			c-5.6-18.7-8.7-37.6-9.1-56C-64.9,531.4,26,451.9,69.7,413.6c1.9-1.7,3.7-3.3,5.4-4.8c20.9-18.4,65.4-38.4,118.9-53.5
			c54.1-15.2,108.4-22.7,145.3-20.1c40.4,2.8,67.3,23.2,82.7,39.8c15.7,16.9,23,33.3,24,35.6c0.1,0.7,0.6,1.3,1.3,1.5
			c1.1,0.4,2.3-0.1,2.7-1.1c0.1-0.2,7.3-17.7,24-35.7c15.4-16.6,42.3-37.1,82.8-39.9c16.7-1.2,36.6-0.3,58.6,2.5
			c1.4,5.6,30.6,146.8,31.4,152.2c-18.3-5-37.3-9.7-51.8-12.4c-3-0.6-6-1.1-8.8-1.7c-42.7-8.2-49.9,7.3-60,28.8
			c-2.6,5.5-5.2,11.1-8.7,17c-15.5,26.1-62.7,22.1-68.7,21.5c-0.3-0.2-0.7-0.2-1.2-0.2c-0.5,0.1-52.8,6.3-69.3-21.4
			c-3.5-5.9-6.1-11.5-8.7-17c-10.1-21.5-17.3-37-60-28.8c-2.8,0.5-5.7,1.1-8.8,1.7c-52.2,9.8-139.6,26.2-184.8,108.8
			c-49.3,90.2-56.2,160.4-21.7,220.9c9.6,16.9,20.1,30.5,31.3,40.5c14.2,12.7,29.4,19.4,44.2,19.4c1,0,1.9,0,2.9-0.1
			c15.9-0.9,30.8-9.2,44.3-24.6c4.8-5.4,8.1-9.4,10.2-12.2c2.2-2.9,3.7-5.3,2.1-7c-2.1-2.2-4.4-0.9-22.8,13
			c-9.2,6.9-19.6,14.7-23.3,16l-1.9,0.6c-11.3,3.8-26.7,9-41.7-0.4c-0.5-0.3-1.1-0.4-1.7-0.2c-3.2-2.2-6.3-4.7-9.5-7.5
			c-10.8-9.7-21-22.9-30.4-39.3c-10.9-30.1-15.6-56.2-14.8-82.2c0.9-32.3,10.4-63.1,29-94.3c38.7-64.9,71.4-87.6,145.7-100.9
			c7.4,0.2,13.7,3.2,18.8,8.9c9.6,10.6,14.3,30.2,12.6,52.3c-1.9,24.6-2.4,38.1,1.3,56.3c-0.5-1-1.1-2-1.6-3c-0.7-1.3-1.4-2.6-2-3.8
			c-12.3-23.3-34.6-22.3-35.5-22.2c-0.2,0-0.4,0-0.5,0.1c-7.3,2.4-11.6,8.5-11.5,16.5c0.2,10.2,8.1,22.6,22.7,26.7
			c5.4,1.5,10.6,7.8,15,18.2c9.7,23.2,13,62.2,6.2,74.5c-13.9,25.2-17,40.6-9.7,48.4c0.9,0.9,2.5,2.1,5,2.1c1.1,0,2.5-0.2,4-0.9
			c6.8-2.7,14.7-11.6,20.6-23.3c5-9.9,11-26.1,10.7-47.2c-0.3-21.6-3.7-38.5-8.4-52.7c18.5,19.8,52.9,35.4,65.7,37.3
			c1.4,0.2,2.7,0.3,3.8,0.3c6.8,0,9.7-3.4,10.8-5.6c2.4-4.8,0.8-11.3-2.3-14.4c-2.1-2.1-6.9-3.7-14.2-6.2
			c-10-3.4-23.6-8.1-34.6-15.8c-17.4-12.2-12.8-21.5-7.4-32.2c5-10,28.7-39.9,41.5-56l3.7-4.6c7.3-9.2,9.2-15.8,9.5-19.8
			c9.8,4.2,22.5,7.5,37.9,10c13.3,2.1,24.3,2.9,27.1,3.1c0.3,0.1,0.6,0.2,0.9,0.2c0.1,0,12.5-0.7,27.8-3.1
			c15.4-2.5,28.1-5.8,37.9-10c0.3,4,2.2,10.6,9.5,19.8l3.6,4.6c12.8,16.1,36.5,46,41.5,56c5.4,10.7,10,20-7.4,32.2
			c-11,7.7-24.7,12.4-34.6,15.8c-7.3,2.5-12.1,4.1-14.2,6.2c-3.1,3.1-4.7,9.6-2.3,14.4c1.1,2.2,4,5.6,10.8,5.6
			c1.2,0,2.4-0.1,3.8-0.3c12.8-2,47.2-17.5,65.7-37.3c-4.7,14.2-8.1,31.1-8.4,52.7c-0.5,35.7,17.9,65.1,31.3,70.5
			c1.5,0.6,2.8,0.9,4,0.9c2.6,0,4.2-1.2,5-2.1c7.3-7.9,4.2-23.3-9.7-48.4c-6.8-12.3-3.6-51.4,6.2-74.5c4.4-10.4,9.5-16.7,15-18.2
			c14.7-4.1,22.5-16.5,22.7-26.7c0.2-8-4.1-14.1-11.5-16.5c-0.2-0.1-0.3-0.1-0.5-0.1c-0.9-0.1-23.2-1.1-35.5,22.2
			c-0.7,1.3-1.3,2.5-2,3.8c-0.5,0.9-0.9,1.8-1.4,2.7c2.9-14.1,3.4-27.6,1.1-56c-1.7-22.1,3-41.7,12.6-52.3
			c5.1-5.7,11.4-8.6,18.8-8.9c74.3,13.4,107,36,145.7,100.9c18.6,31.2,28.1,62,29,94.3c0.7,26-4,52.1-14.8,82.2
			c-9.4,16.4-19.6,29.6-30.4,39.3c-3.1,2.8-6.3,5.3-9.5,7.5c-0.5-0.1-1.1-0.1-1.7,0.2c-15,9.5-30.4,4.2-41.7,0.4l-1.9-0.6
			c-3.8-1.3-14.2-9.1-23.3-16c-18.4-13.9-20.8-15.2-22.8-13c-1.6,1.7-0.1,4.1,2.1,7c2.1,2.8,5.4,6.8,10.2,12.2
			c13.6,15.4,28.5,23.7,44.3,24.6c1,0.1,1.9,0.1,2.9,0.1c14.8,0,30-6.7,44.2-19.4c11.2-10,21.7-23.6,31.3-40.5
			c34.5-60.5,27.6-130.7-21.7-220.9c-20.1-36.7-48.4-60.3-78.4-76.1l5.4-28.9c0.1-0.4,0-0.8-0.1-1.2l0.6-3.4c1.3-7.4,2.6-15,4-22.5
			c2.4-13.3,4.5-24.2,6.7-34.1c0,0,0,0,0,0c2.8-13,5.7-24.6,8.9-35.6c0.6-2.6,1.1-5.2,1.4-8.5c0.3-0.2,0.5-0.5,0.6-0.9
			c0.2-0.6,0.1-1.2-0.2-1.6l2.1-8.6c40.4,13.6,73.2,29.5,90.3,44.1c31.6,26.9,68.1,61.6,98.9,114.1
			C957.4,586.4,966.5,664.1,945.1,736.2z M159.8,861.7c8.8-0.2,16.8-3,23.1-5.1l1.9-0.6c4.4-1.5,14.2-8.8,24.5-16.6
			c4.5-3.4,9.7-7.3,13.5-9.9c-1.8,2.2-4.5,5.5-8.5,10.1c-12.8,14.5-26.8,22.3-41.5,23.2C168.5,863,164.1,862.7,159.8,861.7z
			 M736.6,861.8c-4.3,0.9-8.7,1.3-13,1c-14.7-0.9-28.7-8.7-41.5-23.2c-4.1-4.6-6.8-7.8-8.5-10.1c3.8,2.6,9,6.5,13.5,9.9
			c10.4,7.8,20.1,15.1,24.5,16.6l1.9,0.6C719.8,858.9,727.8,861.6,736.6,861.8z"/>
		<path class="st6" d="M472.2,723.6c0-3.5,0.5-8.1,1.1-12.9c1.1-9,2.1-17.5,0-21.6c-3.2-6.3-19-2.8-24.9-1.3
			c-5.6-1.5-22.1-5.3-25.4,1.2c-2,4.1-1,12.6,0,21.6c0.6,4.9,1.1,9.4,1.1,12.9c0,2.6-0.5,6.9-1.2,11.9c-1.8,14.2-4,32,1.5,39.7
			c6.8,9.5,20.1,43.9,21.5,71.6c0.1,1.1,1,2,2.1,2c0,0,0,0,0,0c1.1,0,2-0.9,2.1-2c1.4-27.7,14.7-62,21.5-71.5
			c5.5-7.7,3.3-25.5,1.5-39.7C472.7,730.5,472.2,726.2,472.2,723.6z M468.4,772.7C468.4,772.7,468.4,772.7,468.4,772.7
			c-3.9,5.4-9.1,17.2-13.3,30.1c-3,9.1-5.3,18.2-6.9,26.6c-1.5-8.5-3.9-17.6-6.9-26.7c-4.2-12.9-9.5-24.7-13.3-30.1
			c-4.6-6.4-2.3-24.7-0.8-36.8c0.6-5.1,1.2-9.5,1.2-12.4c0-3.7-0.6-8.4-1.2-13.4c-0.9-7.2-1.9-16.2-0.5-19.2
			c0.4-0.9,2.4-1.3,5.5-1.3c3.7,0,8.9,0.7,14.8,2.3c0.5,0.3,1.1,0.4,1.7,0.3c11.1-3,19.9-3,20.9-1.1c1.5,3,0.4,12-0.5,19.2
			c-0.6,5-1.2,9.7-1.2,13.4c0,2.9,0.6,7.3,1.2,12.4C470.7,748.1,473,766.3,468.4,772.7z"/>
	</g>
	<path class="st6" d="M615,334c1.9,7.6,30.7,148.1,33.4,159.9c17.2,5,30.8,10.1,46.6,17.1c25.8,11.6,43,29,65,52
		c6.6-7.4,28.6-25.8,35.5-33.8c0,0-0.1-0.1-0.1-0.1c7.1-8,10.4-11.2,16.1-16.4c-0.1-0.1-0.3-0.2-0.4-0.4c6.7-6.8,10.2-10.2,17-17
		c0,0-0.1-0.1-0.1-0.1c9.9-9.6,40.9-38.9,45.1-43.2C805,376,723,350,615,334z M753.1,471.8c0.3,0.1,0.6,0.3,0.8,0.4
		C753.6,472.1,753.4,472,753.1,471.8z"/>
</g>
</svg>
