<?xml version="1.0" encoding="utf-8"?>
<!-- Generator: Adobe Illustrator 23.0.4, SVG Export Plug-In . SVG Version: 6.00 Build 0)  -->
<svg version="1.1" id="Layer_1" xmlns="http://www.w3.org/2000/svg" xmlns:xlink="http://www.w3.org/1999/xlink" x="0px" y="0px"
	 viewBox="0 0 1920 1080" style="enable-background:new 0 0 1920 1080;" xml:space="preserve">
<style type="text/css">
	.st0{fill:#050A30;}
	.st1{opacity:0.1;}
	.st2{fill:#FFFFFF;}
	.st3{fill:none;stroke:#FFFFFF;stroke-width:1.1358;stroke-miterlimit:10;}
	.st4{opacity:0.9;}
	.st5{opacity:0.2;}
	.st6{fill:none;}
	.st7{fill:none;stroke:#FFFFFF;stroke-width:2.3554;stroke-miterlimit:10;}
	.st8{fill:none;stroke:#FFFFFF;stroke-width:2.3554;stroke-linecap:round;stroke-miterlimit:10;}
</style>
<rect id="bckgrd" x="-0.5" y="-0.1" class="st0" width="1920" height="1080"/>
<g id="Dots">
	<g class="st1">
		<circle class="st2" cx="0.1" cy="282.1" r="2.6"/>
		<circle class="st2" cx="0.1" cy="329.5" r="2.6"/>
		<circle class="st2" cx="0.1" cy="377" r="2.6"/>
		<circle class="st2" cx="0.1" cy="424.4" r="2.6"/>
		<circle class="st2" cx="0.1" cy="471.9" r="2.6"/>
		<circle class="st2" cx="0.1" cy="519.3" r="2.6"/>
		<circle class="st2" cx="0.1" cy="566.8" r="2.6"/>
		<circle class="st2" cx="0.1" cy="614.2" r="2.6"/>
		<circle class="st2" cx="0.1" cy="661.7" r="2.6"/>
		<circle class="st2" cx="41.6" cy="306.1" r="2.6"/>
		<circle class="st2" cx="41.6" cy="353.6" r="2.6"/>
		<circle class="st2" cx="41.6" cy="401" r="2.6"/>
		<circle class="st2" cx="41.6" cy="448.5" r="2.6"/>
		<circle class="st2" cx="41.6" cy="495.9" r="2.6"/>
		<circle class="st2" cx="41.6" cy="543.4" r="2.6"/>
		<circle class="st2" cx="41.6" cy="590.8" r="2.6"/>
		<circle class="st2" cx="41.6" cy="638.3" r="2.6"/>
		<circle class="st2" cx="41.6" cy="685.7" r="2.6"/>
		<circle class="st2" cx="82.7" cy="282.4" r="2.6"/>
		<circle class="st2" cx="82.7" cy="329.9" r="2.6"/>
		<circle class="st2" cx="82.7" cy="377.3" r="2.6"/>
		<circle class="st2" cx="82.7" cy="424.8" r="2.6"/>
		<circle class="st2" cx="82.7" cy="472.2" r="2.6"/>
		<circle class="st2" cx="82.7" cy="519.7" r="2.6"/>
		<circle class="st2" cx="82.7" cy="567.2" r="2.6"/>
		<circle class="st2" cx="82.7" cy="614.6" r="2.6"/>
		<circle class="st2" cx="82.7" cy="662.1" r="2.6"/>
		<circle class="st2" cx="123" cy="305.3" r="2.6"/>
		<circle class="st2" cx="123" cy="352.8" r="2.6"/>
		<circle class="st2" cx="123" cy="400.2" r="2.6"/>
		<circle class="st2" cx="123" cy="447.7" r="2.6"/>
		<circle class="st2" cx="123" cy="495.1" r="2.6"/>
		<circle class="st2" cx="123" cy="542.6" r="2.6"/>
		<circle class="st2" cx="123" cy="590" r="2.6"/>
		<circle class="st2" cx="123" cy="637.5" r="2.6"/>
		<circle class="st2" cx="123" cy="684.9" r="2.6"/>
		<circle class="st2" cx="164.5" cy="282" r="2.6"/>
		<circle class="st2" cx="164.5" cy="329.4" r="2.6"/>
		<circle class="st2" cx="164.5" cy="376.9" r="2.6"/>
		<circle class="st2" cx="164.5" cy="424.3" r="2.6"/>
		<circle class="st2" cx="164.5" cy="471.8" r="2.6"/>
		<circle class="st2" cx="164.5" cy="519.2" r="2.6"/>
		<circle class="st2" cx="164.5" cy="566.7" r="2.6"/>
		<circle class="st2" cx="164.5" cy="614.1" r="2.6"/>
		<circle class="st2" cx="164.5" cy="661.6" r="2.6"/>
		<circle class="st2" cx="206" cy="306" r="2.6"/>
		<circle class="st2" cx="206" cy="353.5" r="2.6"/>
		<circle class="st2" cx="206" cy="400.9" r="2.6"/>
		<circle class="st2" cx="206" cy="448.4" r="2.6"/>
		<circle class="st2" cx="206" cy="495.8" r="2.6"/>
		<circle class="st2" cx="206" cy="543.3" r="2.6"/>
		<circle class="st2" cx="206" cy="590.7" r="2.6"/>
		<circle class="st2" cx="206" cy="638.2" r="2.6"/>
		<circle class="st2" cx="206" cy="685.6" r="2.6"/>
		<circle class="st2" cx="247.1" cy="282.4" r="2.6"/>
		<circle class="st2" cx="247.1" cy="329.8" r="2.6"/>
		<circle class="st2" cx="247.1" cy="377.3" r="2.6"/>
		<circle class="st2" cx="247.1" cy="424.7" r="2.6"/>
		<circle class="st2" cx="247.1" cy="472.2" r="2.6"/>
		<circle class="st2" cx="247.1" cy="519.6" r="2.6"/>
		<circle class="st2" cx="247.1" cy="567.1" r="2.6"/>
		<circle class="st2" cx="247.1" cy="614.5" r="2.6"/>
		<circle class="st2" cx="247.1" cy="662" r="2.6"/>
		<circle class="st2" cx="287.4" cy="305.2" r="2.6"/>
		<circle class="st2" cx="287.4" cy="352.7" r="2.6"/>
		<circle class="st2" cx="287.4" cy="400.1" r="2.6"/>
		<circle class="st2" cx="287.4" cy="447.6" r="2.6"/>
		<circle class="st2" cx="287.4" cy="495.1" r="2.6"/>
		<circle class="st2" cx="287.4" cy="542.5" r="2.6"/>
		<circle class="st2" cx="287.4" cy="590" r="2.6"/>
		<circle class="st2" cx="287.4" cy="637.4" r="2.6"/>
		<circle class="st2" cx="287.4" cy="684.9" r="2.6"/>
		<circle class="st2" cx="328.1" cy="282.1" r="2.6"/>
		<circle class="st2" cx="328.1" cy="329.5" r="2.6"/>
		<circle class="st2" cx="328.1" cy="377" r="2.6"/>
		<circle class="st2" cx="328.1" cy="424.4" r="2.6"/>
		<circle class="st2" cx="328.1" cy="471.9" r="2.6"/>
		<circle class="st2" cx="328.1" cy="519.3" r="2.6"/>
		<circle class="st2" cx="328.1" cy="566.8" r="2.6"/>
		<circle class="st2" cx="328.1" cy="614.2" r="2.6"/>
		<circle class="st2" cx="328.1" cy="661.7" r="2.6"/>
		<circle class="st2" cx="369.6" cy="306.1" r="2.6"/>
		<circle class="st2" cx="369.6" cy="353.6" r="2.6"/>
		<circle class="st2" cx="369.6" cy="401" r="2.6"/>
		<circle class="st2" cx="369.6" cy="448.5" r="2.6"/>
		<circle class="st2" cx="369.6" cy="495.9" r="2.6"/>
		<circle class="st2" cx="369.6" cy="543.4" r="2.6"/>
		<circle class="st2" cx="369.6" cy="590.8" r="2.6"/>
		<circle class="st2" cx="369.6" cy="638.3" r="2.6"/>
		<circle class="st2" cx="369.6" cy="685.7" r="2.6"/>
		<circle class="st2" cx="410.7" cy="282.4" r="2.6"/>
		<circle class="st2" cx="410.7" cy="329.9" r="2.6"/>
		<circle class="st2" cx="410.7" cy="377.3" r="2.6"/>
		<circle class="st2" cx="410.7" cy="424.8" r="2.6"/>
		<circle class="st2" cx="410.7" cy="472.2" r="2.6"/>
		<circle class="st2" cx="410.7" cy="519.7" r="2.6"/>
		<circle class="st2" cx="410.7" cy="567.2" r="2.6"/>
		<circle class="st2" cx="410.7" cy="614.6" r="2.6"/>
		<circle class="st2" cx="410.7" cy="662.1" r="2.6"/>
		<circle class="st2" cx="451" cy="305.3" r="2.6"/>
		<circle class="st2" cx="451" cy="352.8" r="2.6"/>
		<circle class="st2" cx="451" cy="400.2" r="2.6"/>
		<circle class="st2" cx="451" cy="447.7" r="2.6"/>
		<circle class="st2" cx="451" cy="495.1" r="2.6"/>
		<circle class="st2" cx="451" cy="542.6" r="2.6"/>
		<circle class="st2" cx="451" cy="590" r="2.6"/>
		<circle class="st2" cx="451" cy="637.5" r="2.6"/>
		<circle class="st2" cx="451" cy="684.9" r="2.6"/>
		<path class="st3" d="M33.7,358.9l-22.9,13.7c-3.3,2-3.3,6.8,0,8.7l23,13.4c4.5,2.7,10.1,2.7,14.7,0.1l23.6-13.5
			c3.4-1.9,3.4-6.8,0-8.8l-23.6-13.7C44.1,356.2,38.3,356.2,33.7,358.9z"/>
		<circle class="st2" cx="492.2" cy="281.7" r="2.6"/>
		<circle class="st2" cx="492.2" cy="329.2" r="2.6"/>
		<circle class="st2" cx="492.2" cy="376.6" r="2.6"/>
		<circle class="st2" cx="492.2" cy="424.1" r="2.6"/>
		<circle class="st2" cx="492.2" cy="471.5" r="2.6"/>
		<circle class="st2" cx="492.2" cy="519" r="2.6"/>
		<circle class="st2" cx="492.2" cy="566.4" r="2.6"/>
		<circle class="st2" cx="492.2" cy="613.9" r="2.6"/>
		<circle class="st2" cx="492.2" cy="661.3" r="2.6"/>
		<circle class="st2" cx="533.7" cy="305.8" r="2.6"/>
		<circle class="st2" cx="533.7" cy="353.2" r="2.6"/>
		<circle class="st2" cx="533.7" cy="400.7" r="2.6"/>
		<circle class="st2" cx="533.7" cy="448.1" r="2.6"/>
		<circle class="st2" cx="533.7" cy="495.6" r="2.6"/>
		<circle class="st2" cx="533.7" cy="543" r="2.6"/>
		<circle class="st2" cx="533.7" cy="590.5" r="2.6"/>
		<circle class="st2" cx="533.7" cy="637.9" r="2.6"/>
		<circle class="st2" cx="533.7" cy="685.4" r="2.6"/>
		<circle class="st2" cx="574.8" cy="282.1" r="2.6"/>
		<circle class="st2" cx="574.8" cy="329.6" r="2.6"/>
		<circle class="st2" cx="574.8" cy="377" r="2.6"/>
		<circle class="st2" cx="574.8" cy="424.5" r="2.6"/>
		<circle class="st2" cx="574.8" cy="471.9" r="2.6"/>
		<circle class="st2" cx="574.8" cy="519.4" r="2.6"/>
		<circle class="st2" cx="574.8" cy="566.8" r="2.6"/>
		<circle class="st2" cx="574.8" cy="614.3" r="2.6"/>
		<circle class="st2" cx="574.8" cy="661.7" r="2.6"/>
		<circle class="st2" cx="615.1" cy="305" r="2.6"/>
		<circle class="st2" cx="615.1" cy="352.4" r="2.6"/>
		<circle class="st2" cx="615.1" cy="399.9" r="2.6"/>
		<circle class="st2" cx="615.1" cy="447.3" r="2.6"/>
		<circle class="st2" cx="615.1" cy="494.8" r="2.6"/>
		<circle class="st2" cx="615.1" cy="542.2" r="2.6"/>
		<circle class="st2" cx="615.1" cy="589.7" r="2.6"/>
		<circle class="st2" cx="615.1" cy="637.2" r="2.6"/>
		<circle class="st2" cx="615.1" cy="684.6" r="2.6"/>
		<circle class="st2" cx="656.6" cy="281.6" r="2.6"/>
		<circle class="st2" cx="656.6" cy="329.1" r="2.6"/>
		<circle class="st2" cx="656.6" cy="376.5" r="2.6"/>
		<circle class="st2" cx="656.6" cy="424" r="2.6"/>
		<circle class="st2" cx="656.6" cy="471.4" r="2.6"/>
		<circle class="st2" cx="656.6" cy="518.9" r="2.6"/>
		<circle class="st2" cx="656.6" cy="566.3" r="2.6"/>
		<circle class="st2" cx="656.6" cy="613.8" r="2.6"/>
		<circle class="st2" cx="656.6" cy="661.2" r="2.6"/>
		<circle class="st2" cx="698.1" cy="305.7" r="2.6"/>
		<circle class="st2" cx="698.1" cy="353.1" r="2.6"/>
		<circle class="st2" cx="698.1" cy="400.6" r="2.6"/>
		<circle class="st2" cx="698.1" cy="448" r="2.6"/>
		<circle class="st2" cx="698.1" cy="495.5" r="2.6"/>
		<circle class="st2" cx="698.1" cy="543" r="2.6"/>
		<circle class="st2" cx="698.1" cy="590.4" r="2.6"/>
		<circle class="st2" cx="698.1" cy="637.9" r="2.6"/>
		<circle class="st2" cx="698.1" cy="685.3" r="2.6"/>
		<circle class="st2" cx="739.2" cy="282" r="2.6"/>
		<circle class="st2" cx="739.2" cy="329.5" r="2.6"/>
		<circle class="st2" cx="739.2" cy="376.9" r="2.6"/>
		<circle class="st2" cx="739.2" cy="424.4" r="2.6"/>
		<circle class="st2" cx="739.2" cy="471.8" r="2.6"/>
		<circle class="st2" cx="739.2" cy="519.3" r="2.6"/>
		<circle class="st2" cx="739.2" cy="566.7" r="2.6"/>
		<circle class="st2" cx="739.2" cy="614.2" r="2.6"/>
		<circle class="st2" cx="739.2" cy="661.6" r="2.6"/>
		<circle class="st2" cx="779.5" cy="304.9" r="2.6"/>
		<circle class="st2" cx="779.5" cy="352.4" r="2.6"/>
		<circle class="st2" cx="779.5" cy="399.8" r="2.6"/>
		<circle class="st2" cx="779.5" cy="447.3" r="2.6"/>
		<circle class="st2" cx="779.5" cy="494.7" r="2.6"/>
		<circle class="st2" cx="779.5" cy="542.2" r="2.6"/>
		<circle class="st2" cx="779.5" cy="589.6" r="2.6"/>
		<circle class="st2" cx="779.5" cy="637.1" r="2.6"/>
		<circle class="st2" cx="779.5" cy="684.5" r="2.6"/>
		<circle class="st2" cx="820.2" cy="281.7" r="2.6"/>
		<circle class="st2" cx="820.2" cy="329.2" r="2.6"/>
		<circle class="st2" cx="820.2" cy="376.6" r="2.6"/>
		<circle class="st2" cx="820.2" cy="424.1" r="2.6"/>
		<circle class="st2" cx="820.2" cy="471.5" r="2.6"/>
		<circle class="st2" cx="820.2" cy="519" r="2.6"/>
		<circle class="st2" cx="820.2" cy="566.4" r="2.6"/>
		<circle class="st2" cx="820.2" cy="613.9" r="2.6"/>
		<circle class="st2" cx="820.2" cy="661.3" r="2.6"/>
		<circle class="st2" cx="861.7" cy="305.8" r="2.6"/>
		<circle class="st2" cx="861.7" cy="353.2" r="2.6"/>
		<circle class="st2" cx="861.7" cy="400.7" r="2.6"/>
		<circle class="st2" cx="861.7" cy="448.1" r="2.6"/>
		<circle class="st2" cx="861.7" cy="495.6" r="2.6"/>
		<circle class="st2" cx="861.7" cy="543" r="2.6"/>
		<circle class="st2" cx="861.7" cy="590.5" r="2.6"/>
		<circle class="st2" cx="861.7" cy="637.9" r="2.6"/>
		<circle class="st2" cx="861.7" cy="685.4" r="2.6"/>
		<circle class="st2" cx="902.8" cy="282.1" r="2.6"/>
		<circle class="st2" cx="902.8" cy="329.6" r="2.6"/>
		<circle class="st2" cx="902.8" cy="377" r="2.6"/>
		<circle class="st2" cx="902.8" cy="424.5" r="2.6"/>
		<circle class="st2" cx="902.8" cy="471.9" r="2.6"/>
		<circle class="st2" cx="902.8" cy="519.4" r="2.6"/>
		<circle class="st2" cx="902.8" cy="566.8" r="2.6"/>
		<circle class="st2" cx="902.8" cy="614.3" r="2.6"/>
		<circle class="st2" cx="902.8" cy="661.7" r="2.6"/>
		<circle class="st2" cx="943.1" cy="305" r="2.6"/>
		<circle class="st2" cx="943.1" cy="352.4" r="2.6"/>
		<circle class="st2" cx="943.1" cy="399.9" r="2.6"/>
		<circle class="st2" cx="943.1" cy="447.3" r="2.6"/>
		<circle class="st2" cx="943.1" cy="494.8" r="2.6"/>
		<circle class="st2" cx="943.1" cy="542.2" r="2.6"/>
		<circle class="st2" cx="943.1" cy="589.7" r="2.6"/>
		<circle class="st2" cx="943.1" cy="637.2" r="2.6"/>
		<circle class="st2" cx="943.1" cy="684.6" r="2.6"/>
		<path class="st3" d="M525.9,358.6L503,372.3c-3.3,2-3.3,6.8,0,8.7l23,13.4c4.5,2.7,10.1,2.7,14.7,0.1l23.6-13.5
			c3.4-1.9,3.4-6.8,0-8.8l-23.6-13.7C536.2,355.8,530.5,355.9,525.9,358.6z"/>
		<circle class="st2" cx="-0.5" cy="708.6" r="2.6"/>
		<circle class="st2" cx="-0.5" cy="756.1" r="2.6"/>
		<circle class="st2" cx="-0.5" cy="803.5" r="2.6"/>
		<circle class="st2" cx="-0.5" cy="851" r="2.6"/>
		<circle class="st2" cx="-0.5" cy="898.4" r="2.6"/>
		<circle class="st2" cx="-0.5" cy="945.9" r="2.6"/>
		<circle class="st2" cx="-0.5" cy="993.3" r="2.6"/>
		<circle class="st2" cx="-0.5" cy="1040.8" r="2.6"/>
		<circle class="st2" cx="-0.5" cy="1088.2" r="2.6"/>
		<circle class="st2" cx="41.1" cy="732.7" r="2.6"/>
		<circle class="st2" cx="41.1" cy="780.2" r="2.6"/>
		<circle class="st2" cx="41.1" cy="827.6" r="2.6"/>
		<circle class="st2" cx="41.1" cy="875.1" r="2.6"/>
		<circle class="st2" cx="41.1" cy="922.5" r="2.6"/>
		<circle class="st2" cx="41.1" cy="970" r="2.6"/>
		<circle class="st2" cx="41.1" cy="1017.4" r="2.6"/>
		<circle class="st2" cx="41.1" cy="1064.9" r="2.6"/>
		<circle class="st2" cx="41.1" cy="1112.3" r="2.6"/>
		<circle class="st2" cx="82.2" cy="709" r="2.6"/>
		<circle class="st2" cx="82.2" cy="756.5" r="2.6"/>
		<circle class="st2" cx="82.2" cy="803.9" r="2.6"/>
		<circle class="st2" cx="82.2" cy="851.4" r="2.6"/>
		<circle class="st2" cx="82.2" cy="898.8" r="2.6"/>
		<circle class="st2" cx="82.2" cy="946.3" r="2.6"/>
		<circle class="st2" cx="82.2" cy="993.7" r="2.6"/>
		<circle class="st2" cx="82.2" cy="1041.2" r="2.6"/>
		<circle class="st2" cx="82.2" cy="1088.6" r="2.6"/>
		<circle class="st2" cx="122.5" cy="731.9" r="2.6"/>
		<circle class="st2" cx="122.5" cy="779.4" r="2.6"/>
		<circle class="st2" cx="122.5" cy="826.8" r="2.6"/>
		<circle class="st2" cx="122.5" cy="874.3" r="2.6"/>
		<circle class="st2" cx="122.5" cy="921.7" r="2.6"/>
		<circle class="st2" cx="122.5" cy="969.2" r="2.6"/>
		<circle class="st2" cx="122.5" cy="1016.6" r="2.6"/>
		<circle class="st2" cx="122.5" cy="1064.1" r="2.6"/>
		<circle class="st2" cx="122.5" cy="1111.5" r="2.6"/>
		<circle class="st2" cx="163.9" cy="708.5" r="2.6"/>
		<circle class="st2" cx="163.9" cy="756" r="2.6"/>
		<circle class="st2" cx="163.9" cy="803.5" r="2.6"/>
		<circle class="st2" cx="163.9" cy="850.9" r="2.6"/>
		<circle class="st2" cx="163.9" cy="898.4" r="2.6"/>
		<circle class="st2" cx="163.9" cy="945.8" r="2.6"/>
		<circle class="st2" cx="163.9" cy="993.3" r="2.6"/>
		<circle class="st2" cx="163.9" cy="1040.7" r="2.6"/>
		<circle class="st2" cx="163.9" cy="1088.2" r="2.6"/>
		<circle class="st2" cx="205.5" cy="732.6" r="2.6"/>
		<circle class="st2" cx="205.5" cy="780.1" r="2.6"/>
		<circle class="st2" cx="205.5" cy="827.5" r="2.6"/>
		<circle class="st2" cx="205.5" cy="875" r="2.6"/>
		<circle class="st2" cx="205.5" cy="922.4" r="2.6"/>
		<circle class="st2" cx="205.5" cy="969.9" r="2.6"/>
		<circle class="st2" cx="205.5" cy="1017.3" r="2.6"/>
		<circle class="st2" cx="205.5" cy="1064.8" r="2.6"/>
		<circle class="st2" cx="205.5" cy="1112.2" r="2.6"/>
		<circle class="st2" cx="246.6" cy="708.9" r="2.6"/>
		<circle class="st2" cx="246.6" cy="756.4" r="2.6"/>
		<circle class="st2" cx="246.6" cy="803.8" r="2.6"/>
		<circle class="st2" cx="246.6" cy="851.3" r="2.6"/>
		<circle class="st2" cx="246.6" cy="898.7" r="2.6"/>
		<circle class="st2" cx="246.6" cy="946.2" r="2.6"/>
		<circle class="st2" cx="246.6" cy="993.6" r="2.6"/>
		<circle class="st2" cx="246.6" cy="1041.1" r="2.6"/>
		<circle class="st2" cx="246.6" cy="1088.5" r="2.6"/>
		<circle class="st2" cx="286.9" cy="731.8" r="2.6"/>
		<circle class="st2" cx="286.9" cy="779.3" r="2.6"/>
		<circle class="st2" cx="286.9" cy="826.7" r="2.6"/>
		<circle class="st2" cx="286.9" cy="874.2" r="2.6"/>
		<circle class="st2" cx="286.9" cy="921.6" r="2.6"/>
		<circle class="st2" cx="286.9" cy="969.1" r="2.6"/>
		<circle class="st2" cx="286.9" cy="1016.5" r="2.6"/>
		<circle class="st2" cx="286.9" cy="1064" r="2.6"/>
		<circle class="st2" cx="286.9" cy="1111.4" r="2.6"/>
		<circle class="st2" cx="327.5" cy="708.6" r="2.6"/>
		<circle class="st2" cx="327.5" cy="756.1" r="2.6"/>
		<circle class="st2" cx="327.5" cy="803.5" r="2.6"/>
		<circle class="st2" cx="327.5" cy="851" r="2.6"/>
		<circle class="st2" cx="327.5" cy="898.4" r="2.6"/>
		<circle class="st2" cx="327.5" cy="945.9" r="2.6"/>
		<circle class="st2" cx="327.5" cy="993.3" r="2.6"/>
		<circle class="st2" cx="327.5" cy="1040.8" r="2.6"/>
		<circle class="st2" cx="327.5" cy="1088.2" r="2.6"/>
		<circle class="st2" cx="369.1" cy="732.7" r="2.6"/>
		<circle class="st2" cx="369.1" cy="780.2" r="2.6"/>
		<circle class="st2" cx="369.1" cy="827.6" r="2.6"/>
		<circle class="st2" cx="369.1" cy="875.1" r="2.6"/>
		<circle class="st2" cx="369.1" cy="922.5" r="2.6"/>
		<circle class="st2" cx="369.1" cy="970" r="2.6"/>
		<circle class="st2" cx="369.1" cy="1017.4" r="2.6"/>
		<circle class="st2" cx="369.1" cy="1064.9" r="2.6"/>
		<circle class="st2" cx="369.1" cy="1112.3" r="2.6"/>
		<circle class="st2" cx="410.2" cy="709" r="2.6"/>
		<circle class="st2" cx="410.2" cy="756.5" r="2.6"/>
		<circle class="st2" cx="410.2" cy="803.9" r="2.6"/>
		<circle class="st2" cx="410.2" cy="851.4" r="2.6"/>
		<circle class="st2" cx="410.2" cy="898.8" r="2.6"/>
		<circle class="st2" cx="410.2" cy="946.3" r="2.6"/>
		<circle class="st2" cx="410.2" cy="993.7" r="2.6"/>
		<circle class="st2" cx="410.2" cy="1041.2" r="2.6"/>
		<circle class="st2" cx="410.2" cy="1088.6" r="2.6"/>
		<circle class="st2" cx="450.5" cy="731.9" r="2.6"/>
		<circle class="st2" cx="450.5" cy="779.4" r="2.6"/>
		<circle class="st2" cx="450.5" cy="826.8" r="2.6"/>
		<circle class="st2" cx="450.5" cy="874.3" r="2.6"/>
		<circle class="st2" cx="450.5" cy="921.7" r="2.6"/>
		<circle class="st2" cx="450.5" cy="969.2" r="2.6"/>
		<circle class="st2" cx="450.5" cy="1016.6" r="2.6"/>
		<circle class="st2" cx="450.5" cy="1064.1" r="2.6"/>
		<circle class="st2" cx="450.5" cy="1111.5" r="2.6"/>
		<path class="st3" d="M33.2,785.5l-22.9,13.7c-3.3,2-3.3,6.8,0,8.7l23,13.4c4.5,2.7,10.1,2.7,14.7,0.1L71.7,808
			c3.4-1.9,3.4-6.8,0-8.8l-23.6-13.7C43.5,782.7,37.8,782.8,33.2,785.5z"/>
		<circle class="st2" cx="491.7" cy="708.3" r="2.6"/>
		<circle class="st2" cx="491.7" cy="755.7" r="2.6"/>
		<circle class="st2" cx="491.7" cy="803.2" r="2.6"/>
		<circle class="st2" cx="491.7" cy="850.6" r="2.6"/>
		<circle class="st2" cx="491.7" cy="898.1" r="2.6"/>
		<circle class="st2" cx="491.7" cy="945.6" r="2.6"/>
		<circle class="st2" cx="491.7" cy="993" r="2.6"/>
		<circle class="st2" cx="491.7" cy="1040.5" r="2.6"/>
		<circle class="st2" cx="491.7" cy="1087.9" r="2.6"/>
		<circle class="st2" cx="533.2" cy="732.4" r="2.6"/>
		<circle class="st2" cx="533.2" cy="779.8" r="2.6"/>
		<circle class="st2" cx="533.2" cy="827.3" r="2.6"/>
		<circle class="st2" cx="533.2" cy="874.7" r="2.6"/>
		<circle class="st2" cx="533.2" cy="922.2" r="2.6"/>
		<circle class="st2" cx="533.2" cy="969.6" r="2.6"/>
		<circle class="st2" cx="533.2" cy="1017.1" r="2.6"/>
		<circle class="st2" cx="533.2" cy="1064.5" r="2.6"/>
		<circle class="st2" cx="533.2" cy="1112" r="2.6"/>
		<circle class="st2" cx="574.3" cy="708.7" r="2.6"/>
		<circle class="st2" cx="574.3" cy="756.1" r="2.6"/>
		<circle class="st2" cx="574.3" cy="803.6" r="2.6"/>
		<circle class="st2" cx="574.3" cy="851" r="2.6"/>
		<circle class="st2" cx="574.3" cy="898.5" r="2.6"/>
		<circle class="st2" cx="574.3" cy="945.9" r="2.6"/>
		<circle class="st2" cx="574.3" cy="993.4" r="2.6"/>
		<circle class="st2" cx="574.3" cy="1040.8" r="2.6"/>
		<circle class="st2" cx="574.3" cy="1088.3" r="2.6"/>
		<circle class="st2" cx="614.6" cy="731.6" r="2.6"/>
		<circle class="st2" cx="614.6" cy="779" r="2.6"/>
		<circle class="st2" cx="614.6" cy="826.5" r="2.6"/>
		<circle class="st2" cx="614.6" cy="873.9" r="2.6"/>
		<circle class="st2" cx="614.6" cy="921.4" r="2.6"/>
		<circle class="st2" cx="614.6" cy="968.8" r="2.6"/>
		<circle class="st2" cx="614.6" cy="1016.3" r="2.6"/>
		<circle class="st2" cx="614.6" cy="1063.7" r="2.6"/>
		<circle class="st2" cx="614.6" cy="1111.2" r="2.6"/>
		<circle class="st2" cx="656.1" cy="708.2" r="2.6"/>
		<circle class="st2" cx="656.1" cy="755.7" r="2.6"/>
		<circle class="st2" cx="656.1" cy="803.1" r="2.6"/>
		<circle class="st2" cx="656.1" cy="850.6" r="2.6"/>
		<circle class="st2" cx="656.1" cy="898" r="2.6"/>
		<circle class="st2" cx="656.1" cy="945.5" r="2.6"/>
		<circle class="st2" cx="656.1" cy="992.9" r="2.6"/>
		<circle class="st2" cx="656.1" cy="1040.4" r="2.6"/>
		<circle class="st2" cx="656.1" cy="1087.8" r="2.6"/>
		<circle class="st2" cx="697.6" cy="732.3" r="2.6"/>
		<circle class="st2" cx="697.6" cy="779.7" r="2.6"/>
		<circle class="st2" cx="697.6" cy="827.2" r="2.6"/>
		<circle class="st2" cx="697.6" cy="874.6" r="2.6"/>
		<circle class="st2" cx="697.6" cy="922.1" r="2.6"/>
		<circle class="st2" cx="697.6" cy="969.5" r="2.6"/>
		<circle class="st2" cx="697.6" cy="1017" r="2.6"/>
		<circle class="st2" cx="697.6" cy="1064.4" r="2.6"/>
		<circle class="st2" cx="697.6" cy="1111.9" r="2.6"/>
		<circle class="st2" cx="738.7" cy="708.6" r="2.6"/>
		<circle class="st2" cx="738.7" cy="756.1" r="2.6"/>
		<circle class="st2" cx="738.7" cy="803.5" r="2.6"/>
		<circle class="st2" cx="738.7" cy="851" r="2.6"/>
		<circle class="st2" cx="738.7" cy="898.4" r="2.6"/>
		<circle class="st2" cx="738.7" cy="945.9" r="2.6"/>
		<circle class="st2" cx="738.7" cy="993.3" r="2.6"/>
		<circle class="st2" cx="738.7" cy="1040.8" r="2.6"/>
		<circle class="st2" cx="738.7" cy="1088.2" r="2.6"/>
		<circle class="st2" cx="779" cy="731.5" r="2.6"/>
		<circle class="st2" cx="779" cy="778.9" r="2.6"/>
		<circle class="st2" cx="779" cy="826.4" r="2.6"/>
		<circle class="st2" cx="779" cy="873.8" r="2.6"/>
		<circle class="st2" cx="779" cy="921.3" r="2.6"/>
		<circle class="st2" cx="779" cy="968.7" r="2.6"/>
		<circle class="st2" cx="779" cy="1016.2" r="2.6"/>
		<circle class="st2" cx="779" cy="1063.6" r="2.6"/>
		<circle class="st2" cx="779" cy="1111.1" r="2.6"/>
		<circle class="st2" cx="819.7" cy="708.3" r="2.6"/>
		<circle class="st2" cx="819.7" cy="755.7" r="2.6"/>
		<circle class="st2" cx="819.7" cy="803.2" r="2.6"/>
		<circle class="st2" cx="819.7" cy="850.6" r="2.6"/>
		<circle class="st2" cx="819.7" cy="898.1" r="2.6"/>
		<circle class="st2" cx="819.7" cy="945.6" r="2.6"/>
		<circle class="st2" cx="819.7" cy="993" r="2.6"/>
		<circle class="st2" cx="819.7" cy="1040.5" r="2.6"/>
		<circle class="st2" cx="819.7" cy="1087.9" r="2.6"/>
		<circle class="st2" cx="861.2" cy="732.4" r="2.6"/>
		<circle class="st2" cx="861.2" cy="779.8" r="2.6"/>
		<circle class="st2" cx="861.2" cy="827.3" r="2.6"/>
		<circle class="st2" cx="861.2" cy="874.7" r="2.6"/>
		<circle class="st2" cx="861.2" cy="922.2" r="2.6"/>
		<circle class="st2" cx="861.2" cy="969.6" r="2.6"/>
		<circle class="st2" cx="861.2" cy="1017.1" r="2.6"/>
		<circle class="st2" cx="861.2" cy="1064.5" r="2.6"/>
		<circle class="st2" cx="861.2" cy="1112" r="2.6"/>
		<circle class="st2" cx="902.3" cy="708.7" r="2.6"/>
		<circle class="st2" cx="902.3" cy="756.1" r="2.6"/>
		<circle class="st2" cx="902.3" cy="803.6" r="2.6"/>
		<circle class="st2" cx="902.3" cy="851" r="2.6"/>
		<circle class="st2" cx="902.3" cy="898.5" r="2.6"/>
		<circle class="st2" cx="902.3" cy="945.9" r="2.6"/>
		<circle class="st2" cx="902.3" cy="993.4" r="2.6"/>
		<circle class="st2" cx="902.3" cy="1040.8" r="2.6"/>
		<circle class="st2" cx="902.3" cy="1088.3" r="2.6"/>
		<circle class="st2" cx="942.6" cy="731.6" r="2.6"/>
		<circle class="st2" cx="942.6" cy="779" r="2.6"/>
		<circle class="st2" cx="942.6" cy="826.5" r="2.6"/>
		<circle class="st2" cx="942.6" cy="873.9" r="2.6"/>
		<circle class="st2" cx="942.6" cy="921.4" r="2.6"/>
		<circle class="st2" cx="942.6" cy="968.8" r="2.6"/>
		<circle class="st2" cx="942.6" cy="1016.3" r="2.6"/>
		<circle class="st2" cx="942.6" cy="1063.7" r="2.6"/>
		<circle class="st2" cx="942.6" cy="1111.2" r="2.6"/>
		<path class="st3" d="M525.3,785.2l-22.9,13.7c-3.3,2-3.3,6.8,0,8.7l23,13.4c4.5,2.7,10.1,2.7,14.7,0.1l23.6-13.5
			c3.4-1.9,3.4-6.8,0-8.8l-23.6-13.7C535.7,782.4,529.9,782.4,525.3,785.2z"/>
		<path class="st3" d="M567.8,334.4L544.9,348c-3.3,2-3.3,6.8,0,8.7l23,13.4c4.5,2.7,10.1,2.7,14.7,0.1l23.6-13.5
			c3.4-1.9,3.4-6.8,0-8.8l-23.6-13.7C578.1,331.6,572.4,331.6,567.8,334.4z"/>
		<path class="st3" d="M607.4,358.4l-22.9,13.7c-3.3,2-3.3,6.8,0,8.7l23,13.4c4.5,2.7,10.1,2.7,14.7,0.1l23.6-13.5
			c3.4-1.9,3.4-6.8,0-8.8l-23.6-13.7C617.7,355.6,612,355.6,607.4,358.4z"/>
		<path class="st3" d="M566.7,761.9l-22.9,13.7c-3.3,2-3.3,6.8,0,8.7l23,13.4c4.5,2.7,10.1,2.7,14.7,0.1l23.6-13.5
			c3.4-1.9,3.4-6.8,0-8.8l-23.6-13.7C577,759.1,571.3,759.1,566.7,761.9z"/>
		<path class="st3" d="M443,690.8l-22.9,13.7c-3.3,2-3.3,6.8,0,8.7l23,13.4c4.5,2.7,10.1,2.7,14.7,0.1l23.6-13.5
			c3.4-1.9,3.4-6.8,0-8.8l-23.6-13.7C453.3,688,447.6,688.1,443,690.8z"/>
	</g>
	<g class="st1">
		<circle class="st2" cx="982.7" cy="282.1" r="2.6"/>
		<circle class="st2" cx="982.7" cy="329.5" r="2.6"/>
		<circle class="st2" cx="982.7" cy="377" r="2.6"/>
		<circle class="st2" cx="982.7" cy="424.4" r="2.6"/>
		<circle class="st2" cx="982.7" cy="471.9" r="2.6"/>
		<circle class="st2" cx="982.7" cy="519.3" r="2.6"/>
		<circle class="st2" cx="982.7" cy="566.8" r="2.6"/>
		<circle class="st2" cx="982.7" cy="614.2" r="2.6"/>
		<circle class="st2" cx="982.7" cy="661.7" r="2.6"/>
		<circle class="st2" cx="1024.2" cy="306.1" r="2.6"/>
		<circle class="st2" cx="1024.2" cy="353.6" r="2.6"/>
		<circle class="st2" cx="1024.2" cy="401" r="2.6"/>
		<circle class="st2" cx="1024.2" cy="448.5" r="2.6"/>
		<circle class="st2" cx="1024.2" cy="495.9" r="2.6"/>
		<circle class="st2" cx="1024.2" cy="543.4" r="2.6"/>
		<circle class="st2" cx="1024.2" cy="590.8" r="2.6"/>
		<circle class="st2" cx="1024.2" cy="638.3" r="2.6"/>
		<circle class="st2" cx="1024.2" cy="685.7" r="2.6"/>
		<circle class="st2" cx="1065.3" cy="282.4" r="2.6"/>
		<circle class="st2" cx="1065.3" cy="329.9" r="2.6"/>
		<circle class="st2" cx="1065.3" cy="377.3" r="2.6"/>
		<circle class="st2" cx="1065.3" cy="424.8" r="2.6"/>
		<circle class="st2" cx="1065.3" cy="472.2" r="2.6"/>
		<circle class="st2" cx="1065.3" cy="519.7" r="2.6"/>
		<circle class="st2" cx="1065.3" cy="567.2" r="2.6"/>
		<circle class="st2" cx="1065.3" cy="614.6" r="2.6"/>
		<circle class="st2" cx="1065.3" cy="662.1" r="2.6"/>
		<circle class="st2" cx="1105.6" cy="305.3" r="2.6"/>
		<circle class="st2" cx="1105.6" cy="352.8" r="2.6"/>
		<circle class="st2" cx="1105.6" cy="400.2" r="2.6"/>
		<circle class="st2" cx="1105.6" cy="447.7" r="2.6"/>
		<circle class="st2" cx="1105.6" cy="495.1" r="2.6"/>
		<circle class="st2" cx="1105.6" cy="542.6" r="2.6"/>
		<circle class="st2" cx="1105.6" cy="590" r="2.6"/>
		<circle class="st2" cx="1105.6" cy="637.5" r="2.6"/>
		<circle class="st2" cx="1105.6" cy="684.9" r="2.6"/>
		<circle class="st2" cx="1147.1" cy="282" r="2.6"/>
		<circle class="st2" cx="1147.1" cy="329.4" r="2.6"/>
		<circle class="st2" cx="1147.1" cy="376.9" r="2.6"/>
		<circle class="st2" cx="1147.1" cy="424.3" r="2.6"/>
		<circle class="st2" cx="1147.1" cy="471.8" r="2.6"/>
		<circle class="st2" cx="1147.1" cy="519.2" r="2.6"/>
		<circle class="st2" cx="1147.1" cy="566.7" r="2.6"/>
		<circle class="st2" cx="1147.1" cy="614.1" r="2.6"/>
		<circle class="st2" cx="1147.1" cy="661.6" r="2.6"/>
		<circle class="st2" cx="1188.6" cy="306" r="2.6"/>
		<circle class="st2" cx="1188.6" cy="353.5" r="2.6"/>
		<circle class="st2" cx="1188.6" cy="400.9" r="2.6"/>
		<circle class="st2" cx="1188.6" cy="448.4" r="2.6"/>
		<circle class="st2" cx="1188.6" cy="495.8" r="2.6"/>
		<circle class="st2" cx="1188.6" cy="543.3" r="2.6"/>
		<circle class="st2" cx="1188.6" cy="590.7" r="2.6"/>
		<circle class="st2" cx="1188.6" cy="638.2" r="2.6"/>
		<circle class="st2" cx="1188.6" cy="685.6" r="2.6"/>
		<circle class="st2" cx="1229.7" cy="282.4" r="2.6"/>
		<circle class="st2" cx="1229.7" cy="329.8" r="2.6"/>
		<circle class="st2" cx="1229.7" cy="377.3" r="2.6"/>
		<circle class="st2" cx="1229.7" cy="424.7" r="2.6"/>
		<circle class="st2" cx="1229.7" cy="472.2" r="2.6"/>
		<circle class="st2" cx="1229.7" cy="519.6" r="2.6"/>
		<circle class="st2" cx="1229.7" cy="567.1" r="2.6"/>
		<circle class="st2" cx="1229.7" cy="614.5" r="2.6"/>
		<circle class="st2" cx="1229.7" cy="662" r="2.6"/>
		<circle class="st2" cx="1270" cy="305.2" r="2.6"/>
		<circle class="st2" cx="1270" cy="352.7" r="2.6"/>
		<circle class="st2" cx="1270" cy="400.1" r="2.6"/>
		<circle class="st2" cx="1270" cy="447.6" r="2.6"/>
		<circle class="st2" cx="1270" cy="495.1" r="2.6"/>
		<circle class="st2" cx="1270" cy="542.5" r="2.6"/>
		<circle class="st2" cx="1270" cy="590" r="2.6"/>
		<circle class="st2" cx="1270" cy="637.4" r="2.6"/>
		<circle class="st2" cx="1270" cy="684.9" r="2.6"/>
		<circle class="st2" cx="1310.7" cy="282.1" r="2.6"/>
		<circle class="st2" cx="1310.7" cy="329.5" r="2.6"/>
		<circle class="st2" cx="1310.7" cy="377" r="2.6"/>
		<circle class="st2" cx="1310.7" cy="424.4" r="2.6"/>
		<circle class="st2" cx="1310.7" cy="471.9" r="2.6"/>
		<circle class="st2" cx="1310.7" cy="519.3" r="2.6"/>
		<circle class="st2" cx="1310.7" cy="566.8" r="2.6"/>
		<circle class="st2" cx="1310.7" cy="614.2" r="2.6"/>
		<circle class="st2" cx="1310.7" cy="661.7" r="2.6"/>
		<circle class="st2" cx="1352.2" cy="306.1" r="2.6"/>
		<circle class="st2" cx="1352.2" cy="353.6" r="2.6"/>
		<circle class="st2" cx="1352.2" cy="401" r="2.6"/>
		<circle class="st2" cx="1352.2" cy="448.5" r="2.6"/>
		<circle class="st2" cx="1352.2" cy="495.9" r="2.6"/>
		<circle class="st2" cx="1352.2" cy="543.4" r="2.6"/>
		<circle class="st2" cx="1352.2" cy="590.8" r="2.6"/>
		<circle class="st2" cx="1352.2" cy="638.3" r="2.6"/>
		<circle class="st2" cx="1352.2" cy="685.7" r="2.6"/>
		<circle class="st2" cx="1393.3" cy="282.4" r="2.6"/>
		<circle class="st2" cx="1393.3" cy="329.9" r="2.6"/>
		<circle class="st2" cx="1393.3" cy="377.3" r="2.6"/>
		<circle class="st2" cx="1393.3" cy="424.8" r="2.6"/>
		<circle class="st2" cx="1393.3" cy="472.2" r="2.6"/>
		<circle class="st2" cx="1393.3" cy="519.7" r="2.6"/>
		<circle class="st2" cx="1393.3" cy="567.2" r="2.6"/>
		<circle class="st2" cx="1393.3" cy="614.6" r="2.6"/>
		<circle class="st2" cx="1393.3" cy="662.1" r="2.6"/>
		<circle class="st2" cx="1433.6" cy="305.3" r="2.6"/>
		<circle class="st2" cx="1433.6" cy="352.8" r="2.6"/>
		<circle class="st2" cx="1433.6" cy="400.2" r="2.6"/>
		<circle class="st2" cx="1433.6" cy="447.7" r="2.6"/>
		<circle class="st2" cx="1433.6" cy="495.1" r="2.6"/>
		<circle class="st2" cx="1433.6" cy="542.6" r="2.6"/>
		<circle class="st2" cx="1433.6" cy="590" r="2.6"/>
		<circle class="st2" cx="1433.6" cy="637.5" r="2.6"/>
		<circle class="st2" cx="1433.6" cy="684.9" r="2.6"/>
		<path class="st3" d="M1016.4,358.9l-22.9,13.7c-3.3,2-3.3,6.8,0,8.7l23,13.4c4.5,2.7,10.1,2.7,14.7,0.1l23.6-13.5
			c3.4-1.9,3.4-6.8,0-8.8l-23.6-13.7C1026.7,356.2,1021,356.2,1016.4,358.9z"/>
		<circle class="st2" cx="1474.8" cy="281.7" r="2.6"/>
		<circle class="st2" cx="1474.8" cy="329.2" r="2.6"/>
		<circle class="st2" cx="1474.8" cy="376.6" r="2.6"/>
		<circle class="st2" cx="1474.8" cy="424.1" r="2.6"/>
		<circle class="st2" cx="1474.8" cy="471.5" r="2.6"/>
		<circle class="st2" cx="1474.8" cy="519" r="2.6"/>
		<circle class="st2" cx="1474.8" cy="566.4" r="2.6"/>
		<circle class="st2" cx="1474.8" cy="613.9" r="2.6"/>
		<circle class="st2" cx="1474.8" cy="661.3" r="2.6"/>
		<circle class="st2" cx="1516.4" cy="305.8" r="2.6"/>
		<circle class="st2" cx="1516.4" cy="353.2" r="2.6"/>
		<circle class="st2" cx="1516.4" cy="400.7" r="2.6"/>
		<circle class="st2" cx="1516.4" cy="448.1" r="2.6"/>
		<circle class="st2" cx="1516.4" cy="495.6" r="2.6"/>
		<circle class="st2" cx="1516.4" cy="543" r="2.6"/>
		<circle class="st2" cx="1516.4" cy="590.5" r="2.6"/>
		<circle class="st2" cx="1516.4" cy="637.9" r="2.6"/>
		<circle class="st2" cx="1516.4" cy="685.4" r="2.6"/>
		<circle class="st2" cx="1557.5" cy="282.1" r="2.6"/>
		<circle class="st2" cx="1557.5" cy="329.6" r="2.6"/>
		<circle class="st2" cx="1557.5" cy="377" r="2.6"/>
		<circle class="st2" cx="1557.5" cy="424.5" r="2.6"/>
		<circle class="st2" cx="1557.5" cy="471.9" r="2.6"/>
		<circle class="st2" cx="1557.5" cy="519.4" r="2.6"/>
		<circle class="st2" cx="1557.5" cy="566.8" r="2.6"/>
		<circle class="st2" cx="1557.5" cy="614.3" r="2.6"/>
		<circle class="st2" cx="1557.5" cy="661.7" r="2.6"/>
		<circle class="st2" cx="1597.8" cy="305" r="2.6"/>
		<circle class="st2" cx="1597.8" cy="352.4" r="2.6"/>
		<circle class="st2" cx="1597.8" cy="399.9" r="2.6"/>
		<circle class="st2" cx="1597.8" cy="447.3" r="2.6"/>
		<circle class="st2" cx="1597.8" cy="494.8" r="2.6"/>
		<circle class="st2" cx="1597.8" cy="542.2" r="2.6"/>
		<circle class="st2" cx="1597.8" cy="589.7" r="2.6"/>
		<circle class="st2" cx="1597.8" cy="637.2" r="2.6"/>
		<circle class="st2" cx="1597.8" cy="684.6" r="2.6"/>
		<circle class="st2" cx="1639.2" cy="281.6" r="2.6"/>
		<circle class="st2" cx="1639.2" cy="329.1" r="2.6"/>
		<circle class="st2" cx="1639.2" cy="376.5" r="2.6"/>
		<circle class="st2" cx="1639.2" cy="424" r="2.6"/>
		<circle class="st2" cx="1639.2" cy="471.4" r="2.6"/>
		<circle class="st2" cx="1639.2" cy="518.9" r="2.6"/>
		<circle class="st2" cx="1639.2" cy="566.3" r="2.6"/>
		<circle class="st2" cx="1639.2" cy="613.8" r="2.6"/>
		<circle class="st2" cx="1639.2" cy="661.2" r="2.6"/>
		<circle class="st2" cx="1680.8" cy="305.7" r="2.6"/>
		<circle class="st2" cx="1680.8" cy="400.6" r="2.6"/>
		<circle class="st2" cx="1680.8" cy="448" r="2.6"/>
		<circle class="st2" cx="1680.8" cy="495.5" r="2.6"/>
		<circle class="st2" cx="1680.8" cy="543" r="2.6"/>
		<circle class="st2" cx="1680.8" cy="590.4" r="2.6"/>
		<circle class="st2" cx="1680.8" cy="637.9" r="2.6"/>
		<circle class="st2" cx="1680.8" cy="685.3" r="2.6"/>
		<circle class="st2" cx="1721.9" cy="282" r="2.6"/>
		<circle class="st2" cx="1721.9" cy="329.5" r="2.6"/>
		<circle class="st2" cx="1721.9" cy="376.9" r="2.6"/>
		<circle class="st2" cx="1721.9" cy="424.4" r="2.6"/>
		<circle class="st2" cx="1721.9" cy="471.8" r="2.6"/>
		<circle class="st2" cx="1721.9" cy="519.3" r="2.6"/>
		<circle class="st2" cx="1721.9" cy="566.7" r="2.6"/>
		<circle class="st2" cx="1721.9" cy="614.2" r="2.6"/>
		<circle class="st2" cx="1721.9" cy="661.6" r="2.6"/>
		<circle class="st2" cx="1762.2" cy="304.9" r="2.6"/>
		<circle class="st2" cx="1762.2" cy="352.4" r="2.6"/>
		<circle class="st2" cx="1762.2" cy="399.8" r="2.6"/>
		<circle class="st2" cx="1762.2" cy="447.3" r="2.6"/>
		<circle class="st2" cx="1762.2" cy="494.7" r="2.6"/>
		<circle class="st2" cx="1762.2" cy="542.2" r="2.6"/>
		<circle class="st2" cx="1762.2" cy="589.6" r="2.6"/>
		<circle class="st2" cx="1762.2" cy="637.1" r="2.6"/>
		<circle class="st2" cx="1762.2" cy="684.5" r="2.6"/>
		<circle class="st2" cx="1802.8" cy="281.7" r="2.6"/>
		<circle class="st2" cx="1802.8" cy="329.2" r="2.6"/>
		<circle class="st2" cx="1802.8" cy="376.6" r="2.6"/>
		<circle class="st2" cx="1802.8" cy="424.1" r="2.6"/>
		<circle class="st2" cx="1802.8" cy="471.5" r="2.6"/>
		<circle class="st2" cx="1802.8" cy="519" r="2.6"/>
		<circle class="st2" cx="1802.8" cy="566.4" r="2.6"/>
		<circle class="st2" cx="1802.8" cy="613.9" r="2.6"/>
		<circle class="st2" cx="1802.8" cy="661.3" r="2.6"/>
		<circle class="st2" cx="1844.4" cy="305.8" r="2.6"/>
		<circle class="st2" cx="1844.4" cy="353.2" r="2.6"/>
		<circle class="st2" cx="1844.4" cy="400.7" r="2.6"/>
		<circle class="st2" cx="1844.4" cy="448.1" r="2.6"/>
		<circle class="st2" cx="1844.4" cy="495.6" r="2.6"/>
		<circle class="st2" cx="1844.4" cy="543" r="2.6"/>
		<circle class="st2" cx="1844.4" cy="590.5" r="2.6"/>
		<circle class="st2" cx="1844.4" cy="637.9" r="2.6"/>
		<circle class="st2" cx="1844.4" cy="685.4" r="2.6"/>
		<circle class="st2" cx="1885.5" cy="282.1" r="2.6"/>
		<circle class="st2" cx="1885.5" cy="329.6" r="2.6"/>
		<circle class="st2" cx="1885.5" cy="377" r="2.6"/>
		<circle class="st2" cx="1885.5" cy="424.5" r="2.6"/>
		<circle class="st2" cx="1885.5" cy="471.9" r="2.6"/>
		<circle class="st2" cx="1885.5" cy="519.4" r="2.6"/>
		<circle class="st2" cx="1885.5" cy="566.8" r="2.6"/>
		<circle class="st2" cx="1885.5" cy="614.3" r="2.6"/>
		<circle class="st2" cx="1885.5" cy="661.7" r="2.6"/>
		<circle class="st2" cx="1925.8" cy="305" r="2.6"/>
		<circle class="st2" cx="1925.8" cy="352.4" r="2.6"/>
		<circle class="st2" cx="1925.8" cy="399.9" r="2.6"/>
		<circle class="st2" cx="1925.8" cy="447.3" r="2.6"/>
		<circle class="st2" cx="1925.8" cy="494.8" r="2.6"/>
		<circle class="st2" cx="1925.8" cy="542.2" r="2.6"/>
		<circle class="st2" cx="1925.8" cy="589.7" r="2.6"/>
		<circle class="st2" cx="1925.8" cy="637.2" r="2.6"/>
		<circle class="st2" cx="1925.8" cy="684.6" r="2.6"/>
		<path class="st3" d="M1508.5,358.6l-22.9,13.7c-3.3,2-3.3,6.8,0,8.7l23,13.4c4.5,2.7,10.1,2.7,14.7,0.1L1547,381
			c3.4-1.9,3.4-6.8,0-8.8l-23.6-13.7C1518.8,355.8,1513.1,355.9,1508.5,358.6z"/>
		<circle class="st2" cx="982.2" cy="708.6" r="2.6"/>
		<circle class="st2" cx="982.2" cy="756.1" r="2.6"/>
		<circle class="st2" cx="982.2" cy="803.5" r="2.6"/>
		<circle class="st2" cx="982.2" cy="851" r="2.6"/>
		<circle class="st2" cx="982.2" cy="898.4" r="2.6"/>
		<circle class="st2" cx="982.2" cy="945.9" r="2.6"/>
		<circle class="st2" cx="982.2" cy="993.3" r="2.6"/>
		<circle class="st2" cx="982.2" cy="1040.8" r="2.6"/>
		<circle class="st2" cx="982.2" cy="1088.2" r="2.6"/>
		<circle class="st2" cx="1023.7" cy="732.7" r="2.6"/>
		<circle class="st2" cx="1023.7" cy="780.2" r="2.6"/>
		<circle class="st2" cx="1023.7" cy="827.6" r="2.6"/>
		<circle class="st2" cx="1023.7" cy="875.1" r="2.6"/>
		<circle class="st2" cx="1023.7" cy="922.5" r="2.6"/>
		<circle class="st2" cx="1023.7" cy="970" r="2.6"/>
		<circle class="st2" cx="1023.7" cy="1017.4" r="2.6"/>
		<circle class="st2" cx="1023.7" cy="1064.9" r="2.6"/>
		<circle class="st2" cx="1023.7" cy="1112.3" r="2.6"/>
		<circle class="st2" cx="1064.8" cy="709" r="2.6"/>
		<circle class="st2" cx="1064.8" cy="756.5" r="2.6"/>
		<circle class="st2" cx="1064.8" cy="803.9" r="2.6"/>
		<circle class="st2" cx="1064.8" cy="851.4" r="2.6"/>
		<circle class="st2" cx="1064.8" cy="898.8" r="2.6"/>
		<circle class="st2" cx="1064.8" cy="946.3" r="2.6"/>
		<circle class="st2" cx="1064.8" cy="993.7" r="2.6"/>
		<circle class="st2" cx="1064.8" cy="1041.2" r="2.6"/>
		<circle class="st2" cx="1064.8" cy="1088.6" r="2.6"/>
		<circle class="st2" cx="1105.1" cy="731.9" r="2.6"/>
		<circle class="st2" cx="1105.1" cy="779.4" r="2.6"/>
		<circle class="st2" cx="1105.1" cy="826.8" r="2.6"/>
		<circle class="st2" cx="1105.1" cy="874.3" r="2.6"/>
		<circle class="st2" cx="1105.1" cy="921.7" r="2.6"/>
		<circle class="st2" cx="1105.1" cy="969.2" r="2.6"/>
		<circle class="st2" cx="1105.1" cy="1016.6" r="2.6"/>
		<circle class="st2" cx="1105.1" cy="1064.1" r="2.6"/>
		<circle class="st2" cx="1105.1" cy="1111.5" r="2.6"/>
		<circle class="st2" cx="1146.6" cy="708.5" r="2.6"/>
		<circle class="st2" cx="1146.6" cy="756" r="2.6"/>
		<circle class="st2" cx="1146.6" cy="803.5" r="2.6"/>
		<circle class="st2" cx="1146.6" cy="850.9" r="2.6"/>
		<circle class="st2" cx="1146.6" cy="898.4" r="2.6"/>
		<circle class="st2" cx="1146.6" cy="945.8" r="2.6"/>
		<circle class="st2" cx="1146.6" cy="993.3" r="2.6"/>
		<circle class="st2" cx="1146.6" cy="1040.7" r="2.6"/>
		<circle class="st2" cx="1146.6" cy="1088.2" r="2.6"/>
		<circle class="st2" cx="1188.1" cy="732.6" r="2.6"/>
		<circle class="st2" cx="1188.1" cy="780.1" r="2.6"/>
		<circle class="st2" cx="1188.1" cy="827.5" r="2.6"/>
		<circle class="st2" cx="1188.1" cy="875" r="2.6"/>
		<circle class="st2" cx="1188.1" cy="922.4" r="2.6"/>
		<circle class="st2" cx="1188.1" cy="969.9" r="2.6"/>
		<circle class="st2" cx="1188.1" cy="1017.3" r="2.6"/>
		<circle class="st2" cx="1188.1" cy="1064.8" r="2.6"/>
		<circle class="st2" cx="1188.1" cy="1112.2" r="2.6"/>
		<circle class="st2" cx="1229.2" cy="708.9" r="2.6"/>
		<circle class="st2" cx="1229.2" cy="756.4" r="2.6"/>
		<circle class="st2" cx="1229.2" cy="803.8" r="2.6"/>
		<circle class="st2" cx="1229.2" cy="851.3" r="2.6"/>
		<circle class="st2" cx="1229.2" cy="898.7" r="2.6"/>
		<circle class="st2" cx="1229.2" cy="946.2" r="2.6"/>
		<circle class="st2" cx="1229.2" cy="993.6" r="2.6"/>
		<circle class="st2" cx="1229.2" cy="1041.1" r="2.6"/>
		<circle class="st2" cx="1229.2" cy="1088.5" r="2.6"/>
		<circle class="st2" cx="1269.5" cy="731.8" r="2.6"/>
		<circle class="st2" cx="1269.5" cy="779.3" r="2.6"/>
		<circle class="st2" cx="1269.5" cy="826.7" r="2.6"/>
		<circle class="st2" cx="1269.5" cy="874.2" r="2.6"/>
		<circle class="st2" cx="1269.5" cy="921.6" r="2.6"/>
		<circle class="st2" cx="1269.5" cy="969.1" r="2.6"/>
		<circle class="st2" cx="1269.5" cy="1016.5" r="2.6"/>
		<circle class="st2" cx="1269.5" cy="1064" r="2.6"/>
		<circle class="st2" cx="1269.5" cy="1111.4" r="2.6"/>
		<circle class="st2" cx="1310.2" cy="708.6" r="2.6"/>
		<circle class="st2" cx="1310.2" cy="756.1" r="2.6"/>
		<circle class="st2" cx="1310.2" cy="803.5" r="2.6"/>
		<circle class="st2" cx="1310.2" cy="851" r="2.6"/>
		<circle class="st2" cx="1310.2" cy="898.4" r="2.6"/>
		<circle class="st2" cx="1310.2" cy="945.9" r="2.6"/>
		<circle class="st2" cx="1310.2" cy="993.3" r="2.6"/>
		<circle class="st2" cx="1310.2" cy="1040.8" r="2.6"/>
		<circle class="st2" cx="1310.2" cy="1088.2" r="2.6"/>
		<circle class="st2" cx="1351.7" cy="732.7" r="2.6"/>
		<circle class="st2" cx="1351.7" cy="780.2" r="2.6"/>
		<circle class="st2" cx="1351.7" cy="827.6" r="2.6"/>
		<circle class="st2" cx="1351.7" cy="875.1" r="2.6"/>
		<circle class="st2" cx="1351.7" cy="922.5" r="2.6"/>
		<circle class="st2" cx="1351.7" cy="970" r="2.6"/>
		<circle class="st2" cx="1351.7" cy="1017.4" r="2.6"/>
		<circle class="st2" cx="1351.7" cy="1064.9" r="2.6"/>
		<circle class="st2" cx="1351.7" cy="1112.3" r="2.6"/>
		<circle class="st2" cx="1392.8" cy="709" r="2.6"/>
		<circle class="st2" cx="1392.8" cy="756.5" r="2.6"/>
		<circle class="st2" cx="1392.8" cy="803.9" r="2.6"/>
		<circle class="st2" cx="1392.8" cy="851.4" r="2.6"/>
		<circle class="st2" cx="1392.8" cy="898.8" r="2.6"/>
		<circle class="st2" cx="1392.8" cy="946.3" r="2.6"/>
		<circle class="st2" cx="1392.8" cy="993.7" r="2.6"/>
		<circle class="st2" cx="1392.8" cy="1041.2" r="2.6"/>
		<circle class="st2" cx="1392.8" cy="1088.6" r="2.6"/>
		<circle class="st2" cx="1433.1" cy="731.9" r="2.6"/>
		<circle class="st2" cx="1433.1" cy="779.4" r="2.6"/>
		<circle class="st2" cx="1433.1" cy="826.8" r="2.6"/>
		<circle class="st2" cx="1433.1" cy="874.3" r="2.6"/>
		<circle class="st2" cx="1433.1" cy="921.7" r="2.6"/>
		<circle class="st2" cx="1433.1" cy="969.2" r="2.6"/>
		<circle class="st2" cx="1433.1" cy="1016.6" r="2.6"/>
		<circle class="st2" cx="1433.1" cy="1064.1" r="2.6"/>
		<circle class="st2" cx="1433.1" cy="1111.5" r="2.6"/>
		<path class="st3" d="M1015.9,785.5L993,799.2c-3.3,2-3.3,6.8,0,8.7l23,13.4c4.5,2.7,10.1,2.7,14.7,0.1l23.6-13.5
			c3.4-1.9,3.4-6.8,0-8.8l-23.6-13.7C1026.2,782.7,1020.5,782.8,1015.9,785.5z"/>
		<circle class="st2" cx="1474.3" cy="708.3" r="2.6"/>
		<circle class="st2" cx="1474.3" cy="755.7" r="2.6"/>
		<circle class="st2" cx="1474.3" cy="803.2" r="2.6"/>
		<circle class="st2" cx="1474.3" cy="850.6" r="2.6"/>
		<circle class="st2" cx="1474.3" cy="898.1" r="2.6"/>
		<circle class="st2" cx="1474.3" cy="945.6" r="2.6"/>
		<circle class="st2" cx="1474.3" cy="993" r="2.6"/>
		<circle class="st2" cx="1474.3" cy="1040.5" r="2.6"/>
		<circle class="st2" cx="1474.3" cy="1087.9" r="2.6"/>
		<circle class="st2" cx="1515.8" cy="732.4" r="2.6"/>
		<circle class="st2" cx="1515.8" cy="779.8" r="2.6"/>
		<circle class="st2" cx="1515.8" cy="827.3" r="2.6"/>
		<circle class="st2" cx="1515.8" cy="874.7" r="2.6"/>
		<circle class="st2" cx="1515.8" cy="922.2" r="2.6"/>
		<circle class="st2" cx="1515.8" cy="969.6" r="2.6"/>
		<circle class="st2" cx="1515.8" cy="1017.1" r="2.6"/>
		<circle class="st2" cx="1515.8" cy="1064.5" r="2.6"/>
		<circle class="st2" cx="1515.8" cy="1112" r="2.6"/>
		<circle class="st2" cx="1556.9" cy="708.7" r="2.6"/>
		<circle class="st2" cx="1556.9" cy="756.1" r="2.6"/>
		<circle class="st2" cx="1556.9" cy="803.6" r="2.6"/>
		<circle class="st2" cx="1556.9" cy="851" r="2.6"/>
		<circle class="st2" cx="1556.9" cy="898.5" r="2.6"/>
		<circle class="st2" cx="1556.9" cy="945.9" r="2.6"/>
		<circle class="st2" cx="1556.9" cy="993.4" r="2.6"/>
		<circle class="st2" cx="1556.9" cy="1040.8" r="2.6"/>
		<circle class="st2" cx="1556.9" cy="1088.3" r="2.6"/>
		<circle class="st2" cx="1597.2" cy="731.6" r="2.6"/>
		<circle class="st2" cx="1597.2" cy="779" r="2.6"/>
		<circle class="st2" cx="1597.2" cy="826.5" r="2.6"/>
		<circle class="st2" cx="1597.2" cy="873.9" r="2.6"/>
		<circle class="st2" cx="1597.2" cy="921.4" r="2.6"/>
		<circle class="st2" cx="1597.2" cy="968.8" r="2.6"/>
		<circle class="st2" cx="1597.2" cy="1016.3" r="2.6"/>
		<circle class="st2" cx="1597.2" cy="1063.7" r="2.6"/>
		<circle class="st2" cx="1597.2" cy="1111.2" r="2.6"/>
		<circle class="st2" cx="1638.7" cy="708.2" r="2.6"/>
		<circle class="st2" cx="1638.7" cy="755.7" r="2.6"/>
		<circle class="st2" cx="1638.7" cy="803.1" r="2.6"/>
		<circle class="st2" cx="1638.7" cy="850.6" r="2.6"/>
		<circle class="st2" cx="1638.7" cy="898" r="2.6"/>
		<circle class="st2" cx="1638.7" cy="945.5" r="2.6"/>
		<circle class="st2" cx="1638.7" cy="992.9" r="2.6"/>
		<circle class="st2" cx="1638.7" cy="1040.4" r="2.6"/>
		<circle class="st2" cx="1638.7" cy="1087.8" r="2.6"/>
		<circle class="st2" cx="1680.2" cy="732.3" r="2.6"/>
		<circle class="st2" cx="1680.2" cy="779.7" r="2.6"/>
		<circle class="st2" cx="1680.2" cy="827.2" r="2.6"/>
		<circle class="st2" cx="1680.2" cy="874.6" r="2.6"/>
		<circle class="st2" cx="1680.2" cy="922.1" r="2.6"/>
		<circle class="st2" cx="1680.2" cy="969.5" r="2.6"/>
		<circle class="st2" cx="1680.2" cy="1017" r="2.6"/>
		<circle class="st2" cx="1680.2" cy="1064.4" r="2.6"/>
		<circle class="st2" cx="1680.2" cy="1111.9" r="2.6"/>
		<circle class="st2" cx="1721.3" cy="708.6" r="2.6"/>
		<circle class="st2" cx="1721.3" cy="756.1" r="2.6"/>
		<circle class="st2" cx="1721.3" cy="803.5" r="2.6"/>
		<circle class="st2" cx="1721.3" cy="851" r="2.6"/>
		<circle class="st2" cx="1721.3" cy="898.4" r="2.6"/>
		<circle class="st2" cx="1721.3" cy="945.9" r="2.6"/>
		<circle class="st2" cx="1721.3" cy="993.3" r="2.6"/>
		<circle class="st2" cx="1721.3" cy="1040.8" r="2.6"/>
		<circle class="st2" cx="1721.3" cy="1088.2" r="2.6"/>
		<circle class="st2" cx="1761.6" cy="731.5" r="2.6"/>
		<circle class="st2" cx="1761.6" cy="778.9" r="2.6"/>
		<circle class="st2" cx="1761.6" cy="826.4" r="2.6"/>
		<circle class="st2" cx="1761.6" cy="873.8" r="2.6"/>
		<circle class="st2" cx="1761.6" cy="921.3" r="2.6"/>
		<circle class="st2" cx="1761.6" cy="968.7" r="2.6"/>
		<circle class="st2" cx="1761.6" cy="1016.2" r="2.6"/>
		<circle class="st2" cx="1761.6" cy="1063.6" r="2.6"/>
		<circle class="st2" cx="1761.6" cy="1111.1" r="2.6"/>
		<circle class="st2" cx="1802.3" cy="708.3" r="2.6"/>
		<circle class="st2" cx="1802.3" cy="755.7" r="2.6"/>
		<circle class="st2" cx="1802.3" cy="803.2" r="2.6"/>
		<circle class="st2" cx="1802.3" cy="850.6" r="2.6"/>
		<circle class="st2" cx="1802.3" cy="898.1" r="2.6"/>
		<circle class="st2" cx="1802.3" cy="945.6" r="2.6"/>
		<circle class="st2" cx="1802.3" cy="993" r="2.6"/>
		<circle class="st2" cx="1802.3" cy="1040.5" r="2.6"/>
		<circle class="st2" cx="1802.3" cy="1087.9" r="2.6"/>
		<circle class="st2" cx="1843.8" cy="732.4" r="2.6"/>
		<circle class="st2" cx="1843.8" cy="779.8" r="2.6"/>
		<circle class="st2" cx="1843.8" cy="827.3" r="2.6"/>
		<circle class="st2" cx="1843.8" cy="874.7" r="2.6"/>
		<circle class="st2" cx="1843.8" cy="922.2" r="2.6"/>
		<circle class="st2" cx="1843.8" cy="969.6" r="2.6"/>
		<circle class="st2" cx="1843.8" cy="1017.1" r="2.6"/>
		<circle class="st2" cx="1843.8" cy="1064.5" r="2.6"/>
		<circle class="st2" cx="1843.8" cy="1112" r="2.6"/>
		<circle class="st2" cx="1884.9" cy="708.7" r="2.6"/>
		<circle class="st2" cx="1884.9" cy="756.1" r="2.6"/>
		<circle class="st2" cx="1884.9" cy="803.6" r="2.6"/>
		<circle class="st2" cx="1884.9" cy="851" r="2.6"/>
		<circle class="st2" cx="1884.9" cy="898.5" r="2.6"/>
		<circle class="st2" cx="1884.9" cy="945.9" r="2.6"/>
		<circle class="st2" cx="1884.9" cy="993.4" r="2.6"/>
		<circle class="st2" cx="1884.9" cy="1040.8" r="2.6"/>
		<circle class="st2" cx="1884.9" cy="1088.3" r="2.6"/>
		<circle class="st2" cx="1925.2" cy="731.6" r="2.6"/>
		<circle class="st2" cx="1925.2" cy="779" r="2.6"/>
		<circle class="st2" cx="1925.2" cy="826.5" r="2.6"/>
		<circle class="st2" cx="1925.2" cy="873.9" r="2.6"/>
		<circle class="st2" cx="1925.2" cy="921.4" r="2.6"/>
		<circle class="st2" cx="1925.2" cy="968.8" r="2.6"/>
		<circle class="st2" cx="1925.2" cy="1016.3" r="2.6"/>
		<circle class="st2" cx="1925.2" cy="1063.7" r="2.6"/>
		<circle class="st2" cx="1925.2" cy="1111.2" r="2.6"/>
		<path class="st3" d="M1508,785.2l-22.9,13.7c-3.3,2-3.3,6.8,0,8.7l23,13.4c4.5,2.7,10.1,2.7,14.7,0.1l23.6-13.5
			c3.4-1.9,3.4-6.8,0-8.8l-23.6-13.7C1518.3,782.4,1512.6,782.4,1508,785.2z"/>
		<path class="st3" d="M1550.5,334.4l-22.9,13.7c-3.3,2-3.3,6.8,0,8.7l23,13.4c4.5,2.7,10.1,2.7,14.7,0.1l23.6-13.5
			c3.4-1.9,3.4-6.8,0-8.8l-23.6-13.7C1560.8,331.6,1555.1,331.6,1550.5,334.4z"/>
		<path class="st3" d="M1590,358.4l-22.9,13.7c-3.3,2-3.3,6.8,0,8.7l23,13.4c4.5,2.7,10.1,2.7,14.7,0.1l23.6-13.5
			c3.4-1.9,3.4-6.8,0-8.8l-23.6-13.7C1600.3,355.6,1594.6,355.6,1590,358.4z"/>
		<path class="st3" d="M1549.3,761.9l-22.9,13.7c-3.3,2-3.3,6.8,0,8.7l23,13.4c4.5,2.7,10.1,2.7,14.7,0.1l23.6-13.5
			c3.4-1.9,3.4-6.8,0-8.8l-23.6-13.7C1559.6,759.1,1553.9,759.1,1549.3,761.9z"/>
		<path class="st3" d="M1425.6,690.8l-22.9,13.7c-3.3,2-3.3,6.8,0,8.7l23,13.4c4.5,2.7,10.1,2.7,14.7,0.1l23.6-13.5
			c3.4-1.9,3.4-6.8,0-8.8l-23.6-13.7C1435.9,688,1430.2,688.1,1425.6,690.8z"/>
		<circle class="st2" cx="1680.9" cy="352.9" r="2.6"/>
	</g>
	<g class="st1">
		<circle class="st2" cx="-0.9" cy="-48" r="2.6"/>
		<circle class="st2" cx="-0.9" cy="-0.5" r="2.6"/>
		<circle class="st2" cx="-0.9" cy="46.9" r="2.6"/>
		<circle class="st2" cx="-0.9" cy="94.4" r="2.6"/>
		<circle class="st2" cx="-0.9" cy="141.8" r="2.6"/>
		<circle class="st2" cx="-0.9" cy="189.3" r="2.6"/>
		<circle class="st2" cx="-0.9" cy="236.7" r="2.6"/>
		<circle class="st2" cx="40.6" cy="-71.4" r="2.6"/>
		<circle class="st2" cx="40.6" cy="-23.9" r="2.6"/>
		<circle class="st2" cx="40.6" cy="23.5" r="2.6"/>
		<circle class="st2" cx="40.6" cy="71" r="2.6"/>
		<circle class="st2" cx="40.6" cy="118.4" r="2.6"/>
		<circle class="st2" cx="40.6" cy="165.9" r="2.6"/>
		<circle class="st2" cx="40.6" cy="213.3" r="2.6"/>
		<circle class="st2" cx="40.6" cy="260.8" r="2.6"/>
		<circle class="st2" cx="81.7" cy="-47.6" r="2.6"/>
		<circle class="st2" cx="81.7" cy="-0.1" r="2.6"/>
		<circle class="st2" cx="81.7" cy="47.3" r="2.6"/>
		<circle class="st2" cx="81.7" cy="94.8" r="2.6"/>
		<circle class="st2" cx="81.7" cy="142.2" r="2.6"/>
		<circle class="st2" cx="81.7" cy="189.7" r="2.6"/>
		<circle class="st2" cx="81.7" cy="237.1" r="2.6"/>
		<circle class="st2" cx="122" cy="-72.1" r="2.6"/>
		<circle class="st2" cx="122" cy="-24.7" r="2.6"/>
		<circle class="st2" cx="122" cy="22.8" r="2.6"/>
		<circle class="st2" cx="122" cy="70.2" r="2.6"/>
		<circle class="st2" cx="122" cy="117.7" r="2.6"/>
		<circle class="st2" cx="122" cy="165.1" r="2.6"/>
		<circle class="st2" cx="122" cy="212.6" r="2.6"/>
		<circle class="st2" cx="122" cy="260" r="2.6"/>
		<circle class="st2" cx="163.5" cy="-48.1" r="2.6"/>
		<circle class="st2" cx="163.5" cy="-0.6" r="2.6"/>
		<circle class="st2" cx="163.5" cy="46.8" r="2.6"/>
		<circle class="st2" cx="163.5" cy="94.3" r="2.6"/>
		<circle class="st2" cx="163.5" cy="141.7" r="2.6"/>
		<circle class="st2" cx="163.5" cy="189.2" r="2.6"/>
		<circle class="st2" cx="163.5" cy="236.6" r="2.6"/>
		<circle class="st2" cx="205" cy="-71.4" r="2.6"/>
		<circle class="st2" cx="205" cy="-24" r="2.6"/>
		<circle class="st2" cx="205" cy="23.5" r="2.6"/>
		<circle class="st2" cx="205" cy="70.9" r="2.6"/>
		<circle class="st2" cx="205" cy="118.4" r="2.6"/>
		<circle class="st2" cx="205" cy="165.8" r="2.6"/>
		<circle class="st2" cx="205" cy="213.3" r="2.6"/>
		<circle class="st2" cx="205" cy="260.7" r="2.6"/>
		<circle class="st2" cx="246.1" cy="-47.7" r="2.6"/>
		<circle class="st2" cx="246.1" cy="-0.2" r="2.6"/>
		<circle class="st2" cx="246.1" cy="47.2" r="2.6"/>
		<circle class="st2" cx="246.1" cy="94.7" r="2.6"/>
		<circle class="st2" cx="246.1" cy="142.1" r="2.6"/>
		<circle class="st2" cx="246.1" cy="189.6" r="2.6"/>
		<circle class="st2" cx="246.1" cy="237" r="2.6"/>
		<circle class="st2" cx="286.4" cy="-72.2" r="2.6"/>
		<circle class="st2" cx="286.4" cy="-24.8" r="2.6"/>
		<circle class="st2" cx="286.4" cy="22.7" r="2.6"/>
		<circle class="st2" cx="286.4" cy="70.1" r="2.6"/>
		<circle class="st2" cx="286.4" cy="117.6" r="2.6"/>
		<circle class="st2" cx="286.4" cy="165" r="2.6"/>
		<circle class="st2" cx="286.4" cy="212.5" r="2.6"/>
		<circle class="st2" cx="286.4" cy="259.9" r="2.6"/>
		<circle class="st2" cx="327.1" cy="-48" r="2.6"/>
		<circle class="st2" cx="327.1" cy="-0.5" r="2.6"/>
		<circle class="st2" cx="327.1" cy="46.9" r="2.6"/>
		<circle class="st2" cx="327.1" cy="94.4" r="2.6"/>
		<circle class="st2" cx="327.1" cy="141.8" r="2.6"/>
		<circle class="st2" cx="327.1" cy="189.3" r="2.6"/>
		<circle class="st2" cx="327.1" cy="236.7" r="2.6"/>
		<circle class="st2" cx="368.6" cy="-71.4" r="2.6"/>
		<circle class="st2" cx="368.6" cy="-23.9" r="2.6"/>
		<circle class="st2" cx="368.6" cy="23.5" r="2.6"/>
		<circle class="st2" cx="368.6" cy="71" r="2.6"/>
		<circle class="st2" cx="368.6" cy="118.4" r="2.6"/>
		<circle class="st2" cx="368.6" cy="165.9" r="2.6"/>
		<circle class="st2" cx="368.6" cy="213.3" r="2.6"/>
		<circle class="st2" cx="368.6" cy="260.8" r="2.6"/>
		<circle class="st2" cx="409.7" cy="-47.6" r="2.6"/>
		<circle class="st2" cx="409.7" cy="-0.1" r="2.6"/>
		<circle class="st2" cx="409.7" cy="47.3" r="2.6"/>
		<circle class="st2" cx="409.7" cy="94.8" r="2.6"/>
		<circle class="st2" cx="409.7" cy="142.2" r="2.6"/>
		<circle class="st2" cx="409.7" cy="189.7" r="2.6"/>
		<circle class="st2" cx="409.7" cy="237.1" r="2.6"/>
		<circle class="st2" cx="450" cy="-72.1" r="2.6"/>
		<circle class="st2" cx="450" cy="-24.7" r="2.6"/>
		<circle class="st2" cx="450" cy="22.8" r="2.6"/>
		<circle class="st2" cx="450" cy="70.2" r="2.6"/>
		<circle class="st2" cx="450" cy="117.7" r="2.6"/>
		<circle class="st2" cx="450" cy="165.1" r="2.6"/>
		<circle class="st2" cx="450" cy="212.6" r="2.6"/>
		<circle class="st2" cx="450" cy="260" r="2.6"/>
		<path class="st3" d="M32.8-66L9.9-52.3c-3.3,2-3.3,6.8,0,8.7l23,13.4c4.5,2.7,10.1,2.7,14.7,0.1l23.6-13.5c3.4-1.9,3.4-6.8,0-8.8
			L47.7-66.1C43.1-68.8,37.4-68.7,32.8-66z"/>
		<circle class="st2" cx="491.2" cy="-48.3" r="2.6"/>
		<circle class="st2" cx="491.2" cy="-0.9" r="2.6"/>
		<circle class="st2" cx="491.2" cy="46.6" r="2.6"/>
		<circle class="st2" cx="491.2" cy="94" r="2.6"/>
		<circle class="st2" cx="491.2" cy="141.5" r="2.6"/>
		<circle class="st2" cx="491.2" cy="188.9" r="2.6"/>
		<circle class="st2" cx="491.2" cy="236.4" r="2.6"/>
		<circle class="st2" cx="532.8" cy="-71.7" r="2.6"/>
		<circle class="st2" cx="532.8" cy="-24.2" r="2.6"/>
		<circle class="st2" cx="532.8" cy="23.2" r="2.6"/>
		<circle class="st2" cx="532.8" cy="70.7" r="2.6"/>
		<circle class="st2" cx="532.8" cy="118.1" r="2.6"/>
		<circle class="st2" cx="532.8" cy="165.6" r="2.6"/>
		<circle class="st2" cx="532.8" cy="213" r="2.6"/>
		<circle class="st2" cx="532.8" cy="260.5" r="2.6"/>
		<circle class="st2" cx="573.9" cy="-47.9" r="2.6"/>
		<circle class="st2" cx="573.9" cy="-0.5" r="2.6"/>
		<circle class="st2" cx="573.9" cy="47" r="2.6"/>
		<circle class="st2" cx="573.9" cy="94.4" r="2.6"/>
		<circle class="st2" cx="573.9" cy="141.9" r="2.6"/>
		<circle class="st2" cx="573.9" cy="189.3" r="2.6"/>
		<circle class="st2" cx="573.9" cy="236.8" r="2.6"/>
		<circle class="st2" cx="614.2" cy="-72.5" r="2.6"/>
		<circle class="st2" cx="614.2" cy="-25" r="2.6"/>
		<circle class="st2" cx="614.2" cy="22.4" r="2.6"/>
		<circle class="st2" cx="614.2" cy="69.9" r="2.6"/>
		<circle class="st2" cx="614.2" cy="117.3" r="2.6"/>
		<circle class="st2" cx="614.2" cy="164.8" r="2.6"/>
		<circle class="st2" cx="614.2" cy="212.2" r="2.6"/>
		<circle class="st2" cx="614.2" cy="259.7" r="2.6"/>
		<circle class="st2" cx="655.6" cy="-48.4" r="2.6"/>
		<circle class="st2" cx="655.6" cy="-1" r="2.6"/>
		<circle class="st2" cx="655.6" cy="46.5" r="2.6"/>
		<circle class="st2" cx="655.6" cy="93.9" r="2.6"/>
		<circle class="st2" cx="655.6" cy="141.4" r="2.6"/>
		<circle class="st2" cx="655.6" cy="188.8" r="2.6"/>
		<circle class="st2" cx="655.6" cy="236.3" r="2.6"/>
		<circle class="st2" cx="697.1" cy="-71.8" r="2.6"/>
		<circle class="st2" cx="697.1" cy="-24.3" r="2.6"/>
		<circle class="st2" cx="697.1" cy="23.1" r="2.6"/>
		<circle class="st2" cx="697.1" cy="70.6" r="2.6"/>
		<circle class="st2" cx="697.1" cy="118" r="2.6"/>
		<circle class="st2" cx="697.1" cy="165.5" r="2.6"/>
		<circle class="st2" cx="697.1" cy="212.9" r="2.6"/>
		<circle class="st2" cx="697.1" cy="260.4" r="2.6"/>
		<circle class="st2" cx="738.2" cy="-48" r="2.6"/>
		<circle class="st2" cx="738.2" cy="-0.6" r="2.6"/>
		<circle class="st2" cx="738.2" cy="46.9" r="2.6"/>
		<circle class="st2" cx="738.2" cy="94.3" r="2.6"/>
		<circle class="st2" cx="738.2" cy="141.8" r="2.6"/>
		<circle class="st2" cx="738.2" cy="189.2" r="2.6"/>
		<circle class="st2" cx="738.2" cy="236.7" r="2.6"/>
		<circle class="st2" cx="778.6" cy="-72.6" r="2.6"/>
		<circle class="st2" cx="778.6" cy="-25.1" r="2.6"/>
		<circle class="st2" cx="778.6" cy="22.3" r="2.6"/>
		<circle class="st2" cx="778.6" cy="69.8" r="2.6"/>
		<circle class="st2" cx="778.6" cy="117.2" r="2.6"/>
		<circle class="st2" cx="778.6" cy="164.7" r="2.6"/>
		<circle class="st2" cx="778.6" cy="212.1" r="2.6"/>
		<circle class="st2" cx="778.6" cy="259.6" r="2.6"/>
		<circle class="st2" cx="819.2" cy="-48.3" r="2.6"/>
		<circle class="st2" cx="819.2" cy="-0.9" r="2.6"/>
		<circle class="st2" cx="819.2" cy="46.6" r="2.6"/>
		<circle class="st2" cx="819.2" cy="94" r="2.6"/>
		<circle class="st2" cx="819.2" cy="141.5" r="2.6"/>
		<circle class="st2" cx="819.2" cy="188.9" r="2.6"/>
		<circle class="st2" cx="819.2" cy="236.4" r="2.6"/>
		<circle class="st2" cx="860.8" cy="-71.7" r="2.6"/>
		<circle class="st2" cx="860.8" cy="-24.2" r="2.6"/>
		<circle class="st2" cx="860.8" cy="23.2" r="2.6"/>
		<circle class="st2" cx="860.8" cy="70.7" r="2.6"/>
		<circle class="st2" cx="860.8" cy="118.1" r="2.6"/>
		<circle class="st2" cx="860.8" cy="165.6" r="2.6"/>
		<circle class="st2" cx="860.8" cy="213" r="2.6"/>
		<circle class="st2" cx="860.8" cy="260.5" r="2.6"/>
		<circle class="st2" cx="901.8" cy="-47.9" r="2.6"/>
		<circle class="st2" cx="901.8" cy="-0.5" r="2.6"/>
		<circle class="st2" cx="901.8" cy="47" r="2.6"/>
		<circle class="st2" cx="901.8" cy="94.4" r="2.6"/>
		<circle class="st2" cx="901.8" cy="141.9" r="2.6"/>
		<circle class="st2" cx="901.8" cy="189.3" r="2.6"/>
		<circle class="st2" cx="901.8" cy="236.8" r="2.6"/>
		<circle class="st2" cx="942.2" cy="-72.5" r="2.6"/>
		<circle class="st2" cx="942.2" cy="-25" r="2.6"/>
		<circle class="st2" cx="942.2" cy="22.4" r="2.6"/>
		<circle class="st2" cx="942.2" cy="69.9" r="2.6"/>
		<circle class="st2" cx="942.2" cy="117.3" r="2.6"/>
		<circle class="st2" cx="942.2" cy="164.8" r="2.6"/>
		<circle class="st2" cx="942.2" cy="212.2" r="2.6"/>
		<circle class="st2" cx="942.2" cy="259.7" r="2.6"/>
		<path class="st3" d="M524.9-66.3L502-52.7c-3.3,2-3.3,6.8,0,8.7l23,13.4c4.5,2.7,10.1,2.7,14.7,0.1l23.6-13.5
			c3.4-1.9,3.4-6.8,0-8.8l-23.6-13.7C535.2-69.1,529.5-69.1,524.9-66.3z"/>
		<circle class="st2" cx="981.8" cy="-48" r="2.6"/>
		<circle class="st2" cx="981.8" cy="-0.5" r="2.6"/>
		<circle class="st2" cx="981.8" cy="46.9" r="2.6"/>
		<circle class="st2" cx="981.8" cy="94.4" r="2.6"/>
		<circle class="st2" cx="981.8" cy="141.8" r="2.6"/>
		<circle class="st2" cx="981.8" cy="189.3" r="2.6"/>
		<circle class="st2" cx="981.8" cy="236.7" r="2.6"/>
		<circle class="st2" cx="1023.3" cy="-71.4" r="2.6"/>
		<circle class="st2" cx="1023.3" cy="-23.9" r="2.6"/>
		<circle class="st2" cx="1023.3" cy="23.5" r="2.6"/>
		<circle class="st2" cx="1023.3" cy="71" r="2.6"/>
		<circle class="st2" cx="1023.3" cy="118.4" r="2.6"/>
		<circle class="st2" cx="1023.3" cy="165.9" r="2.6"/>
		<circle class="st2" cx="1023.3" cy="213.3" r="2.6"/>
		<circle class="st2" cx="1023.3" cy="260.8" r="2.6"/>
		<circle class="st2" cx="1064.4" cy="-47.6" r="2.6"/>
		<circle class="st2" cx="1064.4" cy="-0.1" r="2.6"/>
		<circle class="st2" cx="1064.4" cy="47.3" r="2.6"/>
		<circle class="st2" cx="1064.4" cy="94.8" r="2.6"/>
		<circle class="st2" cx="1064.4" cy="142.2" r="2.6"/>
		<circle class="st2" cx="1064.4" cy="189.7" r="2.6"/>
		<circle class="st2" cx="1064.4" cy="237.1" r="2.6"/>
		<circle class="st2" cx="1104.7" cy="-72.1" r="2.6"/>
		<circle class="st2" cx="1104.7" cy="-24.7" r="2.6"/>
		<circle class="st2" cx="1104.7" cy="22.8" r="2.6"/>
		<circle class="st2" cx="1104.7" cy="70.2" r="2.6"/>
		<circle class="st2" cx="1104.7" cy="117.7" r="2.6"/>
		<circle class="st2" cx="1104.7" cy="165.1" r="2.6"/>
		<circle class="st2" cx="1104.7" cy="212.6" r="2.6"/>
		<circle class="st2" cx="1104.7" cy="260" r="2.6"/>
		<circle class="st2" cx="1146.2" cy="-48.1" r="2.6"/>
		<circle class="st2" cx="1146.2" cy="-0.6" r="2.6"/>
		<circle class="st2" cx="1146.2" cy="46.8" r="2.6"/>
		<circle class="st2" cx="1146.2" cy="94.3" r="2.6"/>
		<circle class="st2" cx="1146.2" cy="141.7" r="2.6"/>
		<circle class="st2" cx="1146.2" cy="189.2" r="2.6"/>
		<circle class="st2" cx="1146.2" cy="236.6" r="2.6"/>
		<circle class="st2" cx="1187.7" cy="-71.4" r="2.6"/>
		<circle class="st2" cx="1187.7" cy="-24" r="2.6"/>
		<circle class="st2" cx="1187.7" cy="23.5" r="2.6"/>
		<circle class="st2" cx="1187.7" cy="70.9" r="2.6"/>
		<circle class="st2" cx="1187.7" cy="118.4" r="2.6"/>
		<circle class="st2" cx="1187.7" cy="165.8" r="2.6"/>
		<circle class="st2" cx="1187.7" cy="213.3" r="2.6"/>
		<circle class="st2" cx="1187.7" cy="260.7" r="2.6"/>
		<circle class="st2" cx="1228.8" cy="-47.7" r="2.6"/>
		<circle class="st2" cx="1228.8" cy="-0.2" r="2.6"/>
		<circle class="st2" cx="1228.8" cy="47.2" r="2.6"/>
		<circle class="st2" cx="1228.8" cy="94.7" r="2.6"/>
		<circle class="st2" cx="1228.8" cy="142.1" r="2.6"/>
		<circle class="st2" cx="1228.8" cy="189.6" r="2.6"/>
		<circle class="st2" cx="1228.8" cy="237" r="2.6"/>
		<circle class="st2" cx="1269.1" cy="-72.2" r="2.6"/>
		<circle class="st2" cx="1269.1" cy="-24.8" r="2.6"/>
		<circle class="st2" cx="1269.1" cy="22.7" r="2.6"/>
		<circle class="st2" cx="1269.1" cy="70.1" r="2.6"/>
		<circle class="st2" cx="1269.1" cy="117.6" r="2.6"/>
		<circle class="st2" cx="1269.1" cy="165" r="2.6"/>
		<circle class="st2" cx="1269.1" cy="212.5" r="2.6"/>
		<circle class="st2" cx="1269.1" cy="259.9" r="2.6"/>
		<circle class="st2" cx="1309.8" cy="-48" r="2.6"/>
		<circle class="st2" cx="1309.8" cy="-0.5" r="2.6"/>
		<circle class="st2" cx="1309.8" cy="46.9" r="2.6"/>
		<circle class="st2" cx="1309.8" cy="94.4" r="2.6"/>
		<circle class="st2" cx="1309.8" cy="141.8" r="2.6"/>
		<circle class="st2" cx="1309.8" cy="189.3" r="2.6"/>
		<circle class="st2" cx="1309.8" cy="236.7" r="2.6"/>
		<circle class="st2" cx="1351.3" cy="-71.4" r="2.6"/>
		<circle class="st2" cx="1351.3" cy="-23.9" r="2.6"/>
		<circle class="st2" cx="1351.3" cy="23.5" r="2.6"/>
		<circle class="st2" cx="1351.3" cy="71" r="2.6"/>
		<circle class="st2" cx="1351.3" cy="118.4" r="2.6"/>
		<circle class="st2" cx="1351.3" cy="165.9" r="2.6"/>
		<circle class="st2" cx="1351.3" cy="213.3" r="2.6"/>
		<circle class="st2" cx="1351.3" cy="260.8" r="2.6"/>
		<circle class="st2" cx="1392.4" cy="-47.6" r="2.6"/>
		<circle class="st2" cx="1392.4" cy="-0.1" r="2.6"/>
		<circle class="st2" cx="1392.4" cy="47.3" r="2.6"/>
		<circle class="st2" cx="1392.4" cy="94.8" r="2.6"/>
		<circle class="st2" cx="1392.4" cy="142.2" r="2.6"/>
		<circle class="st2" cx="1392.4" cy="189.7" r="2.6"/>
		<circle class="st2" cx="1392.4" cy="237.1" r="2.6"/>
		<circle class="st2" cx="1432.7" cy="-72.1" r="2.6"/>
		<circle class="st2" cx="1432.7" cy="-24.7" r="2.6"/>
		<circle class="st2" cx="1432.7" cy="22.8" r="2.6"/>
		<circle class="st2" cx="1432.7" cy="70.2" r="2.6"/>
		<circle class="st2" cx="1432.7" cy="117.7" r="2.6"/>
		<circle class="st2" cx="1432.7" cy="165.1" r="2.6"/>
		<circle class="st2" cx="1432.7" cy="212.6" r="2.6"/>
		<circle class="st2" cx="1432.7" cy="260" r="2.6"/>
		<path class="st3" d="M1015.4-66l-22.9,13.7c-3.3,2-3.3,6.8,0,8.7l23,13.4c4.5,2.7,10.1,2.7,14.7,0.1l23.6-13.5
			c3.4-1.9,3.4-6.8,0-8.8l-23.6-13.7C1025.8-68.8,1020-68.7,1015.4-66z"/>
		<circle class="st2" cx="1473.9" cy="-48.3" r="2.6"/>
		<circle class="st2" cx="1473.9" cy="-0.9" r="2.6"/>
		<circle class="st2" cx="1473.9" cy="46.6" r="2.6"/>
		<circle class="st2" cx="1473.9" cy="94" r="2.6"/>
		<circle class="st2" cx="1473.9" cy="141.5" r="2.6"/>
		<circle class="st2" cx="1473.9" cy="188.9" r="2.6"/>
		<circle class="st2" cx="1473.9" cy="236.4" r="2.6"/>
		<circle class="st2" cx="1515.4" cy="-71.7" r="2.6"/>
		<circle class="st2" cx="1515.4" cy="-24.2" r="2.6"/>
		<circle class="st2" cx="1515.4" cy="23.2" r="2.6"/>
		<circle class="st2" cx="1515.4" cy="70.7" r="2.6"/>
		<circle class="st2" cx="1515.4" cy="118.1" r="2.6"/>
		<circle class="st2" cx="1515.4" cy="165.6" r="2.6"/>
		<circle class="st2" cx="1515.4" cy="213" r="2.6"/>
		<circle class="st2" cx="1515.4" cy="260.5" r="2.6"/>
		<circle class="st2" cx="1556.5" cy="-47.9" r="2.6"/>
		<circle class="st2" cx="1556.5" cy="-0.5" r="2.6"/>
		<circle class="st2" cx="1556.5" cy="47" r="2.6"/>
		<circle class="st2" cx="1556.5" cy="94.4" r="2.6"/>
		<circle class="st2" cx="1556.5" cy="141.9" r="2.6"/>
		<circle class="st2" cx="1556.5" cy="189.3" r="2.6"/>
		<circle class="st2" cx="1556.5" cy="236.8" r="2.6"/>
		<circle class="st2" cx="1596.8" cy="-72.5" r="2.6"/>
		<circle class="st2" cx="1596.8" cy="-25" r="2.6"/>
		<circle class="st2" cx="1596.8" cy="22.4" r="2.6"/>
		<circle class="st2" cx="1596.8" cy="69.9" r="2.6"/>
		<circle class="st2" cx="1596.8" cy="117.3" r="2.6"/>
		<circle class="st2" cx="1596.8" cy="164.8" r="2.6"/>
		<circle class="st2" cx="1596.8" cy="212.2" r="2.6"/>
		<circle class="st2" cx="1596.8" cy="259.7" r="2.6"/>
		<circle class="st2" cx="1638.3" cy="-48.4" r="2.6"/>
		<circle class="st2" cx="1638.3" cy="-1" r="2.6"/>
		<circle class="st2" cx="1638.3" cy="46.5" r="2.6"/>
		<circle class="st2" cx="1638.3" cy="93.9" r="2.6"/>
		<circle class="st2" cx="1638.3" cy="141.4" r="2.6"/>
		<circle class="st2" cx="1638.3" cy="188.8" r="2.6"/>
		<circle class="st2" cx="1638.3" cy="236.3" r="2.6"/>
		<circle class="st2" cx="1679.8" cy="-71.8" r="2.6"/>
		<circle class="st2" cx="1679.8" cy="-24.3" r="2.6"/>
		<circle class="st2" cx="1679.8" cy="23.1" r="2.6"/>
		<circle class="st2" cx="1679.8" cy="70.6" r="2.6"/>
		<circle class="st2" cx="1679.8" cy="118" r="2.6"/>
		<circle class="st2" cx="1679.8" cy="165.5" r="2.6"/>
		<circle class="st2" cx="1679.8" cy="212.9" r="2.6"/>
		<circle class="st2" cx="1679.8" cy="260.4" r="2.6"/>
		<circle class="st2" cx="1720.9" cy="-48" r="2.6"/>
		<circle class="st2" cx="1720.9" cy="-0.6" r="2.6"/>
		<circle class="st2" cx="1720.9" cy="46.9" r="2.6"/>
		<circle class="st2" cx="1720.9" cy="94.3" r="2.6"/>
		<circle class="st2" cx="1720.9" cy="141.8" r="2.6"/>
		<circle class="st2" cx="1720.9" cy="189.2" r="2.6"/>
		<circle class="st2" cx="1720.9" cy="236.7" r="2.6"/>
		<circle class="st2" cx="1761.2" cy="-72.6" r="2.6"/>
		<circle class="st2" cx="1761.2" cy="-25.1" r="2.6"/>
		<circle class="st2" cx="1761.2" cy="22.3" r="2.6"/>
		<circle class="st2" cx="1761.2" cy="69.8" r="2.6"/>
		<circle class="st2" cx="1761.2" cy="117.2" r="2.6"/>
		<circle class="st2" cx="1761.2" cy="164.7" r="2.6"/>
		<circle class="st2" cx="1761.2" cy="212.1" r="2.6"/>
		<circle class="st2" cx="1761.2" cy="259.6" r="2.6"/>
		<circle class="st2" cx="1801.9" cy="-48.3" r="2.6"/>
		<circle class="st2" cx="1801.9" cy="-0.9" r="2.6"/>
		<circle class="st2" cx="1801.9" cy="46.6" r="2.6"/>
		<circle class="st2" cx="1801.9" cy="94" r="2.6"/>
		<circle class="st2" cx="1801.9" cy="141.5" r="2.6"/>
		<circle class="st2" cx="1801.9" cy="188.9" r="2.6"/>
		<circle class="st2" cx="1801.9" cy="236.4" r="2.6"/>
		<circle class="st2" cx="1843.4" cy="-71.7" r="2.6"/>
		<circle class="st2" cx="1843.4" cy="-24.2" r="2.6"/>
		<circle class="st2" cx="1843.4" cy="23.2" r="2.6"/>
		<circle class="st2" cx="1843.4" cy="70.7" r="2.6"/>
		<circle class="st2" cx="1843.4" cy="118.1" r="2.6"/>
		<circle class="st2" cx="1843.4" cy="165.6" r="2.6"/>
		<circle class="st2" cx="1843.4" cy="213" r="2.6"/>
		<circle class="st2" cx="1843.4" cy="260.5" r="2.6"/>
		<circle class="st2" cx="1884.5" cy="-47.9" r="2.6"/>
		<circle class="st2" cx="1884.5" cy="-0.5" r="2.6"/>
		<circle class="st2" cx="1884.5" cy="47" r="2.6"/>
		<circle class="st2" cx="1884.5" cy="94.4" r="2.6"/>
		<circle class="st2" cx="1884.5" cy="141.9" r="2.6"/>
		<circle class="st2" cx="1884.5" cy="189.3" r="2.6"/>
		<circle class="st2" cx="1884.5" cy="236.8" r="2.6"/>
		<circle class="st2" cx="1924.8" cy="-72.5" r="2.6"/>
		<circle class="st2" cx="1924.8" cy="-25" r="2.6"/>
		<circle class="st2" cx="1924.8" cy="22.4" r="2.6"/>
		<circle class="st2" cx="1924.8" cy="69.9" r="2.6"/>
		<circle class="st2" cx="1924.8" cy="117.3" r="2.6"/>
		<circle class="st2" cx="1924.8" cy="164.8" r="2.6"/>
		<circle class="st2" cx="1924.8" cy="212.2" r="2.6"/>
		<circle class="st2" cx="1924.8" cy="259.7" r="2.6"/>
		<path class="st3" d="M1507.6-66.3l-22.9,13.7c-3.3,2-3.3,6.8,0,8.7l23,13.4c4.5,2.7,10.1,2.7,14.7,0.1l23.6-13.5
			c3.4-1.9,3.4-6.8,0-8.8l-23.6-13.7C1517.9-69.1,1512.2-69.1,1507.6-66.3z"/>
	</g>
</g>
<g id="Illustration">
	<g>
		<g class="st5">
			<g>
				<g>
					<path class="st6" d="M625.2,1079.6c-8,0-14.6-6.1-15.2-13.8c-0.9-13.9-5.9-57.1-5.9-57.5c-2-11-4.1-20.2-6.6-28.1
						c-12.2-39.7-79.3-74.1-80-74.4l-0.3-0.1h-1l0,0c-1.2-0.4-3.4-0.9-7-1.9c-6.6-1.7-12.9-3.6-18.9-5.8c-0.1-0.1-0.2-0.1-0.3-0.1
						c-38.3-14.1-57.8-37-67.4-53.7c-10.6-18.4-15.1-39.4-12.1-56.2c1.9-10.5,6.5-17,12.1-17c0.3,0,0.6,0,0.9,0
						c1.8,0.2,3.5,0.3,5,0.3c4.2,0,7-0.8,8.6-2.5c1-1.1,1.4-2.4,1.3-4l0-0.3l-0.1-0.2c-1.2-2.1-2.3-4.2-3.3-6.2l-0.2-0.5l-0.5-0.1
						c-26.9-7-40.8-30.6-45.2-76.4c-5-52.2-0.7-71,13.3-133.3c2.7-11.8,5.7-25.2,9.1-40.6c0.8-4,1.8-7.8,2.8-11.7
						c19-71.7,60.6-108.7,88.1-133.2c6-5.3,11.1-9.9,15.5-14.3c12.6-12.7,30.6-24.1,50.8-32l1.1-0.4l-0.4-1.1
						c-15.6-43.6-2.5-78,11.1-99.2c16.4-25.4,38-39.8,44.2-42.8c1.4-0.7,3-1,4.7-1c13.5,0,30.1,22.2,30.2,22.5l1,1.3l0.9-1.4
						c0.2-0.2,15.2-22.4,28.3-22.4c1.6,0,3.2,0.4,4.6,1c6.3,3,27.9,17.4,44.3,42.8c13.7,21.2,26.7,55.6,11.1,99.2l-0.4,1.1l1.1,0.4
						c20.2,7.9,38.3,19.3,50.9,32c4.3,4.4,9.5,9,15.5,14.3c27.5,24.5,69.1,61.5,88,133.2c1,3.9,2,7.7,2.8,11.7
						c3.4,15.4,6.4,28.8,9.1,40.5c14.1,62.4,18.4,81.2,13.4,133.4c-4.4,45.7-18.2,69.2-44.8,76.3l-0.3,0.1l-0.2,0.2
						c-0.1,0.1-0.2,0.2-0.2,0.3c0,0-0.1,0.1-0.1,0.1l-0.1,0.1l-0.1,0.2c0,0,0,0.1,0,0.1l-0.3,0.3l-0.1,0.1c-2.9,3.7-3.8,6.8-2.7,9
						c1.1,2.3,4.1,3.4,9,3.4c1.6,0,3.4-0.1,5.4-0.3c0.3,0,0.6,0,0.9,0c5.6,0,10.2,6.5,12.1,17.1c3,16.8-1.5,37.8-12.1,56.2
						c-9.6,16.7-29.1,39.6-67.3,53.7h-0.3l-0.2,0.2c-3.4,1.2-7,2.4-8.9,3c-1.5,0.5-2.1,0.7-2.1,1.4c-16,7.8-83.8,42.5-94.5,77.6
						c-3.5,11.5-9.2,39.9-9.2,40.2c-2,13.6-3.6,28.4-4.8,45.4c-0.5,7.7-7.2,13.8-15.2,13.8H625.2z"/>
					<path class="st2" d="M689.7,172.6c1.4,0,2.8,0.3,4.1,0.9c7.8,3.8,28.7,19.1,43.8,42.4c8.8,13.6,14.4,28,16.8,42.8
						c2.9,17.9,0.9,36.6-5.8,55.3l-0.8,2.2l2.1,0.8c20.1,7.9,38,19.1,50.4,31.8c4.4,4.4,9.5,9,15.5,14.3
						c27.4,24.4,68.8,61.3,87.7,132.6c1,3.9,2,7.7,2.8,11.7c3.4,15.4,6.4,28.8,9.1,40.5c14.1,62.2,18.3,81,13.4,133
						c-2.3,23.7-7.1,41.3-14.9,53.7c-7,11.2-16.5,18.3-29,21.6l-0.7,0.2l-0.5,0.5c-0.1,0.1-0.2,0.2-0.3,0.4l0,0.1l-0.3,0.3l-0.1,0.3
						l-0.1,0l-0.2,0.1l-0.1,0.2c-3.2,4.1-4.1,7.6-2.8,10.2c1.3,2.7,4.6,4,10.1,4c1.6,0,3.5-0.1,5.6-0.4c0.2,0,0.5,0,0.7,0
						c4.9,0,9.2,6.3,10.9,16.1c2.9,16.6-1.5,37.3-12,55.4c-9.5,16.6-28.8,39.2-66.8,53.2c-0.1,0-0.2,0.1-0.3,0.1
						c-3.4,1.2-7,2.4-8.9,3c-1.2,0.4-2.4,0.8-2.8,1.7c-8.8,4.3-28.2,14.2-47.5,27.4c-26.6,18.1-42.4,35.2-47.1,50.6
						c-3.5,11.5-9,39.2-9.2,40.3l0,0.1l0,0.1c-2,13.5-3.6,28.4-4.8,45.4c-0.5,7.1-6.6,12.7-14,12.7h-30.3h-3.3h-34.9
						c-7.3,0-13.5-5.6-14-12.7c-0.9-13.9-5.9-57.1-5.9-57.5l0-0.1l0-0.1c-2-11-4.1-20.2-6.6-28.2c-12.3-40.2-79.9-74.8-80.6-75.1
						l-0.5-0.3H517l-0.7,0c-1.3-0.4-3.4-0.9-6.8-1.8c-6.5-1.6-12.8-3.5-18.7-5.7c-0.1-0.1-0.3-0.1-0.4-0.2
						c-37.9-14-57.2-36.6-66.7-53.2c-10.4-18.2-14.9-38.9-11.9-55.4c1.7-9.8,6-16.1,10.9-16.1c0.2,0,0.5,0,0.7,0
						c1.9,0.2,3.6,0.3,5.1,0.3c4.5,0,7.6-0.9,9.4-2.9c1.2-1.3,1.8-3,1.6-4.9l0-0.5l-0.3-0.5c-1.2-2.1-2.3-4.1-3.3-6.1l-0.5-0.9
						l-1-0.3c-26.3-6.8-40-30.1-44.3-75.4c-5-52-0.7-70.8,13.3-132.9c2.7-11.8,5.7-25.2,9.1-40.6c0.8-3.9,1.8-7.8,2.8-11.7
						c18.9-71.4,60.3-108.2,87.7-132.6c6-5.3,11.2-9.9,15.5-14.3c12.5-12.6,30.4-23.9,50.4-31.8l2.1-0.8l-0.8-2.1
						c-6.7-18.8-8.7-37.4-5.8-55.3c2.4-14.8,8-29.2,16.8-42.8c16.2-25.2,37.6-39.4,43.8-42.4c1.3-0.6,2.6-0.9,4.1-0.9
						c10.7,0,24.8,15.9,29.3,22l2,2.7l1.9-2.8C666.4,188.4,679.3,172.6,689.7,172.6 M689.7,170.2c-13.9,0-29.3,22.9-29.3,22.9
						s-16.9-22.9-31.2-22.9c-1.8,0-3.5,0.4-5.2,1.2c-14.9,7.2-85.7,60.3-56,143.5c-19.8,7.8-38.2,19.1-51.2,32.3
						c-24.8,25-80.7,60.8-103.8,148c-1,3.8-2,7.7-2.9,11.8c-20.9,95.9-28.4,111.9-22.4,174.3c4.8,49.7,20.8,70.9,46.1,77.4
						c1.1,2.1,2.2,4.2,3.4,6.2c0.2,2.9-1.7,5.3-8.7,5.3c-1.4,0-3-0.1-4.9-0.3c-0.3,0-0.7-0.1-1-0.1c-23.1,0-28.3,94.3,67.1,129.3
						c0,0,0,0,0.1,0c6,2.2,12.3,4.1,19.1,5.8c0,0,8.2,2.1,8.4,2.3c0,0-0.4-0.4-0.3-0.4c3.9,2,67.7,35.7,79.4,73.7
						c2.6,8.6,4.8,18.1,6.5,27.9c0,0,5,43.4,5.9,57.4c0.6,8.4,7.7,14.9,16.3,14.9h34.9h3.3h30.3c8.6,0,15.8-6.5,16.3-14.9
						c0.8-11.4,2.2-28,4.8-45.2c0,0,5.7-28.6,9.2-40.1c10.7-35.3,80.8-70.6,94.8-77.3c0.1-0.1,0.3-0.5,0.4-0.6
						c-0.4,0.1-0.6,0.2-0.6,0.2c-0.1,0,5.5-1.8,10.5-3.6c0,0,0,0,0.1,0c95.4-35,90.2-129.3,67.1-129.3c-0.3,0-0.7,0-1,0.1
						c-2,0.2-3.8,0.3-5.3,0.3c-11.7,0-8.5-6.5-5.4-10.5l0.5-0.4c0-0.1,0-0.2,0.1-0.3c0.1-0.1,0.2-0.3,0.4-0.4
						c25-6.7,40.9-27.9,45.6-77.3c6-62.4-1.5-78.4-22.5-174.3c-0.9-4-1.9-7.9-2.9-11.8c-23-87.2-79-123-103.8-148
						c-13-13.2-31.4-24.5-51.3-32.3c29.8-83.2-41.1-136.3-56-143.5C693.1,170.6,691.4,170.2,689.7,170.2L689.7,170.2z"/>
				</g>
				<g>
					<path class="st7" d="M657.5,193.2c0,0-19.4-29.1-34.4-21.8s-86.7,61-55.3,145.3"/>
					<path class="st7" d="M657.5,360.2c0,0,6-55.2-31.4-56.7c-37.4-1.5-84.3,17.4-110.2,43.6C490,373.3,430.2,411.1,409.2,507
						c-20.9,95.9-28.4,111.9-22.4,174.3c6,62.5,29.9,79.9,67.3,79.9c12.9,0,38.6-5.7,67.2-15.2c54.3-18,118.8-49.8,125.7-82.1
						C657.5,614.5,657.5,360.2,657.5,360.2z"/>
					<path class="st7" d="M531.9,761.2c0,0,13.5,32,65.8,32s59.8-32,59.8-32"/>
					<path class="st7" d="M574,725c0,0,31.1,36.2,83.5,23.1"/>
					<g>
						<path class="st6" d="M629.5,690.3c0,0,19.1,14.8,41.5,0"/>
						<path class="st2" d="M630.2,689.4c1.3,1,2.9,2,4.5,2.8c0.8,0.4,1.6,0.8,2.4,1.2c0.8,0.3,1.7,0.7,2.5,1c3.4,1.2,7,1.9,10.6,1.9
							c3.6,0.1,7.3-0.3,10.8-1.5c1.8-0.4,3.4-1.2,5.1-1.9l0.6-0.3l0.6-0.3l1.2-0.7l2.4-1.3l-2.3,1.5l-1.2,0.7l-0.6,0.4l-0.6,0.3
							c-1.7,0.8-3.3,1.7-5.1,2.2c-3.5,1.3-7.2,1.9-10.9,2.1c-3.7,0.1-7.5-0.4-11.1-1.4c-0.9-0.3-1.8-0.6-2.7-0.9
							c-0.9-0.4-1.8-0.7-2.6-1.1c-1.7-0.8-3.4-1.7-5-2.8L630.2,689.4z"/>
					</g>
					<path class="st8" d="M433,758.7c0,0,15.1,14-10.3,11.1c-25.4-2.9-31.4,106,85.2,135.1c0,0,42.5,13.1,66.1-13.1
						c0,0,10.9,54.2,76.1,60.6"/>
					<path class="st7" d="M515.1,906.6c0,0,67.6,34.6,79.5,73.9c8.3,27.2,11.8,64.8,13.2,85.4c0.6,8.4,7.7,14.8,16.3,14.8h38.1"/>
					<g>
						<path class="st6" d="M438.6,765.8c0,0,41.9-5.8,59.8,23.2"/>
						<path class="st2" d="M438.5,764.6c5.8-0.6,11.4-0.4,17.1,0.2c5.7,0.6,11.3,1.8,16.6,3.7c5.4,1.9,10.5,4.5,15,8
							c4.5,3.4,8.3,7.8,11.2,12.6c-3.1-4.7-7-8.9-11.6-12.1c-4.6-3.3-9.7-5.6-15-7.3c-5.3-1.6-10.9-2.6-16.4-3
							c-5.5-0.4-11.2-0.3-16.6,0.4L438.5,764.6z"/>
					</g>
					<g>
						<path class="st6" d="M521.3,745.9c0,0,35.2,48.6,38.6,79.1"/>
						<path class="st2" d="M522.3,745.3c4.2,6.1,8.2,12.4,12,18.7c3.8,6.3,7.5,12.8,10.9,19.4c3.4,6.6,6.5,13.3,9.1,20.3
							c1.3,3.5,2.5,7,3.5,10.6c1,3.6,1.7,7.2,2.1,10.9c-0.5-3.7-1.3-7.3-2.4-10.8c-1.1-3.5-2.3-7-3.7-10.4
							c-2.8-6.8-6.1-13.4-9.6-19.9c-3.5-6.5-7.3-12.8-11.3-19c-4-6.2-8.1-12.3-12.4-18.3L522.3,745.3z"/>
					</g>
					<g>
						<path class="st6" d="M574,810.6c0,0,3.4,42.1,83.8,37.8"/>
						<path class="st2" d="M575.2,810.5c0.2,1.8,0.8,3.9,1.5,5.7c0.7,1.9,1.6,3.7,2.6,5.5c1,1.8,2.2,3.4,3.5,5
							c1.3,1.5,2.7,3,4.3,4.4c6.1,5.5,13.6,9.3,21.4,11.9c3.9,1.4,8,2.3,12,3.1c4.1,0.7,8.2,1.4,12.3,1.7c8.3,0.8,16.6,0.9,25,0.5
							c-8.3,0.5-16.7,0.6-25,0c-4.2-0.3-8.3-0.8-12.5-1.4c-4.1-0.8-8.2-1.6-12.2-2.9c-8-2.4-15.8-6.2-22.2-11.7
							c-1.6-1.4-3.1-2.9-4.5-4.5c-1.4-1.6-2.7-3.3-3.8-5.1c-1.1-1.8-2.1-3.7-2.9-5.7c-0.8-2-1.4-4-1.7-6.3c-0.1-0.6,0.4-1.2,1-1.3
							s1.2,0.4,1.3,1C575.2,810.3,575.2,810.4,575.2,810.5L575.2,810.5z"/>
					</g>
					<g>
						<path class="st6" d="M435.6,801.8c0,0-10.7,53.7,53.3,97.3"/>
						<path class="st2" d="M435.6,801.8c-0.7,4.8-0.7,9.7-0.3,14.5c0.4,4.8,1.2,9.6,2.4,14.3c2.4,9.4,6.3,18.4,11.3,26.7
							c2.5,4.1,5.3,8.1,8.3,11.9l2.3,2.8l1.2,1.4l1.2,1.3l2.5,2.7c0.8,0.9,1.7,1.7,2.6,2.6c6.9,6.8,14.5,12.8,22.5,18.2l-1.3,1.9
							c-8-5.6-15.6-11.9-22.4-18.9c-0.8-0.9-1.7-1.7-2.5-2.6l-2.4-2.7l-1.2-1.4l-1.2-1.4l-2.3-2.9c-2.9-3.9-5.7-7.9-8.2-12.2
							c-4.9-8.5-8.7-17.6-10.8-27.1c-1.1-4.8-1.8-9.6-2.1-14.5C434.7,811.5,434.8,806.6,435.6,801.8z"/>
					</g>
					<path class="st7" d="M749.2,316.7c31.4-84.3-40.4-138-55.3-145.3c-15-7.3-34.4,21.8-34.4,21.8s6.4,127.7-13.5,119"/>
					<path class="st7" d="M659.4,360.2c0,0-6-55.2,31.4-56.7c37.4-1.5,84.3,17.4,110.2,43.6c25.9,26.1,85.7,63.9,106.7,159.8
						c20.9,95.9,28.4,111.9,22.4,174.3c-6,62.5-29.9,79.9-67.3,79.9c-12.9,0-38.6-5.7-67.2-15.2c-54.3-18-118.8-49.8-125.7-82.1
						C659.4,614.5,659.4,360.2,659.4,360.2z"/>
					<path class="st7" d="M785.1,761.2c0,0-13.5,32-65.8,32s-59.8-32-59.8-32"/>
					<path class="st7" d="M742.9,725c0,0-31.1,36.2-83.5,23.1"/>
					<g>
						<path class="st6" d="M687.5,690.3c0,0-19.1,14.8-41.5,0"/>
						<path class="st2" d="M688.2,691.2c-1.7,1.1-3.3,2-5,2.8c-0.9,0.4-1.7,0.7-2.6,1.1c-0.9,0.3-1.8,0.6-2.7,0.9
							c-3.6,1.1-7.4,1.6-11.1,1.4c-3.7-0.1-7.5-0.7-10.9-2.1c-1.8-0.5-3.4-1.4-5.1-2.2l-0.6-0.3l-0.6-0.4l-1.2-0.7l-2.3-1.5l2.4,1.3
							l1.2,0.7l0.6,0.3l0.6,0.3c1.7,0.7,3.4,1.5,5.1,1.9c3.5,1.1,7.2,1.5,10.8,1.5c3.6-0.1,7.2-0.8,10.6-1.9c0.8-0.3,1.7-0.7,2.5-1
							c0.8-0.4,1.6-0.7,2.4-1.2c1.6-0.8,3.1-1.8,4.5-2.8L688.2,691.2z"/>
					</g>
					<path class="st8" d="M884,758.7c0,0-15.1,14,10.3,11.1s31.4,106-85.2,135.1c0,0-42.5,13.1-66.1-13.1c0,0-10.5,52-72.1,60.1"/>
					<path class="st7" d="M819.6,902c0,0-85.4,39.3-97.3,78.5c-8.3,27.2-11.8,64.8-13.2,85.4c-0.6,8.4-7.7,14.8-16.3,14.8h-33.6"/>
					<g>
						<path class="st6" d="M882,769.9c0,0-41.9-5.8-59.8,23.2"/>
						<path class="st2" d="M881.8,771c-5.4-0.7-11.1-0.8-16.6-0.4c-5.6,0.4-11.1,1.4-16.4,3c-5.3,1.7-10.5,4-15,7.3
							c-4.6,3.2-8.5,7.4-11.6,12.1c2.9-4.8,6.7-9.2,11.2-12.6c4.5-3.5,9.6-6.1,15-8c5.4-1.9,11-3.1,16.6-3.7
							c5.7-0.6,11.3-0.7,17.1-0.2L881.8,771z"/>
					</g>
					<g>
						<path class="st6" d="M795.6,745.9c0,0-35.2,48.6-38.6,79.1"/>
						<path class="st2" d="M796.6,746.6c-4.3,5.9-8.5,12.1-12.4,18.3c-4,6.2-7.8,12.6-11.3,19c-3.5,6.5-6.8,13.1-9.6,19.9
							c-1.4,3.4-2.7,6.9-3.7,10.4c-1.1,3.5-1.9,7.1-2.4,10.8c0.4-3.7,1.1-7.3,2.1-10.9c1-3.6,2.1-7.1,3.5-10.6
							c2.6-6.9,5.8-13.7,9.1-20.3c3.4-6.6,7-13.1,10.9-19.4c3.8-6.4,7.8-12.6,12-18.7L796.6,746.6z"/>
					</g>
					<g>
						<path class="st6" d="M742.9,810.6c0,0-3.4,42.1-83.8,37.8"/>
						<path class="st2" d="M744.1,810.6c-0.3,2.3-1,4.3-1.7,6.3c-0.8,2-1.8,3.9-2.9,5.7c-1.1,1.8-2.4,3.5-3.8,5.1
							c-1.4,1.6-2.9,3.1-4.5,4.5c-6.5,5.5-14.2,9.3-22.2,11.7c-4,1.3-8.1,2.1-12.2,2.9c-4.1,0.7-8.3,1.2-12.5,1.4
							c-8.3,0.6-16.7,0.5-25,0c8.3,0.3,16.7,0.2,25-0.5c4.1-0.4,8.3-1,12.3-1.7c4.1-0.9,8.1-1.8,12-3.1c7.9-2.6,15.3-6.4,21.4-11.9
							c1.5-1.4,2.9-2.8,4.3-4.4c1.3-1.6,2.5-3.2,3.5-5c1-1.7,1.9-3.6,2.6-5.5c0.7-1.9,1.3-3.9,1.5-5.7l0-0.1c0.1-0.6,0.7-1.1,1.3-1
							S744.1,810,744.1,810.6C744.1,810.6,744.1,810.6,744.1,810.6z"/>
					</g>
					<g>
						<path class="st6" d="M881.3,801.8c0,0,10.7,53.7-53.3,97.3"/>
						<path class="st2" d="M881.3,801.8c0.8,4.8,0.9,9.7,0.6,14.6c-0.3,4.9-1,9.7-2.1,14.5c-2.2,9.5-6,18.6-10.8,27.1
							c-2.5,4.2-5.2,8.3-8.2,12.2l-2.3,2.9l-1.2,1.4l-1.2,1.4l-2.4,2.7c-0.8,0.9-1.7,1.8-2.5,2.6c-6.8,7-14.4,13.3-22.4,18.9
							l-1.3-1.9c8-5.4,15.6-11.4,22.5-18.2c0.9-0.9,1.7-1.7,2.6-2.6l2.5-2.7l1.2-1.3l1.2-1.4l2.3-2.8c3-3.8,5.8-7.7,8.3-11.9
							c5-8.3,8.9-17.2,11.3-26.7c1.2-4.7,2-9.5,2.4-14.3C882,811.5,882,806.7,881.3,801.8z"/>
					</g>
					<path class="st7" d="M677.4,307.2c0,0-18.9,6-17.9-35.1"/>
					<line class="st8" x1="659.1" y1="707.4" x2="657.5" y2="781.3"/>
				</g>
				<path class="st2" d="M905,490c-14.8-42.1-46.7-95.3-79.8-119.7c-0.6-1.1-1.3-2.1-1.9-3.2c-6.1-8.9-18.9-6-21.5,4.7
					c-3,12.3-7.3,30.9-8.8,42.5c-25-8.7-38.2,27.5-38.2,27.5s-34.4,30.9-47,51.5C697,511,684.1,546,688.3,577.3
					c1.1,7.9,5.9,14.4,12.5,17.6l-2-0.6c0,0,14.6,44.6,82.2,35.4h0.1c4.7,1.8,10.5,3.3,17.5,4.6c35.5,6.5,47.4-5.4,48.1-18.3
					c6.3,2.1,12.1,4.6,20.9,3.5c0,0.3,55.2,18.7,55.2-1.9C922.8,597,923.6,542.9,905,490z"/>
			</g>
		</g>
		<g class="st5">
			<path class="st7" d="M726.3,593.9C726.3,593.9,726.3,593.9,726.3,593.9c-0.1,0.1-0.1,0-0.1,0L726.3,593.9z"/>
			<path class="st7" d="M853.5,558c-6.6,20.8-6.7,41.7-6.8,55.6c0,0.8,0,1.5-0.1,2.3c-0.8,13.1-8.7,25.1-45.3,18.3
				c-7.3-1.4-13.2-2.9-18.1-4.8l-0.1,0c0,0-0.1,0-0.2-0.1c0,0-0.1,0-0.1,0c-0.4-0.1-0.7-0.2-1-0.4c-1.2-0.5-2.8-1.2-3-1.3
				c0,0,0,0,0,0c-1.9-0.9-3.6-1.9-5.2-3.1c-1.7-1.3-3.3-2.7-4.7-4.2c-0.7-0.8-1.3-1.5-2-2.3c-1.3-1.5-2.4-3.1-3.5-4.7
				c-0.4-0.6-0.9-1.3-1.3-2c-3.8-6.3-5.7-11.8-5.9-12.2c-2.8-6.2,0.7-16.4,6.7-27.8c0.7-1.4,1.5-2.8,2.3-4.2l0-0.1
				c7.4-13,17.2-26.9,23.7-37.3c13-20.8,0.5-83.5,0.5-83.5c2-6.5,5.9-8.2,10.9-6.9c1.4,0.3,2.9,0.9,4.4,1.7c2.1,2.2,4.6,4.3,7.5,6.3
				c0,0,0.5,0.3,1.3,0.8c0.9,0.6,1.9,1.2,2.8,1.8c0.7,0.4,1.4,0.9,2.1,1.3c7.5,6.8,15.5,15.5,22.5,23.2
				C860.3,495.4,860.1,537.2,853.5,558z"/>
			<path class="st7" d="M834.5,407.7l0,0.2c0,0.2,0,0.3-0.1,0.6c-0.1,2.2-0.2,4.4-0.4,6.5c-0.1,1.9-0.3,3.8-0.5,5.8
				c0,0-0.1,0.3-0.1,0.8c-1.8,17.5-5.6,33.5-13.8,30.2c-0.3-0.1-0.7-0.2-1-0.4c-0.6-0.4-1.4-0.8-2.1-1.3c-1.1-0.6-2.1-1.3-2.8-1.8
				c-0.8-0.5-1.3-0.8-1.3-0.8c-2.9-2-5.4-4.1-7.5-6.3c-2.2-2.2-3.9-4.5-5.2-7.1c-2.5-4.6-3.6-9.7-3.5-15.5c0-0.3,0-0.8,0.1-1.3
				c0-0.5,0-1,0.1-1.7c0.1-0.3,0.1-0.6,0.1-0.9c0.1-0.6,0.1-1.2,0.2-1.7c0-0.2,0.1-0.4,0.1-0.6c0.1-0.6,0.1-0.9,0.1-0.9
				c1.6-11.8,2.9-27.4,6.1-39.9c2.7-10.8,16.7-12.2,22.9-3.2c0.7,1,3.9,3.9,4.6,5c0,0,1.8,0.8,1.8,0.9
				C832.5,376.3,833.4,388.3,834.5,407.7z"/>
			<path class="st7" d="M796.7,412.4c-0.1,0.8-0.2,2-0.3,3.2c0-0.9,0.1-1.8,0.3-2.9C796.7,412.6,796.7,412.5,796.7,412.4z"/>
			<path class="st7" d="M757.3,439.1l-0.2,0.7c-1.1,4.4-7,29-13,47.9c-4.5,14.2-9.1,44.9-11.7,69.4c-0.2,2.1-0.3,4.1-0.6,6.1
				c-0.8,8.8-1.3,16.4-1.3,21.8c0,4.2-1.7,7.1-4.3,8.8l-0.1,0c0.1,0,0.1,0.1,0.1,0.1c-4.8,3.2-12.7,2.9-19.9,1.7
				c-2-0.4-3.9-1-5.7-1.9c-6.7-3.2-11.7-9.9-12.8-17.9c-4.1-31.7,9.4-67.1,20.6-84.8C721.6,470.2,757.3,439.1,757.3,439.1z"/>
			<path class="st7" d="M726.3,593.9C726.3,593.9,726.3,593.9,726.3,593.9c-0.1,0.1-0.1,0-0.1,0L726.3,593.9z"/>
			<path class="st7" d="M783.2,629.5c-69.8,8.9-84.7-36.8-84.7-36.8l2.1,1.1c1.8,0.9,3.7,1.6,5.7,1.9c7.1,1.2,15,1.5,19.9-1.7
				c0-0.1,0.1-0.1,0.1-0.1l30,5.3c0.4,0.8,7.2,21.5,22.6,28.5C779.2,627.8,783.2,629.5,783.2,629.5z"/>
			<path class="st7" d="M726.3,593.9C726.3,593.9,726.3,593.9,726.3,593.9c-0.1,0.1-0.1,0-0.1,0L726.3,593.9z"/>
			<path class="st7" d="M756.3,599.2l-30-5.3c2.6-1.7,4.2-4.6,4.3-8.8c0-5.4,0.5-13,1.3-21.8l6.8,3c7.5,3.3,15.5,5,23.6,5l0.7,0
				C757.1,582.8,753.5,593,756.3,599.2z"/>
			<path class="st7" d="M804.9,441.1c-1.5-0.8-3-1.4-4.4-1.7c-4.7-1.3-8.4,0.2-10.5,5.9c-0.2,0.6-0.3,1.3-0.2,1.9
				c1.5,7.8,11.4,63.3-0.7,82.6c-6.5,10.4-16.3,24.3-23.7,37.3l0,0.1c-0.8,1.5-1.6,2.8-2.3,4.2l-3.2-0.1c-4.2-0.2-8.4-0.9-12.5-2
				c-0.1-0.1-0.1-0.1-0.2-0.1c-1-0.3-2.1-0.6-3.1-0.9L738,566l-6.1-2.7c0,0,0-0.1-0.1-0.1c0.1-1.6,0.3-3.2,0.5-4.9
				c0.7-7.1,1.6-14.7,2.7-22.4c0.3-2.2,0.6-4.3,0.9-6.4c1.8-12.2,3.8-24,5.9-33c0.2-1,0.4-1.9,0.7-2.8c0.5-2.2,1.1-4.2,1.7-6
				c6-18.9,12-43.5,13-47.9l0.2-0.7c0,0,13.3-32.5,39.1-23.6l0.3-3.2c-0.1,0.8-0.2,2-0.3,3.2c-0.1,0.6-0.1,1.2-0.1,1.7
				c-0.1,0.5-0.1,1-0.1,1.3c0,5.8,1,10.9,3.5,15.5C801,436.5,802.7,438.9,804.9,441.1z"/>
			<path class="st7" d="M922.8,617.6c-0.1,20.9-50.1,2.5-50.1,2.1c6.7-41.2,13.2-75.9,7.1-131.1c-0.4-3.5-0.9-6.8-1.6-10
				c-7.8-36.9-33.6-52.7-44.6-57.8c-0.1-0.1-0.1-0.1-0.1-0.1c0.1-1.9,0.3-3.8,0.5-5.8c0.2-2.2,0.3-4.4,0.4-6.5
				c0.1-0.2,0.1-0.3,0.1-0.6l0-0.2c-1-19.4-2-31.3-2.3-33.4c0-0.1,0,0,0,0c31.6,30.3,60.2,61.5,72.8,117.2S922.9,596.7,922.8,617.6z
				"/>
			<path class="st7" d="M872.7,619.7c-9.1,1.1-19.5-1.6-26-3.8c0.1-0.8,0.1-1.5,0.1-2.3c0.1-13.9,0.2-34.8,6.8-55.6
				c6.6-20.8,6.8-62.6-12.4-83.6c-7.1-7.7-15-16.4-22.5-23.2c0.3,0.2,0.7,0.4,1,0.4c8.2,3.3,12-12.7,13.8-30.2
				c0.1-0.5,0.1-0.8,0.1-0.8s0.1,0,0.1,0.1c11,5.1,36.8,20.9,44.6,57.8c0.6,3.1,1.2,6.5,1.6,10C885.8,543.8,879.4,578.5,872.7,619.7
				z"/>
		</g>
	</g>
</g>
</svg>
